<svg xmlns="http://www.w3.org/2000/svg" xmlns:xlink="http://www.w3.org/1999/xlink" width="222" height="222" viewBox="0 0 222 222">
  <defs>
    <linearGradient id="linear-gradient" x1="0.5" x2="0.5" y2="1" gradientUnits="objectBoundingBox">
      <stop offset="0" stop-color="#d80576"/>
      <stop offset="1" stop-color="#b2427e"/>
    </linearGradient>
  </defs>
  <g id="グループ_11829" data-name="グループ 11829" transform="translate(-697 -3477)">
    <circle id="楕円形_557" data-name="楕円形 557" cx="111" cy="111" r="111" transform="translate(697 3477)" fill="#0a0a0a"/>
    <path id="パス_54828" data-name="パス 54828" d="M-57.744-13.3h-5.04a13.409,13.409,0,0,1-1.926-.108v2.016a13.213,13.213,0,0,1,1.854-.09h.522v2.628c0,.828.216,1.224.81,1.44a12.661,12.661,0,0,0,3.96.342c1.872,0,4.3-.054,5.4-.108,1.656-.09,1.656-.09,2.268-.108l-.018-1.854c-2.07.2-4.356.288-6.7.288a27.586,27.586,0,0,1-3.33-.126c-.36-.072-.45-.2-.45-.558v-1.944h9.864a13.494,13.494,0,0,1,1.872.09V-13.41a12.819,12.819,0,0,1-1.854.108h-5.238v-.558a5.953,5.953,0,0,1,.108-1.26h-2.214a5.2,5.2,0,0,1,.108,1.278ZM-63.4.468a14.587,14.587,0,0,0,2.178-5.4L-63.036-5.6A11.714,11.714,0,0,1-65.16-.684ZM-58.5-4.1a9.731,9.731,0,0,1,.09-1.71h-2.124a9.285,9.285,0,0,1,.108,1.71v3.42c0,.81.2,1.17.756,1.422.5.252,1.116.306,2.97.306A28.346,28.346,0,0,0-53.73.918,1.585,1.585,0,0,0-52.362,0a6.766,6.766,0,0,0,.5-2.448,6.43,6.43,0,0,1-1.908-.63c-.036.7-.072,1.1-.072,1.206a1.8,1.8,0,0,1-.2.828c-.216.27-.756.342-2.826.342A4.5,4.5,0,0,1-58.3-.828c-.144-.072-.2-.2-.2-.522Zm4.662.648A20.9,20.9,0,0,0-56.2-6.534l-1.548.9A16.457,16.457,0,0,1-55.458-2.34ZM-48.33-.774a25.449,25.449,0,0,0-2.916-5.04L-52.9-4.95A22.32,22.32,0,0,1-50.148.306ZM-43-4.464h-.918a15.085,15.085,0,0,1-1.962-.108V-2.52a15.48,15.48,0,0,1,1.962-.108h6.048V-.414a13.119,13.119,0,0,1-.108,1.962h2.2a10.839,10.839,0,0,1-.108-1.926v-2.25h4.176a15.281,15.281,0,0,1,1.962.108V-4.572a14.7,14.7,0,0,1-1.962.108h-4.176V-7.38h2.952a16.939,16.939,0,0,1,1.8.072V-9.216a13.213,13.213,0,0,1-1.854.09h-2.9v-2.34h3.672a13.248,13.248,0,0,1,1.836.09v-1.962a12.782,12.782,0,0,1-1.836.09h-8.424c.324-.7.5-1.08.522-1.134.126-.27.162-.324.27-.54l-2.142-.432a5.2,5.2,0,0,1-.432,1.314,11.173,11.173,0,0,1-3.51,4.518A7.879,7.879,0,0,1-44.6-7.92a16.6,16.6,0,0,0,2.97-3.546h3.762v2.34H-41.8c-.486,0-.882-.018-1.26-.054A9.883,9.883,0,0,1-43-8.136Zm1.89,0V-7.38h3.24v2.916Zm17.658-3.384a14.4,14.4,0,0,1,1.548-.072h6.012a13.673,13.673,0,0,1,1.62.072v-1.4A19.193,19.193,0,0,0-11.2-7.614a8.016,8.016,0,0,1,.99-2.016,19.026,19.026,0,0,1-4.626-2.43,10.931,10.931,0,0,1-3.042-2.988h-2.142a11.853,11.853,0,0,1-2.844,3.024,16.8,16.8,0,0,1-4.518,2.5,8.36,8.36,0,0,1,1.044,1.836,16.937,16.937,0,0,0,2.88-1.548Zm1.566-1.944c-.324,0-.432,0-.738-.018A15.367,15.367,0,0,0-18.882-13.3,14.663,14.663,0,0,0-15.12-9.81c-.342.018-.5.018-.792.018Zm.18,5.2a18.638,18.638,0,0,1-1.926,3.6c-.918.054-1.458.072-1.584.072-.252,0-.558-.018-1.044-.054l.288,2.2A21.4,21.4,0,0,1-23.652.972c.72-.054,4.284-.378,6.066-.54.666-.072,1.746-.2,3.24-.4.306.432.486.684,1.08,1.566L-11.538.468A36.837,36.837,0,0,0-15.7-4.338l-1.782.792c1.008,1.044,1.314,1.368,1.89,2-2.52.27-2.52.27-5.706.45A19.567,19.567,0,0,0-19.422-4.59h6.192a16.747,16.747,0,0,1,2.106.108V-6.57a16.948,16.948,0,0,1-2.106.108H-24.444a17.679,17.679,0,0,1-2.124-.108v2.088a16.863,16.863,0,0,1,2.124-.108ZM0-8.982A2.136,2.136,0,0,0-2.142-6.84,2.136,2.136,0,0,0,0-4.7,2.136,2.136,0,0,0,2.142-6.84,2.136,2.136,0,0,0,0-8.982Zm21.654-.684v-2.376a24.727,24.727,0,0,0,4.932-1.224c.324-.108.4-.144.594-.2L25.7-15.21a14.748,14.748,0,0,1-6.066,1.53,20.924,20.924,0,0,1,.108,2.808c0,6.822-.45,9.18-2.16,11.268a8.306,8.306,0,0,1,1.782,1.188,10.967,10.967,0,0,0,1.6-3.618,23.489,23.489,0,0,0,.666-5.814h1.926V-.594a12.8,12.8,0,0,1-.108,2.124H25.56a12.419,12.419,0,0,1-.108-2.124V-7.848h.45a10.255,10.255,0,0,1,1.44.072v-2a8.9,8.9,0,0,1-1.638.108ZM14.166-7.56v1.278H12.348a9.9,9.9,0,0,1-1.674-.09v1.908a10.075,10.075,0,0,1,1.638-.09h1.17a9.266,9.266,0,0,1-3.15,3.1A6.747,6.747,0,0,1,11.25.378a9,9,0,0,0,2.97-3.33c-.036.414-.054.882-.054,1.224v1.8a10.492,10.492,0,0,1-.09,1.422h2.07A8.623,8.623,0,0,1,16.038,0V-1.8c0-.09-.018-.648-.018-.7C16-2.97,16-2.97,15.984-3.2A9.13,9.13,0,0,0,17.748-1.26a10.9,10.9,0,0,1,.864-1.71,7.9,7.9,0,0,1-1.854-1.584h.666a13.239,13.239,0,0,1,1.638.072v-1.89a9.94,9.94,0,0,1-1.638.09H16.038V-7.56H17.5a13.753,13.753,0,0,1,1.656.072V-9.414a9.917,9.917,0,0,1-1.656.09h-.36a6.471,6.471,0,0,0,.4-.792,3.5,3.5,0,0,1,.306-.666c.162-.4.162-.4.27-.63l-1.53-.432h.738a14.224,14.224,0,0,1,1.692.072V-13.7a9.9,9.9,0,0,1-1.674.09H16.11v-.27a6.6,6.6,0,0,1,.09-1.314H14.022a6.935,6.935,0,0,1,.09,1.314v.27H12.744a10.363,10.363,0,0,1-1.728-.09v1.926a14.032,14.032,0,0,1,1.692-.072h.846l-1.584.4a7.516,7.516,0,0,1,.792,2.124H12.33a9.766,9.766,0,0,1-1.674-.09v1.926a13.239,13.239,0,0,1,1.638-.072Zm2.16-4.284a10.109,10.109,0,0,1-1.008,2.52H12.852l1.6-.432a7.97,7.97,0,0,0-.774-2.088ZM32.6-4.464H31.68a15.085,15.085,0,0,1-1.962-.108V-2.52a15.479,15.479,0,0,1,1.962-.108h6.048V-.414a13.119,13.119,0,0,1-.108,1.962h2.2a10.839,10.839,0,0,1-.108-1.926v-2.25h4.176a15.281,15.281,0,0,1,1.962.108V-4.572a14.7,14.7,0,0,1-1.962.108H39.708V-7.38H42.66a16.939,16.939,0,0,1,1.8.072V-9.216a13.213,13.213,0,0,1-1.854.09h-2.9v-2.34H43.38a13.248,13.248,0,0,1,1.836.09v-1.962a12.782,12.782,0,0,1-1.836.09H34.956c.324-.7.5-1.08.522-1.134.126-.27.162-.324.27-.54l-2.142-.432a5.2,5.2,0,0,1-.432,1.314,11.173,11.173,0,0,1-3.51,4.518A7.879,7.879,0,0,1,31-7.92a16.6,16.6,0,0,0,2.97-3.546h3.762v2.34H33.8c-.486,0-.882-.018-1.26-.054A9.883,9.883,0,0,1,32.6-8.136Zm1.89,0V-7.38h3.24v2.916ZM52.146-7.848a14.4,14.4,0,0,1,1.548-.072h6.012a13.673,13.673,0,0,1,1.62.072v-1.4A19.193,19.193,0,0,0,64.4-7.614a8.016,8.016,0,0,1,.99-2.016,19.026,19.026,0,0,1-4.626-2.43,10.931,10.931,0,0,1-3.042-2.988H55.584a11.853,11.853,0,0,1-2.844,3.024,16.8,16.8,0,0,1-4.518,2.5,8.36,8.36,0,0,1,1.044,1.836,16.937,16.937,0,0,0,2.88-1.548Zm1.566-1.944c-.324,0-.432,0-.738-.018A15.367,15.367,0,0,0,56.718-13.3,14.663,14.663,0,0,0,60.48-9.81c-.342.018-.5.018-.792.018Zm.18,5.2a18.638,18.638,0,0,1-1.926,3.6c-.918.054-1.458.072-1.584.072-.252,0-.558-.018-1.044-.054l.288,2.2A21.4,21.4,0,0,1,51.948.972c.72-.054,4.284-.378,6.066-.54.666-.072,1.746-.2,3.24-.4.306.432.486.684,1.08,1.566L64.062.468A36.837,36.837,0,0,0,59.9-4.338l-1.782.792c1.008,1.044,1.314,1.368,1.89,2-2.52.27-2.52.27-5.706.45A19.567,19.567,0,0,0,56.178-4.59H62.37a16.747,16.747,0,0,1,2.106.108V-6.57a16.948,16.948,0,0,1-2.106.108H51.156a17.679,17.679,0,0,1-2.124-.108v2.088a16.863,16.863,0,0,1,2.124-.108Z" transform="translate(808 3637)" fill="#fff"/>
    <g id="カンパイアイコン1" transform="translate(733.233 3516)">
      <path id="パス_54661" data-name="パス 54661" d="M93.963,189.286l3.108,4.244a4.371,4.371,0,0,0,6.132.925l4.224-3.137a8.653,8.653,0,0,0,2.5-4.88l1.844-12.225-17.707,2.673-1.057,7A8.651,8.651,0,0,0,93.963,189.286Z" transform="translate(-42.044 -149.033)" fill="url(#linear-gradient)"/>
      <path id="パス_54662" data-name="パス 54662" d="M104.737,137.926l-.193-1.254a4.271,4.271,0,0,0-3.094-3.472l-3.167-1.107-.055-.017-.055-.014a1.126,1.126,0,0,1-.833-.922l-1.677-10.866a2.941,2.941,0,0,1,.271-1.748l4.729-6.062.114-.148.091-.161a13.352,13.352,0,0,0,1.557-8.55L99.706,85.971l-.377-2.447-2.447.377L75.617,87.18l-2.448.377.244,1.584-.318-.048L51.819,85.884l-2.448-.37L49,87.962,46.339,105.6a13.357,13.357,0,0,0,1.585,8.547l.092.159.113.147,4.749,6.047a2.939,2.939,0,0,1,.275,1.747l-1.64,10.873a1.129,1.129,0,0,1-.831.924l-.055.014-.056.017L47.409,135.2a4.274,4.274,0,0,0-3.084,3.483l-.188,1.256-.37,2.447,2.448.369,15.454,2.333,2.447.369.37-2.448.19-1.254a4.274,4.274,0,0,0-1.92-4.238l-2.692-2-.047-.034-.049-.028a1.133,1.133,0,0,1-.521-1.13l1.641-10.871a2.948,2.948,0,0,1,.778-1.588l6.321-4.378.154-.1.135-.127a13.358,13.358,0,0,0,4.034-7.7l2-13.274,1.751,11.358a13.348,13.348,0,0,0,4.06,7.685l.135.126.152.106,6.336,4.358a2.944,2.944,0,0,1,.783,1.585l1.676,10.866a1.128,1.128,0,0,1-.518,1.13l-.048.03-.047.032-2.687,2.01a4.27,4.27,0,0,0-1.9,4.244l.193,1.253.378,2.447,2.446-.377,15.447-2.382,2.447-.377ZM70.063,109.184a10.826,10.826,0,0,1-3.283,6.264l-6.5,4.5a5.4,5.4,0,0,0-1.642,3.131L57,133.951a3.6,3.6,0,0,0,1.665,3.6l2.73,2.026a1.8,1.8,0,0,1,.832,1.8l-.188,1.253L46.584,140.3l.191-1.253a1.8,1.8,0,0,1,1.325-1.476l3.207-1.13a3.6,3.6,0,0,0,2.653-2.95L55.6,122.621a5.405,5.405,0,0,0-.645-3.477l-4.88-6.216a10.819,10.819,0,0,1-1.289-6.954l2.662-17.643,21.276,3.211Zm16.781,31.5-.193-1.253a1.8,1.8,0,0,1,.827-1.8l2.723-2.034a3.6,3.6,0,0,0,1.654-3.608l-1.676-10.866a5.4,5.4,0,0,0-1.651-3.125l-6.512-4.479a10.821,10.821,0,0,1-3.3-6.254L75.994,89.627l21.264-3.279,2.718,17.634a10.825,10.825,0,0,1-1.265,6.959l-4.862,6.233a5.4,5.4,0,0,0-.633,3.478l1.675,10.866a3.607,3.607,0,0,0,2.664,2.943l3.21,1.12a1.8,1.8,0,0,1,1.332,1.471l.193,1.253Z" transform="translate(0 -71.452)" fill="url(#linear-gradient)"/>
      <path id="パス_54663" data-name="パス 54663" d="M302.346,180.165l3.1-4.254a8.662,8.662,0,0,0,.935-5.4l-1.213-7.859-17.583-1.752,1.884,12.219a8.656,8.656,0,0,0,2.519,4.872l4.232,3.123a4.372,4.372,0,0,0,6.13-.945Z" transform="translate(-208.575 -137.641)" fill="url(#linear-gradient)"/>
      <path id="パス_54664" data-name="パス 54664" d="M286.693.7,284.531,0l-2.256,6.968,2.162.7Z" transform="translate(-204.036)" fill="url(#linear-gradient)"/>
      <path id="パス_54665" data-name="パス 54665" d="M219.7,7.043,217.427.081l-2.162.7,2.273,6.963Z" transform="translate(-146.711 -0.069)" fill="url(#linear-gradient)"/>
      <path id="パス_54666" data-name="パス 54666" d="M158.611,49.087l-5.93-4.3-1.335,1.841,5.931,4.3Z" transform="translate(-92.031 -38.316)" fill="url(#linear-gradient)"/>
    </g>
  </g>
</svg>
