<svg xmlns="http://www.w3.org/2000/svg" xmlns:xlink="http://www.w3.org/1999/xlink" width="222" height="222" viewBox="0 0 222 222">
  <defs>
    <linearGradient id="linear-gradient" x1="0.5" x2="0.5" y2="1" gradientUnits="objectBoundingBox">
      <stop offset="0" stop-color="#d80576"/>
      <stop offset="1" stop-color="#b2427e"/>
    </linearGradient>
  </defs>
  <g id="グループ_11826" data-name="グループ 11826" transform="translate(-938 -2982)">
    <circle id="楕円形_550" data-name="楕円形 550" cx="111" cy="111" r="111" transform="translate(938 2982)" fill="#0a0a0a"/>
    <path id="パス_54819" data-name="パス 54819" d="M-30.978-7.506c-.018-.36-.036-.7-.036-1.4v-3.852a12.935,12.935,0,0,1,.09-1.836,14.655,14.655,0,0,1-1.746.072h-5.85a14.367,14.367,0,0,1-1.71-.072,14.758,14.758,0,0,1,.072,1.71v9.36a5.974,5.974,0,0,1-1.062.144l.486,1.926a2.66,2.66,0,0,1,.5-.162c1.728-.4,3.258-.846,4.878-1.386L-35.37-4.59a11.038,11.038,0,0,0,5,3.33,7.677,7.677,0,0,1,.99-1.854,10.143,10.143,0,0,1-3.258-1.44c.846-.594,1.836-1.314,2.394-1.782a2.47,2.47,0,0,1,.432-.342Zm-1.386.126h.63a15.794,15.794,0,0,1-2.232,1.692,5.542,5.542,0,0,1-1.08-1.692Zm-4.59,0A8.982,8.982,0,0,0-35.5-4.716c-1.026.342-1.242.4-2.79.792V-7.38Zm-1.332-4.356V-12.8h5.4v1.062Zm0,1.6h5.4v1.116h-5.4Zm-7.488-3.4a17.842,17.842,0,0,1,3.06,3.33l1.566-1.386a20.983,20.983,0,0,0-3.186-3.294Zm-.2,7.218a6.635,6.635,0,0,1,1.224-.09h.99v3.87a12.016,12.016,0,0,1-2.61,1.782l.882,2.052A4.526,4.526,0,0,1-44.91.828,17.709,17.709,0,0,0-42.858-.864,4.307,4.307,0,0,0-40.572.774c1.062.306,2.124.378,5.472.378,1.548,0,3.618-.054,5.436-.126a7.847,7.847,0,0,1,.54-2.124,56.9,56.9,0,0,1-7.758.378,9.606,9.606,0,0,1-3.762-.45,2.532,2.532,0,0,1-1.224-1.206V-6.3A18.136,18.136,0,0,1-41.8-8.262a7.8,7.8,0,0,1-1.368.09h-1.35a8.147,8.147,0,0,1-1.458-.09Zm30.186-7.236a11.023,11.023,0,0,1-1.278.054h-.648v-.108a7.788,7.788,0,0,1,.09-1.458h-1.926a7.387,7.387,0,0,1,.108,1.458v.108H-20.3a6.83,6.83,0,0,1-1.116-.072v-1.1a8.626,8.626,0,0,1-1.566.09h-2.826a10.029,10.029,0,0,1-1.512-.09v1.908a7.094,7.094,0,0,1,.792-.072V-2.808a5.2,5.2,0,0,1-.99.144l.414,1.944A6.945,6.945,0,0,1-25.9-1.08c.63-.18,1.476-.45,2.268-.7v1.35a17.676,17.676,0,0,1-.09,1.926h1.818A12.975,12.975,0,0,1-22-.414V-8.388h6.678a25.173,25.173,0,0,0,.72,5.364A15.7,15.7,0,0,1-16.02-1.44V-6.066c0-.918,0-1.188.036-1.6a11.125,11.125,0,0,1-1.17.054h-2.862a8,8,0,0,1-1.134-.054c.036.594.054.81.054,1.6v4.878c0,.594-.036,1.044-.072,1.566h1.62V-.792h2.754a13.885,13.885,0,0,1-1.224.864,5.323,5.323,0,0,1,1.134,1.386,15.356,15.356,0,0,0,2.9-2.664c.63,1.458,1.476,2.322,2.232,2.322A1.244,1.244,0,0,0-10.638.288a9.019,9.019,0,0,0,.522-2.628,6.46,6.46,0,0,1-1.422-.972c-.054,1.422-.18,2.268-.306,2.268-.036,0-.108-.09-.27-.378A7.94,7.94,0,0,1-12.726-2.9a20.935,20.935,0,0,0,1.53-2.97c.144-.324.288-.648.4-.864l-1.458-.918a11.875,11.875,0,0,1-1.008,2.556c-.144-.936-.252-1.89-.342-3.294h.99A14.847,14.847,0,0,1-10.6-8.3v-1.89a11.254,11.254,0,0,1-2.016.108h-1.044c-.018-.54-.036-2.034-.036-2.664a13.841,13.841,0,0,1,.09-2.286H-15.48a11.168,11.168,0,0,1,.054,1.3c.018,2.394.018,2.394.054,3.654h-1.44a14.552,14.552,0,0,0,.45-1.926,4.9,4.9,0,0,1,.576.036Zm-2.07,1.53a12.733,12.733,0,0,1-.4,1.944h-.756c-.09-.774-.2-1.422-.306-1.944ZM-22-10.08v-2.754c.216.018.288.018.54.036v.828c.27-.036.342-.036.612-.054.18.738.306,1.4.4,1.944Zm-2.88-2.754h1.242v2.106h-1.242Zm0,3.708h1.242V-7.2h-1.242Zm0,3.528h1.242v2.07c-.486.144-.648.2-1.242.342Zm5.328-.522h2.016v1.152h-2.016Zm-.018,2.556h2.034v1.278h-2.034Zm6.21-10.062a9.456,9.456,0,0,1,1.332,2.844l1.422-.828a14.438,14.438,0,0,0-1.44-2.718ZM-1.116-8.5V-6.75H-5.364a13.285,13.285,0,0,1-1.962-.108v2a14.789,14.789,0,0,1,1.944-.108h4.266V-.936H-5.634a19.45,19.45,0,0,1-2.232-.108v2.07A17.747,17.747,0,0,1-5.634.9H5.742a16.6,16.6,0,0,1,2.16.126v-2.07a16.863,16.863,0,0,1-2.124.108H.882V-4.968H5.418A14.261,14.261,0,0,1,7.4-4.86v-2a12.792,12.792,0,0,1-1.962.108H.882V-8.5H2.718a12.3,12.3,0,0,1,1.764.09v-.918A18.352,18.352,0,0,0,7.632-7.74,9.188,9.188,0,0,1,8.6-9.72a14.909,14.909,0,0,1-4.77-2.43,10.647,10.647,0,0,1-2.772-2.772H-1.17c-1.3,2.16-4,4.1-7.344,5.274A8,8,0,0,1-7.47-7.794,19.425,19.425,0,0,0-4.536-9.27v.864A12.612,12.612,0,0,1-2.772-8.5ZM-3.2-10.188a12.7,12.7,0,0,0,3.15-3.024,14.2,14.2,0,0,0,3.24,3.024c-.27.018-.27.018-.432.018l-5.58-.018Zm-2.628,6.1A13.109,13.109,0,0,1-4.41-1.1l1.8-.72A20.861,20.861,0,0,0-4.05-4.806Zm9.7-.7a15.041,15.041,0,0,1-1.422,3.1l1.692.63c.612-1.044.684-1.17.738-1.278.666-1.314.666-1.314.9-1.728Zm11.088-6.3v1.53h-2.52a9.995,9.995,0,0,1-1.6-.09v1.926a12.9,12.9,0,0,1,1.854-.09h2.268V-6.39H13.1a12.5,12.5,0,0,1-1.746-.09,15.225,15.225,0,0,1,.072,1.692v3.312A10.2,10.2,0,0,1,11.34.288H13.3a15.046,15.046,0,0,1-.072-1.746V-4.68h1.728V-.45a11.3,11.3,0,0,1-.108,1.962h2.034a12.93,12.93,0,0,1-.09-1.944V-4.68h1.62V-1.8c0,.234-.108.306-.45.306-.2,0-.666-.036-.954-.072a4.985,4.985,0,0,1,.324,1.71c.5.036.666.036.828.036,1.548,0,2-.324,2-1.44v-3.6c0-.81.018-1.17.054-1.6a13.892,13.892,0,0,1-1.674.072H16.794V-7.812h2.034a10.363,10.363,0,0,1,1.728.09V-9.63a14.539,14.539,0,0,1-1.656.072H16.794v-1.53h1.53a15.54,15.54,0,0,1,1.782.072v-1.908a11.116,11.116,0,0,1-1.782.09h-1.53v-.54a8.094,8.094,0,0,1,.108-1.71H14.85a8.916,8.916,0,0,1,.108,1.746v.5H13.572c.09-.36.2-.756.234-.954a5.487,5.487,0,0,1,.2-.72l-1.836-.342a2.785,2.785,0,0,1-.09.7,10.048,10.048,0,0,1-1.422,3.564,14.073,14.073,0,0,1,1.71.882A14.791,14.791,0,0,0,13-11.088Zm6.21-2.736a10.378,10.378,0,0,1,.108,1.908v7.2a11.254,11.254,0,0,1-.09,1.926H23.2a11.268,11.268,0,0,1-.09-1.908v-7.254a12.429,12.429,0,0,1,.09-1.872Zm3.438-1.188a16.821,16.821,0,0,1,.108,2.232V-1.026c0,.432-.162.54-.81.54a16.337,16.337,0,0,1-2.322-.18,5.444,5.444,0,0,1,.54,1.926c1.062.036,1.62.054,1.71.054A3.6,3.6,0,0,0,26.01.9c.432-.306.594-.756.594-1.71V-12.834a12.282,12.282,0,0,1,.126-2.178Zm10.728,5.76V-7.56a10.615,10.615,0,0,1-.072,1.134c.324-.018.558-.018,1.26-.018h5c.72,0,.756,0,1.17.018a9.956,9.956,0,0,1-.054-1.134V-9.252H44.37a11.4,11.4,0,0,1,1.6.072v-1.782a9.725,9.725,0,0,1-1.6.09H42.642v-1.26h1.386a18.591,18.591,0,0,1,1.89.072v-1.872a16.264,16.264,0,0,1-2.178.108H39.276V-14.2a4.326,4.326,0,0,1,.09-1.044H37.224a6.046,6.046,0,0,1,.09,1.026v.4H32.832c-.774,0-1.4-.036-2.034-.09.054.648.072,1.116.072,2.448a38.4,38.4,0,0,1-.522,8.118A9.749,9.749,0,0,1,29.232-.27a7.438,7.438,0,0,1,1.512,1.656A12.959,12.959,0,0,0,32.274-2.9a37.336,37.336,0,0,0,.5-6.354ZM32.8-10.872v-1.26h2.538v1.26Zm4.428,0v-1.26h3.528v1.26Zm0,1.62h3.528V-8.01H37.224Zm5.9,3.78c-.432.036-.756.054-1.494.054H35.352a12.511,12.511,0,0,1-1.926-.09v1.692c.378-.036.648-.054,1.278-.072a10.437,10.437,0,0,0,2.448,2.556A17.01,17.01,0,0,1,32-.324a6.121,6.121,0,0,1,.7,1.854A19.389,19.389,0,0,0,38.862-.234a17.883,17.883,0,0,0,6.5,1.746,8.8,8.8,0,0,1,.756-2.034,15.819,15.819,0,0,1-5.328-.846,14.737,14.737,0,0,0,2.97-2.7c.162-.18.18-.2.342-.36ZM41.2-3.888A10.14,10.14,0,0,1,38.97-2.2a7.064,7.064,0,0,1-2.088-1.692Z" transform="translate(1049 3131)" fill="#fff"/>
    <path id="合体_13" data-name="合体 13" d="M26.385,84.5a21.951,21.951,0,1,1,21.952,21.953A21.953,21.953,0,0,1,26.385,84.5ZM39.61,86.126v3.407h6.662v5.157H50.4V89.532h6.658V86.117H50.4V83.71l.648-1.006h6.01v-2.92H52.93l3.514-5.466h-3.5l-4.6,7.159-4.6-7.159h-3.5l3.514,5.466H39.61V82.7h6.01l.652,1.01v2.4H39.61ZM0,96.955V95.067a1.728,1.728,0,0,1,2.4-1.593S7.984,96.92,17.823,96.92a38.939,38.939,0,0,0,4.5-.251,28.512,28.512,0,0,0,4.492,6.826,37.007,37.007,0,0,1-9,1.048C7.984,104.542,0,101.141,0,96.955ZM0,83.684V81.8A1.725,1.725,0,0,1,2.4,80.2s5.582,3.448,15.421,3.448c.626,0,1.229-.012,1.819-.034-.022.3-.022.592-.022.886a28.211,28.211,0,0,0,.8,6.686c-.841.059-1.719.08-2.594.08C7.984,91.269,0,87.869,0,83.684ZM0,70.4V68.523a1.726,1.726,0,0,1,2.4-1.591s5.582,3.444,15.421,3.444a40.039,40.039,0,0,0,5.765-.408,27.924,27.924,0,0,0-3.2,7.951c-.842.056-1.695.078-2.569.078C7.984,78,0,74.6,0,70.4ZM0,57.133V55.247a1.73,1.73,0,0,1,2.407-1.59S7.979,57.1,17.827,57.1s15.424-3.448,15.424-3.448a1.727,1.727,0,0,1,2.4,1.59v1.886c0,4.192-7.979,7.59-17.827,7.59S0,61.325,0,57.133Zm0-12.85c0-4.194,7.979-7.591,17.827-7.591s17.827,3.4,17.827,7.591-7.979,7.59-17.827,7.59S0,48.476,0,44.283Z" transform="translate(1014 2983.309)" fill="url(#linear-gradient)"/>
  </g>
</svg>
