<svg xmlns="http://www.w3.org/2000/svg" xmlns:xlink="http://www.w3.org/1999/xlink" width="222" height="222" viewBox="0 0 222 222">
  <defs>
    <linearGradient id="linear-gradient" x1="0.5" x2="0.5" y2="1" gradientUnits="objectBoundingBox">
      <stop offset="0" stop-color="#d80576"/>
      <stop offset="1" stop-color="#b2427e"/>
    </linearGradient>
  </defs>
  <g id="グループ_11833" data-name="グループ 11833" transform="translate(-451 -3230)">
    <circle id="楕円形_553" data-name="楕円形 553" cx="111" cy="111" r="111" transform="translate(451 3230)" fill="#0a0a0a"/>
    <path id="パス_54822" data-name="パス 54822" d="M-41.328-11.394a13.638,13.638,0,0,1-3.564,3.852,7.619,7.619,0,0,1-1.152-3.672,1.854,1.854,0,0,1,.018-.234,14.948,14.948,0,0,1-1.872.072h-2.574c-.9,0-1.548-.036-2.124-.09V-9.45a12.69,12.69,0,0,1,2.106-.108h2.43v8.37a1.7,1.7,0,0,1-.036.45c-.054.09-.18.126-.558.126a15.116,15.116,0,0,1-2.2-.18,5.692,5.692,0,0,1,.468,1.962c.774.054,1.332.072,1.818.072,2,0,2.5-.378,2.5-1.854V-4.158c0-.666-.054-1.8-.126-2.628A14.668,14.668,0,0,0-43.38-2.574,18.188,18.188,0,0,0-39.87.18a7.832,7.832,0,0,1,1.35-2.124,10.765,10.765,0,0,1-3.33-1.944,13.953,13.953,0,0,1-2.016-2.106,25.24,25.24,0,0,0,3.24-2.844c.918-.972.918-.972,1.026-1.08.054-.054.072-.054.108-.09Zm-9.612-2.052a28,28,0,0,1,6.534,1.818l.864-1.854a40.734,40.734,0,0,0-6.426-1.764Zm1.458,5.4a5.123,5.123,0,0,1-1.638.126h-2.07a11.9,11.9,0,0,1-1.836-.09v1.962a12.788,12.788,0,0,1,1.746-.108h2.322a11.13,11.13,0,0,1-4.806,4.608A5.07,5.07,0,0,1-54.45.144,14.806,14.806,0,0,0-49.3-5.166a9.808,9.808,0,0,1,.954-1.674Zm15.93,3.582h-.918a15.085,15.085,0,0,1-1.962-.108V-2.52a15.48,15.48,0,0,1,1.962-.108h6.048V-.414a13.119,13.119,0,0,1-.108,1.962h2.2a10.839,10.839,0,0,1-.108-1.926v-2.25h4.176A15.281,15.281,0,0,1-20.3-2.52V-4.572a14.7,14.7,0,0,1-1.962.108h-4.176V-7.38h2.952a16.939,16.939,0,0,1,1.8.072V-9.216a13.213,13.213,0,0,1-1.854.09h-2.9v-2.34h3.672a13.248,13.248,0,0,1,1.836.09v-1.962a12.782,12.782,0,0,1-1.836.09h-8.424c.324-.7.5-1.08.522-1.134.126-.27.162-.324.27-.54l-2.142-.432a5.2,5.2,0,0,1-.432,1.314,11.173,11.173,0,0,1-3.51,4.518,7.879,7.879,0,0,1,1.332,1.6,16.6,16.6,0,0,0,2.97-3.546h3.762v2.34h-3.924c-.486,0-.882-.018-1.26-.054a9.883,9.883,0,0,1,.054,1.044Zm1.89,0V-7.38h3.24v2.916ZM-3.33-9.612A56.379,56.379,0,0,1-3.762-2.07C-3.96-.774-4.1-.576-4.824-.576a8.228,8.228,0,0,1-1.62-.2,6,6,0,0,1,.45,1.962c1.242.054,1.242.054,1.44.054,1.494,0,2.07-.4,2.394-1.62a41.322,41.322,0,0,0,.63-6.948c.09-3.69.09-3.69.144-4.122a14.655,14.655,0,0,1-1.746.072H-4.59a19.223,19.223,0,0,1,.126-3.636H-6.57a7.2,7.2,0,0,1,.108,1.386c0,1.134,0,1.314-.018,2.25h-.4a8.082,8.082,0,0,1-1.512-.09V-9.54a8.952,8.952,0,0,1,1.494-.072h.378c-.216,4.05-.954,6.678-2.43,8.658l-.018-.666c-1.152.162-1.152.162-3.1.378v-.9h1.35a13.1,13.1,0,0,1,1.62.072V-3.762a11.863,11.863,0,0,1-1.62.072h-1.35V-4.5H-10.4a13.516,13.516,0,0,1,1.674.072V-6.12a12.792,12.792,0,0,1-1.674.072H-12.06V-6.84h1.944A13.02,13.02,0,0,1-8.748-6.8c-.018-.144-.018-.54-.036-1.17v-1.62a7.535,7.535,0,0,1,.054-1.242,13.433,13.433,0,0,1-1.4.036H-15.7a13.035,13.035,0,0,1-1.386-.036,6.327,6.327,0,0,1,.054,1.08V-7.9a9.949,9.949,0,0,1-.054,1.1c.594-.036.738-.036,1.386-.036h1.908v.792h-1.818a9.187,9.187,0,0,1-1.62-.09V-4.41a9.859,9.859,0,0,1,1.6-.09h1.836v.81H-15.3a8.748,8.748,0,0,1-1.566-.09v1.728a9.681,9.681,0,0,1,1.548-.09h1.53v1.08c-1.728.162-2.664.234-3.276.234a4.412,4.412,0,0,1-.45-.018L-17.19,1.1c.342-.054.468-.072.918-.126C-13.554.684-11.538.4-9.648.036A4.667,4.667,0,0,1-8.37,1.53,13,13,0,0,0-5.508-3.618a24.918,24.918,0,0,0,.864-5.994Zm-10.458.252v1.1h-1.584v-1.1Zm1.728,0h1.692v1.1H-12.06Zm-3.492-4.41h-.576a7.653,7.653,0,0,1-1.476-.09V-12.1a7.8,7.8,0,0,1,1.422-.072h.63v.126a5.743,5.743,0,0,1-.054.882h1.926a4.992,4.992,0,0,1-.054-.882v-.126h1.62v.126a4.854,4.854,0,0,1-.054.882h1.908a5.181,5.181,0,0,1-.054-.864v-.144h.54A9.682,9.682,0,0,1-8.28-12.1V-13.86a10.249,10.249,0,0,1-1.494.09h-.54V-14a4.872,4.872,0,0,1,.054-.99h-1.926a4.785,4.785,0,0,1,.072,1.026v.2h-1.62v-.216a4.575,4.575,0,0,1,.072-1.026h-1.944a7.928,7.928,0,0,1,.054,1.044ZM1.3-5.67A7.863,7.863,0,0,1,2.43-5.778q.162-.027.7-.054.243-.027.7-.054V-.342a11.372,11.372,0,0,1-.108,1.89H5.67a10.63,10.63,0,0,1-.108-1.89V-6.03c.54-.054.684-.072,1.08-.126.054.252.09.4.144.774L7.956-5.8a6.839,6.839,0,0,1-.072,1.17H9.63v-1.98h5.976v1.98h1.872A8.007,8.007,0,0,1,17.406-5.9v-1.08a12.39,12.39,0,0,1,.054-1.278,10.632,10.632,0,0,1-1.728.09H9.5a15,15,0,0,1-1.62-.054,7.294,7.294,0,0,1,.072,1.3V-6.5A17,17,0,0,0,6.93-9.5l-1.224.432a12.835,12.835,0,0,1,.522,1.386c-.54.054-.846.09-1.854.144C5.094-8.5,6.21-10.1,6.786-11.016a12.512,12.512,0,0,1,.864-1.368l-1.62-.882a14.369,14.369,0,0,1-1.62,2.988c-.27-.324-.36-.432-.7-.846a24.261,24.261,0,0,0,1.6-2.79,4.525,4.525,0,0,1,.378-.666L3.96-15.246a12.914,12.914,0,0,1-1.314,2.934l-.684-.738-.9,1.566A20.411,20.411,0,0,1,3.42-8.766c-.414.594-.414.594-.936,1.3H1.836A4.482,4.482,0,0,1,1.1-7.506Zm10.17-6.354v1.278H9.936a12.48,12.48,0,0,1-1.836-.09V-9.09a12.063,12.063,0,0,1,1.818-.09h5.256a14.859,14.859,0,0,1,1.818.09v-1.746a12.63,12.63,0,0,1-1.836.09H13.32v-1.278h2.25a13.079,13.079,0,0,1,1.944.09v-1.8a14.371,14.371,0,0,1-2,.108h-2.2v-.162a7,7,0,0,1,.108-1.368h-2.07a7.317,7.317,0,0,1,.108,1.35v.18H9.792a14.371,14.371,0,0,1-2-.108v1.8a13.358,13.358,0,0,1,1.962-.09ZM1.746-5.076a15.621,15.621,0,0,1-.7,4.932L2.592.63a22.924,22.924,0,0,0,.72-5.472Zm4.23.252A22.067,22.067,0,0,1,6.462-.792L7.92-1.224a33.483,33.483,0,0,0-.576-3.942Zm6.786-.936a6.21,6.21,0,0,1,.09,1.278v4.14c0,1.188.468,1.494,2.214,1.494,1.476,0,2.052-.234,2.376-.936a8.461,8.461,0,0,0,.45-2.7,5.185,5.185,0,0,1-1.71-.63,5.345,5.345,0,0,1-.306,2.34,1,1,0,0,1-.684.18c-.432,0-.54-.072-.54-.378v-3.51A6.385,6.385,0,0,1,14.76-5.76Zm-2.682,0a6.192,6.192,0,0,1,.054.828,4.733,4.733,0,0,1-.9,3.15A5.25,5.25,0,0,1,6.606-.234,4.035,4.035,0,0,1,7.83,1.422a6.9,6.9,0,0,0,2.9-2.106,6.518,6.518,0,0,0,1.224-3.78c.054-.954.054-.954.09-1.3Zm18.18-.5a14.619,14.619,0,0,0,2.124,3.708A13.4,13.4,0,0,0,35.748,1.26,6.816,6.816,0,0,1,36.936-.684a12.577,12.577,0,0,1-3.942-2.034A24.635,24.635,0,0,0,35.118-4.59L35.532-5l-1.8-1.116a10.948,10.948,0,0,1-2.106,2.07,9.025,9.025,0,0,1-1.4-2.214h4.194a17.349,17.349,0,0,1,2.07.108V-8.1a11.706,11.706,0,0,1-2.07.108h-5.2V-9.144h3.8a17.63,17.63,0,0,1,2,.072v-1.8a16.826,16.826,0,0,1-2,.072h-3.8v-1.1h4.644a14.055,14.055,0,0,1,2.016.09V-13.7a15.838,15.838,0,0,1-2.142.108H29.214a6.809,6.809,0,0,1,.108-1.548H27.108a6.9,6.9,0,0,1,.108,1.548h-4.23A15.972,15.972,0,0,1,20.88-13.7v1.89A13.9,13.9,0,0,1,22.9-11.9h4.32v1.1h-3.51a17.06,17.06,0,0,1-1.98-.072v1.8a17.465,17.465,0,0,1,1.98-.072h3.51v1.152H22.284A12.066,12.066,0,0,1,20.2-8.1v1.944A17.78,17.78,0,0,1,22.3-6.264h3.4a13.921,13.921,0,0,1-5.8,2.97,7.671,7.671,0,0,1,1.116,1.926,19.433,19.433,0,0,0,3.834-1.98V-.882a22.755,22.755,0,0,1-2.484.216l.432,2.106c.162-.036.5-.108.864-.18.414-.054.414-.054.846-.126C25.506.972,25.578.954,26.8.72c2-.414,2.412-.5,3.762-.882v-1.89c-1.584.414-2.34.594-3.726.846V-4.914a11.024,11.024,0,0,0,1.314-1.35Zm16.776-7.65a6.543,6.543,0,0,1,.09-1.26H43a5.716,5.716,0,0,1,.09,1.26h-1.71A11.277,11.277,0,0,1,39.618-14v1.692a11.382,11.382,0,0,1,1.314-.072,9.027,9.027,0,0,1,.45,1.3h-.558a11.022,11.022,0,0,1-1.746-.09v1.746a11.073,11.073,0,0,1,1.71-.09h6.174a11.944,11.944,0,0,1,1.8.09V-11.16a11.743,11.743,0,0,1-1.692.072h-.4a10.808,10.808,0,0,0,.5-1.3,9.351,9.351,0,0,1,1.3.072V-14a10.632,10.632,0,0,1-1.728.09Zm-1.8,2.826c-.126-.486-.216-.774-.4-1.3h2.466a8.068,8.068,0,0,1-.468,1.3Zm-.144,7.74v.828h-2.25a10.518,10.518,0,0,1-1.71-.09V-.756a8.726,8.726,0,0,1,1.71-.108h2.25v.4a10.931,10.931,0,0,1-.108,1.962h2.142a10.575,10.575,0,0,1-.108-1.962v-.4h1.944a12.225,12.225,0,0,1,1.728.09V-2.61a11.736,11.736,0,0,1-1.746.09H45.018v-.828H46.6c.612,0,1.242.018,1.566.054A10.376,10.376,0,0,1,48.1-4.752V-7.488a10.878,10.878,0,0,1,.072-1.458c-.378.036-.846.054-1.548.054H41.562A15.664,15.664,0,0,1,40-8.946a11.526,11.526,0,0,1,.072,1.476V-4.7A10.7,10.7,0,0,1,40-3.294c.4-.036.864-.054,1.566-.054Zm-1.206-4.14h4.392v.648H41.886Zm0,2.07h4.392v.666H41.886Zm11.448-9.7a12.95,12.95,0,0,1-4.626,3.582,7.284,7.284,0,0,1,1.17,1.692,23.2,23.2,0,0,0,5.13-4.032Zm.756,9.882a9.5,9.5,0,0,1-1.4,1.674A14.991,14.991,0,0,1,47.556-.18,7.22,7.22,0,0,1,48.78,1.584a21,21,0,0,0,6.1-4.608,8.6,8.6,0,0,1,.792-.81Zm-.234-5.184a5.955,5.955,0,0,1-1.224,1.368,14.479,14.479,0,0,1-4.194,2.646,10.33,10.33,0,0,1,1.116,1.764,17.142,17.142,0,0,0,2.664-1.6A27.68,27.68,0,0,0,54.7-8.352a6.583,6.583,0,0,1,.756-.72Z" transform="translate(562 3369)" fill="#fff"/>
    <g id="グループ_11706" data-name="グループ 11706" transform="translate(-342.279 -975.609)">
      <g id="チケットのアイコン5" transform="translate(863.279 4251.609)">
        <path id="パス_54535" data-name="パス 54535" d="M81.334,123.537V113.93a6.87,6.87,0,0,0-6.869-6.87H6.869A6.869,6.869,0,0,0,0,113.93V123.6a7.2,7.2,0,0,1,6.172,7.12A7.2,7.2,0,0,1,0,137.839v9.672a6.869,6.869,0,0,0,6.869,6.869h67.6a6.87,6.87,0,0,0,6.869-6.869V137.9a7.191,7.191,0,0,1,0-14.367ZM19.3,150.046H16.94v-6.164H19.3Zm0-10.829H16.94v-6.164H19.3Zm0-10.829H16.94v-6.165H19.3Zm0-10.829H16.94v-6.164H19.3Z" transform="translate(0 -107.06)" fill="url(#linear-gradient)"/>
      </g>
      <g id="トロフィーのアイコン素材_その4" data-name="トロフィーのアイコン素材 その4" transform="translate(897.343 4262.45)">
        <path id="パス_54534" data-name="パス 54534" d="M41.738,27.708l-6.473,3.6a.8.8,0,0,1-1.18-.857l1.425-7.269a.8.8,0,0,0-.241-.743L29.844,17.4A.8.8,0,0,1,30.3,16.01l7.353-.891a.8.8,0,0,0,.633-.46L41.4,7.942a.8.8,0,0,1,1.458,0l3.119,6.717a.8.8,0,0,0,.632.46l7.353.891a.8.8,0,0,1,.451,1.387l-5.426,5.044a.8.8,0,0,0-.242.743l1.426,7.269a.8.8,0,0,1-1.18.857l-6.474-3.6A.807.807,0,0,0,41.738,27.708Z" transform="translate(-29.588 -7.476)"/>
      </g>
    </g>
    <g id="グループ_11708" data-name="グループ 11708" transform="translate(105 -44)">
      <rect id="長方形_8559" data-name="長方形 8559" width="100" height="18" rx="9" transform="translate(407 3427)" fill="#222"/>
      <path id="パス_54823" data-name="パス 54823" d="M-37.81-7.89a6.314,6.314,0,0,1,.04.9v2.75a7.211,7.211,0,0,1-.05.9h1.37a4.827,4.827,0,0,1-.04-.88V-6.98a5.083,5.083,0,0,1,.04-.9Zm4.51.02a5.266,5.266,0,0,1,.05.95v1.25c0,.8-.01,1.24-.05,1.67a2.828,2.828,0,0,1-1.38,2.55,5.394,5.394,0,0,1-2.16.8,3.416,3.416,0,0,1,.7,1.19,8.459,8.459,0,0,0,1.95-.77,3.83,3.83,0,0,0,1.97-2.33,11.811,11.811,0,0,0,.26-3.03V-6.94a4.743,4.743,0,0,1,.05-.93ZM-21.87-6.5l.68-.29a6.281,6.281,0,0,0-.94-1.55l-.72.3a6.911,6.911,0,0,1,.92,1.53l-.77-.16a6.646,6.646,0,0,1-.54,2.04A7.45,7.45,0,0,1-27.43-.47,4,4,0,0,1-26.51.6a9.242,9.242,0,0,0,5.04-6.5,3.328,3.328,0,0,1,.15-.49Zm-6.79-.54a13.346,13.346,0,0,1,1.27,3.23l1.3-.46a13.974,13.974,0,0,0-1.35-3.19Zm8.76-.25a5.856,5.856,0,0,0-.93-1.48l-.7.3a7.556,7.556,0,0,1,.91,1.52Zm.46,4.15a10.978,10.978,0,0,1,1.63-.05h5.31a10.978,10.978,0,0,1,1.63.05V-4.53a9.82,9.82,0,0,1-1.62.07h-5.33a9.82,9.82,0,0,1-1.62-.07ZM-6.13.45A10.993,10.993,0,0,1-6.17-.66V-3.3a5.17,5.17,0,0,0-.04-.68,3.231,3.231,0,0,0,.34.17A23.659,23.659,0,0,1-2.33-1.9l.7-1.18A29.379,29.379,0,0,0-6.17-5.19V-7.05A6.7,6.7,0,0,1-6.13-8.1H-7.5a6.428,6.428,0,0,1,.06,1.02V-.67A6.737,6.737,0,0,1-7.5.45ZM6.25-3.6v1.52a5.9,5.9,0,0,1-.04.83H7.22a5.463,5.463,0,0,1-.04-.83V-3.86l.92-.26c0,.43-.01.78-.04,1.13-.04.42-.07.48-.28.48a2.319,2.319,0,0,1-.48-.06,3.161,3.161,0,0,1,.23.94c.32.01.32.01.39.01.56,0,.77-.09.91-.39.16-.36.21-.97.26-3.4a1.252,1.252,0,0,1-.31.1c-.07.02-.15.05-.24.08-.18.06-.3.1-.35.11l-1.01.28v-.34a3.834,3.834,0,0,1,.06-.78H6.21a7.679,7.679,0,0,1,.04.83v.54l-.79.21V-4.6a4.04,4.04,0,0,1,.05-.78H4.77c.23-.34.37-.57.56-.89H8.37c.36,0,.78.02,1.02.04V-7.31a6.933,6.933,0,0,1-1.03.06H5.81l.26-.6a1.8,1.8,0,0,1,.17-.38L5.11-8.45a7.069,7.069,0,0,1-.98,2.19v-.77a5.522,5.522,0,0,1-.91.05H2.79V-7.5a5.344,5.344,0,0,1,.05-.88H1.66a5.523,5.523,0,0,1,.06.88v.52H1.15a4.694,4.694,0,0,1-.92-.06v1.08a5.559,5.559,0,0,1,.82-.05h.11A19.484,19.484,0,0,1,.98-2.94,5.8,5.8,0,0,1,.01-.11,3.706,3.706,0,0,1,.77.8a6.359,6.359,0,0,0,.99-2.3A14.873,14.873,0,0,0,2.1-3.97h.79A23.436,23.436,0,0,1,2.72-.99c-.09.56-.14.64-.42.64a3.464,3.464,0,0,1-.55-.06c-.03-.01-.08-.01-.14-.03A3.278,3.278,0,0,1,1.81.62a2.018,2.018,0,0,1,.27.01c.29.01.29.01.36.01A1.112,1.112,0,0,0,3.33.38,3.641,3.641,0,0,0,3.74-1.5c.04-.58.08-1.88.08-2.51v-.45c0-.06.01-.43.02-.51a5.258,5.258,0,0,1-.76.04H2.14c.01-.15.01-.15.02-1.08H3.23a6.87,6.87,0,0,1,.7.02,5.582,5.582,0,0,1-.45.53,3.143,3.143,0,0,1,.76.78c.12-.15.16-.2.25-.32.01.15.01.24.01.39v.49a3.235,3.235,0,0,1-.47.11l-.11.02.25,1.02A2.064,2.064,0,0,1,4.5-3.1V-.32c0,.78.41.96,2.19.96C8.3.64,8.66.59,8.95.35s.44-.68.52-1.61a3.7,3.7,0,0,1-1-.31c-.02.73-.06.99-.2,1.09-.14.12-.38.14-1.78.14A2.821,2.821,0,0,1,5.6-.42c-.1-.04-.14-.13-.14-.33V-3.37Zm12.18-.65a3.521,3.521,0,0,1-.7.04H14.78a3.078,3.078,0,0,1-.64-.05V-3.2a2.892,2.892,0,0,1,.45-.04,5.709,5.709,0,0,0,1.29,2.07,7.017,7.017,0,0,1-2.13.97V-1.7a4.747,4.747,0,0,1,.03-.73,3.55,3.55,0,0,1-.67.03H11.39c-.31,0-.52-.01-.77-.03a4.628,4.628,0,0,1,.05.79V-.17a7.632,7.632,0,0,1-.06.99h1.02V.34H12.8V.68h.99a4.779,4.779,0,0,1-.04-.71,3.483,3.483,0,0,1,.51.85,8.087,8.087,0,0,0,2.4-1.28A7.748,7.748,0,0,0,19.16.79a5.435,5.435,0,0,1,.5-1.07,7,7,0,0,1-2.23-.91A7.378,7.378,0,0,0,18.78-3.3a2.978,2.978,0,0,1,.2-.41Zm-.81,1a5.058,5.058,0,0,1-.99,1.44,4.158,4.158,0,0,1-1-1.44ZM11.63-1.53H12.8v.99H11.63Zm-.98-5.68a6.641,6.641,0,0,1,.84-.04h1.44a6.847,6.847,0,0,1,.84.04v-.97a4.828,4.828,0,0,1-.84.05H11.49a4.828,4.828,0,0,1-.84-.05Zm-.32,1.48a6.044,6.044,0,0,1,.81-.04h2.11a4.52,4.52,0,0,1,.76.04V-6.76a5.327,5.327,0,0,1-.81.04H11.14a4.458,4.458,0,0,1-.81-.05Zm.34,1.41a5.623,5.623,0,0,1,.66-.03h1.78a5.723,5.723,0,0,1,.64.03v-.93a4.919,4.919,0,0,1-.64.03H11.33a5.506,5.506,0,0,1-.66-.03Zm0,1.41a5.67,5.67,0,0,1,.65-.03h1.77a4.17,4.17,0,0,1,.66.03v-.93a4.919,4.919,0,0,1-.64.03H11.33a5.506,5.506,0,0,1-.66-.03Zm6.26-4.21v1.76c0,.53.21.65,1.18.65,1.27,0,1.38-.12,1.5-1.76a3.937,3.937,0,0,1-.9-.36c-.06,1.2-.06,1.2-.46,1.2-.24,0-.31-.04-.31-.17V-7.28a6.416,6.416,0,0,1,.04-.85,7.022,7.022,0,0,1-.85.04H15.6a6.412,6.412,0,0,1-.79-.04,3.449,3.449,0,0,1,.05.67,2.588,2.588,0,0,1-1.04,2.5,5.251,5.251,0,0,1,.87.69,2.916,2.916,0,0,0,.74-.95,4.087,4.087,0,0,0,.41-1.9Zm5.36,1.45h-.9a4.677,4.677,0,0,1-.94-.06v1.11a5.982,5.982,0,0,1,.92-.06h.72a12.122,12.122,0,0,1-.78,1.5,6.074,6.074,0,0,1-1.09,1.34,5.287,5.287,0,0,1,.56,1.05,6.771,6.771,0,0,0,.87-1.1,7.459,7.459,0,0,0,.68-1.41c-.03.34-.05.8-.05,1.2V-.43A8.743,8.743,0,0,1,22.21.84H23.4a8.316,8.316,0,0,1-.06-1.27V-2.17c0-.51-.02-.92-.05-1.26a5.526,5.526,0,0,0,1.17,1.6,4.608,4.608,0,0,1,.53-.98,5.924,5.924,0,0,1-1.6-1.87h.73a5.228,5.228,0,0,1,.86.05V-5.72a4.9,4.9,0,0,1-.84.05h-.8V-6.96c.44-.12.9-.26,1.62-.51l-.65-.92a10.851,10.851,0,0,1-3.85.96,4,4,0,0,1,.37.96c.6-.09.81-.12,1.46-.25Zm3.2-1.99a7.831,7.831,0,0,1,.06,1.21v3.8a7.671,7.671,0,0,1-.05,1.17h1.18a8.335,8.335,0,0,1-.05-1.19V-6.45a7.6,7.6,0,0,1,.06-1.21Zm2.36-.6c.04.44.06.86.06,1.36V-.65c0,.26-.07.3-.51.3a12.455,12.455,0,0,1-1.32-.09A4.446,4.446,0,0,1,26.42.67c.34.02.49.02.74.02A3.055,3.055,0,0,0,28.55.52c.32-.17.45-.46.45-.99V-6.9a10.458,10.458,0,0,1,.07-1.36Zm6.57,5.94V-.67A8.239,8.239,0,0,1,34.36.51h1.18a8.782,8.782,0,0,1-.05-1.19V-2.32h2.4V-.57c0,.21-.09.25-.5.25-.32,0-.76-.03-1.26-.08A4.045,4.045,0,0,1,36.41.64c.3.02.81.04,1.12.04,1.14,0,1.44-.21,1.44-1.04V-6.93c0-.54.01-.79.04-1.13a11.121,11.121,0,0,1-1.15.04H32.25c-.54,0-.8-.01-1.15-.04a13.508,13.508,0,0,1,.05,1.45c0,1.18-.04,2.6-.09,3.44a10.118,10.118,0,0,1-.2,1.53A4.573,4.573,0,0,1,30.13.05a6.016,6.016,0,0,1,.97.79,6.713,6.713,0,0,0,1.02-3.16Zm0-.99H32.19c0-.2,0-.27.01-.74,0-.14.01-.34.01-.63h2.21Zm1.07,0V-4.68h2.4v1.37ZM34.42-5.66H32.23l.01-.28V-6.97h2.18Zm1.07,0V-6.97h2.4v1.31Z" transform="translate(457 3440)" fill="#fff"/>
    </g>
    <g id="グループ_11709" data-name="グループ 11709" transform="translate(122 -44)">
      <rect id="長方形_8560" data-name="長方形 8560" width="60" height="18" rx="9" transform="translate(410 3451)" fill="#222"/>
      <path id="パス_54824" data-name="パス 54824" d="M-22.05-.59a5.108,5.108,0,0,1-.04.75h1.05V-.28h2.48a3.179,3.179,0,0,1,.24,1q.93.03,1.11.03c1.03,0,1.34-.26,1.34-1.11V-4.97a6.392,6.392,0,0,1,.04-.86,6.707,6.707,0,0,1-.94.04h-1.29a4.843,4.843,0,0,0,.44-.89h1.09a8.175,8.175,0,0,1,1.11.05V-7.7a9.368,9.368,0,0,1-1.18.06h-2.89V-7.9a3.116,3.116,0,0,1,.04-.52l.01-.1h-1.22a4.1,4.1,0,0,1,.05.62v.26h-2.75a10.18,10.18,0,0,1-1.18-.06v1.07a8.265,8.265,0,0,1,1.11-.05h1.05a3.461,3.461,0,0,1,.38.89h-1.18c-.32,0-.83-.02-.99-.04a8.124,8.124,0,0,1,.04.86V-.39A10.248,10.248,0,0,1-24.19.82h1.18A8.372,8.372,0,0,1-23.07-.4V-3.23a3.489,3.489,0,0,1,.49.69c.25-.11.34-.15.51-.24a3.545,3.545,0,0,1,.02.48Zm2.34-4.25v.97a.508.508,0,0,0,.25.49,2.2,2.2,0,0,0,1.1.15c.99,0,1.25-.08,1.43-.45V-.51c0,.22-.07.27-.34.27q-.255,0-.66-.03a5.563,5.563,0,0,1-.04-.75V-2.2c0-.23.01-.47.03-.73a7.4,7.4,0,0,1-.83.03h-2.48c-.23,0-.29,0-.58-.01A2.482,2.482,0,0,0-20.5-4.84Zm-1.14-.95a4.333,4.333,0,0,0-.37-.89h2.42a4.219,4.219,0,0,1-.41.89Zm-.69.95c-.09.72-.52,1.12-1.53,1.43V-4.84Zm4.61.46c-.2-.07-.34-.13-.61-.25a.918.918,0,0,1-.07.45c-.05.09-.19.12-.54.12-.47,0-.54-.03-.54-.2v-.58h1.76Zm-4.1,2.35h2.1v.88h-2.1Zm8.06-3.36a8.306,8.306,0,0,1-.04.92,9.169,9.169,0,0,1,1.04-.04h3.96a9.169,9.169,0,0,1,1.04.04,7.933,7.933,0,0,1-.04-.93V-7.25a7.131,7.131,0,0,1,.04-.88,7.87,7.87,0,0,1-1.14.05h-3.77a8.233,8.233,0,0,1-1.13-.05,7.631,7.631,0,0,1,.04.89Zm1.07-1.69h3.81v1.6H-11.9ZM-14.3-.26A7.519,7.519,0,0,1-14.35.82h1.11V.3h1.74V.66h1.08a6.878,6.878,0,0,1-.04-.9V-2.91a5.858,5.858,0,0,1,.03-.87c-.24.02-.46.03-.75.03h-2.19a9.047,9.047,0,0,1-.97-.04,9.336,9.336,0,0,1,.04.96Zm1.05-2.52h1.75V-.67h-1.75Zm4.27-.97c-.3,0-.51-.01-.74-.03.02.21.02.37.02.82V-.07c0,.41-.01.61-.03.89h1.07V.3h1.9V.82h1.12A7.031,7.031,0,0,1-5.69-.25V-2.83a8.615,8.615,0,0,1,.04-.96,7,7,0,0,1-.89.04Zm.32.97h1.91V-.67H-8.66Zm5.28-2.16A6.259,6.259,0,0,1-4.49-5v1.07a8.174,8.174,0,0,1,1.11-.05h.76A6.328,6.328,0,0,1-4.74-2.56a2.146,2.146,0,0,1,.69.91,8.223,8.223,0,0,0,1.47-1v.51A7.487,7.487,0,0,1-1.52-2.2h.3a2.287,2.287,0,0,1-.22.62A2.613,2.613,0,0,1-2.67-.52a4.555,4.555,0,0,1-1.26.4,2.776,2.776,0,0,1,.61.99A4.67,4.67,0,0,0-.95-.43,3.348,3.348,0,0,0-.1-2.2H1.52a6.35,6.35,0,0,1-.2,1.66c-.04.15-.18.21-.44.21A7.538,7.538,0,0,1-.29-.44,3,3,0,0,1-.03.64C.39.66.59.67.82.67c.96,0,1.3-.15,1.49-.64a10.332,10.332,0,0,0,.33-2.61A8.4,8.4,0,0,0,4.18-1.56a3.157,3.157,0,0,1,.64-1.06,5.64,5.64,0,0,1-2.2-1.36h.79a11.242,11.242,0,0,1,1.13.05V-5a6.313,6.313,0,0,1-1.13.06H1.85a8.531,8.531,0,0,1-.48-.88H2.82a8.806,8.806,0,0,1,1.12.05V-6.84a6.456,6.456,0,0,1-1.12.06H2.34a10.311,10.311,0,0,0,.81-1.16L2.02-8.25a6.19,6.19,0,0,1-.9,1.47H.13c.11-.36.22-.74.28-1.01.05-.23.09-.43.13-.57l-1.2-.13v.08A7.386,7.386,0,0,1-.97-6.78h-.52a9.058,9.058,0,0,0-.8-1.44l-1.04.32a6.957,6.957,0,0,1,.71,1.12h-.14a6.2,6.2,0,0,1-1.1-.06v1.07a8.469,8.469,0,0,1,1.1-.05h1.41a6.341,6.341,0,0,1-.49.88Zm2.73,0c.18-.33.29-.56.43-.88H.33a7.5,7.5,0,0,0,.4.88Zm1.97.96a6.43,6.43,0,0,0,.71.84H-2.03a6.623,6.623,0,0,0,.75-.84ZM9.36-7.12H6.83a9.854,9.854,0,0,1-1.22-.06v1.14A9.565,9.565,0,0,1,6.82-6.1H9.36v1.28H7.53a9.35,9.35,0,0,1-1.21-.06v1.09a9.227,9.227,0,0,1,.94-.06,6.928,6.928,0,0,0,1.9,2.36A10.784,10.784,0,0,1,5.45-.31,4.952,4.952,0,0,1,6,.76,10.992,10.992,0,0,0,10.07-.82,10.855,10.855,0,0,0,14.09.8a4.029,4.029,0,0,1,.54-1.16,10.318,10.318,0,0,1-3.59-1.15A9.328,9.328,0,0,0,12.9-3.55c.2-.29.36-.52.47-.65l-.66-.67a4.352,4.352,0,0,1-.85.05H10.52V-6.1h2.69a9.457,9.457,0,0,1,1.21.06V-7.18a9.743,9.743,0,0,1-1.22.06H10.52v-.39a4.85,4.85,0,0,1,.05-.88H9.3a4.87,4.87,0,0,1,.06.88Zm2.38,3.27A5.86,5.86,0,0,1,10.11-2.1,5.333,5.333,0,0,1,8.47-3.85Zm3.75.7a4.026,4.026,0,0,1,.46-.06c.63-.04.63-.04.99-.06V-.19A6.665,6.665,0,0,1,16.88.87h1.09a6.04,6.04,0,0,1-.06-1.05V-3.35c.36-.03.36-.03.71-.07.05.2.05.21.11.41l.84-.35a14.933,14.933,0,0,0-.85-1.98l-.73.29c.19.4.25.53.36.81-.34.03-.51.04-1.09.07a26.132,26.132,0,0,0,1.58-2.34c.14-.24.21-.35.28-.45l-.92-.47a9.641,9.641,0,0,1-1,1.83c-.13-.19-.18-.25-.38-.5a15.423,15.423,0,0,0,.94-1.71,1.938,1.938,0,0,1,.17-.31l-.96-.35a6.434,6.434,0,0,1-.34.89,7.42,7.42,0,0,1-.4.77c-.16-.18-.16-.18-.32-.35l-.56.82a9.269,9.269,0,0,1,1.17,1.36c.09.12.09.12.14.19-.22.3-.29.41-.49.66a1.036,1.036,0,0,1-.16.01c-.19,0-.41-.01-.62-.03ZM20-4.44a7.384,7.384,0,0,1,.9-.04h1.85a6.878,6.878,0,0,1,.9.04v-.7a7.172,7.172,0,0,0,.7.51,3.105,3.105,0,0,1,.51-1.01,6.869,6.869,0,0,1-1.22-.87,5.425,5.425,0,0,1-1.38-1.8H21.17a5.69,5.69,0,0,1-1.1,1.68A5.355,5.355,0,0,1,18.81-5.6a2.365,2.365,0,0,1,.57.9A5.562,5.562,0,0,0,20-5.17Zm.82-.98c-.24,0-.34,0-.52-.01a7.518,7.518,0,0,0,1.44-1.82A7.34,7.34,0,0,0,23.3-5.43c-.12.01-.23.01-.46.01ZM15.75-2.78A11.084,11.084,0,0,1,15.34.01l.9.35a14.624,14.624,0,0,0,.4-2.99Zm2.38.16a15.3,15.3,0,0,1,.38,2.4l.82-.19a22.933,22.933,0,0,0-.42-2.41ZM20.68.24h2.33V.8h1.12a10.2,10.2,0,0,1-.05-1.14V-2.69a6.781,6.781,0,0,1,.04-.9,7.954,7.954,0,0,1-.82.03H20.47c-.39,0-.61-.01-.86-.03a6.572,6.572,0,0,1,.04.91V-.23c0,.37-.02.69-.05,1.03h1.08Zm0-2.87h2.34V-.72H20.68Z" transform="translate(440 3464)" fill="#fff"/>
    </g>
  </g>
</svg>
