<svg xmlns="http://www.w3.org/2000/svg" xmlns:xlink="http://www.w3.org/1999/xlink" width="222" height="222" viewBox="0 0 222 222">
  <defs>
    <linearGradient id="linear-gradient" x1="0.5" x2="0.5" y2="1" gradientUnits="objectBoundingBox">
      <stop offset="0" stop-color="#d80576"/>
      <stop offset="1" stop-color="#b2427e"/>
    </linearGradient>
  </defs>
  <g id="グループ_11836" data-name="グループ 11836" transform="translate(-1894 3955)">
    <g id="グループ_11828" data-name="グループ 11828" transform="translate(1688 -6937)">
      <circle id="楕円形_548" data-name="楕円形 548" cx="111" cy="111" r="111" transform="translate(206 2982)" fill="#0a0a0a"/>
      <path id="パス_54814" data-name="パス 54814" d="M-41.328-4.446a15.378,15.378,0,0,1-1.944-.108v1.962A17.113,17.113,0,0,1-41.328-2.7h2.16c-.522,1.494-1.746,2.286-4.05,2.628a5.009,5.009,0,0,1,1.17,1.71A7.908,7.908,0,0,0-38.9.18,4.66,4.66,0,0,0-37.242-2.7h4.194V-.306a14.872,14.872,0,0,1-.108,1.8H-31a11.535,11.535,0,0,1-.126-1.818V-2.7h2.088a14.5,14.5,0,0,1,1.926.108V-4.554a14.018,14.018,0,0,1-1.908.108h-2.106V-6.1a7.31,7.31,0,0,1,.108-1.53h-2.124a9.617,9.617,0,0,1,.09,1.512v1.674h-3.978c.018-.36.018-.5.036-1.368.828-.162,1.08-.216,1.638-.36.648-.162.648-.162.918-.234l-1.278-1.548A10.16,10.16,0,0,1-38.16-7.2a20.761,20.761,0,0,1-4.464.486,4.49,4.49,0,0,1,.738,1.584c1.278-.108,1.836-.18,2.97-.342,0,.594,0,.594-.018,1.026ZM-30.8-8.1c.918,0,1.4.018,1.872.054A15,15,0,0,1-29-9.81v-3.06a15.341,15.341,0,0,1,.072-1.782c-.594.054-1.1.072-2.142.072H-39.33c-1.026,0-1.566-.018-2.142-.072A15.946,15.946,0,0,1-41.4-12.87v3.06a15.593,15.593,0,0,1-.072,1.764c.468-.036.99-.054,1.836-.054Zm-8.694-4.932h8.568v1.008h-8.568Zm0,2.43h8.568v1.008h-8.568ZM-24.426-5.67a7.246,7.246,0,0,1,.828-.108c1.134-.072,1.134-.072,1.782-.108V-.342a12,12,0,0,1-.108,1.908h1.962a10.872,10.872,0,0,1-.108-1.89V-6.03c.648-.054.648-.054,1.278-.126.09.36.09.378.2.738l1.512-.63a26.879,26.879,0,0,0-1.53-3.564l-1.314.522c.342.72.45.954.648,1.458-.612.054-.918.072-1.962.126A47.038,47.038,0,0,0-18.4-11.718c.252-.432.378-.63.5-.81l-1.656-.846a17.354,17.354,0,0,1-1.8,3.294c-.234-.342-.324-.45-.684-.9a27.76,27.76,0,0,0,1.692-3.078,3.488,3.488,0,0,1,.306-.558l-1.728-.63a11.581,11.581,0,0,1-.612,1.6,13.357,13.357,0,0,1-.72,1.386c-.288-.324-.288-.324-.576-.63l-1.008,1.476a16.684,16.684,0,0,1,2.106,2.448c.162.216.162.216.252.342-.4.54-.522.738-.882,1.188a1.866,1.866,0,0,1-.288.018c-.342,0-.738-.018-1.116-.054Zm8.118-2.322a13.291,13.291,0,0,1,1.62-.072h3.33a12.381,12.381,0,0,1,1.62.072v-1.26a12.911,12.911,0,0,0,1.26.918,5.59,5.59,0,0,1,.918-1.818,12.365,12.365,0,0,1-2.2-1.566,9.765,9.765,0,0,1-2.484-3.24H-14.2a10.242,10.242,0,0,1-1.98,3.024A9.639,9.639,0,0,1-18.45-10.08a4.256,4.256,0,0,1,1.026,1.62,10.011,10.011,0,0,0,1.116-.846Zm1.476-1.764c-.432,0-.612,0-.936-.018a13.532,13.532,0,0,0,2.592-3.276,13.212,13.212,0,0,0,2.808,3.276c-.216.018-.414.018-.828.018ZM-23.958-5A19.95,19.95,0,0,1-24.7.018l1.62.63a26.323,26.323,0,0,0,.72-5.382Zm4.284.288A27.539,27.539,0,0,1-18.99-.4l1.476-.342a41.279,41.279,0,0,0-.756-4.338Zm4.59,5.148h4.194V1.44h2.016a18.358,18.358,0,0,1-.09-2.052v-4.23a12.206,12.206,0,0,1,.072-1.62,14.318,14.318,0,0,1-1.476.054h-5.094c-.7,0-1.1-.018-1.548-.054a11.83,11.83,0,0,1,.072,1.638v4.41c0,.666-.036,1.242-.09,1.854h1.944Zm0-5.166h4.212V-1.3h-4.212Zm12.474.27h-.918A15.085,15.085,0,0,1-5.49-4.572V-2.52a15.479,15.479,0,0,1,1.962-.108H2.52V-.414a13.119,13.119,0,0,1-.108,1.962h2.2A10.839,10.839,0,0,1,4.5-.378v-2.25H8.676a15.281,15.281,0,0,1,1.962.108V-4.572a14.7,14.7,0,0,1-1.962.108H4.5V-7.38H7.452a16.939,16.939,0,0,1,1.8.072V-9.216a13.213,13.213,0,0,1-1.854.09H4.5v-2.34H8.172a13.248,13.248,0,0,1,1.836.09v-1.962a12.782,12.782,0,0,1-1.836.09H-.252c.324-.7.5-1.08.522-1.134.126-.27.162-.324.27-.54L-1.6-15.354a5.2,5.2,0,0,1-.432,1.314,11.173,11.173,0,0,1-3.51,4.518,7.879,7.879,0,0,1,1.332,1.6,16.6,16.6,0,0,0,2.97-3.546H2.52v2.34H-1.4c-.486,0-.882-.018-1.26-.054A9.883,9.883,0,0,1-2.61-8.136Zm1.89,0V-7.38H2.52v2.916ZM20.556.216a15.089,15.089,0,0,1-.144-2.34v-9.108a27.122,27.122,0,0,1,.144-2.97,13.091,13.091,0,0,1-1.836.09H17.064a10,10,0,0,1-1.8-.108v2.286a16.008,16.008,0,0,1,1.854-.108h.864v9.918a14.941,14.941,0,0,1-.144,2.34ZM33.3-10.458a14.655,14.655,0,0,1-1.746-.072,12.238,12.238,0,0,1,.072,1.44v4.3a12.238,12.238,0,0,1-.072,1.44A14.463,14.463,0,0,1,33.3-3.42h3.834a15.86,15.86,0,0,1,1.746.072,11.656,11.656,0,0,1-.072-1.44v-4.3a11.47,11.47,0,0,1,.072-1.44,14.849,14.849,0,0,1-1.746.072Zm.216,1.692H36.9v3.654H33.516Zm9.432,10.26A18.224,18.224,0,0,1,42.84-.828V-12.24a18.548,18.548,0,0,1,.108-2.16,18.824,18.824,0,0,1-2.142.09H29.646a18.161,18.161,0,0,1-2.106-.09,19.216,19.216,0,0,1,.108,2.16V-.846a19.769,19.769,0,0,1-.108,2.34h2.088V.5H40.842v.99Zm-13.32-14H40.842V-1.278H29.628Z" transform="translate(317 3131)" fill="#fff"/>
      <path id="合体_14" data-name="合体 14" d="M986.04,9778.261v-47.35h-4.535a1,1,0,0,1-.864-1.5l11.581-19.943a1,1,0,0,1,1.725,0l11.581,19.943a1,1,0,0,1-.864,1.5h-4.535v47.35Zm-19.725,0v-31h14.091v31Zm-19.718-.007v-19.726h14.089v19.726ZM928,9721.807a21.806,21.806,0,1,1,21.806,21.809A21.808,21.808,0,0,1,928,9721.807Zm13.136,1.612v3.384h6.619v5.122h4.106V9726.8h6.614v-3.392h-6.614v-2.393l.643-1h5.971v-2.9h-4.106l3.492-5.428h-3.482l-4.572,7.108-4.569-7.108h-3.482l3.49,5.428h-4.108v2.9h5.971l.648,1v2.388h-6.619Z" transform="translate(-650 -6684)" fill="url(#linear-gradient)"/>
    </g>
  </g>
</svg>
