<svg xmlns="http://www.w3.org/2000/svg" xmlns:xlink="http://www.w3.org/1999/xlink" width="222" height="222" viewBox="0 0 222 222">
  <defs>
    <linearGradient id="linear-gradient" x1="0.5" x2="0.5" y2="1" gradientUnits="objectBoundingBox">
      <stop offset="0" stop-color="#d80576"/>
      <stop offset="1" stop-color="#b2427e"/>
    </linearGradient>
  </defs>
  <g id="グループ_11834" data-name="グループ 11834" transform="translate(-697 -3230)">
    <circle id="楕円形_554" data-name="楕円形 554" cx="111" cy="111" r="111" transform="translate(697 3230)" fill="#0a0a0a"/>
    <path id="パス_54825" data-name="パス 54825" d="M-31.95-5.562a9.88,9.88,0,0,0,2.322,2.034,7.677,7.677,0,0,1,.99-1.764A10.613,10.613,0,0,1-31.5-7.578a14.789,14.789,0,0,0,1.8-3.078,5,5,0,0,1,.4-.756l-.864-.936a6.557,6.557,0,0,1-1.044.054h-.738V-13.77a7.672,7.672,0,0,1,.108-1.4H-34.02a8.265,8.265,0,0,1,.108,1.368v1.512h-.9a10.99,10.99,0,0,1-1.422-.072v2a12.325,12.325,0,0,1,1.512-.072h2.934A10.7,10.7,0,0,1-33.75-7.668a12.415,12.415,0,0,1-3.1,2.43,6.974,6.974,0,0,1,.918,1.872,12.13,12.13,0,0,0,2-1.53V-.378a10.768,10.768,0,0,1-.108,1.872h2.178a12.782,12.782,0,0,1-.09-1.836Zm7.632-2.664h1.908c.63,0,1.188.036,1.764.09V-10.17a11.707,11.707,0,0,1-1.764.09h-1.908v-3.168a10.552,10.552,0,0,1,.126-1.872h-2.25a12.74,12.74,0,0,1,.126,1.872v3.168h-1.35a12.151,12.151,0,0,1-1.764-.09v2.034c.576-.054,1.152-.09,1.764-.09h1.35v7.038h-1.962a16.322,16.322,0,0,1-2.07-.108V.882A14.516,14.516,0,0,1-28.314.756h6.156a14.78,14.78,0,0,1,2.052.126V-1.3a15.439,15.439,0,0,1-2.052.108h-2.16Zm11.43,6.606A13.553,13.553,0,0,1-18-.126a5.806,5.806,0,0,1,1.1,1.782,21.377,21.377,0,0,0,2.754-.72,15.663,15.663,0,0,0,3.276-1.6l-1.134-.954h4.9l-.972.882A13.542,13.542,0,0,0-2.07,1.674,6.034,6.034,0,0,1-.954-.09,14.277,14.277,0,0,1-6.138-1.62H-4.7c.9,0,1.458.018,2.016.072a3.158,3.158,0,0,1-.054-.72c0-.072-.018-.468-.018-1.17V-7.992a16.181,16.181,0,0,1,.072-1.926c-.63.054-1.134.072-2.016.072h-9.576c-.846,0-1.458-.018-2-.072A17.811,17.811,0,0,1-16.2-7.992v4.554c0,.9-.036,1.44-.072,1.89.576-.054,1.1-.072,2-.072Zm-1.386-6.732H-4.7v.828h-9.576Zm0,2.178H-4.7v.828h-9.576Zm0,2.178H-4.7v.882h-9.576ZM-3.42-13.32a10.944,10.944,0,0,1,.072-1.386,15.644,15.644,0,0,1-2.034.09h-8.172a15.949,15.949,0,0,1-2.052-.09,8.963,8.963,0,0,1,.09,1.386v1.386c0,.486-.036.9-.072,1.35.54-.036,1.17-.054,1.98-.054h8.3c.792,0,1.4.018,1.944.054-.036-.414-.054-.81-.054-1.35Zm-2,.234v.99h-8.118v-.99Zm19.782,1.728A17.516,17.516,0,0,1,11.718-9.5,18.3,18.3,0,0,1,8.046-7.74,5.464,5.464,0,0,1,8.91-5.994c.162-.072.468-.216.9-.432V-.468A12.648,12.648,0,0,1,9.7,1.386H11.79A17.2,17.2,0,0,1,11.7-.468V-7.38a8.089,8.089,0,0,0,.756-.432,16.586,16.586,0,0,0,1.08,4.428A11.942,11.942,0,0,0,16.83,1.368,6.333,6.333,0,0,1,18-.612a10.361,10.361,0,0,1-3.006-4.194A18.956,18.956,0,0,0,17.73-7.182L16.506-8.568a8.57,8.57,0,0,1-2.106,2A13.767,13.767,0,0,1,14.04-8.8c.27-.2,1.188-.882,1.332-.99.324-.252.378-.288.648-.486l-1.278-1.08H15.93a15.593,15.593,0,0,1,1.764.072V-13.23a12.819,12.819,0,0,1-1.854.108H11.574c.144-.342.18-.432.378-.9a7.712,7.712,0,0,1,.342-.756l-2-.378a9.9,9.9,0,0,1-1.944,4v-1.494a9.966,9.966,0,0,1-1.62.09h-.72v-.972A9.515,9.515,0,0,1,6.1-15.1H3.978a9.785,9.785,0,0,1,.108,1.584v.954H2.952a9.122,9.122,0,0,1-1.764-.108v1.944a8.852,8.852,0,0,1,1.584-.09h.2a37.035,37.035,0,0,1-.36,5.832A9.964,9.964,0,0,1,.81-.216a5.59,5.59,0,0,1,1.4,1.692,10.874,10.874,0,0,0,1.8-3.852A20.706,20.706,0,0,0,4.68-7.164H6.1a49.866,49.866,0,0,1-.234,5.238C5.724-.864,5.634-.72,5.058-.72A5.009,5.009,0,0,1,3.816-.882a6.308,6.308,0,0,1,.36,1.944c.468.036.666.036.936.036,1.4,0,2-.324,2.3-1.242A25.635,25.635,0,0,0,7.938-5.9a28.959,28.959,0,0,1,.072-3.06,12.834,12.834,0,0,1-1.44.054H4.77c.036-.756.036-.756.054-1.314v-.594h1.89c.594,0,.936.018,1.332.036a10.94,10.94,0,0,1-.918.936,4.712,4.712,0,0,1,1.44,1.17,12.255,12.255,0,0,0,2.088-2.682Zm17.442,3.51v6.786c0,.4-.09.432-.81.432a21.156,21.156,0,0,1-2.448-.2,7.24,7.24,0,0,1,.522,2.016c.846.036,1.386.054,2,.054,2.178,0,2.7-.378,2.7-1.926V-7.848h.774a18.655,18.655,0,0,1,2.142.108V-9.756a15.842,15.842,0,0,1-2.2.108h-6.12a18.473,18.473,0,0,1-2.214-.108V-7.74a19.113,19.113,0,0,1,2.214-.108Zm-7.6-7.4a6.31,6.31,0,0,1-.864,1.26,11.359,11.359,0,0,1-3.222,2.466,8.168,8.168,0,0,1,1.134,1.692,17.192,17.192,0,0,0,4.14-3.6c.342-.4.342-.4.54-.612Zm2.664,2.916a18.439,18.439,0,0,1,2.106-.108h4.9a17.707,17.707,0,0,1,2.016.108v-2a15.253,15.253,0,0,1-2.052.108H28.98a15.418,15.418,0,0,1-2.106-.108ZM22.59-.828a15.574,15.574,0,0,1-.126,2.286H24.7A15.466,15.466,0,0,1,24.57-.81V-7.9c.468-.576.63-.81,1.044-1.4a6.361,6.361,0,0,1,.594-.792l-1.692-1.116a12.9,12.9,0,0,1-4.428,4.752,8.27,8.27,0,0,1,.9,1.926,8.87,8.87,0,0,0,1.638-1.53c-.036,1.224-.036,1.332-.036,2.088Z" transform="translate(808 3369)" fill="#fff"/>
    <g id="旅行用スーツケースのアイコン1" transform="translate(772 3231.436)">
      <path id="パス_54528" data-name="パス 54528" d="M0,128.364V167.4a4.883,4.883,0,0,0,4.886,4.881h6.1v-48.8h-6.1A4.88,4.88,0,0,0,0,128.364Z" transform="translate(0 -72.183)" fill="url(#linear-gradient)"/>
      <path id="パス_54529" data-name="パス 54529" d="M439.568,123.483h-6.1v48.8h6.1a4.882,4.882,0,0,0,4.881-4.881V128.364A4.879,4.879,0,0,0,439.568,123.483Z" transform="translate(-372.849 -72.183)" fill="url(#linear-gradient)"/>
      <path id="パス_54530" data-name="パス 54530" d="M177.234,188.684a1.224,1.224,0,1,0,1.731,0A1.224,1.224,0,0,0,177.234,188.684Z" transform="translate(-152.14 -127.959)" fill="url(#linear-gradient)"/>
      <path id="パス_54531" data-name="パス 54531" d="M147.171,43.549a3.992,3.992,0,0,0-3.985-3.985H123.62a3.989,3.989,0,0,0-3.985,3.985V51.3h-6.166v48.8h39.868V51.3h-6.166Zm-9.642,25.968-6.044,6.043a1.634,1.634,0,0,1-2.31,0L119.811,66.2a1.637,1.637,0,0,1-.478-1.155V59a1.633,1.633,0,0,1,1.633-1.632h6.043a1.634,1.634,0,0,1,1.156.478l9.364,9.365A1.635,1.635,0,0,1,137.529,69.518Zm4.76-18.218H124.517V44.447h17.772Z" transform="translate(-97.601 0)" fill="url(#linear-gradient)"/>
    </g>
    <g id="グループ_11710" data-name="グループ 11710" transform="translate(363 -63)">
      <rect id="長方形_8560" data-name="長方形 8560" width="76" height="21" rx="10.5" transform="translate(407 3451)" fill="#222"/>
      <path id="パス_54826" data-name="パス 54826" d="M-22.332-3.228h-.1A7.518,7.518,0,0,1-23.556-3.3v1.308a8.574,8.574,0,0,1,1.116-.072h.108v1.7A12.832,12.832,0,0,1-22.4,1h1.416A8.084,8.084,0,0,1-21.06-.348V-2.064H-14.9V-.636c0,.312-.108.372-.624.372a10.609,10.609,0,0,1-1.536-.12A5.6,5.6,0,0,1-16.776.888c.432.036.816.048,1.308.048,1.44,0,1.848-.264,1.848-1.212V-2.064h.072a8,8,0,0,1,1.1.072V-3.3a6.964,6.964,0,0,1-1.1.072h-.072V-6.36a8.777,8.777,0,0,1,.06-1.2,8.139,8.139,0,0,1-1.032.048h-2.784v-1h3.384c.492,0,1.008.024,1.476.072V-9.744a13.652,13.652,0,0,1-1.476.072h-7.92A13.264,13.264,0,0,1-23.4-9.744v1.308a14.719,14.719,0,0,1,1.488-.072h3.276v1H-21.4a7.531,7.531,0,0,1-1-.048,9.757,9.757,0,0,1,.06,1.212Zm1.272,0V-4.284h2.424v1.056Zm0-2.136V-6.408h2.424v1.044Zm3.684,2.136V-4.284H-14.9v1.056Zm0-2.136V-6.408H-14.9v1.044Zm9.492,2.2a10.868,10.868,0,0,1-1.248-.048v1.1a8.354,8.354,0,0,1,1.272-.06A2.918,2.918,0,0,1-9.144-.036a5.424,5.424,0,0,1,.96.828A4.314,4.314,0,0,0-6.732-2.172h1.344V-.408A5.6,5.6,0,0,1-5.448.624h1.26A5.147,5.147,0,0,1-4.248-.4V-2.172h.18a8.6,8.6,0,0,1,1.236.06v-1.1a10.764,10.764,0,0,1-1.236.048h-.18v-1.1A10.868,10.868,0,0,1-3-4.224V-5.3a8.484,8.484,0,0,1-1.248.06h-3.48A8.042,8.042,0,0,1-8.94-5.3v1.08a10.46,10.46,0,0,1,1.2-.048c0,.552,0,.684-.024,1.1Zm2.5-1.1v1.1h-1.26c.024-.564.024-.564.024-1.1Zm-4.38-1.536h2.232c.42,0,.792.012,1.1.036-.024-.312-.036-.54-.036-1.08V-8.7c0-.42.012-.768.036-1.116a10.139,10.139,0,0,1-1.224.048H-9.84a10.9,10.9,0,0,1-1.236-.048,13.3,13.3,0,0,1,.048,1.344v7.92A10.609,10.609,0,0,1-11.1.936h1.4A10.562,10.562,0,0,1-9.768-.528Zm0-3.06h2.124v.636H-9.768Zm0,1.488h2.124v.648H-9.768Zm8.832-1.1c0-.6.012-.888.048-1.332a10.764,10.764,0,0,1-1.236.048H-4.416A10.4,10.4,0,0,1-5.64-9.816c.024.348.036.66.036,1.116v1.848c0,.54,0,.732-.024,1.08.288-.024.672-.036,1.092-.036h2.352v5.1c0,.264-.072.312-.456.312a8.576,8.576,0,0,1-1.1-.1A4.307,4.307,0,0,1-3.42.78c.4.024.564.024.78.024C-1.3.8-.936.528-.936-.54Zm-3.48-.384h2.232v.636H-4.416Zm0,1.488h2.232v.648H-4.416ZM9.648-9.66a7.336,7.336,0,0,1-1.032.048H3.276A9.745,9.745,0,0,1,1.8-9.684v1.332a10.836,10.836,0,0,1,1.452-.06h4.68A12.992,12.992,0,0,1,6.024-7.176C5.316-7.62,5.052-7.788,4.26-8.22L3.384-7.4a24.454,24.454,0,0,1,2.64,1.7H2.316A12.068,12.068,0,0,1,.744-5.772v1.356a12.561,12.561,0,0,1,1.512-.072h3.18v3.8c0,.264-.084.324-.48.324A11.618,11.618,0,0,1,3.2-.48,4.95,4.95,0,0,1,3.552.852c.372.024.972.036,1.368.036C6.4.888,6.792.624,6.792-.36V-4.488H9.576a7.687,7.687,0,0,1-1.74,1.632,3.874,3.874,0,0,1,1.056.9A11.2,11.2,0,0,0,10.8-3.936c.5-.672.768-1.008.78-1.02l-.756-.8a9.95,9.95,0,0,1-1.332.06H7.344l.36-.36c-.288-.192-.3-.2-.564-.372.624-.384,1.128-.72,1.86-1.212a13.485,13.485,0,0,0,1.392-1.14ZM17.484-1A3.477,3.477,0,0,1,15.66-2.664c.18-.564.252-.84.312-1.08.108-.492.108-.5.168-.708L14.808-4.7a7.438,7.438,0,0,1-.24,1.3A7.105,7.105,0,0,1,12.5-.012a3.266,3.266,0,0,1,1.032.984A8.5,8.5,0,0,0,15.18-1.38C16.164.072,17.736.684,20.544.684c.948,0,1.572-.012,2.556-.036A4.667,4.667,0,0,1,23.436-.72c-1.224.108-2.04.144-2.736.144A14.028,14.028,0,0,1,18.744-.7V-2.76h2.268a8.1,8.1,0,0,1,1.176.06V-3.984a6.155,6.155,0,0,1-1.176.072H18.744V-5.448h1.572a8.6,8.6,0,0,1,1.236.06V-6.66a8.4,8.4,0,0,1-1.236.06h-4.6a8.042,8.042,0,0,1-1.212-.06v1.272a8.543,8.543,0,0,1,1.212-.06h1.764Zm-.2-7.86H14.148c-.48,0-.888-.012-1.32-.048.024.276.048.576.048.888v.924a5.3,5.3,0,0,1-.06.948h1.332v-1.5H21.9v1.5h1.3a7.748,7.748,0,0,1-.048-.936v-.936A6.6,6.6,0,0,1,23.2-8.9c-.444.036-.852.048-1.332.048h-3.24v-.456a3.644,3.644,0,0,1,.06-.756H17.208a3.883,3.883,0,0,1,.072.768Z" transform="translate(445 3466)" fill="#fff"/>
    </g>
  </g>
</svg>
