<svg xmlns="http://www.w3.org/2000/svg" xmlns:xlink="http://www.w3.org/1999/xlink" width="222" height="222" viewBox="0 0 222 222">
  <defs>
    <linearGradient id="linear-gradient" x1="0.5" x2="0.5" y2="1" gradientUnits="objectBoundingBox">
      <stop offset="0" stop-color="#d80576"/>
      <stop offset="1" stop-color="#b2427e"/>
    </linearGradient>
  </defs>
  <g id="グループ_11830" data-name="グループ 11830" transform="translate(-451 -2982)">
    <circle id="楕円形_549" data-name="楕円形 549" cx="111" cy="111" r="111" transform="translate(451 2982)" fill="#0a0a0a"/>
    <g id="おこづかいアイコン2" transform="translate(524 2996.211)">
      <path id="パス_54550" data-name="パス 54550" d="M139.693,296.862c-2.007,1.671-12.152,8.369-12.152,8.369H110.864l-.053.027a1.591,1.591,0,1,1,.1-3.18h12.236a4.482,4.482,0,0,0,0-8.963H105.283c-11.17,0-13.492,4.693-15.434,7.915v18.459l20.926,2.158c7.874.431,11.649,0,17.259-4.745,0,0,16.75-12.24,18.768-13.916a4.212,4.212,0,0,0,.134-6.235C145.174,294.828,141.89,295.236,139.693,296.862Z" transform="translate(-76.582 -228.704)" fill="url(#linear-gradient)"/>
      <rect id="長方形_8496" data-name="長方形 8496" width="9.708" height="23.622" transform="translate(0 67.971)" fill="url(#linear-gradient)"/>
      <path id="パス_54551" data-name="パス 54551" d="M294.748,108.3H296.7V105.95h3.15v-1.71H296.7v-.7l.527-.918h2.623V100.9h-1.734L299.56,98h-1.879l-1.956,3.706L293.768,98h-1.876l1.441,2.907H291.6v1.722h2.625l.526.919v.7H291.6v1.71h3.151Z" transform="translate(-248.539 -62.398)" fill="url(#linear-gradient)"/>
      <path id="パス_54552" data-name="パス 54552" d="M167.9,82.8h37.171a5.738,5.738,0,0,1,4.468-4.264V65.6a5.742,5.742,0,0,1-4.468-4.264H167.9a5.742,5.742,0,0,1-4.468,4.264V78.531A5.738,5.738,0,0,1,167.9,82.8Zm33.878-12.851a2.119,2.119,0,1,1-2.118,2.118A2.121,2.121,0,0,1,201.773,69.944Zm-15.292-6.816a8.936,8.936,0,1,1-8.936,8.934A8.935,8.935,0,0,1,186.481,63.128Zm-15.293,6.816a2.119,2.119,0,1,1-2.119,2.118A2.118,2.118,0,0,1,171.187,69.944Z" transform="translate(-139.295 -31.148)" fill="url(#linear-gradient)"/>
      <path id="パス_54553" data-name="パス 54553" d="M127.1,24.789V57.043h56.834V24.789Zm53.845,29.265H130.094V27.778h50.855Z" transform="translate(-108.336 0)" fill="url(#linear-gradient)"/>
    </g>
    <path id="パス_54815" data-name="パス 54815" d="M-36.306-13.266h-1.818a10.874,10.874,0,0,0-1.206-1.728l-1.764.594a6.19,6.19,0,0,1,.972,1.134h-1.1a17.026,17.026,0,0,1-1.836-.072,13.848,13.848,0,0,1,.072,1.53v.99a9.68,9.68,0,0,1-.072,1.224H-41.2v-2.2h11.934v2.2h1.854a8.008,8.008,0,0,1-.072-1.17V-11.7a15.028,15.028,0,0,1,.072-1.638,14.463,14.463,0,0,1-1.746.072H-30.4a12.66,12.66,0,0,0,.882-1.17L-31.3-15.1a9.046,9.046,0,0,1-1.152,1.836h-1.908v-.648a6.88,6.88,0,0,1,.09-1.278H-36.4a7,7,0,0,1,.09,1.278ZM-38.826-.99a16.109,16.109,0,0,1-4.842.846,6.235,6.235,0,0,1,1.062,1.71A17.757,17.757,0,0,0-36.792-.09l-1.044-.9h4.9l-.936.9A14.021,14.021,0,0,0-31.014,1.1a15.781,15.781,0,0,0,3.114.648A8.02,8.02,0,0,1-26.982.108a14.268,14.268,0,0,1-4.842-1.1h.99c.684,0,1.206.018,1.764.054a13.535,13.535,0,0,1-.072-1.854V-5.634a16.363,16.363,0,0,1,.072-1.782c-.522.036-.972.054-2,.054h-8.37c-1.116,0-1.458-.018-2-.054a16.791,16.791,0,0,1,.072,1.782V-2.79a16.146,16.146,0,0,1-.072,1.854c.63-.036,1.134-.054,1.926-.054Zm-.666-5.184h8.478V-5.6h-8.478Zm0,1.656h8.478v.594h-8.478Zm0,1.674h8.478v.63h-8.478Zm9.18-7.272a11.255,11.255,0,0,1,.054-1.152c-.522.036-1.044.054-1.746.054h-6.462c-.72,0-1.188-.018-1.746-.054a8.918,8.918,0,0,1,.054,1.134v1.116a10.764,10.764,0,0,1-.054,1.152c.594-.054,1.044-.072,1.638-.072h6.66a13.72,13.72,0,0,1,1.638.054c-.018-.45-.036-.738-.036-1.17Zm-1.8.126v.828h-6.264V-9.99Zm18.9,2.556c-.072.9-.108,1.17-.216,2.016H-22.3a20.83,20.83,0,0,1-2.3-.108v2.052c.72-.072,1.476-.108,2.286-.108h8.6a9.068,9.068,0,0,1-.72,2.322c-.234.378-.594.522-1.3.522a24.7,24.7,0,0,1-3.492-.324,7.388,7.388,0,0,1,.594,2.07c1.512.108,2.124.144,2.916.144C-14.04,1.152-13.338.9-12.78.09a9.289,9.289,0,0,0,1.152-3.672h1.53a21.26,21.26,0,0,1,2.178.108V-5.526a21.26,21.26,0,0,1-2.178.108h-1.26c.036-.27.054-.414.072-.612.2-2.25.234-2.61.36-3.33a11.471,11.471,0,0,1-1.836.09h-6.786c.27-.936.378-1.35.54-1.944h7.164c.936,0,1.548.036,2.124.09v-2.07a14.759,14.759,0,0,1-2.214.108H-18.54a18.8,18.8,0,0,1,.5-1.908l-2.25-.252a17.634,17.634,0,0,1-.738,3.852,28.761,28.761,0,0,1-1.512,4.5l2.106.252c.144-.4.18-.486.288-.792Zm10.6,2.97h-.918A15.085,15.085,0,0,1-5.49-4.572V-2.52a15.479,15.479,0,0,1,1.962-.108H2.52V-.414a13.119,13.119,0,0,1-.108,1.962h2.2A10.839,10.839,0,0,1,4.5-.378v-2.25H8.676a15.281,15.281,0,0,1,1.962.108V-4.572a14.7,14.7,0,0,1-1.962.108H4.5V-7.38H7.452a16.939,16.939,0,0,1,1.8.072V-9.216a13.213,13.213,0,0,1-1.854.09H4.5v-2.34H8.172a13.248,13.248,0,0,1,1.836.09v-1.962a12.782,12.782,0,0,1-1.836.09H-.252c.324-.7.5-1.08.522-1.134.126-.27.162-.324.27-.54L-1.6-15.354a5.2,5.2,0,0,1-.432,1.314,11.173,11.173,0,0,1-3.51,4.518,7.879,7.879,0,0,1,1.332,1.6,16.6,16.6,0,0,0,2.97-3.546H2.52v2.34H-1.4c-.486,0-.882-.018-1.26-.054A9.883,9.883,0,0,1-2.61-8.136Zm1.89,0V-7.38H2.52v2.916ZM21.564.216c1.152,0,1.872.036,2.718.108V-2.052a18.912,18.912,0,0,1-2.628.144h-5.04a4.339,4.339,0,0,1,1.026-1.62,15.747,15.747,0,0,1,2.142-1.8,22.534,22.534,0,0,0,3.024-2.214,3.654,3.654,0,0,0,1.278-2.88c0-2.466-1.944-3.978-5.094-3.978a5.234,5.234,0,0,0-4.122,1.6,5.4,5.4,0,0,0-1.242,2.88l2.574.306a3.421,3.421,0,0,1,.558-1.656,2.543,2.543,0,0,1,2.286-1.062c1.53,0,2.484.756,2.484,1.98,0,.918-.5,1.512-2.16,2.646A24.788,24.788,0,0,0,16.4-5.526,8.884,8.884,0,0,0,13.932-2a9.2,9.2,0,0,0-.468,2.3,16.589,16.589,0,0,1,2.322-.09ZM33.3-10.458a14.655,14.655,0,0,1-1.746-.072,12.238,12.238,0,0,1,.072,1.44v4.3a12.238,12.238,0,0,1-.072,1.44A14.463,14.463,0,0,1,33.3-3.42h3.834a15.86,15.86,0,0,1,1.746.072,11.656,11.656,0,0,1-.072-1.44v-4.3a11.47,11.47,0,0,1,.072-1.44,14.849,14.849,0,0,1-1.746.072Zm.216,1.692H36.9v3.654H33.516Zm9.432,10.26A18.224,18.224,0,0,1,42.84-.828V-12.24a18.548,18.548,0,0,1,.108-2.16,18.824,18.824,0,0,1-2.142.09H29.646a18.161,18.161,0,0,1-2.106-.09,19.216,19.216,0,0,1,.108,2.16V-.846a19.769,19.769,0,0,1-.108,2.34h2.088V.5H40.842v.99Zm-13.32-14H40.842V-1.278H29.628Z" transform="translate(562 3131)" fill="#fff"/>
    <g id="グループ_11713" data-name="グループ 11713" transform="translate(9)">
      <rect id="長方形_8557" data-name="長方形 8557" width="47" height="21" rx="10.5" transform="translate(500 3144)" fill="#222"/>
      <path id="パス_54816" data-name="パス 54816" d="M-2.472-9.468a13.258,13.258,0,0,1-1.644.06H-7.932a13.255,13.255,0,0,1-1.644-.084v1.584A11.458,11.458,0,0,1-8-7.992H-4.3A19.831,19.831,0,0,0-6.4-4.5,17.937,17.937,0,0,0-7.848.144h1.9A15.456,15.456,0,0,1-3.72-6.348,8.166,8.166,0,0,1-2.472-8.076Zm9.408,6.7V-.7c0,.264-.084.324-.444.324A12.134,12.134,0,0,1,4.728-.516,4.342,4.342,0,0,1,5.076.828c.612.036,1.008.048,1.392.048A2.379,2.379,0,0,0,7.86.636c.3-.192.432-.54.432-1.14V-8.28a9.051,9.051,0,0,1,.06-1.356,10.816,10.816,0,0,1-1.392.06h-5a12.107,12.107,0,0,1-1.4-.06,16.911,16.911,0,0,1,.06,1.812c0,3.12-.12,4.524-.48,5.64A4.543,4.543,0,0,1-1.152-.072a4.642,4.642,0,0,1,1.116,1.1A6.729,6.729,0,0,0,1.38-1.344a8.894,8.894,0,0,0,.348-1.428ZM1.872-4c.072-.972.1-1.236.1-1.608H6.936V-4ZM1.98-6.828v-1.5H6.936v1.5Z" transform="translate(524 3160)" fill="#fff"/>
      <rect id="長方形_8558" data-name="長方形 8558" width="53" height="21" rx="10.5" transform="translate(554 3144)" fill="#222"/>
      <path id="パス_54817" data-name="パス 54817" d="M-9.168.144a10.059,10.059,0,0,1-.1-1.56V-7.488a18.081,18.081,0,0,1,.1-1.98,8.727,8.727,0,0,1-1.224.06h-1.1a6.669,6.669,0,0,1-1.2-.072v1.524a10.672,10.672,0,0,1,1.236-.072h.576v6.612a9.96,9.96,0,0,1-.1,1.56Zm9.216,0C.816.144,1.3.168,1.86.216V-1.368a12.608,12.608,0,0,1-1.752.1h-3.36a2.893,2.893,0,0,1,.684-1.08,10.5,10.5,0,0,1,1.428-1.2A15.023,15.023,0,0,0,.876-5.028a2.436,2.436,0,0,0,.852-1.92c0-1.644-1.3-2.652-3.4-2.652A3.489,3.489,0,0,0-4.416-8.532a3.6,3.6,0,0,0-.828,1.92l1.716.2a2.281,2.281,0,0,1,.372-1.1A1.7,1.7,0,0,1-1.632-8.22c1.02,0,1.656.5,1.656,1.32,0,.612-.336,1.008-1.44,1.764A16.525,16.525,0,0,0-3.4-3.684,5.922,5.922,0,0,0-5.04-1.332,6.131,6.131,0,0,0-5.352.2,11.059,11.059,0,0,1-3.8.144Zm11.16-2.916V-.7c0,.264-.084.324-.444.324A12.134,12.134,0,0,1,9-.516,4.342,4.342,0,0,1,9.348.828c.612.036,1.008.048,1.392.048a2.379,2.379,0,0,0,1.392-.24c.3-.192.432-.54.432-1.14V-8.28a9.051,9.051,0,0,1,.06-1.356,10.816,10.816,0,0,1-1.392.06h-5a12.107,12.107,0,0,1-1.4-.06,16.911,16.911,0,0,1,.06,1.812c0,3.12-.12,4.524-.48,5.64A4.543,4.543,0,0,1,3.12-.072a4.642,4.642,0,0,1,1.116,1.1A6.729,6.729,0,0,0,5.652-1.344,8.894,8.894,0,0,0,6-2.772ZM6.144-4c.072-.972.1-1.236.1-1.608h4.968V-4Zm.108-2.832v-1.5h4.956v1.5Z" transform="translate(581 3160)" fill="#fff"/>
    </g>
  </g>
</svg>
