<svg xmlns="http://www.w3.org/2000/svg" xmlns:xlink="http://www.w3.org/1999/xlink" width="222" height="222" viewBox="0 0 222 222">
  <defs>
    <linearGradient id="linear-gradient" x1="0.5" x2="0.5" y2="1" gradientUnits="objectBoundingBox">
      <stop offset="0" stop-color="#d80576"/>
      <stop offset="1" stop-color="#b2427e"/>
    </linearGradient>
  </defs>
  <g id="グループ_11825" data-name="グループ 11825" transform="translate(-697 -2982)">
    <circle id="楕円形_551" data-name="楕円形 551" cx="111" cy="111" r="111" transform="translate(697 2982)" fill="#0a0a0a"/>
    <path id="パス_54818" data-name="パス 54818" d="M-16.794-8.028a7.491,7.491,0,0,1-.828,1.62,8.814,8.814,0,0,1-1.3,1.656,11.784,11.784,0,0,1-2-2.88c-.036-.072-.09-.216-.18-.378l-1.62,1.044A14.919,14.919,0,0,0-20.34-3.438,18.186,18.186,0,0,1-27.054-.36a6.139,6.139,0,0,1,.99,1.89,20.939,20.939,0,0,0,7.128-3.636,18.117,18.117,0,0,0,7.38,3.564,6.452,6.452,0,0,1,.972-2A16.515,16.515,0,0,1-17.5-3.474a16.49,16.49,0,0,0,2.412-3.42Zm-3.24-5.184h-4.59a17.135,17.135,0,0,1-2.25-.108v2.052a16.762,16.762,0,0,1,2.25-.108h11.448a17.074,17.074,0,0,1,2.268.108V-13.32a17.009,17.009,0,0,1-2.232.108h-4.878v-.63a6.212,6.212,0,0,1,.108-1.3h-2.232a7.257,7.257,0,0,1,.108,1.3Zm-2.16,2.106A11.589,11.589,0,0,1-26.946-6.84,6.332,6.332,0,0,1-25.6-5.274,18.678,18.678,0,0,0-22.95-7.326a14.454,14.454,0,0,0,2.466-2.844Zm4.68.954a13.782,13.782,0,0,0,2.3,2.5,15.517,15.517,0,0,0,3.24,2.214,6.838,6.838,0,0,1,1.152-1.746,12.46,12.46,0,0,1-2.988-1.746,11.442,11.442,0,0,1-2.124-2.214Zm16.4-1.116a15.01,15.01,0,0,1-2.016-.09A21.045,21.045,0,0,1-3.06-9.252v5.688A13.662,13.662,0,0,1-3.15-1.6h2.034a9.778,9.778,0,0,1-.108-1.962v-.918h2.43v.756a13.846,13.846,0,0,1-.108,2h2a11.512,11.512,0,0,1-.108-2v-.756h2.7v.7c0,.468-.018.5-.414.5a8.686,8.686,0,0,1-1.188-.108A4.426,4.426,0,0,1,4.5-1.674c.342.018.648.018.81.018,1.116,0,1.566-.108,1.89-.414.252-.27.324-.63.324-1.656V-9.27A19.53,19.53,0,0,1,7.6-11.358a11.471,11.471,0,0,1-1.836.09H4.32a23.916,23.916,0,0,0,2.322-1.71,6.862,6.862,0,0,1,.9-.684l-.918-1.116a9.062,9.062,0,0,1-2.034.126H-1.242a16.022,16.022,0,0,1-2.142-.108v1.836a13.337,13.337,0,0,1,1.872-.09H.2l-1.386.81a10.377,10.377,0,0,1,1.494.936Zm4.1,1.53h2.7v1.17h-2.7Zm-1.782,0v1.17h-2.43v-1.17Zm-2.43,2.61h2.43v1.206h-2.43ZM5.688-5.922h-2.7V-7.128h2.7ZM4.014-13.014a17.083,17.083,0,0,1-1.8,1.35c-1.062-.792-1.224-.9-1.872-1.35ZM-8.37-13.572a17.228,17.228,0,0,1,3.06,3.366l1.494-1.458A20.864,20.864,0,0,0-6.93-14.922Zm.054,7.254a5.979,5.979,0,0,1,1.152-.09h.918v3.834A10.321,10.321,0,0,1-8.622-.846l.972,1.98a15.094,15.094,0,0,0,2-1.746,3.24,3.24,0,0,0,.288-.27A4.373,4.373,0,0,0-3.276.648a13.393,13.393,0,0,0,4.05.45c3.024,0,4.842-.036,7.2-.144A12.035,12.035,0,0,1,8.5-1.188,50.772,50.772,0,0,1,.972-.72,14.621,14.621,0,0,1-2.61-1.044a3.332,3.332,0,0,1-.9-.468A2.741,2.741,0,0,1-4.392-2.52V-6.372A18.136,18.136,0,0,1-4.32-8.334a7.8,7.8,0,0,1-1.368.09h-1.26a7.556,7.556,0,0,1-1.368-.09ZM21.8-10.134v-.63h2.43c.648,0,1.188.018,1.764.054a8.4,8.4,0,0,1-.054-1.278v-.72a9.232,9.232,0,0,1,.072-1.4,16.4,16.4,0,0,1-1.764.09H21.8a5.259,5.259,0,0,1,.09-1.134H19.926a4.966,4.966,0,0,1,.09,1.134H18a9.3,9.3,0,0,1,.072-1.134H16.146a6.922,6.922,0,0,1,.072,1.134h-2.97a10.632,10.632,0,0,1-1.728-.09v1.566a10.231,10.231,0,0,1,1.728-.09h2.916c0,.2-.018.2-.054.63H13.752c-.72,0-1.152-.018-1.512-.054A11.03,11.03,0,0,1,11.2-8.784c.5-.018,1.116-.036,1.494-.036h2c-.954.738-1.836,1.062-4.122,1.548a4.355,4.355,0,0,1,.72,1.278l.144.324c.7-.216.954-.288,1.44-.468V-2.79c0,.774-.036,1.476-.072,1.8.414-.036,1.134-.054,1.908-.054h.846A14.021,14.021,0,0,1,10.746.2a7.281,7.281,0,0,1,1.1,1.566,14.718,14.718,0,0,0,5.688-2.07l-.9-.738h4.68l-.99.738A14.519,14.519,0,0,0,26.19,1.746,8.81,8.81,0,0,1,27.306.126a12.23,12.23,0,0,1-4.914-1.17h.864c.738,0,1.53.018,1.908.054A18.082,18.082,0,0,1,25.092-2.9v-4.14c1.224-.072,1.512-.414,1.728-1.926.108-.918.108-.918.162-1.224-.414.036-.738.054-1.53.054Zm1.53,2.2H21.8V-8.82h3.168c-.054.486-.126.558-.486.558a4.106,4.106,0,0,1-1.008-.162,2.02,2.02,0,0,1,.18.486Zm-3.312,0H16.11a4.054,4.054,0,0,0,.81-.882h3.1Zm-4.1-2.826c-.09.27-.126.378-.216.63H13.572a4.172,4.172,0,0,0,.216-.63Zm4.1,0v.63H17.55c.072-.27.09-.36.162-.63Zm0-1.872v.63H17.91c.018-.288.036-.378.036-.63Zm1.782,0h2.268v.63H21.8ZM14.724-6.7h8.5v.63h-8.5Zm0,1.782h8.5v.666h-8.5Zm0,1.818h8.5v.666h-8.5Zm-44.19,19.788v2.034h-2.646a15.041,15.041,0,0,1-2-.09v2.016a17.95,17.95,0,0,1,2-.09h2.646v2.43H-33.93a18.289,18.289,0,0,1-2.3-.108V24.99a15.522,15.522,0,0,1,2.25-.126h11.232a15.794,15.794,0,0,1,2.268.126V22.884a18.967,18.967,0,0,1-2.286.108h-4.68v-2.43h2.916a17.817,17.817,0,0,1,1.98.09V18.636a16.89,16.89,0,0,1-1.98.09H-27.45V16.692h2.538a17.553,17.553,0,0,1,1.908.09V15.468c.81.468,1.332.756,2.142,1.134a8.508,8.508,0,0,1,1.152-2.07,16.311,16.311,0,0,1-4.41-2.286,13.133,13.133,0,0,1-3.2-3.186H-29.61a7.561,7.561,0,0,1-.972,1.3,16.124,16.124,0,0,1-1.98,1.89,17.461,17.461,0,0,1-4.356,2.376A11.345,11.345,0,0,1-35.73,16.53,16.019,16.019,0,0,0-33.768,15.5v1.278a17.687,17.687,0,0,1,1.962-.09Zm-2.484-1.818c-.27,0-.432,0-.792-.018A14.45,14.45,0,0,0-28.4,10.77a16.14,16.14,0,0,0,4.428,4.086c-.342.018-.468.018-.846.018Zm20.664-1.548a5.713,5.713,0,0,1-.828.036h-1.44c.162-.288.162-.288.27-.5l.144-.288-1.674-.342a7.249,7.249,0,0,1-3.1,3.582,3.958,3.958,0,0,1,.954,1.4,8.582,8.582,0,0,0,1.3-1.08,9.672,9.672,0,0,0,1.062,1.1,10.794,10.794,0,0,1-3.528,1.62,4.292,4.292,0,0,1,.9,1.656c.378-.162.486-.216.792-.36.018.27.018.414.018.666v2.808a14.414,14.414,0,0,1-.09,1.674h1.854v-.99h2.466v.846h1.8c-.018-.234-.036-.5-.054-.864a5.689,5.689,0,0,1,.954,1.35,9.955,9.955,0,0,0,3.654-2.592l-1.314-1.134h2.952l-1.26,1.152A9.915,9.915,0,0,0-1.818,25.6a7.149,7.149,0,0,1,1.08-1.728A8.234,8.234,0,0,1-4.05,21.912h.612c.432,0,.936.018,1.548.054-.036-.648-.054-1.08-.054-1.854V13.9c0-.684.018-1.1.054-1.6a12.405,12.405,0,0,1-1.764.054H-4.842a13.323,13.323,0,0,0,.45-1.26h1.278a13.939,13.939,0,0,1,1.89.09V9.276a13.363,13.363,0,0,1-1.89.09h-4.7a12.553,12.553,0,0,1-1.89-.09v1.152c-.27.018-.594.036-1.332.036H-12.51V10.1a4.763,4.763,0,0,1,.09-1.152h-2.07a5.26,5.26,0,0,1,.09,1.134v.378h-1.692a11.562,11.562,0,0,1-1.44-.054c.036.45.054.882.054,1.206v.864a8.6,8.6,0,0,1-.072,1.152h1.782V12.066h4.482Zm.648.234h1.044a8.171,8.171,0,0,1-.054-1.206v-1.17a15.645,15.645,0,0,1,1.836-.09h1.566c-.126.4-.2.63-.45,1.26H-7.74a14.305,14.305,0,0,1-1.512-.036c.054.882.054.882.054,1.692v6.3c0,.414-.018,1.224-.054,1.656q.945-.054,1.4-.054h.54a6.637,6.637,0,0,1-1.4,1.224,6.369,6.369,0,0,1-1.746.882V20.94c0-.684,0-.684.036-1.242l.522.162a5.851,5.851,0,0,1,.63-1.62,13.862,13.862,0,0,1-2.862-1.08,15.259,15.259,0,0,0,1.854-2.52c.09-.126.108-.144.216-.288l.072-.09Zm-1.62,1.3a12.03,12.03,0,0,1-1.206,1.44,7.222,7.222,0,0,1-1.224-1.242.785.785,0,0,0,.162-.2Zm-2.934,4.662a11.318,11.318,0,0,0,1.872-1.26A16.441,16.441,0,0,0-10.926,19.5c-.216.018-.324.018-.7.018Zm.522,1.494h2.484v1.746H-14.67Zm7.236-7.038h3.708v1.08H-7.434Zm0,2.556h3.708v1.134H-7.434Zm0,2.61h3.708v1.116H-7.434ZM8.3,11.184H3.744a17.737,17.737,0,0,1-2.2-.108v2.052a17.218,17.218,0,0,1,2.178-.108H8.3v2.3H5a16.829,16.829,0,0,1-2.178-.108v1.962a16.609,16.609,0,0,1,1.692-.108,12.471,12.471,0,0,0,3.42,4.248A19.412,19.412,0,0,1,1.26,23.442a8.914,8.914,0,0,1,.99,1.926,19.786,19.786,0,0,0,7.326-2.844,19.54,19.54,0,0,0,7.236,2.916,7.252,7.252,0,0,1,.972-2.088,18.571,18.571,0,0,1-6.462-2.07A16.791,16.791,0,0,0,14.67,17.61c.36-.522.648-.936.846-1.17l-1.188-1.206a7.834,7.834,0,0,1-1.53.09H10.386v-2.3h4.842a17.022,17.022,0,0,1,2.178.108V11.076a17.536,17.536,0,0,1-2.2.108H10.386v-.7a8.729,8.729,0,0,1,.09-1.584H8.19A8.767,8.767,0,0,1,8.3,10.482Zm4.284,5.886a10.547,10.547,0,0,1-2.934,3.15A9.6,9.6,0,0,1,6.7,17.07Zm7.65,1.26a7.246,7.246,0,0,1,.828-.108c1.134-.072,1.134-.072,1.782-.108v5.544a12,12,0,0,1-.108,1.908H24.7a10.872,10.872,0,0,1-.108-1.89V17.97c.648-.054.648-.054,1.278-.126.09.36.09.378.2.738l1.512-.63a26.879,26.879,0,0,0-1.53-3.564l-1.314.522c.342.72.45.954.648,1.458-.612.054-.918.072-1.962.126a47.038,47.038,0,0,0,2.844-4.212c.252-.432.378-.63.5-.81l-1.656-.846a17.353,17.353,0,0,1-1.8,3.294c-.234-.342-.324-.45-.684-.9a27.761,27.761,0,0,0,1.692-3.078,3.488,3.488,0,0,1,.306-.558L22.9,8.754a11.582,11.582,0,0,1-.612,1.6,13.357,13.357,0,0,1-.72,1.386c-.288-.324-.288-.324-.576-.63L19.98,12.588a16.684,16.684,0,0,1,2.106,2.448c.162.216.162.216.252.342-.4.54-.522.738-.882,1.188a1.866,1.866,0,0,1-.288.018c-.342,0-.738-.018-1.116-.054Zm8.118-2.322a13.291,13.291,0,0,1,1.62-.072H33.3a12.381,12.381,0,0,1,1.62.072v-1.26a12.911,12.911,0,0,0,1.26.918,5.59,5.59,0,0,1,.918-1.818,12.365,12.365,0,0,1-2.2-1.566,9.765,9.765,0,0,1-2.484-3.24H30.456a10.242,10.242,0,0,1-1.98,3.024,9.639,9.639,0,0,1-2.268,1.854,4.256,4.256,0,0,1,1.026,1.62,10.011,10.011,0,0,0,1.116-.846Zm1.476-1.764c-.432,0-.612,0-.936-.018a13.532,13.532,0,0,0,2.592-3.276,13.212,13.212,0,0,0,2.808,3.276c-.216.018-.414.018-.828.018ZM20.7,19a19.95,19.95,0,0,1-.738,5.022l1.62.63a26.323,26.323,0,0,0,.72-5.382Zm4.284.288a27.539,27.539,0,0,1,.684,4.32l1.476-.342a41.279,41.279,0,0,0-.756-4.338Zm4.59,5.148h4.194V25.44h2.016a18.357,18.357,0,0,1-.09-2.052v-4.23a12.206,12.206,0,0,1,.072-1.62,14.318,14.318,0,0,1-1.476.054H29.2c-.7,0-1.1-.018-1.548-.054a11.83,11.83,0,0,1,.072,1.638v4.41c0,.666-.036,1.242-.09,1.854h1.944Zm0-5.166h4.212V22.7H29.574Z" transform="translate(808 3131)" fill="#fff"/>
    <g id="グループ_11707" data-name="グループ 11707" transform="translate(144.192 -1249.109)">
      <path id="合体_5" data-name="合体 5" d="M76.281,67.039c0-.074.016-.145.022-.219H74.119c.006.074.024.145.024.219a3.724,3.724,0,1,1-7.449,0c0-.074.018-.145.022-.219h-9.2c.005.074.022.145.022.219a3.723,3.723,0,1,1-7.447,0c0-.074.016-.145.022-.219H47.93c.005.074.022.145.022.219a3.723,3.723,0,1,1-7.447,0c0-.074.016-.145.022-.219H36.163A3.322,3.322,0,0,1,32.839,63.5V43.589A10.044,10.044,0,0,1,42.886,33.542h6.282L44.523,30.06l7.76-5.814,7.76,5.814L55.4,33.542H68.832L64.188,30.06l7.762-5.814,7.76,5.814-4.642,3.482h6.28A10.046,10.046,0,0,1,91.394,43.589V63.5A3.322,3.322,0,0,1,88.07,66.82H83.706c0,.074.022.145.022.219a3.723,3.723,0,1,1-7.447,0ZM38.4,39.1a6.306,6.306,0,0,0-1.858,4.486V63.115H87.688V43.589a6.34,6.34,0,0,0-6.341-6.342H42.886A6.3,6.3,0,0,0,38.4,39.1ZM68.639,30.06l3.311,2.481,3.311-2.481L71.95,27.58Zm-19.665,0,3.309,2.481,3.311-2.481-3.311-2.48ZM44.049,59.038V45.7H50.72V59.038ZM72.4,52.367V45.7h7.783v6.671Zm-14.639,0V45.7h7.782v6.671ZM0,24.5a16.7,16.7,0,1,1,16.7,16.7A16.707,16.707,0,0,1,0,24.5Zm10.063,1.234v2.591h5.071v3.924h3.143V28.325h5.068v-2.6H18.277V23.9l.494-.765h4.574V20.909H20.2l2.674-4.159H20.207l-3.5,5.448L13.2,16.75H10.537l2.674,4.158H10.063v2.223h4.574l.5.769v1.828H10.063ZM38.316,15.422l-.371-1.406A1.324,1.324,0,0,0,37,13.069L35.589,12.7a.222.222,0,0,1,0-.429L37,11.9a1.333,1.333,0,0,0,.948-.948l.371-1.408a.222.222,0,0,1,.429,0l.371,1.408a1.33,1.33,0,0,0,.948.948l1.408.371a.222.222,0,0,1,0,.429l-1.408.371a1.322,1.322,0,0,0-.948.948l-.371,1.406a.221.221,0,0,1-.429,0ZM45.066,9.9l-.606-2.3a2.176,2.176,0,0,0-1.552-1.55l-2.3-.607a.365.365,0,0,1,0-.7l2.3-.6A2.182,2.182,0,0,0,44.46,2.574l.606-2.3a.363.363,0,0,1,.7,0l.606,2.3a2.179,2.179,0,0,0,1.552,1.552l2.3.6a.364.364,0,0,1,0,.7l-2.3.607a2.174,2.174,0,0,0-1.552,1.55l-.606,2.3a.363.363,0,0,1-.7,0Z" transform="translate(617.808 4269.108)" fill="url(#linear-gradient)"/>
    </g>
  </g>
</svg>
