<svg xmlns="http://www.w3.org/2000/svg" xmlns:xlink="http://www.w3.org/1999/xlink" width="222" height="222" viewBox="0 0 222 222">
  <defs>
    <linearGradient id="linear-gradient" x1="0.5" x2="0.5" y2="1" gradientUnits="objectBoundingBox">
      <stop offset="0" stop-color="#d80576"/>
      <stop offset="1" stop-color="#b2427e"/>
    </linearGradient>
  </defs>
  <g id="グループ_11832" data-name="グループ 11832" transform="translate(-451 -3480)">
    <circle id="楕円形_556" data-name="楕円形 556" cx="111" cy="111" r="111" transform="translate(451 3480)" fill="#0a0a0a"/>
    <path id="パス_54829" data-name="パス 54829" d="M-49.32.81a18.466,18.466,0,0,1-.072-2V-5.94a10.282,10.282,0,0,0-.072-1.224,5.816,5.816,0,0,0,.612.306A43.714,43.714,0,0,1-42.48-3.42l1.26-2.124a52.356,52.356,0,0,0-8.172-3.8V-12.69a14.916,14.916,0,0,1,.072-1.89h-2.466a11.8,11.8,0,0,1,.108,1.836V-1.206A13.128,13.128,0,0,1-51.786.81Zm3.69-13.824a12.149,12.149,0,0,1,1.89,2.682L-42.48-11a11.665,11.665,0,0,0-1.89-2.646Zm5.292.846a10.41,10.41,0,0,0-1.872-2.538l-1.206.63a13.262,13.262,0,0,1,1.836,2.61Zm6.66-2.034a11.365,11.365,0,0,1,.072,1.62v4.95a12.981,12.981,0,0,1-.09,1.62h2.466A8.689,8.689,0,0,1-31.3-7.6v-4.968a9.149,9.149,0,0,1,.072-1.62Zm8.118.036a9.479,9.479,0,0,1,.09,1.71v2.25c0,1.44-.018,2.232-.09,3.006-.2,2.376-.792,3.474-2.484,4.59a9.709,9.709,0,0,1-3.888,1.44A6.149,6.149,0,0,1-30.672.972a15.225,15.225,0,0,0,3.51-1.386,6.894,6.894,0,0,0,3.546-4.194,21.261,21.261,0,0,0,.468-5.454v-2.43a8.538,8.538,0,0,1,.09-1.674Zm9.306,2.61A18.9,18.9,0,0,1-11.664-7.9l1.548-1.962a25.493,25.493,0,0,0-4.644-3.474Zm.63,11.88A6.372,6.372,0,0,1-14.436.018a19.443,19.443,0,0,0,6.858-2.7A15.8,15.8,0,0,0-1.872-9.738,7.762,7.762,0,0,1-3.78-11.5,15.03,15.03,0,0,1-5.616-7.9a12.026,12.026,0,0,1-5.346,4.41A17.151,17.151,0,0,1-16.29-2.16ZM15.048-12.654a3.189,3.189,0,0,1-1.314.18l-3.942.054c-.342,0-.63.018-.864.036a4.245,4.245,0,0,0,.288-.576l.234-.468a3.633,3.633,0,0,1,.234-.5,3.681,3.681,0,0,1,.306-.558l-2.466-.486A6.718,6.718,0,0,1,6.606-12.6,13.846,13.846,0,0,1,1.944-7.38,4.782,4.782,0,0,1,3.69-5.832,17.618,17.618,0,0,0,7.9-10.44l5.418-.09a14.254,14.254,0,0,1-5.256,7.6A16.21,16.21,0,0,1,4.122-.81a5.546,5.546,0,0,1,1.53,1.89A18.184,18.184,0,0,0,12.06-3.492a18.67,18.67,0,0,0,3.69-6.948,3.386,3.386,0,0,1,.45-1.08Zm9.36,1.566v1.53h-2.52a9.995,9.995,0,0,1-1.6-.09v1.926a12.9,12.9,0,0,1,1.854-.09h2.268V-6.39H22.554a12.5,12.5,0,0,1-1.746-.09,15.226,15.226,0,0,1,.072,1.692v3.312A10.2,10.2,0,0,1,20.79.288h1.962a15.046,15.046,0,0,1-.072-1.746V-4.68h1.728V-.45A11.3,11.3,0,0,1,24.3,1.512h2.034a12.93,12.93,0,0,1-.09-1.944V-4.68h1.62V-1.8c0,.234-.108.306-.45.306-.2,0-.666-.036-.954-.072a4.985,4.985,0,0,1,.324,1.71c.5.036.666.036.828.036,1.548,0,2-.324,2-1.44v-3.6c0-.81.018-1.17.054-1.6a13.892,13.892,0,0,1-1.674.072H26.244V-7.812h2.034a10.363,10.363,0,0,1,1.728.09V-9.63a14.539,14.539,0,0,1-1.656.072H26.244v-1.53h1.53a15.54,15.54,0,0,1,1.782.072v-1.908a11.116,11.116,0,0,1-1.782.09h-1.53v-.54a8.094,8.094,0,0,1,.108-1.71H24.3a8.916,8.916,0,0,1,.108,1.746v.5H23.022c.09-.36.2-.756.234-.954a5.487,5.487,0,0,1,.2-.72l-1.836-.342a2.785,2.785,0,0,1-.09.7,10.048,10.048,0,0,1-1.422,3.564,14.073,14.073,0,0,1,1.71.882,14.791,14.791,0,0,0,.63-1.386Zm6.21-2.736a10.378,10.378,0,0,1,.108,1.908v7.2a11.254,11.254,0,0,1-.09,1.926h2.016a11.268,11.268,0,0,1-.09-1.908v-7.254a12.429,12.429,0,0,1,.09-1.872Zm3.438-1.188a16.822,16.822,0,0,1,.108,2.232V-1.026c0,.432-.162.54-.81.54a16.337,16.337,0,0,1-2.322-.18,5.444,5.444,0,0,1,.54,1.926c1.062.036,1.62.054,1.71.054A3.6,3.6,0,0,0,35.46.9c.432-.306.594-.756.594-1.71V-12.834a12.281,12.281,0,0,1,.126-2.178Zm10.728,5.76V-7.56a10.614,10.614,0,0,1-.072,1.134c.324-.018.558-.018,1.26-.018h5c.72,0,.756,0,1.17.018a9.956,9.956,0,0,1-.054-1.134V-9.252H53.82a11.4,11.4,0,0,1,1.6.072v-1.782a9.725,9.725,0,0,1-1.6.09H52.092v-1.26h1.386a18.591,18.591,0,0,1,1.89.072v-1.872a16.264,16.264,0,0,1-2.178.108H48.726V-14.2a4.326,4.326,0,0,1,.09-1.044H46.674a6.046,6.046,0,0,1,.09,1.026v.4H42.282c-.774,0-1.4-.036-2.034-.09.054.648.072,1.116.072,2.448A38.4,38.4,0,0,1,39.8-3.348,9.749,9.749,0,0,1,38.682-.27a7.438,7.438,0,0,1,1.512,1.656A12.959,12.959,0,0,0,41.724-2.9a37.336,37.336,0,0,0,.5-6.354Zm-2.538-1.62v-1.26h2.538v1.26Zm4.428,0v-1.26H50.2v1.26Zm0,1.62H50.2V-8.01H46.674Zm5.9,3.78c-.432.036-.756.054-1.494.054H44.8a12.511,12.511,0,0,1-1.926-.09v1.692c.378-.036.648-.054,1.278-.072A10.437,10.437,0,0,0,46.6-1.332,17.01,17.01,0,0,1,41.454-.324a6.121,6.121,0,0,1,.7,1.854A19.389,19.389,0,0,0,48.312-.234a17.883,17.883,0,0,0,6.5,1.746,8.8,8.8,0,0,1,.756-2.034,15.819,15.819,0,0,1-5.328-.846,14.737,14.737,0,0,0,2.97-2.7c.162-.18.18-.2.342-.36ZM50.652-3.888A10.14,10.14,0,0,1,48.42-2.2a7.064,7.064,0,0,1-2.088-1.692Z" transform="translate(562 3620)" fill="#fff"/>
    <g id="缶ジュースアイコン2" transform="translate(450.535 3518)">
      <path id="パス_54539" data-name="パス 54539" d="M133.939,12.093a5.115,5.115,0,0,0-.555-1.353l0,0c-.128-.223-.259-.414-.423-.654-.565-.812-1.5-2.048-2.314-3.114-.408-.534-.783-1.018-1.055-1.369V0H93.947V5.6c-.349.451-.865,1.118-1.41,1.834-.48.63-.977,1.291-1.4,1.864-.209.287-.4.552-.563.787s-.295.431-.423.654a5.127,5.127,0,0,0-.558,1.356,5.3,5.3,0,0,0-.131,1.264c0,.362.015.679.015,1.079V58.753a10.949,10.949,0,0,0,.507,3.348,6.442,6.442,0,0,0,.8,1.659,4.137,4.137,0,0,0,1.6,1.4,1.922,1.922,0,0,1,.678.494,4.2,4.2,0,0,1,.372.535c.115.183.253.414.456.687a4.035,4.035,0,0,0,1.464,1.238,4.92,4.92,0,0,0,2.192.451h28.418a5.673,5.673,0,0,0,1.337-.146,3.959,3.959,0,0,0,2.335-1.566c.4-.56.569-.907.745-1.119a1.871,1.871,0,0,1,.745-.574,4.141,4.141,0,0,0,1.6-1.4,7.184,7.184,0,0,0,1.038-2.508,11.513,11.513,0,0,0,.273-2.5V14.436c0-.4.014-.718.015-1.08A5.286,5.286,0,0,0,133.939,12.093ZM98.091,4.144h27.353v2.6H98.091ZM93.646,59.2c-.009-.153-.021-.308-.021-.451V14.436c0-.491-.016-.858-.015-1.079a1.389,1.389,0,0,1,.017-.3,1.1,1.1,0,0,1,.125-.266c0-.01.1-.164.232-.35.47-.678,1.4-1.918,2.2-2.958.267-.348.506-.659.724-.941h19.8c-1.41,5.093-1.13,13.33.351,26.516A37.776,37.776,0,0,1,111.276,59.2H93.646Zm35.695,2.189-.049.062a6.1,6.1,0,0,0-1.964,1.486A8.007,8.007,0,0,0,126.572,64c-.125.2-.212.336-.26.4h0a1.632,1.632,0,0,1-.336.026H97.559a1.6,1.6,0,0,1-.334-.026,2.452,2.452,0,0,1-.14-.206,9.273,9.273,0,0,0-.908-1.285,6.118,6.118,0,0,0-1.933-1.451.959.959,0,0,1-.142-.218,2.45,2.45,0,0,1-.1-.23h35.534A2.186,2.186,0,0,1,129.341,61.394Zm.57-46.958V58.753c0,.144-.006.3-.016.451h-9.765c2.174-5.034,1.827-15.047,1.135-19.351-3.323-20.677-.612-28.677.858-31.308h4.5c.5.645,1.165,1.513,1.777,2.327.343.458.667.9.92,1.25.127.176.237.333.318.454s.14.213.142.219l0,0a1.029,1.029,0,0,1,.125.266,1.391,1.391,0,0,1,.018.3C129.926,13.578,129.911,13.945,129.911,14.436Z" fill="url(#linear-gradient)"/>
      <path id="パス_54540" data-name="パス 54540" d="M183.894,333.491a6.671,6.671,0,0,0-.776-3.162l-.127-.239h-2.606l.378.671a5.4,5.4,0,0,1,.783,2.612,3.893,3.893,0,0,1-1,2.76,3.168,3.168,0,0,1-2.461,1.077,3.2,3.2,0,0,1-2.443-1.054,3.663,3.663,0,0,1-1.006-2.634,6.447,6.447,0,0,1,.75-2.784l.318-.648h-2.572l-.116.276a8.311,8.311,0,0,0-.7,3.219A5.917,5.917,0,0,0,174,337.811a5.456,5.456,0,0,0,4.068,1.763,5.523,5.523,0,0,0,4.128-1.791A6.022,6.022,0,0,0,183.894,333.491Z" transform="translate(-71.756 -285.884)" fill="url(#linear-gradient)"/>
      <path id="パス_54541" data-name="パス 54541" d="M173.991,248.684a5.4,5.4,0,0,0,4.046,1.777,5.622,5.622,0,0,0,4.152-1.748,6.119,6.119,0,0,0,.011-8.47,5.628,5.628,0,0,0-4.163-1.737,5.43,5.43,0,0,0-4.031,1.759,5.834,5.834,0,0,0-1.687,4.175A5.983,5.983,0,0,0,173.991,248.684Zm1.641-6.766a3.242,3.242,0,0,1,2.468-1.056,3.276,3.276,0,0,1,2.434,1.042,3.386,3.386,0,0,1,1.03,2.481,3.732,3.732,0,0,1-1.014,2.67,3.2,3.2,0,0,1-2.45,1.073,3.274,3.274,0,0,1-2.452-1.048,3.462,3.462,0,0,1-1.027-2.53A3.645,3.645,0,0,1,175.632,241.918Z" transform="translate(-71.758 -206.565)" fill="url(#linear-gradient)"/>
      <path id="パス_54542" data-name="パス 54542" d="M185.6,189.222h-2.254v3.264h-8.67v2.254H185.6Z" transform="translate(-73.796 -163.881)" fill="url(#linear-gradient)"/>
      <path id="パス_54543" data-name="パス 54543" d="M178.954,116.768l-2.565-1.15v-3.671l2.565-1.163V108.36L167,113.793l11.951,5.39Zm-4.606-2.065-2.029-.91,2.029-.92v1.83Z" transform="translate(-67.154 -93.848)" fill="url(#linear-gradient)"/>
    </g>
    <g id="グループ_11714" data-name="グループ 11714" transform="translate(100 207)">
      <rect id="長方形_8559" data-name="長方形 8559" width="110" height="18" rx="9" transform="translate(407 3427)" fill="#222"/>
      <path id="パス_54830" data-name="パス 54830" d="M-36.84-4.92a8.9,8.9,0,0,1,1.25.07V-6.12a8.327,8.327,0,0,1-1.26.07H-39.5c.01-.37.02-.6.02-1.01a7.449,7.449,0,0,1,.07-1.17h-1.32a6.681,6.681,0,0,1,.07,1c0,.52-.01.68-.03,1.18h-2.45a7.9,7.9,0,0,1-1.26-.07v1.27a7.6,7.6,0,0,1,1.25-.07h2.36a5.083,5.083,0,0,1-2.25,3.77,7.177,7.177,0,0,1-1.62.85,3.926,3.926,0,0,1,.7,1.05A7.412,7.412,0,0,0-41.57-.82,6.045,6.045,0,0,0-39.94-3.5a7.506,7.506,0,0,0,1.51,2.42A8.116,8.116,0,0,0-35.96.75,4.118,4.118,0,0,1-35.23-.4a6.979,6.979,0,0,1-2.76-1.9,6.983,6.983,0,0,1-1.44-2.62Zm10.62-.86a3.951,3.951,0,0,1-.81.05h-2.48V-7.01h2.94a8.4,8.4,0,0,1,1.09.05V-8.07a8.453,8.453,0,0,1-1.12.06h-2.81c-.44,0-.83-.02-1.18-.05.03.31.04.69.04,1.22,0,.6-.03,1.48-.07,2.23a9.322,9.322,0,0,1-.36,2.5A4.678,4.678,0,0,1-32.48.06a3.026,3.026,0,0,1,.86.77,6.27,6.27,0,0,0,1.5-2.27,9.848,9.848,0,0,0,.57-3.32h.15a7.071,7.071,0,0,0,1.02,3.07A6.169,6.169,0,0,1-30.71-.04,3.184,3.184,0,0,1-30,.84,7.112,7.112,0,0,0-27.74-.83,7.634,7.634,0,0,0-25.72.79,3.083,3.083,0,0,1-25.17-.3a5.736,5.736,0,0,1-1.92-1.39A8.82,8.82,0,0,0-26-4.18a8.594,8.594,0,0,1,.3-1.03Zm-.71,1.02a7.125,7.125,0,0,1-.81,2.18,6.262,6.262,0,0,1-.71-2.18Zm-7.29,4.4A8.336,8.336,0,0,1-34.28.79h1.16a8.165,8.165,0,0,1-.05-1.03V-7.16h1.23a8.661,8.661,0,0,1-.99,2.26,3.137,3.137,0,0,1,.75,1.14,2.465,2.465,0,0,1,.16.79.449.449,0,0,1-.14.38.9.9,0,0,1-.37.05c-.08,0-.14,0-.49-.03a1.966,1.966,0,0,1,.21,1.02h.2c1.1,0,1.57-.42,1.57-1.4a3.682,3.682,0,0,0-.73-2.04,17.007,17.007,0,0,0,.87-1.92c.04-.11.06-.19.07-.21a.442.442,0,0,0,.03-.08,1.39,1.39,0,0,1,.1-.21l-.52-.75a3.764,3.764,0,0,1-.67.04H-33.6a5.793,5.793,0,0,1-.65-.03c.02.27.03.6.03.96Zm13.49-6.31v1.46h1.46V-6.67Zm0,4.28V-.93h1.46V-2.39ZM-10.59-6.5h-2.69a8.271,8.271,0,0,1-1.14-.06v1.05a8.945,8.945,0,0,1,1.13-.06h1.63a8.772,8.772,0,0,1-2.98,1.43,3.657,3.657,0,0,1,.58.91,9.635,9.635,0,0,0,1.43-.64v.78a6.241,6.241,0,0,1,1-.05h2.39a4.871,4.871,0,0,1-.9.52h-.33c.02.24.02.24.03.42h-2.77a8.9,8.9,0,0,1-1.22-.06v1.05a10.034,10.034,0,0,1,1.23-.06h2.76v.85c0,.2-.1.25-.51.25a9.232,9.232,0,0,1-1.25-.1A3.25,3.25,0,0,1-11.92.76c.44.03.6.03,1,.03a3.51,3.51,0,0,0,1-.1c.39-.13.55-.39.55-.9V-1.27h2.53a10.215,10.215,0,0,1,1.24.06V-2.26a9.276,9.276,0,0,1-1.23.06H-9.29a10.4,10.4,0,0,0,2-1.36l-.56-.52a4.551,4.551,0,0,1-.74.04h-3.12c-.29,0-.39,0-.58-.01A7.583,7.583,0,0,0-10.57-5.4a3.4,3.4,0,0,0-.02.43v.1a4.057,4.057,0,0,1-.05.64h1.13a3.654,3.654,0,0,1-.04-.65V-5c0-.06-.01-.23-.03-.4A7.552,7.552,0,0,0-7.83-4.07a13.3,13.3,0,0,0,1.91.83,3.485,3.485,0,0,1,.59-.98,9.2,9.2,0,0,1-2.09-.72,6.726,6.726,0,0,1-1.07-.63h1.74a8.959,8.959,0,0,1,1.15.06V-6.56a8.041,8.041,0,0,1-1.15.06h-2.8v-.66c.64-.04,1.93-.18,2.89-.3.23-.03.25-.03.38-.05l-.8-.96a26.833,26.833,0,0,1-5.64.55c-.28,0-.55,0-1.12-.02a2.991,2.991,0,0,1,.38.93h.54c.84,0,1.51-.02,2.33-.08ZM.29.22A10.318,10.318,0,0,0-.97-1.99l-.86.34a7.085,7.085,0,0,1,.43.68c-.71.19-.82.21-1.5.35V-2.03H-.98a5.988,5.988,0,0,1,.88.04,7.469,7.469,0,0,1-.03-.94V-4.69A7.747,7.747,0,0,1-.1-5.65a6.48,6.48,0,0,1-.91.04H-3.15c-.27,0-.37,0-.54-.01a10.6,10.6,0,0,0,.8-1.07h.51a4.221,4.221,0,0,1,.34,1l1.01-.28a6.949,6.949,0,0,0-.34-.72h.53a6.541,6.541,0,0,1,.81.04,5.167,5.167,0,0,1-.43.49,3.241,3.241,0,0,1,.83.56,7.03,7.03,0,0,0,.81-1.1h.6a5.638,5.638,0,0,1,.41,1.01l.98-.3a4.318,4.318,0,0,0-.36-.71h.63a8.468,8.468,0,0,1,1.1.05V-7.66a6.544,6.544,0,0,1-1.1.06H1.65c.09-.21.09-.21.26-.64L.83-8.44A4.878,4.878,0,0,1,.01-6.71v-.94a6.118,6.118,0,0,1-.98.06H-2.41c.14-.3.25-.52.31-.65l-1.12-.22a4.271,4.271,0,0,1-.52,1.2A5.8,5.8,0,0,1-4.76-5.99a3.274,3.274,0,0,1,.81.57c.01.21.02.4.02.89v4.1a5.02,5.02,0,0,1-.69.07l.31,1.1C-3.83.6-3.8.59-3.3.48A18.7,18.7,0,0,0-1.01-.17c.12.29.18.43.33.85ZM-2.9-4.77h1.8v.5H-2.9Zm0,1.3h1.8v.52H-2.9ZM4.18-4.79c0-.25.01-.56.03-.85-.52.03-.67.04-1.13.04H1.4a7.461,7.461,0,0,1-.85-.04c.02.28.03.41.03.86V-.07A6.026,6.026,0,0,1,.53.79L1.69.78a5.437,5.437,0,0,1-.05-.92V-4.7l1.49.01v3.08c-.01.45-.01.46-.41.46a4.467,4.467,0,0,1-.74-.08A2.734,2.734,0,0,1,2.29-.07h.42A2.04,2.04,0,0,0,3.89-.28c.21-.17.28-.44.29-1.1ZM8.85.45A10.259,10.259,0,0,1,8.81-.66V-3.3a5.712,5.712,0,0,0-.04-.68,3.231,3.231,0,0,0,.34.17A24.285,24.285,0,0,1,12.65-1.9l.7-1.18A29.086,29.086,0,0,0,8.81-5.19V-7.05A8.287,8.287,0,0,1,8.85-8.1H7.48a6.554,6.554,0,0,1,.06,1.02V-.67A7.293,7.293,0,0,1,7.48.45ZM10.9-7.23a6.749,6.749,0,0,1,1.05,1.49l.7-.37A6.481,6.481,0,0,0,11.6-7.58Zm2.94.47A5.783,5.783,0,0,0,12.8-8.17l-.67.35a7.368,7.368,0,0,1,1.02,1.45Zm3.2-1.13a6.314,6.314,0,0,1,.04.9v2.75a7.212,7.212,0,0,1-.05.9H18.4a4.827,4.827,0,0,1-.04-.88V-6.98a5.083,5.083,0,0,1,.04-.9Zm4.51.02a5.266,5.266,0,0,1,.05.95v1.25c0,.8-.01,1.24-.05,1.67a2.828,2.828,0,0,1-1.38,2.55,5.394,5.394,0,0,1-2.16.8,3.416,3.416,0,0,1,.7,1.19,8.459,8.459,0,0,0,1.95-.77,3.83,3.83,0,0,0,1.97-2.33,11.811,11.811,0,0,0,.26-3.03V-6.94a4.743,4.743,0,0,1,.05-.93Zm4.67,1.45a10.5,10.5,0,0,1,2.55,2.03l.86-1.09a14.163,14.163,0,0,0-2.58-1.93Zm.35,6.6a3.54,3.54,0,0,1,.66-.17,10.8,10.8,0,0,0,3.81-1.5,8.776,8.776,0,0,0,3.17-3.92,4.312,4.312,0,0,1-1.06-.98,8.35,8.35,0,0,1-1.02,2,6.681,6.681,0,0,1-2.97,2.45,9.529,9.529,0,0,1-2.96.74ZM43.11-7.03a1.771,1.771,0,0,1-.73.1l-2.19.03c-.19,0-.35.01-.48.02a2.358,2.358,0,0,0,.16-.32L40-7.46a2.018,2.018,0,0,1,.13-.28,2.044,2.044,0,0,1,.17-.31l-1.37-.27A3.732,3.732,0,0,1,38.42-7a7.692,7.692,0,0,1-2.59,2.9,2.657,2.657,0,0,1,.97.86A9.788,9.788,0,0,0,39.14-5.8l3.01-.05a7.919,7.919,0,0,1-2.92,4.22A9.006,9.006,0,0,1,37.04-.45,3.081,3.081,0,0,1,37.89.6a10.1,10.1,0,0,0,3.56-2.54A10.372,10.372,0,0,0,43.5-5.8a1.881,1.881,0,0,1,.25-.6Z" transform="translate(462 3440)" fill="#fff"/>
    </g>
    <g id="グループ_11715" data-name="グループ 11715" transform="translate(100 231)">
      <rect id="長方形_8559-2" data-name="長方形 8559" width="110" height="18" rx="9" transform="translate(407 3427)" fill="#222"/>
      <path id="パス_54831" data-name="パス 54831" d="M-42.95-1.72h-.39V-5.88a6.907,6.907,0,0,1,.04-1.03h-1.01a9.985,9.985,0,0,1,.05,1.03v4.79A9.769,9.769,0,0,1-44.32.1h.97V-.73h1.73v.36h.93c-.02-.26-.03-.74-.03-1.16V-5.86a7.066,7.066,0,0,1,.04-1.05h-.99a9.257,9.257,0,0,1,.04,1.05v4.14h-.39V-7.17a7.849,7.849,0,0,1,.05-1.16h-1.04a8.305,8.305,0,0,1,.06,1.19Zm4.35-4.35v1.2h-.85a7.931,7.931,0,0,1-.96-.05v1.07c.18-.01.24-.02.38-.03a7.485,7.485,0,0,0,1.24,2.44A6.405,6.405,0,0,1-41.25-.18a3.744,3.744,0,0,1,.6,1.07A8.473,8.473,0,0,0-38.07-.62,6.71,6.71,0,0,0-35.71.88a5.644,5.644,0,0,1,.55-1.1A5.893,5.893,0,0,1-37.29-1.4a8.828,8.828,0,0,0,1.36-2.28,3.637,3.637,0,0,1,.29-.63l-.5-.6a3.993,3.993,0,0,1-.71.04h-.69v-1.2h1.08a9.345,9.345,0,0,1,1.12.06V-7.13a8.835,8.835,0,0,1-1.13.06h-1.07v-.3a6.542,6.542,0,0,1,.05-1.01h-1.17a6.2,6.2,0,0,1,.06,1.01v.3h-.77a8.185,8.185,0,0,1-1.11-.06v1.11c.31-.03.69-.05,1.12-.05Zm1.59,2.18a5.794,5.794,0,0,1-1.02,1.71,5.74,5.74,0,0,1-.91-1.71Zm4.44-3.74a6.643,6.643,0,0,1-.95-.05,7.092,7.092,0,0,1,.04.86v3.68a6.337,6.337,0,0,1-.04.81,6.559,6.559,0,0,1,.87-.04h2.07v.66H-33.3a9.593,9.593,0,0,1-1.23-.06V-.68A10.034,10.034,0,0,1-33.3-.74h2.72v.56A6.64,6.64,0,0,1-30.65.88h1.21a6.9,6.9,0,0,1-.07-1.06V-.74h2.83a9.633,9.633,0,0,1,1.22.06V-1.77a9.312,9.312,0,0,1-1.22.06h-2.83v-.66h2.37a7.029,7.029,0,0,1,.88.04,5.789,5.789,0,0,1-.04-.8v-.8a6.373,6.373,0,0,1,.04-.83c-.2.02-.48.03-.67.03h-5.51v-.54h4.92c.39,0,.64.01.88.03a5.976,5.976,0,0,1-.04-.8V-6.8a7.163,7.163,0,0,1,.04-.87,7.745,7.745,0,0,1-.96.04H-30c.16-.25.29-.48.46-.79l-1.19-.13a4.39,4.39,0,0,1-.46.92Zm.13,1.47v-.52h4.71v.52Zm0,2.86v-.54h5.1v.54Zm11.71-3.37v1.46h1.46V-6.67Zm0,4.28V-.93h1.46V-2.39Zm8.35-4.79a9.974,9.974,0,0,1-1.22-.05A9.858,9.858,0,0,1-13.55-6V-.4A8.6,8.6,0,0,1-13.61.76h1.13V.25h4.94V.76h1.15A6.844,6.844,0,0,1-6.45-.4V-6A9.567,9.567,0,0,1-6.4-7.23a10.258,10.258,0,0,1-1.23.05H-9.95c.18-.38.33-.72.51-1.2L-10.7-8.5a5.454,5.454,0,0,1-.46,1.32Zm-.09,1.02h4.94v1.13h-4.94Zm0,2.09h4.94v1.14h-4.94Zm0,2.1h4.94V-.76h-4.94ZM3.91-5.69a3.891,3.891,0,0,1-.81.05H.61V-6.96H3.5c.45,0,.78.02,1.1.05V-8.04a8.5,8.5,0,0,1-1.11.06H.66C.23-7.98-.12-8-.47-8.03c.03.34.04.72.04,1.14v.14c-.01.44-.01.85-.01,1.22C-.45-2.91-.67-1.42-1.2-.41a9.654,9.654,0,0,1-.58-1.16l-.87.4A11.341,11.341,0,0,0-1.81.54,2.832,2.832,0,0,1-1.43.19,3.108,3.108,0,0,1-.65.85,6.786,6.786,0,0,0-.19.02,2.672,2.672,0,0,1,.5.89,7.942,7.942,0,0,0,2.35-.73,7.977,7.977,0,0,0,4.2.79,3.948,3.948,0,0,1,4.81-.26,6.007,6.007,0,0,1,3.01-1.6,8.84,8.84,0,0,0,4.09-4.13a6.275,6.275,0,0,1,.31-.96ZM.6-4.67A8.2,8.2,0,0,0,1.72-1.59,6.8,6.8,0,0,1-.17-.03,11.737,11.737,0,0,0,.59-4.67Zm2.57,0A7.274,7.274,0,0,1,2.35-2.5a7.026,7.026,0,0,1-.83-2.17ZM-1.8-1.65c.35,0,.48,0,.72.02a8.371,8.371,0,0,1-.03-.85V-7.26c0-.42.01-.57.03-.82a5.971,5.971,0,0,1-.84.04H-3.35a7.522,7.522,0,0,1-.89-.04,8.042,8.042,0,0,1,.04.9v4.55c0,.35-.01.65-.03,1a5.508,5.508,0,0,1,.7-.02ZM-3.23-7.09h1.15v.94H-3.23Zm0,1.81h1.15v.87H-3.23Zm0,1.75h1.15v.94H-3.23Zm-.49,1.94A4.657,4.657,0,0,1-4.76.12a2.516,2.516,0,0,1,.89.69A5.491,5.491,0,0,0-2.82-1.14ZM12.89-8.38a4.523,4.523,0,0,1-.61,1.09c-.03-.03-.1-.1-.22-.21l-.31.43v-.31c-.01-.16-.01-.29-.01-.32a2.464,2.464,0,0,1,.06-.67H10.7a6.387,6.387,0,0,1,.07,1.14v.47l-.71-.48a4.615,4.615,0,0,1-.52.94c-.1-.14-.14-.19-.24-.31a9.847,9.847,0,0,0,.87-1.4l-.82-.41a4.793,4.793,0,0,1-.64,1.19l-.22-.21-.58.69c.11.1.15.13.22.2-.12.01-.3.02-.51.02H7.44v-.84a8.409,8.409,0,0,1,.04-1.04H6.4a7.139,7.139,0,0,1,.05,1.05v.83H6.11a2.769,2.769,0,0,1-.68-.05v1.07a6.392,6.392,0,0,1,.68-.04h.24A12.664,12.664,0,0,1,5.94-4.2a7.747,7.747,0,0,1-.75,1.59,3.117,3.117,0,0,1,.48,1.1,9.561,9.561,0,0,0,.87-2.24c-.06.84-.08,1.2-.08,1.65V-.34A9.593,9.593,0,0,1,6.4.89H7.49A8.824,8.824,0,0,1,7.44-.34V-3.22c0-.35-.02-.94-.04-1.22a5.3,5.3,0,0,0,.47.92,3.6,3.6,0,0,1,.29-.7l.04.31c.14-.03.66-.1,1.43-.2.27-.04.44-.07.7-.11.01.11.02.17.04.34l.56-.2c.02.19.03.27.07.56H8.94a5.654,5.654,0,0,1-.82-.04v1.01c.2-.02.38-.03.75-.04A3.357,3.357,0,0,1,7.57.05a3.775,3.775,0,0,1,.8.72A4.55,4.55,0,0,0,9.61-1.31a3.319,3.319,0,0,0,.83.7c.07-.13.07-.13.21-.38a2.758,2.758,0,0,1,.27-.44,3.49,3.49,0,0,1-1.11-.84,2.5,2.5,0,0,0,.03-.32h1.33a6.153,6.153,0,0,0,.51,1.54,6.746,6.746,0,0,1-2.3.99,2.864,2.864,0,0,1,.57.89A7.8,7.8,0,0,0,12.14-.29C12.71.46,13.17.79,13.67.79a.691.691,0,0,0,.65-.32,3.49,3.49,0,0,0,.41-1.41,2.452,2.452,0,0,1-.76-.55c-.1.93-.19,1.21-.37,1.21-.15,0-.41-.22-.7-.62a8,8,0,0,0,1.09-1.2l-.77-.49h.34a8.157,8.157,0,0,1,1.05.06V-3.58a5.087,5.087,0,0,1-1.05.06h-.22l.38-.36a2.7,2.7,0,0,0-.52-.41c.29-.03.53-.06.73-.09.04.19.06.26.11.48l.7-.23a8.436,8.436,0,0,0-.59-1.57l-.63.23a2.669,2.669,0,0,1,.18.39c-.31.03-.42.04-.72.06a9.71,9.71,0,0,0,.8-.9c.49-.64.49-.64.7-.9l-.73-.53c-.32.52-.41.67-.62.96-.13-.15-.15-.18-.27-.31a9.291,9.291,0,0,0,.85-1.23Zm-.31,2.67a7.967,7.967,0,0,1-.64.72H11.8c-.04-.71-.04-.71-.05-1.62A5.44,5.44,0,0,1,12.58-5.71Zm-.13,1.76a1.813,1.813,0,0,1,.63.43H11.96c-.05-.37-.06-.4-.08-.63.14-.01.24-.02.25-.02a3.005,3.005,0,0,0,.43-.05c.04,0,.1-.01.19-.02ZM8.21-6.48a6.927,6.927,0,0,1,.83.93c-.18.24-.29.38-.63.77H8.23a.923.923,0,0,1-.15-.01l.03.22a3.367,3.367,0,0,1-.61-.98h.14a4.005,4.005,0,0,1,.57.04Zm5,3.89a2.661,2.661,0,0,1-.76.94,3.872,3.872,0,0,1-.32-.94ZM9.97-5.35c.09.2.11.26.18.42a7.086,7.086,0,0,1-.73.08,11.83,11.83,0,0,0,1.14-1.47c.07-.1.1-.15.22-.32,0,.45.02.91.08,1.75a4.639,4.639,0,0,0-.26-.66ZM22.19-.49V.12h1.34a6.6,6.6,0,0,1-.05-1.03V-6.4a6.067,6.067,0,0,1,.03-.83c-.35.02-.35.02-.87.02H17.83a6.722,6.722,0,0,1-1.29-.07v1.3a9.786,9.786,0,0,1,1.28-.05H22.2v4.36H17.65a6.429,6.429,0,0,1-1.25-.07V-.45a11.178,11.178,0,0,1,1.23-.04ZM32.64-8.12a8,8,0,0,1-1.86,1.87,14.6,14.6,0,0,1-5.25,2.6,3.761,3.761,0,0,1,.67,1.14,16.2,16.2,0,0,0,3.57-1.62V-.61A5.624,5.624,0,0,1,29.71.47h1.4a7.565,7.565,0,0,1-.05-1.11V-4.91a17.683,17.683,0,0,0,2.36-2.06,4.119,4.119,0,0,1,.37-.35Zm3.58,1.7a10.5,10.5,0,0,1,2.55,2.03l.86-1.09a14.163,14.163,0,0,0-2.58-1.93Zm.35,6.6a3.54,3.54,0,0,1,.66-.17,10.8,10.8,0,0,0,3.81-1.5,8.776,8.776,0,0,0,3.17-3.92,4.312,4.312,0,0,1-1.06-.98,8.35,8.35,0,0,1-1.02,2,6.681,6.681,0,0,1-2.97,2.45,9.529,9.529,0,0,1-2.96.74Z" transform="translate(462 3440)" fill="#fff"/>
    </g>
  </g>
</svg>
