<svg xmlns="http://www.w3.org/2000/svg" xmlns:xlink="http://www.w3.org/1999/xlink" width="222" height="222" viewBox="0 0 222 222">
  <defs>
    <linearGradient id="linear-gradient" x1="0.5" x2="0.5" y2="1" gradientUnits="objectBoundingBox">
      <stop offset="0" stop-color="#d80576"/>
      <stop offset="1" stop-color="#b2427e"/>
    </linearGradient>
  </defs>
  <g id="グループ_11827" data-name="グループ 11827" transform="translate(-938 -3230)">
    <circle id="楕円形_555" data-name="楕円形 555" cx="111" cy="111" r="111" transform="translate(938 3230)" fill="#0a0a0a"/>
    <path id="パス_54827" data-name="パス 54827" d="M-71.478-14.2a11.364,11.364,0,0,1,.072,1.62v4.95a12.981,12.981,0,0,1-.09,1.62h2.466A8.688,8.688,0,0,1-69.1-7.6v-4.968a9.148,9.148,0,0,1,.072-1.62Zm8.118.036a9.479,9.479,0,0,1,.09,1.71v2.25c0,1.44-.018,2.232-.09,3.006-.2,2.376-.792,3.474-2.484,4.59a9.709,9.709,0,0,1-3.888,1.44A6.149,6.149,0,0,1-68.472.972a15.225,15.225,0,0,0,3.51-1.386,6.894,6.894,0,0,0,3.546-4.194,21.261,21.261,0,0,0,.468-5.454v-2.43a8.538,8.538,0,0,1,.09-1.674Zm21.834.864a6.579,6.579,0,0,1-1.926.18h-8.262a12.679,12.679,0,0,1-2.3-.126v2.34a14.289,14.289,0,0,1,2.268-.108h8.568a12.472,12.472,0,0,1-5.454,7.848,14.645,14.645,0,0,1-3.942,1.836A6.624,6.624,0,0,1-50.994.81a17.526,17.526,0,0,0,6.7-4.59,16.92,16.92,0,0,0,3.69-7.542,2.707,2.707,0,0,1,.306-.81Zm7.776-.864a8.756,8.756,0,0,1,.09,1.854l-.072,9.72a6.348,6.348,0,0,1-.162,1.854L-32.742.648a5.157,5.157,0,0,1,1.08-.306A16.409,16.409,0,0,0-25.11-2.124,13.419,13.419,0,0,0-21.1-6.318a8.455,8.455,0,0,1-1.71-1.836,10.637,10.637,0,0,1-3.672,4.122,12.946,12.946,0,0,1-4.914,1.98l.09-10.278a13.929,13.929,0,0,1,.108-1.818Zm18.18,4.374a18.008,18.008,0,0,1,1.638,4.356l2.034-.648a20.763,20.763,0,0,0-1.764-4.266Zm3.852-.756a19.793,19.793,0,0,1,1.638,4.23l2-.63a17.683,17.683,0,0,0-1.746-4.14Zm6.192-.18a7.984,7.984,0,0,1-.324,2.07A10.35,10.35,0,0,1-9.936-2.412,11.676,11.676,0,0,1-13-.756a6.538,6.538,0,0,1,1.44,1.782,13.816,13.816,0,0,0,5.49-4.338A15.365,15.365,0,0,0-3.582-9.306a3.788,3.788,0,0,1,.252-.918Zm9.414-1.746A21.133,21.133,0,0,1,8.694-9.99l1.152-1.98a28.864,28.864,0,0,0-4.788-2.322ZM2.466-8.1A21.053,21.053,0,0,1,7.344-5.454L8.46-7.488A25.447,25.447,0,0,0,3.672-9.936ZM3.492.576A11.626,11.626,0,0,1,4.752.288C9.18-.594,12.24-2.2,14.526-4.824a15.713,15.713,0,0,0,2.7-4.554,9.294,9.294,0,0,1-1.872-1.6A13.317,13.317,0,0,1,13.266-7a11,11,0,0,1-5.2,3.96,16.474,16.474,0,0,1-5.2,1.17Zm27.63-2.16c.306-1.62.5-2.9.774-4.878a6.479,6.479,0,0,1,.414-2.052l-.99-.864a4.015,4.015,0,0,1-1.332.162H25.434a10.29,10.29,0,0,1-1.656-.108V-7.29a11.561,11.561,0,0,1,1.6-.072h4.464c-.18,1.638-.558,4.176-.864,5.778H23.67a8.129,8.129,0,0,1-1.656-.108V.36A13.377,13.377,0,0,1,23.67.288h9.342A13.753,13.753,0,0,1,34.668.36V-1.692a8.025,8.025,0,0,1-1.656.108ZM42.7-2.574a6.009,6.009,0,0,1,1.17,1.638,16.151,16.151,0,0,0,4.32-6.282c-.018.594-.036,1.3-.036,1.89V-.54a17.761,17.761,0,0,1-.126,2h2.16a13.333,13.333,0,0,1-.108-2.016V-5.58c0-.756-.018-1.242-.054-1.818a15.723,15.723,0,0,0,2.358,4.1A16.358,16.358,0,0,0,54.612-.918a9.322,9.322,0,0,1,1.332-1.944A17.7,17.7,0,0,1,52.722-6.1,14.529,14.529,0,0,1,50.67-9.7H53.5a16.622,16.622,0,0,1,1.98.108V-11.7a17.579,17.579,0,0,1-2.034.108H50.094v-1.692A10.829,10.829,0,0,1,50.2-15.03h-2.16a11.234,11.234,0,0,1,.126,1.746v1.692H45.5c-.7,0-1.4-.036-1.944-.09v2.088A17.113,17.113,0,0,1,45.5-9.7h2.052A17.016,17.016,0,0,1,42.7-2.88v-7.632A24.84,24.84,0,0,0,43.9-13.446c.2-.54.288-.756.5-1.3l-2.052-.612a12.765,12.765,0,0,1-1.044,3.2A14.254,14.254,0,0,1,38.5-7.938a10.759,10.759,0,0,1,.81,2.2,11.8,11.8,0,0,0,1.458-2c-.036.738-.036,1.116-.036,2.016V-.666a18,18,0,0,1-.108,2.106h2.16A18.8,18.8,0,0,1,42.7-.648Zm30.69-5.184a7.741,7.741,0,0,1-1.17.054h-2.2a10.545,10.545,0,0,1-1.368-.054v1.8a7.839,7.839,0,0,1,1.224-.072h2.376a7.949,7.949,0,0,1-.99,2.448,8.122,8.122,0,0,1-1.08-2.358l-1.44.666a11.832,11.832,0,0,0,1.476,3.1A8.967,8.967,0,0,1,67.086.072,4.818,4.818,0,0,1,68.22,1.638,11.477,11.477,0,0,0,71.262-.81,12.077,12.077,0,0,0,74.07,1.512a6.876,6.876,0,0,1,.9-1.872,8.208,8.208,0,0,1-2.61-1.872,13.181,13.181,0,0,0,1.674-3.816c.144-.486.162-.54.234-.738ZM65.7-1.656h1.476a8.007,8.007,0,0,1,1.278.072V-3.438a7.425,7.425,0,0,1-1.3.072H65.7V-5.22H67a8.081,8.081,0,0,1,1.314.072V-7A8.368,8.368,0,0,1,67-6.93H65.7V-8.748h1.962c.522,0,.828.018,1.17.036C68.8-9.126,68.8-9.378,68.8-10.1v-3.024a9.521,9.521,0,0,1,.054-1.44c-.414.036-.774.054-1.35.054H65.466c-.684,0-1.1-.018-1.566-.054.036.486.054.9.054,1.818V-.5a13.534,13.534,0,0,1-.09,1.944h1.908A16.537,16.537,0,0,1,65.7-.5Zm0-11.124h1.458V-10.4H65.7ZM58.41-2.034A19.1,19.1,0,0,1,58.32.342h1.764V-1.332h1.368V-.4h1.71a13.367,13.367,0,0,1-.054-1.584V-12.51c0-.864,0-1.188.036-1.692a11.1,11.1,0,0,1-1.314.054H59.706a9.788,9.788,0,0,1-1.368-.072c.054.594.072,1.206.072,2.052ZM60.1-12.42H61.47v3.744H60.1ZM60.1-7H61.47V-3.06H60.1Zm10.764-7.506a13.216,13.216,0,0,1-1.53-.09v1.89a8.356,8.356,0,0,1,1.206-.072H72.2v2.286H70.542a6.422,6.422,0,0,1-1.188-.072v1.818A8.59,8.59,0,0,1,70.7-8.82h2.052a12.291,12.291,0,0,1,1.3.054A12.968,12.968,0,0,1,74-10.116v-3.132a11.314,11.314,0,0,1,.054-1.314c-.432.036-.774.054-1.4.054Zm-84.258,27.42v1.53h-2.52a9.995,9.995,0,0,1-1.6-.09v1.926a12.9,12.9,0,0,1,1.854-.09h2.268V17.61h-1.854a12.5,12.5,0,0,1-1.746-.09,15.226,15.226,0,0,1,.072,1.692v3.312a10.2,10.2,0,0,1-.09,1.764h1.962a15.046,15.046,0,0,1-.072-1.746V19.32h1.728v4.23a11.3,11.3,0,0,1-.108,1.962h2.034a12.93,12.93,0,0,1-.09-1.944V19.32h1.62V22.2c0,.234-.108.306-.45.306-.2,0-.666-.036-.954-.072a4.985,4.985,0,0,1,.324,1.71c.5.036.666.036.828.036,1.548,0,2-.324,2-1.44v-3.6c0-.81.018-1.17.054-1.6a13.892,13.892,0,0,1-1.674.072h-1.746V16.188h2.034a10.363,10.363,0,0,1,1.728.09V14.37a14.539,14.539,0,0,1-1.656.072h-2.106v-1.53h1.53a15.54,15.54,0,0,1,1.782.072V11.076a11.116,11.116,0,0,1-1.782.09h-1.53v-.54a8.094,8.094,0,0,1,.108-1.71H-13.5a8.916,8.916,0,0,1,.108,1.746v.5h-1.386c.09-.36.2-.756.234-.954a5.487,5.487,0,0,1,.2-.72l-1.836-.342a2.785,2.785,0,0,1-.09.7,10.048,10.048,0,0,1-1.422,3.564,14.073,14.073,0,0,1,1.71.882,14.791,14.791,0,0,0,.63-1.386Zm6.21-2.736a10.378,10.378,0,0,1,.108,1.908v7.2a11.254,11.254,0,0,1-.09,1.926h2.016a11.268,11.268,0,0,1-.09-1.908V12.048a12.429,12.429,0,0,1,.09-1.872Zm3.438-1.188a16.821,16.821,0,0,1,.108,2.232V22.974c0,.432-.162.54-.81.54a16.337,16.337,0,0,1-2.322-.18,5.444,5.444,0,0,1,.54,1.926c1.062.036,1.62.054,1.71.054A3.6,3.6,0,0,0-2.34,24.9c.432-.306.594-.756.594-1.71V11.166A12.282,12.282,0,0,1-1.62,8.988Zm10.728,5.76V16.44a10.614,10.614,0,0,1-.072,1.134c.324-.018.558-.018,1.26-.018h5c.72,0,.756,0,1.17.018a9.956,9.956,0,0,1-.054-1.134V14.748H16.02a11.4,11.4,0,0,1,1.6.072V13.038a9.725,9.725,0,0,1-1.6.09H14.292v-1.26h1.386a18.591,18.591,0,0,1,1.89.072V10.068a16.264,16.264,0,0,1-2.178.108H10.926V9.8a4.326,4.326,0,0,1,.09-1.044H8.874a6.046,6.046,0,0,1,.09,1.026v.4H4.482c-.774,0-1.4-.036-2.034-.09.054.648.072,1.116.072,2.448A38.4,38.4,0,0,1,2,20.652,9.749,9.749,0,0,1,.882,23.73a7.438,7.438,0,0,1,1.512,1.656A12.959,12.959,0,0,0,3.924,21.1a37.336,37.336,0,0,0,.5-6.354Zm-2.538-1.62v-1.26H6.984v1.26Zm4.428,0v-1.26H12.4v1.26Zm0,1.62H12.4V15.99H8.874Zm5.9,3.78c-.432.036-.756.054-1.494.054H7a12.511,12.511,0,0,1-1.926-.09v1.692c.378-.036.648-.054,1.278-.072A10.437,10.437,0,0,0,8.8,22.668a17.01,17.01,0,0,1-5.148,1.008,6.121,6.121,0,0,1,.7,1.854,19.389,19.389,0,0,0,6.156-1.764,17.883,17.883,0,0,0,6.5,1.746,8.8,8.8,0,0,1,.756-2.034,15.819,15.819,0,0,1-5.328-.846,14.737,14.737,0,0,0,2.97-2.7c.162-.18.18-.2.342-.36Zm-1.926,1.584A10.14,10.14,0,0,1,10.62,21.8a7.064,7.064,0,0,1-2.088-1.692Z" transform="translate(1049 3369)" fill="#fff"/>
    <g id="ヤシの木のフリーアイコン" transform="translate(979.881 3261.999)">
      <rect id="長方形_8495" data-name="長方形 8495" width="20.552" height="2.306" transform="translate(61.909 72.372)" fill="url(#linear-gradient)"/>
      <path id="パス_54536" data-name="パス 54536" d="M100.588,16.5C98.547,9.286,92.571,6.218,85.72,7.384c-6.309,1.074-9.6,8.938-11.139,13.707.456-6.317-.71-15.1-8.247-19.2C54.82-4.379,47.532,6.844,46.8,8.3s-.731,1.737,1.312,1.6c.608-.04,5.908-1.531,11.107-.591L61.67,7.057l1.134,3.18c4.309,1.51,7.766,5.379,8.388,11.181a19.222,19.222,0,0,0-14.958-7.065A18.859,18.859,0,0,0,37.119,32.949c0,.827.016.233.016.233a.992.992,0,0,0,1.7.616,8.15,8.15,0,0,1,1.171-1.206,32.245,32.245,0,0,1,5.525-4.059l1.815-3.39,2.45,1.3a32.27,32.27,0,0,1,19.914-1.263C63.8,24.791,54.881,27.875,51.351,35.4c-4.373,9.329-.068,16.733.553,17.312.51.475,1.127.1,1.294-.723a40.668,40.668,0,0,1,3.216-8.985L55.669,40l2.05.525a33.859,33.859,0,0,1,11.658-12.5,53.857,53.857,0,0,0-4.594,28.735H39.369v2.306H65.075a65.25,65.25,0,0,0,1.346,6.584H53.653v2.306H88.2V65.652H77.833a31.779,31.779,0,0,1-3.507-6.584h25.708V56.762H73.5c-2-6.266-3.02-15.182.027-26.822a42.175,42.175,0,0,1,4.844,7.922l1.952.246-.872,2.334A29.726,29.726,0,0,1,81.4,49.912c.027.872.553,1.518.822.946,4.118-8.775,2.822-17.756-2.949-23,3.639,1.2,6.614,4.127,8.93,7.475l2.765.593-.515,3.116a38.851,38.851,0,0,1,3.553,9.431c.169.824.606,1.362,1.132.424,3.143-5.591,3.548-16.32-2.129-22.194-4.4-4.553-12.171-4.852-16.954-3.59C79.2,17.835,87.6,17.442,87.6,17.442s1.33-3.061,1.622-3.5,1.895,2.981,1.895,2.981l8.461,3.456s1.086.743,1.3-.519A6.737,6.737,0,0,0,100.588,16.5Z" transform="translate(0 0)" fill="url(#linear-gradient)"/>
    </g>
  </g>
</svg>
