<svg xmlns="http://www.w3.org/2000/svg" xmlns:xlink="http://www.w3.org/1999/xlink" width="222" height="222" viewBox="0 0 222 222">
  <defs>
    <linearGradient id="linear-gradient" x1="0.5" x2="0.5" y2="1" gradientUnits="objectBoundingBox">
      <stop offset="0" stop-color="#d80576"/>
      <stop offset="1" stop-color="#b2427e"/>
    </linearGradient>
  </defs>
  <g id="グループ_11831" data-name="グループ 11831" transform="translate(-206 -3230)">
    <circle id="楕円形_552" data-name="楕円形 552" cx="111" cy="111" r="111" transform="translate(206 3230)" fill="#0a0a0a"/>
    <path id="パス_54820" data-name="パス 54820" d="M-29.916-3.942a10.128,10.128,0,0,0,2.628,2.934,13.875,13.875,0,0,0,6.3,2.592,10.644,10.644,0,0,1,.918-2,15.193,15.193,0,0,1-4.086-.918,28.155,28.155,0,0,0,3.2-2.484l-1.818-.972c-.162.18-.2.234-.342.4-.018-.288-.018-.45-.018-.81V-9.594a18.385,18.385,0,0,0,2.376,1.062,8.5,8.5,0,0,1,.9-2,17.572,17.572,0,0,1-4.374-1.89,12.1,12.1,0,0,1-3.2-2.682h-2.124A15.572,15.572,0,0,1-36.9-10.476a8.814,8.814,0,0,1,.882,1.962,24.357,24.357,0,0,0,2.25-1.026c.018.468.018.594.018.81V-.612c-.72.09-1.8.18-2.034.18h-.27l.342,2.07c.36-.09.594-.126.828-.18C-31.662.918-30.258.648-28.35.2V-1.53c-1.638.36-1.782.378-3.51.648v-3.06Zm5.22,0c.4,0,.7,0,1.1.018A13.751,13.751,0,0,1-25.9-2.2a6.462,6.462,0,0,1-1.872-1.746Zm-7.326-6.642a15.874,15.874,0,0,0,3.546-3.006,16.307,16.307,0,0,0,3.654,3.006h-2.772v-.522a5.855,5.855,0,0,1,.072-1.08H-29.5a4.291,4.291,0,0,1,.09,1.08v.522Zm.162,1.62h6.84v.9h-6.84Zm0,2.43h6.84v1.008h-6.84Zm21.294,1.242h-5.2a12.349,12.349,0,0,1-1.944-.09v1.71a12.891,12.891,0,0,1,1.98-.09h5.166v.774h-4.3a13.073,13.073,0,0,1-1.71-.072v1.674a12.269,12.269,0,0,1,1.782-.09h4.23v.864c0,.324-.144.414-.7.414A20.413,20.413,0,0,1-13.554-.36,5.123,5.123,0,0,1-13,1.422c.576.036,1.3.072,1.728.072,2.2,0,2.646-.342,2.646-1.962V-1.476h3.978v.7h2.016a13.534,13.534,0,0,1-.09-1.944V-3.762a10.694,10.694,0,0,1,1.566.09v-1.71a10.17,10.17,0,0,1-1.566.09v-.63A12.18,12.18,0,0,1-2.664-7.56c-.5.036-.864.054-1.926.054H-8.622V-8.19h4.14c.576,0,1.044.018,1.44.054A11.374,11.374,0,0,1-3.1-9.342V-10.53a12.253,12.253,0,0,1,.054-1.26c-.432.036-.828.054-1.512.054H-8.622v-.684h5.166a17.358,17.358,0,0,1,2.106.108v-1.782a16.884,16.884,0,0,1-2.214.108H-8.622A5.085,5.085,0,0,1-8.5-15.21h-2.178a6.651,6.651,0,0,1,.108,1.224H-15.39a16.7,16.7,0,0,1-2.214-.108v1.782A17.358,17.358,0,0,1-15.5-12.42h4.932v.684h-3.8c-.684,0-1.062-.018-1.53-.054.036.432.054.756.054,1.26v1.188c0,.45-.018.828-.054,1.206.414-.036.864-.054,1.512-.054h3.816v.684H-14.8a13.472,13.472,0,0,1-1.692-.072v1.566a14.951,14.951,0,0,1,1.656-.072h4.266Zm1.944,0v-.792h3.978v.792Zm0,1.53h3.978v.774H-8.622Zm-1.944-6.57v.738h-3.366v-.738Zm1.944,0H-5v.738H-8.622ZM4.986-4.914A12.494,12.494,0,0,0,6.372-3.4a6.034,6.034,0,0,1,.936-1.512,7.491,7.491,0,0,1-.99-.81A17.121,17.121,0,0,0,7.4-7.272v6.84A11.926,11.926,0,0,1,7.29,1.53H9.306A16.663,16.663,0,0,1,9.234-.45v-2H11.16V-.342A10.094,10.094,0,0,1,11.088,1.3H13.05A12.831,12.831,0,0,1,12.978-.36V-2.448h2.178V-.972c0,.36-.072.432-.36.432a7.507,7.507,0,0,1-1.26-.108A3.677,3.677,0,0,1,14,1.242c.432.036.63.036.81.036a3.533,3.533,0,0,0,1.566-.2c.432-.234.612-.684.612-1.476V-8.46a16.759,16.759,0,0,1,.072-1.854,11.7,11.7,0,0,1-1.62.072H12.978V-11.5H15.75a11.36,11.36,0,0,1,1.71.09v-1.944a15.339,15.339,0,0,1-1.71.09h-.108l.972-.774a7.636,7.636,0,0,0-1.944-1.4l-1.188.882a9.355,9.355,0,0,1,1.692,1.3h-2.2v-.36a7.5,7.5,0,0,1,.108-1.548H11.052a9.162,9.162,0,0,1,.108,1.548v.36H8.712a11.168,11.168,0,0,1-1.764-.108V-11.5l-.7-.846a4.532,4.532,0,0,1-.918.054h-.36v-1.512a9.767,9.767,0,0,1,.09-1.35H3.024a10.208,10.208,0,0,1,.09,1.4v1.458H2.7a7.776,7.776,0,0,1-1.332-.072v1.89a12.748,12.748,0,0,1,1.476-.09h1.89A11.564,11.564,0,0,1,.954-5.49,7.275,7.275,0,0,1,1.71-3.546,17.208,17.208,0,0,0,3.132-4.968V-.522A13.931,13.931,0,0,1,3.006,1.53h2.07A16.724,16.724,0,0,1,4.968-.54l.018-3.816ZM7.02-11.43A12.264,12.264,0,0,1,8.55-11.5h2.61v1.26H9.144a15.293,15.293,0,0,1-1.8-.072A14.507,14.507,0,0,1,7.4-8.478v.666l-.954-.756A12.357,12.357,0,0,1,5.382-6.732a5.037,5.037,0,0,1-.432-.594,22.3,22.3,0,0,0,1.71-3.312,5.484,5.484,0,0,1,.36-.774ZM9.234-4.014V-5.562H11.16v1.548Zm0-3.114V-8.622H11.16v1.494Zm3.744,3.114V-5.562h2.178v1.548Zm0-3.114V-8.622h2.178v1.494ZM28.332-3.78l-.864.288v-8.892c0-.792.018-1.638.054-1.962a9.676,9.676,0,0,1-1.35.072H22.428a9.513,9.513,0,0,1-1.35-.072c.036.4.054,1.188.054,1.962V-1.908a11.115,11.115,0,0,1-1.242.162L20.25.378c.468-.144.576-.162,1.188-.324a68.908,68.908,0,0,0,6.786-2.106,8.675,8.675,0,0,1-2.2,2.178,6.351,6.351,0,0,1,1.584,1.422A9.5,9.5,0,0,0,29.538-.486a12.736,12.736,0,0,0,1.836-3.582,22.755,22.755,0,0,0,.864-5.454h2.088a51.982,51.982,0,0,1-.4,6.894C33.7-1.008,33.552-.774,32.8-.774a13.177,13.177,0,0,1-2.052-.2A8.789,8.789,0,0,1,31.1.99c1.35.072,1.35.072,1.8.072,1.818,0,2.34-.4,2.7-2.034a41.337,41.337,0,0,0,.63-7.56c.054-2.43.054-2.43.108-2.97a14.228,14.228,0,0,1-1.908.09H32.328c.018-.864.036-1.386.036-2.052a10.436,10.436,0,0,1,.108-1.584H30.33a9.246,9.246,0,0,1,.108,1.566c0,.846-.018,1.584-.036,2.07h-.468a14.032,14.032,0,0,1-1.926-.09v2.07a13.824,13.824,0,0,1,1.8-.09h.5c-.252,3.51-.774,5.472-1.98,7.308Zm-5.31-1.134H25.6v1.98c-.72.216-1.584.432-2.574.648Zm0-1.728V-8.676H25.6v2.034Zm0-3.762v-2.034H25.6V-10.4Z" transform="translate(317 3369)" fill="#fff"/>
    <path id="合体_12" data-name="合体 12" d="M92.913,77.915a3.389,3.389,0,0,1-3.392-3.381V49.78c0-1.762-.771-2.265-2.287-3.775-1.4-1.39-2.777-2.809-2.777-8.092v-12.3a2.858,2.858,0,0,1,2.862-2.853h.008c1.138,0,1.253.92,1.253,2.055V37.913h3.874V24.819a2.062,2.062,0,0,1,4.124,0V37.913h3.3V24.819c0-1.135.114-2.055,1.253-2.055h.008A2.858,2.858,0,0,1,104,25.617v12.3c0,5.283-1.383,6.7-2.777,8.092-1.516,1.509-2.287,2.012-2.287,3.775V74.534a3.39,3.39,0,0,1-3.393,3.381ZM23.427,50.048A27.964,27.964,0,1,1,51.392,77.915,27.918,27.918,0,0,1,23.427,50.048Zm16.847,2.058v4.325H48.76v6.546h5.264V56.431h8.482V52.1H54.024V49.04l.825-1.277h7.657v-3.7H57.242l4.476-6.939H57.254l-5.861,9.086L45.53,37.12H41.065l4.476,6.938H40.273v3.706h7.656l.831,1.282V52.1H40.273ZM8.408,77.915a3.389,3.389,0,0,1-3.392-3.381v-17.3H.864c-1.2,0-.8-4.773-.8-4.773A123.375,123.375,0,0,1,4.451,32.181c3.592-12.331,9.98-11.538,9.98-6.766V74.534a3.39,3.39,0,0,1-3.393,3.381Z" transform="translate(265 3248.818)" fill="url(#linear-gradient)"/>
    <g id="グループ_11712" data-name="グループ 11712" transform="translate(2 -39)">
      <rect id="長方形_8557" data-name="長方形 8557" width="97" height="21" rx="10.5" transform="translate(267 3427)" fill="#222"/>
      <path id="パス_54821" data-name="パス 54821" d="M-36.216-2.124A3.169,3.169,0,0,0-35.544-.78,3.748,3.748,0,0,0-32.5.36a4.145,4.145,0,0,0,2.952-.972,2.541,2.541,0,0,0,.72-1.752A2.305,2.305,0,0,0-29.4-4.02a2.525,2.525,0,0,0-1.716-.8,2.962,2.962,0,0,0,1.164-.468,2.188,2.188,0,0,0,.828-1.764c0-1.56-1.3-2.568-3.3-2.568a3.9,3.9,0,0,0-2.352.66,2.982,2.982,0,0,0-1.14,1.716l1.716.288a1.763,1.763,0,0,1,.5-.924,2,2,0,0,1,1.308-.372c1.02,0,1.584.468,1.584,1.3,0,.924-.708,1.476-1.908,1.476a8.227,8.227,0,0,1-1.164-.06v1.488a10.247,10.247,0,0,1,1.284-.06,3.109,3.109,0,0,1,1.38.288,1.4,1.4,0,0,1,.672,1.26c0,.948-.756,1.56-1.944,1.56a2.266,2.266,0,0,1-1.452-.468A1.559,1.559,0,0,1-34.5-2.46Zm10.548.516h-1.764V.144h1.008c-.012.744-.18.96-.912,1.164l.432.636a1.58,1.58,0,0,0,1.236-1.8Zm5,1.944A3.406,3.406,0,0,0-17.748-1.08a6.3,6.3,0,0,0,.888-3.552,8.07,8.07,0,0,0-.468-2.784,3.362,3.362,0,0,0-.792-1.212A3.486,3.486,0,0,0-20.652-9.6a3.412,3.412,0,0,0-3.06,1.668,7.066,7.066,0,0,0-.732,3.324,8.031,8.031,0,0,0,.468,2.76,3.362,3.362,0,0,0,.792,1.212A3.457,3.457,0,0,0-20.664.336Zm.012-1.392a1.758,1.758,0,0,1-1.536-.78A5.4,5.4,0,0,1-22.8-4.692a4.478,4.478,0,0,1,.792-2.916,1.614,1.614,0,0,1,1.344-.612,1.734,1.734,0,0,1,1.308.5,4.654,4.654,0,0,1,.84,3.072,4.624,4.624,0,0,1-.84,3.084A1.744,1.744,0,0,1-20.652-1.056ZM-12.12.336A3.406,3.406,0,0,0-9.2-1.08a6.3,6.3,0,0,0,.888-3.552,8.07,8.07,0,0,0-.468-2.784,3.362,3.362,0,0,0-.792-1.212A3.486,3.486,0,0,0-12.108-9.6a3.412,3.412,0,0,0-3.06,1.668A7.066,7.066,0,0,0-15.9-4.608a8.031,8.031,0,0,0,.468,2.76A3.362,3.362,0,0,0-14.64-.636,3.457,3.457,0,0,0-12.12.336Zm.012-1.392a1.758,1.758,0,0,1-1.536-.78,5.4,5.4,0,0,1-.612-2.856,4.478,4.478,0,0,1,.792-2.916A1.614,1.614,0,0,1-12.12-8.22a1.734,1.734,0,0,1,1.308.5,4.654,4.654,0,0,1,.84,3.072,4.624,4.624,0,0,1-.84,3.084A1.744,1.744,0,0,1-12.108-1.056ZM-3.576.336A3.406,3.406,0,0,0-.66-1.08,6.3,6.3,0,0,0,.228-4.632,8.07,8.07,0,0,0-.24-7.416a3.362,3.362,0,0,0-.792-1.212A3.486,3.486,0,0,0-3.564-9.6a3.412,3.412,0,0,0-3.06,1.668,7.066,7.066,0,0,0-.732,3.324,8.031,8.031,0,0,0,.468,2.76A3.362,3.362,0,0,0-6.1-.636,3.457,3.457,0,0,0-3.576.336Zm.012-1.392A1.758,1.758,0,0,1-5.1-1.836a5.4,5.4,0,0,1-.612-2.856A4.478,4.478,0,0,1-4.92-7.608,1.614,1.614,0,0,1-3.576-8.22a1.734,1.734,0,0,1,1.308.5,4.654,4.654,0,0,1,.84,3.072,4.624,4.624,0,0,1-.84,3.084A1.744,1.744,0,0,1-3.564-1.056ZM3.144-3.72h7.14V-.792c0,.288-.072.324-.54.324C9.312-.468,8.712-.516,7.92-.6A4.617,4.617,0,0,1,8.292.7C8.76.72,9.42.744,9.888.744a2.952,2.952,0,0,0,1.26-.168C11.5.4,11.64.06,11.64-.552V-8.244a11.81,11.81,0,0,1,.048-1.308A11,11,0,0,1,10.38-9.5h-7.3a12.892,12.892,0,0,1-1.332-.048A10.339,10.339,0,0,1,1.8-8.4V-.552A11.4,11.4,0,0,1,1.728.888H3.2A8.821,8.821,0,0,1,3.144-.5ZM5.988-4.98H3.144V-8.232H5.988Zm1.3,0V-8.232h3V-4.98ZM22.368-10.2,13.284,1.08h1.764l9.1-11.28Zm11,7.428V-.7c0,.264-.084.324-.444.324a12.134,12.134,0,0,1-1.764-.144A4.342,4.342,0,0,1,31.512.828c.612.036,1.008.048,1.392.048A2.379,2.379,0,0,0,34.3.636c.3-.192.432-.54.432-1.14V-8.28a9.051,9.051,0,0,1,.06-1.356,10.816,10.816,0,0,1-1.392.06h-5a12.107,12.107,0,0,1-1.4-.06,16.912,16.912,0,0,1,.06,1.812c0,3.12-.12,4.524-.48,5.64A4.543,4.543,0,0,1,25.284-.072a4.642,4.642,0,0,1,1.116,1.1,6.729,6.729,0,0,0,1.416-2.376,8.894,8.894,0,0,0,.348-1.428ZM28.308-4c.072-.972.1-1.236.1-1.608h4.968V-4Zm.108-2.832v-1.5h4.956v1.5Z" transform="translate(316 3442)" fill="#fff"/>
    </g>
  </g>
</svg>
