<svg xmlns="http://www.w3.org/2000/svg" xmlns:xlink="http://www.w3.org/1999/xlink" width="222" height="222" viewBox="0 0 222 222">
  <defs>
    <linearGradient id="linear-gradient" x1="0.5" x2="0.5" y2="1" gradientUnits="objectBoundingBox">
      <stop offset="0" stop-color="#d80576"/>
      <stop offset="1" stop-color="#b2427e"/>
    </linearGradient>
  </defs>
  <g id="グループ_11835" data-name="グループ 11835" transform="translate(-206 -3481)">
    <circle id="楕円形_558" data-name="楕円形 558" cx="111" cy="111" r="111" transform="translate(206 3481)" fill="#0a0a0a"/>
    <path id="パス_54832" data-name="パス 54832" d="M-47.34-6.264a14.619,14.619,0,0,0,2.124,3.708A13.4,13.4,0,0,0-39.852,1.26,6.816,6.816,0,0,1-38.664-.684a12.577,12.577,0,0,1-3.942-2.034A24.635,24.635,0,0,0-40.482-4.59L-40.068-5l-1.8-1.116a10.948,10.948,0,0,1-2.106,2.07,9.025,9.025,0,0,1-1.4-2.214h4.194a17.349,17.349,0,0,1,2.07.108V-8.1a11.706,11.706,0,0,1-2.07.108h-5.2V-9.144h3.8a17.63,17.63,0,0,1,2,.072v-1.8a16.826,16.826,0,0,1-2,.072h-3.8v-1.1h4.644a14.055,14.055,0,0,1,2.016.09V-13.7a15.838,15.838,0,0,1-2.142.108h-4.518a6.809,6.809,0,0,1,.108-1.548h-2.214a6.9,6.9,0,0,1,.108,1.548h-4.23A15.973,15.973,0,0,1-54.72-13.7v1.89A13.9,13.9,0,0,1-52.7-11.9h4.32v1.1h-3.51a17.06,17.06,0,0,1-1.98-.072v1.8a17.465,17.465,0,0,1,1.98-.072h3.51v1.152h-4.932A12.066,12.066,0,0,1-55.4-8.1v1.944A17.78,17.78,0,0,1-53.3-6.264h3.4a13.921,13.921,0,0,1-5.8,2.97,7.671,7.671,0,0,1,1.116,1.926,19.433,19.433,0,0,0,3.834-1.98V-.882a22.755,22.755,0,0,1-2.484.216l.432,2.106c.162-.036.5-.108.864-.18.414-.054.414-.054.846-.126.99-.162,1.062-.18,2.286-.414,2-.414,2.412-.5,3.762-.882v-1.89c-1.584.414-2.34.594-3.726.846V-4.914a11.024,11.024,0,0,0,1.314-1.35Zm16.776-7.65a6.543,6.543,0,0,1,.09-1.26H-32.6a5.716,5.716,0,0,1,.09,1.26h-1.71A11.277,11.277,0,0,1-35.982-14v1.692a11.382,11.382,0,0,1,1.314-.072,9.027,9.027,0,0,1,.45,1.3h-.558a11.022,11.022,0,0,1-1.746-.09v1.746a11.073,11.073,0,0,1,1.71-.09h6.174a11.943,11.943,0,0,1,1.8.09V-11.16a11.743,11.743,0,0,1-1.692.072h-.4a10.808,10.808,0,0,0,.5-1.3,9.351,9.351,0,0,1,1.3.072V-14a10.632,10.632,0,0,1-1.728.09Zm-1.8,2.826c-.126-.486-.216-.774-.4-1.3h2.466a8.068,8.068,0,0,1-.468,1.3Zm-.144,7.74v.828h-2.25a10.518,10.518,0,0,1-1.71-.09V-.756a8.726,8.726,0,0,1,1.71-.108h2.25v.4a10.931,10.931,0,0,1-.108,1.962h2.142a10.575,10.575,0,0,1-.108-1.962v-.4h1.944a12.225,12.225,0,0,1,1.728.09V-2.61a11.736,11.736,0,0,1-1.746.09h-1.926v-.828H-29c.612,0,1.242.018,1.566.054A10.376,10.376,0,0,1-27.5-4.752V-7.488a10.878,10.878,0,0,1,.072-1.458c-.378.036-.846.054-1.548.054h-5.058A15.664,15.664,0,0,1-35.6-8.946a11.526,11.526,0,0,1,.072,1.476V-4.7a10.7,10.7,0,0,1-.072,1.4c.4-.036.864-.054,1.566-.054Zm-1.206-4.14h4.392v.648h-4.392Zm0,2.07h4.392v.666h-4.392Zm11.448-9.7a12.95,12.95,0,0,1-4.626,3.582,7.285,7.285,0,0,1,1.17,1.692,23.2,23.2,0,0,0,5.13-4.032Zm.756,9.882a9.5,9.5,0,0,1-1.4,1.674A14.991,14.991,0,0,1-28.044-.18,7.22,7.22,0,0,1-26.82,1.584a21,21,0,0,0,6.1-4.608,8.6,8.6,0,0,1,.792-.81Zm-.234-5.184a5.955,5.955,0,0,1-1.224,1.368,14.479,14.479,0,0,1-4.194,2.646,10.33,10.33,0,0,1,1.116,1.764,17.142,17.142,0,0,0,2.664-1.6A27.68,27.68,0,0,0-20.9-8.352a6.583,6.583,0,0,1,.756-.72Zm8.352-.666v1.53h-2.52a9.995,9.995,0,0,1-1.6-.09v1.926a12.9,12.9,0,0,1,1.854-.09h2.268V-6.39h-1.854a12.5,12.5,0,0,1-1.746-.09,15.226,15.226,0,0,1,.072,1.692v3.312A10.2,10.2,0,0,1-17.01.288h1.962a15.046,15.046,0,0,1-.072-1.746V-4.68h1.728V-.45A11.3,11.3,0,0,1-13.5,1.512h2.034a12.93,12.93,0,0,1-.09-1.944V-4.68h1.62V-1.8c0,.234-.108.306-.45.306-.2,0-.666-.036-.954-.072a4.985,4.985,0,0,1,.324,1.71c.5.036.666.036.828.036,1.548,0,2-.324,2-1.44v-3.6c0-.81.018-1.17.054-1.6A13.892,13.892,0,0,1-9.81-6.39h-1.746V-7.812h2.034a10.363,10.363,0,0,1,1.728.09V-9.63a14.539,14.539,0,0,1-1.656.072h-2.106v-1.53h1.53a15.54,15.54,0,0,1,1.782.072v-1.908a11.116,11.116,0,0,1-1.782.09h-1.53v-.54a8.094,8.094,0,0,1,.108-1.71H-13.5a8.916,8.916,0,0,1,.108,1.746v.5h-1.386c.09-.36.2-.756.234-.954a5.487,5.487,0,0,1,.2-.72l-1.836-.342a2.785,2.785,0,0,1-.09.7,10.048,10.048,0,0,1-1.422,3.564,14.073,14.073,0,0,1,1.71.882,14.791,14.791,0,0,0,.63-1.386Zm6.21-2.736a10.378,10.378,0,0,1,.108,1.908v7.2a11.254,11.254,0,0,1-.09,1.926h2.016A11.269,11.269,0,0,1-5.238-4.7v-7.254a12.429,12.429,0,0,1,.09-1.872Zm3.438-1.188a16.821,16.821,0,0,1,.108,2.232V-1.026c0,.432-.162.54-.81.54a16.337,16.337,0,0,1-2.322-.18,5.444,5.444,0,0,1,.54,1.926c1.062.036,1.62.054,1.71.054A3.6,3.6,0,0,0-2.34.9c.432-.306.594-.756.594-1.71V-12.834a12.282,12.282,0,0,1,.126-2.178ZM6.984-9.252V-7.56a10.614,10.614,0,0,1-.072,1.134c.324-.018.558-.018,1.26-.018h5c.72,0,.756,0,1.17.018a9.956,9.956,0,0,1-.054-1.134V-9.252H16.02a11.4,11.4,0,0,1,1.6.072v-1.782a9.725,9.725,0,0,1-1.6.09H14.292v-1.26h1.386a18.591,18.591,0,0,1,1.89.072v-1.872a16.264,16.264,0,0,1-2.178.108H10.926V-14.2a4.326,4.326,0,0,1,.09-1.044H8.874a6.046,6.046,0,0,1,.09,1.026v.4H4.482c-.774,0-1.4-.036-2.034-.09.054.648.072,1.116.072,2.448A38.4,38.4,0,0,1,2-3.348,9.749,9.749,0,0,1,.882-.27,7.438,7.438,0,0,1,2.394,1.386,12.959,12.959,0,0,0,3.924-2.9a37.336,37.336,0,0,0,.5-6.354Zm-2.538-1.62v-1.26H6.984v1.26Zm4.428,0v-1.26H12.4v1.26Zm0,1.62H12.4V-8.01H8.874Zm5.9,3.78c-.432.036-.756.054-1.494.054H7a12.511,12.511,0,0,1-1.926-.09v1.692c.378-.036.648-.054,1.278-.072A10.437,10.437,0,0,0,8.8-1.332,17.01,17.01,0,0,1,3.654-.324a6.121,6.121,0,0,1,.7,1.854A19.389,19.389,0,0,0,10.512-.234a17.883,17.883,0,0,0,6.5,1.746,8.8,8.8,0,0,1,.756-2.034,15.819,15.819,0,0,1-5.328-.846,14.737,14.737,0,0,0,2.97-2.7c.162-.18.18-.2.342-.36ZM12.852-3.888A10.14,10.14,0,0,1,10.62-2.2,7.064,7.064,0,0,1,8.532-3.888ZM30.6-10.566A6.751,6.751,0,0,1,30.24-9.2a5.1,5.1,0,0,0-.684-.036A9.96,9.96,0,0,0,27.072-9c.018-.378.036-.954.09-1.728a57.747,57.747,0,0,0,6.336-.63c.378-.054.45-.054.7-.072l-.09-2.07a32.618,32.618,0,0,1-6.822.954,10.6,10.6,0,0,1,.324-2.214l-2.232-.108a1.013,1.013,0,0,1,.036.288c0,.342-.018.792-.036,1.026-.054.72-.054.72-.072,1.08h-.4a15.925,15.925,0,0,1-3.366-.27v2.016c.2-.018.36-.018.414-.018H22.3c1.746.054,2.718.072,2.916.072-.036.864-.072,1.584-.072,2.16a7.439,7.439,0,0,0-2.466,1.62A5.655,5.655,0,0,0,20.9-2.862,2.843,2.843,0,0,0,23.706.288c1.494,0,3.1-.882,4.716-2.592a15.886,15.886,0,0,0,3.132-4.788A2.64,2.64,0,0,1,33.57-4.608c0,1.242-.666,2.124-2.106,2.808a7.463,7.463,0,0,1-3.438.72A5.8,5.8,0,0,1,28.98.954,10.026,10.026,0,0,0,32.652,0a4.893,4.893,0,0,0,3.1-4.5,4.016,4.016,0,0,0-1.71-3.4,4.847,4.847,0,0,0-1.872-.882c.054-.162.072-.18.252-.684a4.157,4.157,0,0,1,.216-.522Zm-5.418,4.1a19.743,19.743,0,0,0,.324,4.068,2.48,2.48,0,0,1-1.566.684c-.63,0-1.026-.5-1.026-1.314a3.569,3.569,0,0,1,.81-2.2A5.353,5.353,0,0,1,25.182-6.462Zm2.034,2.718a.738.738,0,0,1-.018-.2.951.951,0,0,0-.018-.234,29.932,29.932,0,0,1-.126-3.1,6.613,6.613,0,0,1,2.16-.324,4.227,4.227,0,0,1,.468.018,13.7,13.7,0,0,1-2.232,3.6,1.662,1.662,0,0,0-.2.252ZM42.354-14.832a4.231,4.231,0,0,1-.054.612l-.27,2.232c-.144,1.242-.252,3.24-.252,4.7,0,.36.036,1.692.054,2.214v.342a1.4,1.4,0,0,1-.018.234l2.16-.036v-.378a8.63,8.63,0,0,1,2.268-5.814,2.679,2.679,0,0,1,1.944-.954c1.548,0,2.412,1.44,2.412,4.032,0,2.736-.954,4.446-3.042,5.508a10.507,10.507,0,0,1-3.942,1.026,6.885,6.885,0,0,1,1.062,2.124A15.351,15.351,0,0,0,48.2,0a7.566,7.566,0,0,0,4.644-7.4,7.538,7.538,0,0,0-1.3-4.788,3.769,3.769,0,0,0-3.078-1.62,4.3,4.3,0,0,0-3.42,1.836A7.277,7.277,0,0,0,43.92-9.828a3.952,3.952,0,0,1-.108.4h-.054c.036-.432.108-1.044.234-1.8a17.657,17.657,0,0,1,.648-3.474Z" transform="translate(317 3620)" fill="#fff"/>
    <g id="グループ_11719" data-name="グループ 11719" transform="translate(23 -14)">
      <path id="パス_54836" data-name="パス 54836" d="M3.05-8.29a10.216,10.216,0,0,1-.3,1.74c-.22.01-.39.01-.51.01A6.943,6.943,0,0,1,.89-6.63v1.14l.53.01c.21.01.27.01.4.01s.18,0,.63-.01a15.384,15.384,0,0,1-.94,2.36,9.1,9.1,0,0,1-.97,1.6l1.15.64c.06-.12.06-.12.19-.36.38-.7.47-.88.7-1.37a19.2,19.2,0,0,0,1.1-2.9c.62-.05,1.23-.12,1.59-.18a1.95,1.95,0,0,1,.32-.05L5.56-6.89a8.577,8.577,0,0,1-1.6.28c.11-.44.16-.64.21-.88a5.006,5.006,0,0,1,.16-.67Zm6.4,2.6A15.786,15.786,0,0,0,6.63-7.03l-.6.97a12.239,12.239,0,0,1,2.88,1.4ZM9.41-1.18a1.791,1.791,0,0,1-.15-.14,3.687,3.687,0,0,0-.35-.27,6.248,6.248,0,0,0-1.58-.92,10.617,10.617,0,0,1-.09-1.37,3.333,3.333,0,0,1,.12-1.01L6.2-4.95a5.3,5.3,0,0,0-.08,1.01c0,.3.02.69.05,1.15a4.967,4.967,0,0,0-.93-.09c-1.27,0-2.16.71-2.16,1.72S3.94.52,5.26.52A2.309,2.309,0,0,0,6.92-.04,1.6,1.6,0,0,0,7.35-1.1c0-.04-.01-.11-.02-.2A6.048,6.048,0,0,1,8.86-.06Zm-3.2-.55s.02.24.02.34c0,.56-.33.84-1.01.84-.62,0-.98-.24-.98-.65s.42-.69,1.07-.69A2.521,2.521,0,0,1,6.21-1.73Zm7.18-6.18a5.4,5.4,0,0,1,.16.66,24.788,24.788,0,0,0,.67,2.71,6.182,6.182,0,0,0-1.36.85,2.38,2.38,0,0,0-.89,1.79,1.881,1.881,0,0,0,.87,1.67,5.6,5.6,0,0,0,2.9.55A21.133,21.133,0,0,0,18.08.17c.53-.05.6-.06.81-.07l-.11-1.36a11.335,11.335,0,0,1-3.23.4c-1.61,0-2.29-.31-2.29-1.04s.73-1.35,2.19-1.89a23.057,23.057,0,0,1,3.3-.96l-.43-1.26a3.7,3.7,0,0,1-.71.26c-1.26.4-1.64.53-2.26.77a17.293,17.293,0,0,1-.66-3.13Zm3.92.15a6.749,6.749,0,0,1,1.05,1.49l.7-.37a6.481,6.481,0,0,0-1.05-1.47Zm2.94.47A5.783,5.783,0,0,0,19.21-8.7l-.67.35A7.368,7.368,0,0,1,19.56-6.9Z" transform="translate(319 3688)" fill="#fff"/>
      <g id="グループ_11718" data-name="グループ 11718" transform="translate(-164 245)">
        <rect id="長方形_8559" data-name="長方形 8559" width="64" height="18" rx="9" transform="translate(413 3427)" fill="#222"/>
        <path id="パス_54835" data-name="パス 54835" d="M-17.2-8.12a5.259,5.259,0,0,1-1.21.47,17.262,17.262,0,0,1-4.28.58c-.15,0-.31,0-.62-.02a4.2,4.2,0,0,1,.37,1.08,22.377,22.377,0,0,0,2.77-.23c0,.7,0,1.09-.02,1.51h-2.56a6.2,6.2,0,0,1-1.22-.07v1.2a9.137,9.137,0,0,1,1.2-.05h2.47a5.753,5.753,0,0,1-.11.67,3.191,3.191,0,0,1-1.15,1.7,4.612,4.612,0,0,1-1.55.84A3.239,3.239,0,0,1-22.24.62a6.235,6.235,0,0,0,.93-.5,5.171,5.171,0,0,0,1.63-1.59,5.242,5.242,0,0,0,.67-2.18h2.21a9.137,9.137,0,0,1,1.2.05V-4.8a6.2,6.2,0,0,1-1.22.07h-2.12c.02-.34.02-.34.03-1.69a12.368,12.368,0,0,0,1.67-.41c.72-.24.72-.24.84-.27Zm3.11,4.98a10.978,10.978,0,0,1,1.63-.05h5.31a10.978,10.978,0,0,1,1.63.05V-4.53a9.82,9.82,0,0,1-1.62.07h-5.33a9.82,9.82,0,0,1-1.62-.07Zm12.8-4.97a15.816,15.816,0,0,1-.73,2.77c-.52,1.64-.92,2.77-1.45,4.03-.42.02-.66.03-.86.03h-.26L-4.41.07A5.47,5.47,0,0,1-3.5-.05c2.99-.29,4.65-.5,5.66-.71.23-.05.23-.05.36-.08A10.24,10.24,0,0,1,3,.4L4.21-.23A23.391,23.391,0,0,0,1.79-4.86L.66-4.42a12.415,12.415,0,0,1,.95,1.59c.24.45.36.67.47.91a39.521,39.521,0,0,1-4.16.51A59.393,59.393,0,0,0-.1-7.11a3.061,3.061,0,0,1,.26-.72ZM9.75-3.48a8.121,8.121,0,0,0,1.18,2.06A7.443,7.443,0,0,0,13.91.7a3.787,3.787,0,0,1,.66-1.08,6.987,6.987,0,0,1-2.19-1.13,13.687,13.687,0,0,0,1.18-1.04l.23-.23-1-.62a6.082,6.082,0,0,1-1.17,1.15,5.014,5.014,0,0,1-.78-1.23h2.33a9.638,9.638,0,0,1,1.15.06V-4.5a6.5,6.5,0,0,1-1.15.06H10.28v-.64h2.11a9.794,9.794,0,0,1,1.11.04v-1A9.348,9.348,0,0,1,12.39-6H10.28v-.61h2.58a7.808,7.808,0,0,1,1.12.05V-7.61a8.8,8.8,0,0,1-1.19.06H10.28a3.783,3.783,0,0,1,.06-.86H9.11a3.835,3.835,0,0,1,.06.86H6.82a8.874,8.874,0,0,1-1.17-.06v1.05a7.723,7.723,0,0,1,1.12-.05h2.4V-6H7.22a9.478,9.478,0,0,1-1.1-.04v1a9.7,9.7,0,0,1,1.1-.04H9.17v.64H6.43A6.7,6.7,0,0,1,5.27-4.5v1.08a9.878,9.878,0,0,1,1.17-.06H8.33A7.734,7.734,0,0,1,5.11-1.83,4.262,4.262,0,0,1,5.73-.76a10.8,10.8,0,0,0,2.13-1.1V-.49a12.642,12.642,0,0,1-1.38.12L6.72.8C6.81.78,7,.74,7.2.7c.23-.03.23-.03.47-.07C8.22.54,8.26.53,8.94.4c1.11-.23,1.34-.28,2.09-.49V-1.14c-.88.23-1.3.33-2.07.47V-2.73a6.124,6.124,0,0,0,.73-.75Zm8.82-4.25a3.635,3.635,0,0,1,.05-.7H17.44a3.175,3.175,0,0,1,.05.7h-.95a6.265,6.265,0,0,1-.98-.05v.94a6.323,6.323,0,0,1,.73-.04,5.015,5.015,0,0,1,.25.72h-.31a6.123,6.123,0,0,1-.97-.05v.97a6.152,6.152,0,0,1,.95-.05h3.43a6.635,6.635,0,0,1,1,.05V-6.2a6.524,6.524,0,0,1-.94.04h-.22a6,6,0,0,0,.28-.72,5.2,5.2,0,0,1,.72.04v-.94a5.907,5.907,0,0,1-.96.05Zm-1,1.57c-.07-.27-.12-.43-.22-.72h1.37a4.482,4.482,0,0,1-.26.72Zm-.08,4.3v.46H16.24a5.844,5.844,0,0,1-.95-.05V-.42a4.848,4.848,0,0,1,.95-.06h1.25v.22A6.073,6.073,0,0,1,17.43.83h1.19a5.875,5.875,0,0,1-.06-1.09V-.48h1.08a6.792,6.792,0,0,1,.96.05V-1.45a6.52,6.52,0,0,1-.97.05H18.56v-.46h.88c.34,0,.69.01.87.03a5.765,5.765,0,0,1-.04-.81V-4.16a6.043,6.043,0,0,1,.04-.81c-.21.02-.47.03-.86.03H16.64a8.7,8.7,0,0,1-.87-.03,6.4,6.4,0,0,1,.04.82v1.54a5.943,5.943,0,0,1-.04.78c.22-.02.48-.03.87-.03Zm-.67-2.3h2.44v.36H16.82Zm0,1.15h2.44v.37H16.82ZM23.18-8.4a7.2,7.2,0,0,1-2.57,1.99,4.047,4.047,0,0,1,.65.94,12.89,12.89,0,0,0,2.85-2.24Zm.42,5.49a5.276,5.276,0,0,1-.78.93A8.328,8.328,0,0,1,19.97-.1a4.011,4.011,0,0,1,.68.98,11.669,11.669,0,0,0,3.39-2.56,4.777,4.777,0,0,1,.44-.45Zm-.13-2.88a3.308,3.308,0,0,1-.68.76,8.044,8.044,0,0,1-2.33,1.47,5.739,5.739,0,0,1,.62.98,9.524,9.524,0,0,0,1.48-.89,15.377,15.377,0,0,0,1.38-1.17,3.657,3.657,0,0,1,.42-.4Z" transform="translate(445 3440)" fill="#fff"/>
      </g>
    </g>
    <g id="グループ_11720" data-name="グループ 11720" transform="translate(2 -10)">
      <g id="グループ_11716" data-name="グループ 11716" transform="translate(-178 217)">
        <rect id="長方形_8559-2" data-name="長方形 8559" width="93" height="18" rx="9" transform="translate(415 3427)" fill="#222"/>
        <path id="パス_54834" data-name="パス 54834" d="M-37.59-5.08v.68h-.56a5.021,5.021,0,0,1-.91-.06v1.04a5.283,5.283,0,0,1,.9-.06h.57V-.65a10.747,10.747,0,0,1-1.56.21l.22,1.05c.17-.05.43-.11.55-.13,1.01-.21,1.73-.38,2.86-.71l-.01-.91c-.56.15-.72.19-1.13.29V-3.48h.43a4.694,4.694,0,0,1,.71.04V-4.45a3.45,3.45,0,0,1-.71.05h-.43v-.68h.36a3.852,3.852,0,0,1,.54.03v-.72a5.188,5.188,0,0,1,.54-.81V-.43A9.679,9.679,0,0,1-35.27.79h1.02A8.939,8.939,0,0,1-34.3-.42V-7.04h3.12V-.5c0,.2-.07.24-.42.24a7.707,7.707,0,0,1-1-.09A3.764,3.764,0,0,1-32.39.69c.33.02.71.04.95.04.91,0,1.19-.23,1.19-.98V-6.78c0-.56.01-.93.04-1.27a8.976,8.976,0,0,1-1.14.04h-2.74a9.48,9.48,0,0,1-1.16-.04,10.159,10.159,0,0,1,.03,1.12v.26a4.184,4.184,0,0,1-1.31-1.62h-1.1A4.329,4.329,0,0,1-39.32-6.1a3.808,3.808,0,0,1,.47.97,5.9,5.9,0,0,0,.47-.44v.53a2.928,2.928,0,0,1,.53-.04Zm-.41-.9a5.728,5.728,0,0,0,.97-1.45,5.832,5.832,0,0,0,1,1.45H-38Zm.21,4.79a10.121,10.121,0,0,0-.44-1.9l-.76.24a10.411,10.411,0,0,1,.42,1.9Zm1.96-.06a13.108,13.108,0,0,0,.4-1.64l-.74-.2a8.13,8.13,0,0,1-.32,1.66Zm4.34-5.09a4.066,4.066,0,0,1-.71.04h-1.05a3.993,3.993,0,0,1-.71-.04v1a4.508,4.508,0,0,1,.72-.04h1.02a4.335,4.335,0,0,1,.73.04Zm-.14,2.31a3.358,3.358,0,0,1,.03-.64,4.513,4.513,0,0,1-.64.03h-1.04a4.816,4.816,0,0,1-.61-.03,6.317,6.317,0,0,1,.03.65v2.33a5.369,5.369,0,0,1-.03.81h.87v-.49h.85a4.237,4.237,0,0,1,.57.03,4.743,4.743,0,0,1-.03-.63Zm-1.39.25h.54v1.5h-.54Zm8.42-1.21A1.186,1.186,0,0,0-25.79-3.8,1.186,1.186,0,0,0-24.6-2.61,1.186,1.186,0,0,0-23.41-3.8,1.186,1.186,0,0,0-24.6-4.99Zm8.98,3.77a8.589,8.589,0,0,0,.52-1.6l-.74-.26a7.28,7.28,0,0,1-.46,1.63Zm4.46-2.42a7.122,7.122,0,0,1,.74.03,10,10,0,0,1-.03-1.04V-6.87c0-.61.01-.86.03-1.11a5.284,5.284,0,0,1-.93.05h-2.5a8.169,8.169,0,0,1-.96-.04c.02.3.04.64.04,1.06v.43a3.943,3.943,0,0,1-1.54-1.74h-1.1a4.218,4.218,0,0,1-.79,1.27,5.367,5.367,0,0,1-1.05.91,3.875,3.875,0,0,1,.49,1c.22-.18.29-.24.5-.44v.46a5.793,5.793,0,0,1,.61-.03h.22v.72H-18a8.305,8.305,0,0,1-.98-.05v1.02a8.636,8.636,0,0,1,.97-.05h.58V-.6a10.541,10.541,0,0,1-1.68.2l.19,1.12c.14-.03.67-.13,1.01-.2.66-.12,1.54-.34,2.22-.54l.19.85a2.788,2.788,0,0,1,.34-.09A28.709,28.709,0,0,0-12.2-.1l-.02-.9A6.474,6.474,0,0,0-10.49.82,7.317,7.317,0,0,1-9.8-.17a4.929,4.929,0,0,1-1.58-1.41,7.935,7.935,0,0,0,.82-.61c.46-.38.46-.38.62-.51l-.7-.75a4.675,4.675,0,0,1-1.2,1.06,4.465,4.465,0,0,1-.33-1.25Zm-1.98,0a6.6,6.6,0,0,0,.88,2.59c-.67.22-.93.3-1.49.44V-3.64Zm-3.31.23h.51a4.773,4.773,0,0,1,.83.05V-4.37a5.993,5.993,0,0,1-.83.04h-.51v-.72h.34a5.719,5.719,0,0,1,.62.03v-.67l.13.12a4.181,4.181,0,0,1,.59-.87V-.39a4.378,4.378,0,0,1-.44.08l-.02-.8c-.57.17-.75.21-1.22.32Zm-1.37-2.5a5.772,5.772,0,0,0,.99-1.4,6.18,6.18,0,0,0,1.09,1.39,3.326,3.326,0,0,1-.34.01h-1.74Zm4.07-1.07h2.29v.74h-2.29Zm0,1.66h2.29v.74h-2.29Zm-3.94,4.19a10.356,10.356,0,0,0-.46-1.93l-.8.25A9.064,9.064,0,0,1-18.5-.85ZM-4.6-4.99A1.186,1.186,0,0,0-5.79-3.8,1.186,1.186,0,0,0-4.6-2.61,1.186,1.186,0,0,0-3.41-3.8,1.186,1.186,0,0,0-4.6-4.99Zm9.38.27v.97H2.42a7.381,7.381,0,0,1-1.09-.06V-2.7a8.216,8.216,0,0,1,1.08-.06H4.78V-.52H2.27A10.806,10.806,0,0,1,1.03-.58V.57A9.859,9.859,0,0,1,2.27.5H8.59a9.224,9.224,0,0,1,1.2.07V-.58a9.368,9.368,0,0,1-1.18.06H5.89V-2.76H8.41a7.923,7.923,0,0,1,1.1.06V-3.81a7.107,7.107,0,0,1-1.09.06H5.89v-.97H6.91a6.835,6.835,0,0,1,.98.05v-.51a10.2,10.2,0,0,0,1.75.88,5.1,5.1,0,0,1,.54-1.1A8.283,8.283,0,0,1,7.53-6.75,5.915,5.915,0,0,1,5.99-8.29H4.75A7.715,7.715,0,0,1,.67-5.36a4.443,4.443,0,0,1,.58,1.03,10.792,10.792,0,0,0,1.63-.82v.48a7.007,7.007,0,0,1,.98-.05ZM3.62-5.66A7.055,7.055,0,0,0,5.37-7.34a7.889,7.889,0,0,0,1.8,1.68c-.15.01-.15.01-.24.01l-3.1-.01ZM2.16-2.27A7.283,7.283,0,0,1,2.95-.61l1-.4a11.589,11.589,0,0,0-.8-1.66Zm5.39-.39A8.356,8.356,0,0,1,6.76-.94l.94.35c.34-.58.38-.65.41-.71.37-.73.37-.73.5-.96Zm9.58-5.35a12.223,12.223,0,0,1-1.41,3.22c-.08-.05-.08-.05-.83-.59-.49-.35-.92-.63-1.65-1.06l-.88.88a17.927,17.927,0,0,1,2.65,1.8A10.185,10.185,0,0,1,13.74-2.4,10.176,10.176,0,0,1,11.15-.67,3.1,3.1,0,0,1,12.03.37a12.7,12.7,0,0,0,2.38-1.65,11.468,11.468,0,0,0,1.56-1.67A14.874,14.874,0,0,1,18-.84l.96-1.03a23.978,23.978,0,0,0-2.23-2.12,16.653,16.653,0,0,0,1.41-2.83,6.107,6.107,0,0,1,.35-.72ZM28.34-6.76l.37-.12a6.167,6.167,0,0,0-.92-1.55l-.77.23a6.361,6.361,0,0,1,.72,1.13c-.11.02-.34.03-.55.04l-2.08.02h-.24c-.15.01-.18.01-.28.02.05-.09.07-.13.24-.48a6.007,6.007,0,0,1,.3-.57l-1.3-.29a5.387,5.387,0,0,1-.59,1.39,8.769,8.769,0,0,1-2.5,2.86,3.174,3.174,0,0,1,1,.8,10.762,10.762,0,0,0,2.34-2.69L27.19-6a9.757,9.757,0,0,1-1.12,2.36,13.779,13.779,0,0,0-2.01-1.34l-.76.89a11.815,11.815,0,0,1,2.05,1.42A9,9,0,0,1,21.76-.28,3.483,3.483,0,0,1,22.59.76a9.935,9.935,0,0,0,5.76-6.39,2.093,2.093,0,0,1,.31-.67Zm1.72-.5a5.7,5.7,0,0,0-.92-1.5l-.74.24a7.282,7.282,0,0,1,.89,1.53Zm1.87-.56a5.026,5.026,0,0,1,.04.91c0,2.8-.23,4.09-.95,5.24A4.108,4.108,0,0,1,29.99-.52,3.559,3.559,0,0,1,31,.45,6.368,6.368,0,0,0,32.38-1.4a9.363,9.363,0,0,0,.81-4.11,20.9,20.9,0,0,1,.1-2.24Zm2.65-.07a4.328,4.328,0,0,1,.04.66v.3l-.05,5.64a4.481,4.481,0,0,1-.09,1.06l.64.68a4.351,4.351,0,0,1,.43-.18,6.6,6.6,0,0,0,2.13-1.2,6.206,6.206,0,0,0,1.59-2.33,4.192,4.192,0,0,1-.94-.94,4.887,4.887,0,0,1-.98,1.83,4.02,4.02,0,0,1-1.53,1.14l.05-5.69a5.419,5.419,0,0,1,.07-.95Z" transform="translate(462 3440)" fill="#fff"/>
      </g>
      <g id="グループ_11717" data-name="グループ 11717" transform="translate(-79 217)">
        <rect id="長方形_8559-3" data-name="長方形 8559" width="58" height="18" rx="9" transform="translate(415 3427)" fill="#222"/>
        <path id="パス_54833" data-name="パス 54833" d="M-17.06-6.79a5.076,5.076,0,0,1,.05-.93h-1.34a5.282,5.282,0,0,1,.04.92l.01,4.64a7.535,7.535,0,0,0,.03.92,1.382,1.382,0,0,0,.49,1.02,4,4,0,0,0,2.34.43c.61,0,1.87-.06,2.46-.12,1.06-.1,1.11-.11,1.32-.11l-.06-1.33a5.908,5.908,0,0,1-1.14.24,18.859,18.859,0,0,1-2.32.16,3.145,3.145,0,0,1-1.71-.26c-.14-.14-.18-.36-.18-.92a.974.974,0,0,1,.01-.16V-3.61a16.936,16.936,0,0,0,4.7-1.59l.26-.13a1.463,1.463,0,0,1,.21-.09l-.8-1.13a11.766,11.766,0,0,1-4.37,1.78Zm5.76-1.77a1.157,1.157,0,0,0-1.15,1.15A1.159,1.159,0,0,0-11.3-6.25a1.161,1.161,0,0,0,1.16-1.16A1.159,1.159,0,0,0-11.3-8.56Zm0,.5a.651.651,0,0,1,.66.65.659.659,0,0,1-.66.66.657.657,0,0,1-.65-.66A.649.649,0,0,1-11.3-8.06Zm2.52,1.64A10.5,10.5,0,0,1-6.23-4.39l.86-1.09A14.163,14.163,0,0,0-7.95-7.41Zm.35,6.6A3.54,3.54,0,0,1-7.77.01a10.8,10.8,0,0,0,3.81-1.5A8.776,8.776,0,0,0-.79-5.41a4.312,4.312,0,0,1-1.06-.98,8.35,8.35,0,0,1-1.02,2A6.681,6.681,0,0,1-5.84-1.94,9.529,9.529,0,0,1-8.8-1.2ZM8.11-7.03a1.771,1.771,0,0,1-.73.1L5.19-6.9c-.19,0-.35.01-.48.02a2.358,2.358,0,0,0,.16-.32L5-7.46a2.018,2.018,0,0,1,.13-.28,2.045,2.045,0,0,1,.17-.31L3.93-8.32A3.732,3.732,0,0,1,3.42-7,7.692,7.692,0,0,1,.83-4.1a2.657,2.657,0,0,1,.97.86A9.788,9.788,0,0,0,4.14-5.8l3.01-.05A7.919,7.919,0,0,1,4.23-1.63,9.006,9.006,0,0,1,2.04-.45,3.081,3.081,0,0,1,2.89.6,10.1,10.1,0,0,0,6.45-1.94,10.372,10.372,0,0,0,8.5-5.8a1.881,1.881,0,0,1,.25-.6Zm6.28-.34H13.38a6.041,6.041,0,0,0-.67-.96L11.73-8a3.439,3.439,0,0,1,.54.63h-.61a9.459,9.459,0,0,1-1.02-.04,7.694,7.694,0,0,1,.04.85v.55a5.378,5.378,0,0,1-.04.68h1.03V-6.55H18.3v1.22h1.03a4.449,4.449,0,0,1-.04-.65V-6.5a8.349,8.349,0,0,1,.04-.91,8.035,8.035,0,0,1-.97.04h-.69a7.034,7.034,0,0,0,.49-.65l-.99-.37a5.026,5.026,0,0,1-.64,1.02H15.47v-.36a3.822,3.822,0,0,1,.05-.71H14.34a3.888,3.888,0,0,1,.05.71ZM12.99-.55a8.95,8.95,0,0,1-2.69.47,3.464,3.464,0,0,1,.59.95,9.865,9.865,0,0,0,3.23-.92l-.58-.5h2.72l-.52.5a7.79,7.79,0,0,0,1.59.66,8.767,8.767,0,0,0,1.73.36,4.455,4.455,0,0,1,.51-.91,7.927,7.927,0,0,1-2.69-.61h.55c.38,0,.67.01.98.03a7.52,7.52,0,0,1-.04-1.03V-3.13a9.091,9.091,0,0,1,.04-.99c-.29.02-.54.03-1.11.03H12.65c-.62,0-.81-.01-1.11-.03a9.329,9.329,0,0,1,.04.99v1.58a8.971,8.971,0,0,1-.04,1.03c.35-.02.63-.03,1.07-.03Zm-.37-2.88h4.71v.32H12.62Zm0,.92h4.71v.33H12.62Zm0,.93h4.71v.35H12.62Zm5.1-4.04a6.253,6.253,0,0,1,.03-.64c-.29.02-.58.03-.97.03H13.19c-.4,0-.66-.01-.97-.03a4.955,4.955,0,0,1,.03.63v.62a5.981,5.981,0,0,1-.03.64c.33-.03.58-.04.91-.04h3.7a7.622,7.622,0,0,1,.91.03c-.01-.25-.02-.41-.02-.65Zm-1,.07v.46H13.24v-.46Z" transform="translate(444 3440)" fill="#fff"/>
      </g>
    </g>
    <g id="トロフィーのアイコン素材_その4" data-name="トロフィーのアイコン素材 その4" transform="translate(279.744 3517)">
      <path id="パス_54532" data-name="パス 54532" d="M189.606,296.79a16.035,16.035,0,0,0-7.957-7.663v-5.414l.007-1.284h-.007v-.034a25.928,25.928,0,0,1-9.715.06c-.106-.021-.213-.037-.318-.06v.006l-.034-.006v6.732a14.719,14.719,0,0,0-4.66,3.135c-.049.048-.1.093-.147.141-.151.152-.3.312-.441.471-.1.108-.2.213-.3.324s-.167.2-.25.3c-.15.181-.3.362-.446.551l-.037.05a18.517,18.517,0,0,0-1.679,2.654h.018l-.018.033Z" transform="translate(-139.537 -242.683)" fill="url(#linear-gradient)"/>
      <path id="パス_54533" data-name="パス 54533" d="M115.044,416v13.466h0v.034h39.644V416Z" transform="translate(-97.787 -357.5)" fill="url(#linear-gradient)"/>
      <path id="パス_54534" data-name="パス 54534" d="M71.157,4.133A5.892,5.892,0,0,0,66.751,2.12H60.037V.034h0V0H14.121V2.12H7.407A5.894,5.894,0,0,0,3,4.132a8.027,8.027,0,0,0-1.672,6.339A14.721,14.721,0,0,0,7.968,21.549a23.327,23.327,0,0,0,9.765,3.929,22.951,22.951,0,0,0,38.692,0,23.325,23.325,0,0,0,9.766-3.929A14.723,14.723,0,0,0,72.83,10.472,8.025,8.025,0,0,0,71.157,4.133ZM68.05,9.987l-.018.12v.145a9.843,9.843,0,0,1-4.563,7.34,19.6,19.6,0,0,1-3.662,1.995c-.258.1-.516.2-.781.287a22.952,22.952,0,0,0,1.011-6.751v-6.2h6.714a1.057,1.057,0,0,1,.805.388A3.507,3.507,0,0,1,68.05,9.987ZM36.793,21.828,32.06,24.462a.588.588,0,0,1-.863-.626l1.042-5.316a.586.586,0,0,0-.176-.543L28.1,14.288a.588.588,0,0,1,.33-1.014l5.377-.652a.588.588,0,0,0,.463-.336l2.281-4.912a.588.588,0,0,1,1.066,0l2.281,4.912a.588.588,0,0,0,.463.336l5.377.652a.588.588,0,0,1,.33,1.014l-3.968,3.689a.586.586,0,0,0-.177.543l1.043,5.316a.588.588,0,0,1-.863.626l-4.734-2.634A.59.59,0,0,0,36.793,21.828Zm-26.1-4.236a9.85,9.85,0,0,1-4.562-7.315v-.146l-.018-.144A3.507,3.507,0,0,1,6.6,7.31a1.055,1.055,0,0,1,.805-.388h6.714v6.2a22.946,22.946,0,0,0,.753,5.793c.079.325.151.651.243.974A19.322,19.322,0,0,1,10.688,17.591Z" transform="translate(0)" fill="url(#linear-gradient)"/>
    </g>
  </g>
</svg>
