<svg xmlns="http://www.w3.org/2000/svg" xmlns:xlink="http://www.w3.org/1999/xlink" width="90" height="90" viewBox="0 0 90 90">
  <defs>
    <clipPath id="clip-path">
      <rect id="長方形_8809" data-name="長方形 8809" width="90" height="90" transform="translate(1989 -2680)" fill="#fff"/>
    </clipPath>
    <linearGradient id="linear-gradient" x1="0.5" x2="0.5" y2="1" gradientUnits="objectBoundingBox">
      <stop offset="0" stop-color="#d80576"/>
      <stop offset="1" stop-color="#b2427e"/>
    </linearGradient>
  </defs>
  <g id="マスクグループ_924" data-name="マスクグループ 924" transform="translate(-1989 2680)" clip-path="url(#clip-path)">
    <g id="ビールジョッキのアイコン_2" data-name="ビールジョッキのアイコン　2" transform="translate(1973.832 -2676)">
      <path id="パス_54537" data-name="パス 54537" d="M108.36,296.01a3.27,3.27,0,0,0,3.265,3.268h22.412a3.272,3.272,0,0,0,3.266-3.268V270.59H108.36Z" transform="translate(-71.515 -227.148)" fill="url(#linear-gradient)"/>
      <path id="パス_54538" data-name="パス 54538" d="M93.763,34.543a14.17,14.17,0,0,0-10.124-4.166,15.516,15.516,0,0,0-4.479.676,12.869,12.869,0,0,0,2.06-6.99,13,13,0,0,0-6.7-11.386A17.277,17.277,0,0,0,49.584,2.115a12.249,12.249,0,0,0-6.5-1.846,12.449,12.449,0,0,0-12.142,9.739,12.293,12.293,0,0,0-4.18,20.119V68.866A13.337,13.337,0,0,0,40.113,82.2H62.53A13.332,13.332,0,0,0,75.862,68.866V63.107a18.425,18.425,0,0,0,1.932.1,21.68,21.68,0,0,0,12.326-3.844,18.282,18.282,0,0,0,4.836-4.87,17.712,17.712,0,0,0,2.737-6.851,17.476,17.476,0,0,0,.236-2.788A14.545,14.545,0,0,0,93.763,34.543ZM70.825,68.866a8.312,8.312,0,0,1-8.295,8.3H40.113a8.317,8.317,0,0,1-8.313-8.3V33.636H70.825V68.866ZM74.756,28.6H34.218a7.114,7.114,0,0,1-3.879-2.015,7.219,7.219,0,0,1-2.134-5.156,7.292,7.292,0,0,1,5.576-7.07l1.762-.419.151-1.815a7.415,7.415,0,0,1,7.389-6.817,7.327,7.327,0,0,1,4.769,1.746L49.331,8.3,50.91,7.2a12.057,12.057,0,0,1,6.951-2.167A12.252,12.252,0,0,1,69.868,14.9l.269,1.311,1.209.519a7.974,7.974,0,0,1,4.836,7.338A7.827,7.827,0,0,1,74.756,28.6Zm16.3,17.918a10.535,10.535,0,0,1-1.679,4.23A12.536,12.536,0,0,1,84.327,55a15.19,15.19,0,0,1-6.533,1.495,12.128,12.128,0,0,1-1.932-.133V40.537a17.331,17.331,0,0,1,2.118-1.645,10.452,10.452,0,0,1,5.659-1.8,7.383,7.383,0,0,1,5.355,2.184,7.7,7.7,0,0,1,2.218,5.575A9.625,9.625,0,0,1,91.061,46.516Z" fill="url(#linear-gradient)"/>
    </g>
  </g>
</svg>
