<svg xmlns="http://www.w3.org/2000/svg" xmlns:xlink="http://www.w3.org/1999/xlink" width="90" height="90" viewBox="0 0 90 90">
  <defs>
    <clipPath id="clip-path">
      <rect id="長方形_8810" data-name="長方形 8810" width="90" height="90" transform="translate(2331 -2656)" fill="#fff"/>
    </clipPath>
    <linearGradient id="linear-gradient" x1="0.5" x2="0.5" y2="1" gradientUnits="objectBoundingBox">
      <stop offset="0" stop-color="#d80576"/>
      <stop offset="1" stop-color="#b2427e"/>
    </linearGradient>
  </defs>
  <g id="マスクグループ_925" data-name="マスクグループ 925" transform="translate(-2331 2656)" clip-path="url(#clip-path)">
    <g id="トロフィーのアイコン素材_その4" data-name="トロフィーのアイコン素材 その4" transform="translate(2336.744 -2649)">
      <path id="パス_54532" data-name="パス 54532" d="M191.244,297.7a17.045,17.045,0,0,0-8.458-8.146V283.8l.007-1.365h-.007v-.036a27.561,27.561,0,0,1-10.327.064c-.112-.023-.227-.039-.338-.064v.006l-.036-.006v7.156a15.646,15.646,0,0,0-4.954,3.333c-.052.051-.105.1-.157.15-.16.162-.314.332-.468.5-.105.115-.213.226-.316.345s-.177.216-.266.322c-.16.193-.32.385-.474.586l-.039.053a19.686,19.686,0,0,0-1.785,2.822h.02l-.02.036Z" transform="translate(-138.098 -240.181)" fill="url(#linear-gradient)"/>
      <path id="パス_54533" data-name="パス 54533" d="M115.044,416v14.315h0v.036h42.142V416Z" transform="translate(-96.778 -353.813)" fill="url(#linear-gradient)"/>
      <path id="パス_54534" data-name="パス 54534" d="M75.562,4.393a6.264,6.264,0,0,0-4.683-2.139H63.742V.036h0V0H14.932V2.253H7.795A6.265,6.265,0,0,0,3.111,4.393a8.533,8.533,0,0,0-1.777,6.739A15.648,15.648,0,0,0,8.391,22.907a24.8,24.8,0,0,0,10.38,4.176,24.4,24.4,0,0,0,41.13,0,24.8,24.8,0,0,0,10.381-4.176A15.65,15.65,0,0,0,77.34,11.132,8.531,8.531,0,0,0,75.562,4.393Zm-3.3,6.223-.019.127V10.9a10.463,10.463,0,0,1-4.85,7.8A20.836,20.836,0,0,1,63.5,20.82c-.274.106-.548.214-.83.305a24.4,24.4,0,0,0,1.075-7.177V7.359h7.137a1.123,1.123,0,0,1,.856.412A3.728,3.728,0,0,1,72.259,10.616ZM39.032,23.2,34,26a.625.625,0,0,1-.917-.666l1.108-5.651A.623.623,0,0,0,34,19.109l-4.217-3.921a.625.625,0,0,1,.351-1.078l5.716-.693a.626.626,0,0,0,.492-.357L38.77,7.838a.625.625,0,0,1,1.133,0l2.425,5.222a.625.625,0,0,0,.492.357l5.716.693a.625.625,0,0,1,.351,1.078l-4.218,3.921a.623.623,0,0,0-.188.577l1.109,5.651a.625.625,0,0,1-.917.666L39.64,23.2A.628.628,0,0,0,39.032,23.2Zm-27.75-4.5a10.471,10.471,0,0,1-4.849-7.776v-.155l-.02-.154a3.728,3.728,0,0,1,.526-2.845,1.121,1.121,0,0,1,.856-.412h7.137v6.59a24.392,24.392,0,0,0,.8,6.158c.084.345.161.692.258,1.035A20.54,20.54,0,0,1,11.283,18.7Z" transform="translate(0)" fill="url(#linear-gradient)"/>
    </g>
  </g>
</svg>
