<svg xmlns="http://www.w3.org/2000/svg" width="304.25" height="538" viewBox="0 0 304.25 538">
  <g id="グループ_11840" data-name="グループ 11840" transform="translate(-44 -64)">
    <path id="パス_480" data-name="パス 480" d="M-8449.847-6162.355l35.92,14.683H-8192.9" transform="translate(8540.75 6249.521)" fill="none" stroke="#707070" stroke-width="1"/>
    <path id="パス_54769" data-name="パス 54769" d="M-8449.847-6162.355l35.92,14.683H-8192.9" transform="translate(8540.75 6353.203)" fill="none" stroke="#707070" stroke-width="1"/>
    <path id="パス_54770" data-name="パス 54770" d="M-8449.847-6162.355l35.92,14.683H-8192.9" transform="translate(8540.75 6504.345)" fill="none" stroke="#707070" stroke-width="1"/>
    <text id="出社" transform="translate(129.25 89.021)" fill="#fff" font-size="15" font-family="HiraginoSans-W6, Hiragino Sans" letter-spacing="0.05em"><tspan x="0" y="0">出社</tspan></text>
    <text id="生産管理業務" transform="translate(129.25 192.703)" fill="#fff" font-size="15" font-family="HiraginoSans-W6, Hiragino Sans" letter-spacing="0.05em"><tspan x="0" y="0">生産管理業務</tspan></text>
    <text id="昼食" transform="translate(129.25 343.845)" fill="#fff" font-size="15" font-family="HiraginoSans-W6, Hiragino Sans" letter-spacing="0.05em"><tspan x="0" y="0">昼食</tspan></text>
    <circle id="楕円形_5" data-name="楕円形 5" cx="2.5" cy="2.5" r="2.5" transform="translate(133.25 116.174)" fill="#d80576"/>
    <text id="現場確認_生産進捗確認" data-name="現場確認、生産進捗確認" transform="translate(152.25 113.174)" fill="#fff" font-size="13" font-family="HiraginoSans-W4, Hiragino Sans"><tspan x="0" y="11">現場確認、生産進捗確認</tspan></text>
    <text id="現場との会話" transform="translate(152.25 136)" fill="#fff" font-size="13" font-family="HiraginoSans-W4, Hiragino Sans"><tspan x="0" y="11">現場との会話</tspan></text>
    <circle id="楕円形_6" data-name="楕円形 6" cx="2.5" cy="2.5" r="2.5" transform="translate(133.25 140.521)" fill="#d80576"/>
    <path id="パス_54768" data-name="パス 54768" d="M-8484-6155.181l-.5,491.908" transform="translate(8555.75 6238.202)" fill="none" stroke="#d80576" stroke-width="5"/>
    <g id="グループ_11757" data-name="グループ 11757">
      <circle id="楕円形_7" data-name="楕円形 7" cx="27" cy="27" r="27" transform="translate(45 64)" fill="#d80576"/>
    </g>
    <g id="グループ_11758" data-name="グループ 11758" transform="translate(0.25 -15)">
      <circle id="楕円形_8" data-name="楕円形 8" cx="27" cy="27" r="27" transform="translate(44.75 168)" fill="#d80576"/>
    </g>
    <g id="グループ_11760" data-name="グループ 11760" transform="translate(-0.75 8.478)">
      <circle id="楕円形_10" data-name="楕円形 10" cx="27" cy="27" r="27" transform="translate(44.75 375)" fill="#d80576"/>
      <text id="_13:00" data-name="13:00" transform="translate(71.75 406)" fill="#fff" font-size="13" font-family="Syncopate-Bold, Syncopate" font-weight="700"><tspan x="-22.058" y="0">13:00</tspan></text>
    </g>
    <g id="グループ_11764" data-name="グループ 11764" transform="translate(0 -234.908)">
      <path id="パス_54774" data-name="パス 54774" d="M-8449.847-6162.355l35.92,14.683H-8192.9" transform="translate(8540.75 6966.49)" fill="none" stroke="#707070" stroke-width="1"/>
      <text id="退社" transform="translate(129.25 805.99)" fill="#fff" font-size="15" font-family="HiraginoSans-W6, Hiragino Sans" letter-spacing="0.05em"><tspan x="0" y="0">退社</tspan></text>
    </g>
    <g id="グループ_11759" data-name="グループ 11759" transform="translate(0 40.383)">
      <circle id="楕円形_9" data-name="楕円形 9" cx="27" cy="27" r="27" transform="translate(44.75 271)" fill="#d80576"/>
      <text id="_12:00" data-name="12:00" transform="translate(71.75 302)" fill="#fff" font-size="13" font-family="Syncopate-Bold, Syncopate" font-weight="700"><tspan x="-22.137" y="0">12:00</tspan></text>
    </g>
    <circle id="楕円形_567" data-name="楕円形 567" cx="2.5" cy="2.5" r="2.5" transform="translate(133.25 219.856)" fill="#d80576"/>
    <circle id="楕円形_570" data-name="楕円形 570" cx="2.5" cy="2.5" r="2.5" transform="translate(133.25 267.182)" fill="#d80576"/>
    <text id="不足資材の発注" transform="translate(152.25 216.856)" fill="#fff" font-size="13" font-family="HiraginoSans-W4, Hiragino Sans"><tspan x="0" y="11">不足資材の発注</tspan></text>
    <text id="設備整備" transform="translate(152.25 264.182)" fill="#fff" font-size="13" font-family="HiraginoSans-W4, Hiragino Sans"><tspan x="0" y="11">設備整備</tspan></text>
    <text id="生産計画_現場指示" data-name="生産計画・現場指示" transform="translate(152.25 239.682)" fill="#fff" font-size="13" font-family="HiraginoSans-W4, Hiragino Sans"><tspan x="0" y="11">生産計画・現場指示</tspan></text>
    <text id="品質や作業効率などの改善" transform="translate(152.25 287.007)" fill="#fff" font-size="13" font-family="HiraginoSans-W4, Hiragino Sans"><tspan x="0" y="11">品質や作業効率などの改善</tspan></text>
    <circle id="楕円形_568" data-name="楕円形 568" cx="2.5" cy="2.5" r="2.5" transform="translate(133.25 244.203)" fill="#d80576"/>
    <circle id="楕円形_569" data-name="楕円形 569" cx="2.5" cy="2.5" r="2.5" transform="translate(133.25 291.528)" fill="#d80576"/>
    <path id="パス_54775" data-name="パス 54775" d="M-8449.847-6162.355l35.92,14.683H-8192.9" transform="translate(8540.75 6576.439)" fill="none" stroke="#707070" stroke-width="1"/>
    <text id="生産管理業務-2" data-name="生産管理業務" transform="translate(129.25 415.939)" fill="#fff" font-size="15" font-family="HiraginoSans-W6, Hiragino Sans" letter-spacing="0.05em"><tspan x="0" y="0">生産管理業務</tspan></text>
    <circle id="楕円形_571" data-name="楕円形 571" cx="2.5" cy="2.5" r="2.5" transform="translate(133.25 443.092)" fill="#d80576"/>
    <circle id="楕円形_572" data-name="楕円形 572" cx="2.5" cy="2.5" r="2.5" transform="translate(133.25 490.418)" fill="#d80576"/>
    <text id="不足資材の発注-2" data-name="不足資材の発注" transform="translate(152.25 440.092)" fill="#fff" font-size="13" font-family="HiraginoSans-W4, Hiragino Sans"><tspan x="0" y="11">不足資材の発注</tspan></text>
    <text id="設備整備-2" data-name="設備整備" transform="translate(152.25 487.418)" fill="#fff" font-size="13" font-family="HiraginoSans-W4, Hiragino Sans"><tspan x="0" y="11">設備整備</tspan></text>
    <text id="生産計画_現場指示-2" data-name="生産計画・現場指示" transform="translate(152.25 462.918)" fill="#fff" font-size="13" font-family="HiraginoSans-W4, Hiragino Sans"><tspan x="0" y="11">生産計画・現場指示</tspan></text>
    <text id="品質や作業効率などの改善-2" data-name="品質や作業効率などの改善" transform="translate(152.25 510.244)" fill="#fff" font-size="13" font-family="HiraginoSans-W4, Hiragino Sans"><tspan x="0" y="11">品質や作業効率などの改善</tspan></text>
    <circle id="楕円形_573" data-name="楕円形 573" cx="2.5" cy="2.5" r="2.5" transform="translate(133.25 467.439)" fill="#d80576"/>
    <circle id="楕円形_574" data-name="楕円形 574" cx="2.5" cy="2.5" r="2.5" transform="translate(133.25 514.765)" fill="#d80576"/>
    <path id="パス_54892" data-name="パス 54892" d="M4.892-3.287a6.666,6.666,0,0,0,1.591-.165,3.452,3.452,0,0,0,1.1-.46A2.017,2.017,0,0,0,8.24-4.6a1.965,1.965,0,0,0,.245-.85q-.344.165-.724.314a7.657,7.657,0,0,1-.814.265,7.361,7.361,0,0,1-.933.182,8.259,8.259,0,0,1-1.082.066A7.21,7.21,0,0,1,3.3-4.8a4,4,0,0,1-1.31-.543,2.65,2.65,0,0,1-.873-.943A2.808,2.808,0,0,1,.8-7.66a2.965,2.965,0,0,1,.37-1.525,3.018,3.018,0,0,1,1.019-1.039,4.707,4.707,0,0,1,1.528-.6,9.091,9.091,0,0,1,1.905-.189,7.513,7.513,0,0,1,2.153.291,4.688,4.688,0,0,1,1.677.873,3.892,3.892,0,0,1,1.085,1.459,5.089,5.089,0,0,1,.384,2.054,5.21,5.21,0,0,1-.344,1.9A4.091,4.091,0,0,1,9.507-2.88,5.2,5.2,0,0,1,7.661-1.828a8.231,8.231,0,0,1-2.676.387q-.443,0-.913-.033t-.916-.089q-.447-.056-.85-.132T1.6-1.851V-3.883q.218.086.533.192a6.79,6.79,0,0,0,.728.2q.413.089.92.149A9.587,9.587,0,0,0,4.892-3.287ZM8.438-7.455a1.588,1.588,0,0,0-.3-.569,2.473,2.473,0,0,0-.6-.533,3.43,3.43,0,0,0-.863-.4,3.661,3.661,0,0,0-1.1-.155,5.166,5.166,0,0,0-.913.076,2.685,2.685,0,0,0-.738.235,1.394,1.394,0,0,0-.5.4.924.924,0,0,0-.182.572,1.2,1.2,0,0,0,.146.609,1.091,1.091,0,0,0,.423.407,2.19,2.19,0,0,0,.685.228,5.319,5.319,0,0,0,.93.073,4.674,4.674,0,0,0,.857-.079A6.235,6.235,0,0,0,7.108-6.8a5.334,5.334,0,0,0,.731-.3A4.52,4.52,0,0,0,8.438-7.455ZM12.52-1.686V-4.068h2.507v2.382Zm0-4.2V-8.269h2.507v2.382Zm14.826-.337a4.585,4.585,0,0,1-.413,1.968A4.493,4.493,0,0,1,25.8-2.748a5.146,5.146,0,0,1-1.7.966,6.358,6.358,0,0,1-2.1.341,6.663,6.663,0,0,1-1.442-.152,5.791,5.791,0,0,1-1.287-.443,4.984,4.984,0,0,1-1.085-.711,4.467,4.467,0,0,1-.83-.949,4.444,4.444,0,0,1-.533-1.164,4.767,4.767,0,0,1-.189-1.363,4.777,4.777,0,0,1,.189-1.36,4.433,4.433,0,0,1,.533-1.168,4.467,4.467,0,0,1,.83-.949,4.984,4.984,0,0,1,1.085-.711,5.791,5.791,0,0,1,1.287-.443,6.663,6.663,0,0,1,1.442-.152,6.358,6.358,0,0,1,2.1.341,5.146,5.146,0,0,1,1.7.966,4.493,4.493,0,0,1,1.135,1.508A4.585,4.585,0,0,1,27.346-6.225Zm-2.454,0a2.939,2.939,0,0,0-.238-1.217,2.67,2.67,0,0,0-.638-.893,2.7,2.7,0,0,0-.923-.549,3.263,3.263,0,0,0-1.1-.185,3.32,3.32,0,0,0-1.1.185,2.683,2.683,0,0,0-.93.549,2.71,2.71,0,0,0-.642.893,2.9,2.9,0,0,0-.241,1.217,2.9,2.9,0,0,0,.241,1.217,2.673,2.673,0,0,0,.642.89,2.753,2.753,0,0,0,.93.549,3.268,3.268,0,0,0,1.1.189,3.211,3.211,0,0,0,1.1-.189,2.767,2.767,0,0,0,.923-.549,2.635,2.635,0,0,0,.638-.89A2.939,2.939,0,0,0,24.892-6.225Zm14.747,0a4.585,4.585,0,0,1-.413,1.968,4.493,4.493,0,0,1-1.135,1.508,5.146,5.146,0,0,1-1.7.966,6.358,6.358,0,0,1-2.1.341,6.663,6.663,0,0,1-1.442-.152,5.791,5.791,0,0,1-1.287-.443,4.984,4.984,0,0,1-1.085-.711,4.467,4.467,0,0,1-.83-.949,4.444,4.444,0,0,1-.533-1.164,4.767,4.767,0,0,1-.189-1.363,4.777,4.777,0,0,1,.189-1.36,4.433,4.433,0,0,1,.533-1.168,4.467,4.467,0,0,1,.83-.949,4.984,4.984,0,0,1,1.085-.711,5.791,5.791,0,0,1,1.287-.443,6.663,6.663,0,0,1,1.442-.152,6.358,6.358,0,0,1,2.1.341,5.146,5.146,0,0,1,1.7.966,4.493,4.493,0,0,1,1.135,1.508A4.585,4.585,0,0,1,39.639-6.225Zm-2.454,0a2.939,2.939,0,0,0-.238-1.217,2.67,2.67,0,0,0-.638-.893,2.7,2.7,0,0,0-.923-.549,3.263,3.263,0,0,0-1.1-.185,3.32,3.32,0,0,0-1.1.185,2.683,2.683,0,0,0-.93.549,2.71,2.71,0,0,0-.642.893,2.9,2.9,0,0,0-.241,1.217,2.9,2.9,0,0,0,.241,1.217,2.673,2.673,0,0,0,.642.89,2.753,2.753,0,0,0,.93.549,3.268,3.268,0,0,0,1.1.189,3.211,3.211,0,0,0,1.1-.189,2.767,2.767,0,0,0,.923-.549,2.635,2.635,0,0,0,.638-.89A2.939,2.939,0,0,0,37.184-6.225Z" transform="translate(51.203 186.008)" fill="#fff"/>
    <text id="_8:30" data-name="8:30" transform="translate(72 95)" fill="#fff" font-size="13" font-family="Syncopate-Bold, Syncopate" font-weight="700"><tspan x="-18.592" y="0">8:30</tspan></text>
    <g id="グループ_11839" data-name="グループ 11839" transform="translate(-1 -184)">
      <g id="グループ_11763" data-name="グループ 11763" transform="translate(0.25 46)">
        <circle id="楕円形_14" data-name="楕円形 14" cx="27" cy="27" r="27" transform="translate(44.75 686)" fill="#d80576"/>
      </g>
      <path id="パス_54890" data-name="パス 54890" d="M2.5-2.046v-7L.156-8.311V-10.06L2.5-10.785H4.85v8.739Zm8.052,0H7.923l4.561-6.838H6.542v-1.9h8.727V-9.17Zm5.89,0v-2.29h2.411v2.29Zm0-4.039v-2.29h2.411v2.29Zm10.279-.623a5.975,5.975,0,0,1,1.119.353,2.761,2.761,0,0,1,.757.477,1.66,1.66,0,0,1,.426.6,1.943,1.943,0,0,1,.134.728,2,2,0,0,1-.372,1.2,2.861,2.861,0,0,1-1.03.855,5.653,5.653,0,0,1-1.555.509,10.51,10.51,0,0,1-1.94.169,12.569,12.569,0,0,1-1.285-.06q-.585-.06-1.078-.156t-.906-.213q-.413-.118-.77-.239V-4.571a5.845,5.845,0,0,0,.887.375,10.246,10.246,0,0,0,1.018.283,9.943,9.943,0,0,0,1.059.178,9.018,9.018,0,0,0,1.011.06,7.21,7.21,0,0,0,1.38-.1,2.518,2.518,0,0,0,.782-.267.817.817,0,0,0,.347-.347.885.885,0,0,0,.08-.35.7.7,0,0,0-.181-.483,1.36,1.36,0,0,0-.636-.337,6.531,6.531,0,0,0-1.231-.2q-.776-.067-1.959-.073v-1.73q1.075,0,1.784-.045a7.587,7.587,0,0,0,1.135-.14A1.4,1.4,0,0,0,26.3-8a.479.479,0,0,0,.175-.375.59.59,0,0,0-.022-.153.451.451,0,0,0-.1-.172.827.827,0,0,0-.223-.172,1.641,1.641,0,0,0-.4-.146,4.55,4.55,0,0,0-.63-.1q-.375-.038-.9-.038-.5,0-1.008.051a9.575,9.575,0,0,0-1,.153,9.391,9.391,0,0,0-.948.248,5.679,5.679,0,0,0-.846.343v-2.086a10.457,10.457,0,0,1,1.851-.423,14.2,14.2,0,0,1,1.953-.137,12,12,0,0,1,1.791.127,5.872,5.872,0,0,1,1.476.4,2.667,2.667,0,0,1,1,.719,1.617,1.617,0,0,1,.369,1.072,1.746,1.746,0,0,1-.118.639,1.615,1.615,0,0,1-.372.557,2.441,2.441,0,0,1-.655.452A4.585,4.585,0,0,1,26.724-6.708Zm14.318.3a4.409,4.409,0,0,1-.4,1.892,4.319,4.319,0,0,1-1.091,1.45,4.947,4.947,0,0,1-1.635.929A6.113,6.113,0,0,1,35.9-1.81a6.405,6.405,0,0,1-1.387-.146,5.568,5.568,0,0,1-1.237-.426,4.792,4.792,0,0,1-1.043-.684,4.3,4.3,0,0,1-.8-.913A4.272,4.272,0,0,1,30.919-5.1a4.583,4.583,0,0,1-.181-1.31,4.593,4.593,0,0,1,.181-1.307,4.262,4.262,0,0,1,.512-1.123,4.3,4.3,0,0,1,.8-.913,4.792,4.792,0,0,1,1.043-.684,5.568,5.568,0,0,1,1.237-.426,6.405,6.405,0,0,1,1.387-.146,6.113,6.113,0,0,1,2.023.328,4.947,4.947,0,0,1,1.635.929A4.319,4.319,0,0,1,40.644-8.3,4.409,4.409,0,0,1,41.042-6.409Zm-2.36,0a2.826,2.826,0,0,0-.229-1.17,2.567,2.567,0,0,0-.614-.859,2.591,2.591,0,0,0-.887-.528A3.137,3.137,0,0,0,35.9-9.144a3.192,3.192,0,0,0-1.062.178,2.58,2.58,0,0,0-.894.528,2.605,2.605,0,0,0-.617.859,2.792,2.792,0,0,0-.232,1.17,2.792,2.792,0,0,0,.232,1.17,2.57,2.57,0,0,0,.617.855,2.647,2.647,0,0,0,.894.528,3.141,3.141,0,0,0,1.062.181,3.087,3.087,0,0,0,1.056-.181,2.66,2.66,0,0,0,.887-.528,2.533,2.533,0,0,0,.614-.855A2.826,2.826,0,0,0,38.682-6.409Z" transform="translate(51.4 765.409)" fill="#fff"/>
    </g>
  </g>
</svg>
