<svg xmlns="http://www.w3.org/2000/svg" width="303.5" height="736.615" viewBox="0 0 303.5 736.615">
  <g id="グループ_11842" data-name="グループ 11842" transform="translate(-44.75 -64)">
    <path id="パス_480" data-name="パス 480" d="M-8449.847-6162.355l35.92,14.683H-8192.9" transform="translate(8540.75 6249.521)" fill="none" stroke="#707070" stroke-width="1"/>
    <path id="パス_54773" data-name="パス 54773" d="M-8449.847-6162.355l35.92,14.683H-8192.9" transform="translate(8540.75 6788.521)" fill="none" stroke="#707070" stroke-width="1"/>
    <path id="パス_54769" data-name="パス 54769" d="M-8449.847-6162.355l35.92,14.683H-8192.9" transform="translate(8540.75 6384.021)" fill="none" stroke="#707070" stroke-width="1"/>
    <path id="パス_54771" data-name="パス 54771" d="M-8449.847-6162.355l35.92,14.683H-8192.9" transform="translate(8540.75 6576.403)" fill="none" stroke="#707070" stroke-width="1"/>
    <path id="パス_54772" data-name="パス 54772" d="M-8449.847-6162.355l35.92,14.683H-8192.9" transform="translate(8540.75 6683.056)" fill="none" stroke="#707070" stroke-width="1"/>
    <path id="パス_54770" data-name="パス 54770" d="M-8449.847-6162.355l35.92,14.683H-8192.9" transform="translate(8540.75 6479.962)" fill="none" stroke="#707070" stroke-width="1"/>
    <path id="パス_54774" data-name="パス 54774" d="M-8449.847-6162.355l35.92,14.683H-8192.9" transform="translate(8540.75 6923.962)" fill="none" stroke="#707070" stroke-width="1"/>
    <text id="出社_メール確認" data-name="出社・メール確認" transform="translate(129.25 89.021)" fill="#fff" font-size="15" font-family="HiraginoSans-W6, Hiragino Sans" letter-spacing="0.05em"><tspan x="0" y="0">出社・メール確認</tspan></text>
    <text id="社内連絡" transform="translate(129.25 628.021)" fill="#fff" font-size="15" font-family="HiraginoSans-W6, Hiragino Sans" letter-spacing="0.05em"><tspan x="0" y="0">社内連絡</tspan></text>
    <text id="顧客訪問_既存顧客_" data-name="顧客訪問（既存顧客）" transform="translate(129.25 223.521)" fill="#fff" font-size="15" font-family="HiraginoSans-W6, Hiragino Sans" letter-spacing="0.05em"><tspan x="0" y="0">顧客訪問（既存顧客）</tspan></text>
    <text id="顧客訪問_既存顧客_2" data-name="顧客訪問（既存顧客）" transform="translate(129.25 522.556)" fill="#fff" font-size="15" font-family="HiraginoSans-W6, Hiragino Sans" letter-spacing="0.05em"><tspan x="0" y="0">顧客訪問（既存顧客）</tspan></text>
    <text id="昼食_移動" data-name="昼食・移動" transform="translate(129.25 319.462)" fill="#fff" font-size="15" font-family="HiraginoSans-W6, Hiragino Sans" letter-spacing="0.05em"><tspan x="0" y="0">昼食・移動</tspan></text>
    <text id="日報作成_退社" data-name="日報作成・退社" transform="translate(129.25 763.462)" fill="#fff" font-size="15" font-family="HiraginoSans-W6, Hiragino Sans" letter-spacing="0.05em"><tspan x="0" y="0">日報作成・退社</tspan></text>
    <circle id="楕円形_5" data-name="楕円形 5" cx="2.5" cy="2.5" r="2.5" transform="translate(133.25 116.174)" fill="#d80576"/>
    <circle id="楕円形_564" data-name="楕円形 564" cx="2.5" cy="2.5" r="2.5" transform="translate(133.25 655.174)" fill="#d80576"/>
    <circle id="楕円形_560" data-name="楕円形 560" cx="2.5" cy="2.5" r="2.5" transform="translate(133.25 250.674)" fill="#d80576"/>
    <circle id="楕円形_562" data-name="楕円形 562" cx="2.5" cy="2.5" r="2.5" transform="translate(133.25 443.056)" fill="#d80576"/>
    <circle id="楕円形_563" data-name="楕円形 563" cx="2.5" cy="2.5" r="2.5" transform="translate(133.25 549.709)" fill="#d80576"/>
    <circle id="楕円形_561" data-name="楕円形 561" cx="2.5" cy="2.5" r="2.5" transform="translate(133.25 346.615)" fill="#d80576"/>
    <circle id="楕円形_566" data-name="楕円形 566" cx="2.5" cy="2.5" r="2.5" transform="translate(133.25 790.615)" fill="#d80576"/>
    <text id="お客様からのメールや社内連絡をチェック" transform="translate(152.25 113.174)" fill="#fff" font-size="13" font-family="HiraginoSans-W4, Hiragino Sans"><tspan x="0" y="11">お客様からのメールや社内連絡を</tspan><tspan x="0" y="29">チェック</tspan></text>
    <text id="受注内容について営業事務_出荷担当者へ連絡" data-name="受注内容について営業事務・
出荷担当者へ連絡" transform="translate(152.25 652.174)" fill="#fff" font-size="13" font-family="HiraginoSans-W4, Hiragino Sans"><tspan x="0" y="11">受注内容について営業事務・</tspan><tspan x="0" y="29">出荷担当者へ連絡</tspan></text>
    <text id="メーカーや商社を訪問し_製品の使用状況や市況感のヒアリング" data-name="メーカーや商社を訪問し、製品の使用状況や市況感のヒアリング" transform="translate(152.25 247.674)" fill="#fff" font-size="13" font-family="HiraginoSans-W4, Hiragino Sans"><tspan x="0" y="11">メーカーや商社を訪問し、製品の</tspan><tspan x="0" y="29">使用状況や市況感のヒアリング</tspan></text>
    <text id="メーカーや商社を訪問し_製品の使用状況や市況感のヒアリング-2" data-name="メーカーや商社を訪問し、製品の使用状況や市況感のヒアリング" transform="translate(152.25 440.056)" fill="#fff" font-size="13" font-family="HiraginoSans-W4, Hiragino Sans"><tspan x="0" y="11">メーカーや商社を訪問し、製品の</tspan><tspan x="0" y="29">使用状況や市況感のヒアリング</tspan></text>
    <text id="メーカーや商社を訪問し_製品の使用状況や市況感のヒアリング-3" data-name="メーカーや商社を訪問し、製品の使用状況や市況感のヒアリング" transform="translate(152.25 546.709)" fill="#fff" font-size="13" font-family="HiraginoSans-W4, Hiragino Sans"><tspan x="0" y="11">メーカーや商社を訪問し、製品の</tspan><tspan x="0" y="29">使用状況や市況感のヒアリング</tspan></text>
    <text id="午後の訪問先へ移動" transform="translate(152.25 343.615)" fill="#fff" font-size="13" font-family="HiraginoSans-W4, Hiragino Sans"><tspan x="0" y="11">午後の訪問先へ移動</tspan></text>
    <text id="翌日の準備を整えて退社" transform="translate(152.25 787.615)" fill="#fff" font-size="13" font-family="HiraginoSans-W4, Hiragino Sans"><tspan x="0" y="11">翌日の準備を整えて退社</tspan></text>
    <text id="当日の訪問スケジュールや_提案内容の確認" data-name="当日の訪問スケジュールや
提案内容の確認" transform="translate(152.25 153)" fill="#fff" font-size="13" font-family="HiraginoSans-W4, Hiragino Sans"><tspan x="0" y="11">当日の訪問スケジュールや</tspan><tspan x="0" y="29">提案内容の確認</tspan></text>
    <text id="_1日の活動をまとめ_上司へ報告" data-name="1日の活動をまとめ、上司へ報告" transform="translate(152.25 692)" fill="#fff" font-size="13" font-family="HiraginoSans-W4, Hiragino Sans"><tspan x="0" y="11">1日の活動をまとめ、上司へ報告</tspan></text>
    <circle id="楕円形_6" data-name="楕円形 6" cx="2.5" cy="2.5" r="2.5" transform="translate(133.25 157.521)" fill="#d80576"/>
    <circle id="楕円形_565" data-name="楕円形 565" cx="2.5" cy="2.5" r="2.5" transform="translate(133.25 696.521)" fill="#d80576"/>
    <path id="パス_54768" data-name="パス 54768" d="M-8484-6155.181l-.5,614.711" transform="translate(8555.75 6273)" fill="none" stroke="#d80576" stroke-width="5"/>
    <g id="グループ_11757" data-name="グループ 11757">
      <circle id="楕円形_7" data-name="楕円形 7" cx="27" cy="27" r="27" transform="translate(44.75 64)" fill="#d80576"/>
      <text id="_8:30" data-name="8:30" transform="translate(71.75 95)" fill="#fff" font-size="13" font-family="Syncopate-Bold, Syncopate" font-weight="700"><tspan x="-18.592" y="0">8:30</tspan></text>
    </g>
    <g id="グループ_11758" data-name="グループ 11758" transform="translate(0 15.521)">
      <circle id="楕円形_8" data-name="楕円形 8" cx="27" cy="27" r="27" transform="translate(44.75 168)" fill="#d80576"/>
      <text id="_10:00" data-name="10:00" transform="translate(71.75 199)" fill="#fff" font-size="13" font-family="Syncopate-Bold, Syncopate" font-weight="700"><tspan x="-22.794" y="0">10:00</tspan></text>
    </g>
    <g id="グループ_11760" data-name="グループ 11760" transform="translate(0 8.441)">
      <circle id="楕円形_10" data-name="楕円形 10" cx="27" cy="27" r="27" transform="translate(44.75 375)" fill="#d80576"/>
      <text id="_13:00" data-name="13:00" transform="translate(71.75 406)" fill="#fff" font-size="13" font-family="Syncopate-Bold, Syncopate" font-weight="700"><tspan x="-22.058" y="0">13:00</tspan></text>
    </g>
    <g id="グループ_11762" data-name="グループ 11762" transform="translate(0 14.44)">
      <circle id="楕円形_13" data-name="楕円形 13" cx="27" cy="27" r="27" transform="translate(44.75 582)" fill="#d80576"/>
      <text id="_16:30" data-name="16:30" transform="translate(71.75 613)" fill="#fff" font-size="13" font-family="Syncopate-Bold, Syncopate" font-weight="700"><tspan x="-21.719" y="0">16:30</tspan></text>
    </g>
    <g id="グループ_11759" data-name="グループ 11759" transform="translate(0 16)">
      <circle id="楕円形_9" data-name="楕円形 9" cx="27" cy="27" r="27" transform="translate(44.75 271)" fill="#d80576"/>
      <text id="_12:00" data-name="12:00" transform="translate(71.75 302)" fill="#fff" font-size="13" font-family="Syncopate-Bold, Syncopate" font-weight="700"><tspan x="-22.137" y="0">12:00</tspan></text>
    </g>
    <g id="グループ_11761" data-name="グループ 11761" transform="translate(0 3.556)">
      <circle id="楕円形_12" data-name="楕円形 12" cx="27" cy="27" r="27" transform="translate(44.75 479)" fill="#d80576"/>
      <text id="_15:00" data-name="15:00" transform="translate(71.75 510)" fill="#fff" font-size="13" font-family="Syncopate-Bold, Syncopate" font-weight="700"><tspan x="-22.195" y="0">15:00</tspan></text>
    </g>
    <g id="グループ_11838" data-name="グループ 11838">
      <g id="グループ_11763" data-name="グループ 11763" transform="translate(0.25 46)">
        <circle id="楕円形_14" data-name="楕円形 14" cx="27" cy="27" r="27" transform="translate(44.75 686)" fill="#d80576"/>
      </g>
      <path id="パス_54890" data-name="パス 54890" d="M2.5-2.046v-7L.156-8.311V-10.06L2.5-10.785H4.85v8.739Zm8.052,0H7.923l4.561-6.838H6.542v-1.9h8.727V-9.17Zm5.89,0v-2.29h2.411v2.29Zm0-4.039v-2.29h2.411v2.29Zm10.279-.623a5.975,5.975,0,0,1,1.119.353,2.761,2.761,0,0,1,.757.477,1.66,1.66,0,0,1,.426.6,1.943,1.943,0,0,1,.134.728,2,2,0,0,1-.372,1.2,2.861,2.861,0,0,1-1.03.855,5.653,5.653,0,0,1-1.555.509,10.51,10.51,0,0,1-1.94.169,12.569,12.569,0,0,1-1.285-.06q-.585-.06-1.078-.156t-.906-.213q-.413-.118-.77-.239V-4.571a5.845,5.845,0,0,0,.887.375,10.246,10.246,0,0,0,1.018.283,9.943,9.943,0,0,0,1.059.178,9.018,9.018,0,0,0,1.011.06,7.21,7.21,0,0,0,1.38-.1,2.518,2.518,0,0,0,.782-.267.817.817,0,0,0,.347-.347.885.885,0,0,0,.08-.35.7.7,0,0,0-.181-.483,1.36,1.36,0,0,0-.636-.337,6.531,6.531,0,0,0-1.231-.2q-.776-.067-1.959-.073v-1.73q1.075,0,1.784-.045a7.587,7.587,0,0,0,1.135-.14A1.4,1.4,0,0,0,26.3-8a.479.479,0,0,0,.175-.375.59.59,0,0,0-.022-.153.451.451,0,0,0-.1-.172.827.827,0,0,0-.223-.172,1.641,1.641,0,0,0-.4-.146,4.55,4.55,0,0,0-.63-.1q-.375-.038-.9-.038-.5,0-1.008.051a9.575,9.575,0,0,0-1,.153,9.391,9.391,0,0,0-.948.248,5.679,5.679,0,0,0-.846.343v-2.086a10.457,10.457,0,0,1,1.851-.423,14.2,14.2,0,0,1,1.953-.137,12,12,0,0,1,1.791.127,5.872,5.872,0,0,1,1.476.4,2.667,2.667,0,0,1,1,.719,1.617,1.617,0,0,1,.369,1.072,1.746,1.746,0,0,1-.118.639,1.615,1.615,0,0,1-.372.557,2.441,2.441,0,0,1-.655.452A4.585,4.585,0,0,1,26.724-6.708Zm14.318.3a4.409,4.409,0,0,1-.4,1.892,4.319,4.319,0,0,1-1.091,1.45,4.947,4.947,0,0,1-1.635.929A6.113,6.113,0,0,1,35.9-1.81a6.405,6.405,0,0,1-1.387-.146,5.568,5.568,0,0,1-1.237-.426,4.792,4.792,0,0,1-1.043-.684,4.3,4.3,0,0,1-.8-.913A4.272,4.272,0,0,1,30.919-5.1a4.583,4.583,0,0,1-.181-1.31,4.593,4.593,0,0,1,.181-1.307,4.262,4.262,0,0,1,.512-1.123,4.3,4.3,0,0,1,.8-.913,4.792,4.792,0,0,1,1.043-.684,5.568,5.568,0,0,1,1.237-.426,6.405,6.405,0,0,1,1.387-.146,6.113,6.113,0,0,1,2.023.328,4.947,4.947,0,0,1,1.635.929A4.319,4.319,0,0,1,40.644-8.3,4.409,4.409,0,0,1,41.042-6.409Zm-2.36,0a2.826,2.826,0,0,0-.229-1.17,2.567,2.567,0,0,0-.614-.859,2.591,2.591,0,0,0-.887-.528A3.137,3.137,0,0,0,35.9-9.144a3.192,3.192,0,0,0-1.062.178,2.58,2.58,0,0,0-.894.528,2.605,2.605,0,0,0-.617.859,2.792,2.792,0,0,0-.232,1.17,2.792,2.792,0,0,0,.232,1.17,2.57,2.57,0,0,0,.617.855,2.647,2.647,0,0,0,.894.528,3.141,3.141,0,0,0,1.062.181,3.087,3.087,0,0,0,1.056-.181,2.66,2.66,0,0,0,.887-.528,2.533,2.533,0,0,0,.614-.855A2.826,2.826,0,0,0,38.682-6.409Z" transform="translate(51.4 765.409)" fill="#fff"/>
    </g>
    <path id="パス_54893" data-name="パス 54893" d="M6.622,12.641h.291a5.472,5.472,0,0,1,.918.046V11.57a6.231,6.231,0,0,1-.9.046H6.622v-.582h.291a7.1,7.1,0,0,1,.918.046V9.947a4.124,4.124,0,0,1-.9.061H6.622V9.427h.26a10.435,10.435,0,0,1,1.148.046V8.218A10.9,10.9,0,0,1,6.9,8.264H6.7c.061-.092.4-.719.52-.964L6.071,6.993a6.889,6.889,0,0,1-.536,1.27h-.8c.092-.2.092-.2.2-.459.046-.107.122-.275.214-.49L4.02,6.993A8.054,8.054,0,0,1,2.857,9.381c.061-.765.077-1.1.122-2.433l3.688.015c.505,0,.689,0,1.117.031a8.551,8.551,0,0,1-.031-1.041V4.667A5.124,5.124,0,0,1,7.8,3.718c-.383.031-.627.046-1.423.046H2.842c-.7,0-1.01-.015-1.408-.031.031.643.046,1.01.046,2.158,0,4.086-.23,5.831-.979,7.361a6.845,6.845,0,0,1,1.133,1.53A11.149,11.149,0,0,0,2.78,10.315a4.612,4.612,0,0,1,.4.474v3.076a10.43,10.43,0,0,1-.092,1.423H4.51v-.781H6.836c.291,0,.459,0,.75.015a4.491,4.491,0,0,1,.735.949A8.244,8.244,0,0,0,11.014,13.3l-1.087-.888h2.433l-.949.842a9.839,9.839,0,0,0,2.632,2.127,6.279,6.279,0,0,1,1.025-1.362,7.022,7.022,0,0,1-2.464-1.607h.275c.429,0,.9.015,1.316.046-.031-.505-.046-.979-.046-1.576V5.631c0-.566.015-.995.046-1.423-.337.031-.689.046-1.5.046h-.964a9.747,9.747,0,0,0,.444-1.1h.979a11.268,11.268,0,0,1,1.638.077V1.591a8.424,8.424,0,0,1-1.638.092H9.82A8.433,8.433,0,0,1,8.2,1.591V3.229a9.251,9.251,0,0,1,1.408-.077h.934a10.136,10.136,0,0,1-.429,1.1H9.775a9.547,9.547,0,0,1-1.3-.046c.031.352.031.352.046,1.454v5.4c0,.474-.015.918-.031,1.393.4-.031.7-.046,1.194-.046h.168A5.723,5.723,0,0,1,8.06,13.9v-.627c-.413.015-.719.031-1.163.031H6.622ZM4.51,10.008V9.427h.934v.582Zm0,1.025h.934v.582H4.51Zm0,1.607h.934V13.3H4.51ZM2.979,4.973H6.3v.8H2.979a.269.269,0,0,1-.015-.092l.015-.352Zm7.025.7h2.632v.9H10Zm0,2.158h2.632v.888H10Zm0,2.143h2.632v.995H10Zm-9-6.765a11.421,11.421,0,0,1,1.622-.077H6.484a9.036,9.036,0,0,1,1.393.077V1.606A10.737,10.737,0,0,1,6.255,1.7H2.627a8.433,8.433,0,0,1-1.622-.092ZM19.126,13.8c0,.474-.031.918-.077,1.408h1.683v-.551h6.29v.566h1.7a9.009,9.009,0,0,1-.077-1.408V11.692c0-.413,0-.459.015-.857.719.168.934.214,1.668.352a5.935,5.935,0,0,1,.7-1.714,17.845,17.845,0,0,1-5.663-1.3,17.184,17.184,0,0,0,2.586-2.234c.275-.306.275-.306.413-.444l-1.056-.842a8.823,8.823,0,0,1-1.24.061H23.2c.306-.352.459-.536.474-.551l-1.423-.4h6.581V5.815H30.5a6.146,6.146,0,0,1-.077-1.148V3.4a7.723,7.723,0,0,1,.061-1.133,14.658,14.658,0,0,1-1.791.077H24.6v-.23a4.395,4.395,0,0,1,.092-.995H22.8a4.7,4.7,0,0,1,.077,1.01v.214H18.927a14.459,14.459,0,0,1-1.745-.077A8.275,8.275,0,0,1,17.243,3.4v1.24a6.557,6.557,0,0,1-.077,1.148H18.82V3.764h3.214a4.118,4.118,0,0,1-.857,1.071,12.432,12.432,0,0,1-3.887,2.556,4.523,4.523,0,0,1,.934,1.194,12.111,12.111,0,0,0,2.663-1.638A10.906,10.906,0,0,0,22.37,8.172a20.587,20.587,0,0,1-2.28.9,23.486,23.486,0,0,1-3.428.781,4.628,4.628,0,0,1,.719,1.485c.842-.184,1.133-.26,1.729-.413.015.291.015.444.015.75ZM22.018,6h3.734a13.136,13.136,0,0,1-1.913,1.408A12.866,12.866,0,0,1,21.957,6.06Zm-1.3,4.423A16.721,16.721,0,0,0,23.885,9.09a16.053,16.053,0,0,0,3.26,1.331Zm.015,1.393h6.29v1.454h-6.29Zm19.85-6.933c0,1.485,0,1.485-.031,1.974a17.823,17.823,0,0,1-.566,3.887,6.472,6.472,0,0,1-1.745,2.984V11.294a6.037,6.037,0,0,1,.046-1.1,6.049,6.049,0,0,1-.918.046H34.507a5.871,5.871,0,0,1-1.025-.061,9.4,9.4,0,0,1,.061,1.194v2.357c0,.474-.031,1.025-.077,1.5h1.592v-.781h1.683v.474h1.53c-.015-.26-.031-.413-.031-.842a6.4,6.4,0,0,1,1.071,1.194,8.439,8.439,0,0,0,1.959-3.137A16.039,16.039,0,0,0,42.1,8.218h2.388a28.969,28.969,0,0,1-.245,4.3c-.122.8-.245.918-.918.918a11.01,11.01,0,0,1-1.607-.184,6.064,6.064,0,0,1,.367,1.668c.612.046.934.061,1.194.061,1.607,0,2.035-.23,2.388-1.255A26.1,26.1,0,0,0,46.138,8a12.7,12.7,0,0,1,.031-1.316,8.153,8.153,0,0,1-1.24.061H42.2l.031-1.194V4.881h3.107a9.141,9.141,0,0,1,1.607.092v-1.7a8.924,8.924,0,0,1-1.622.092H43.444V2.54a7.989,7.989,0,0,1,.092-1.331H41.7a8.382,8.382,0,0,1,.092,1.331v.826H40.567a8.824,8.824,0,0,1-1.622-.092V4.958a5.823,5.823,0,0,1,1.1-.077Zm-5.556,6.673h1.714V13.1H35.027ZM33.573,2.984c.367-.031.689-.046,1.24-.046h2.234c.551,0,.842.015,1.24.046V1.514a6.622,6.622,0,0,1-1.24.077H34.813a6.622,6.622,0,0,1-1.24-.077Zm-.551,2.28A9.147,9.147,0,0,1,34.246,5.2H37.46a7.035,7.035,0,0,1,1.163.061V3.688a8.312,8.312,0,0,1-1.224.061H34.246a6.741,6.741,0,0,1-1.224-.077Zm.536,2.127a7.583,7.583,0,0,1,.964-.046h2.847a7.54,7.54,0,0,1,.934.046V5.953A6.888,6.888,0,0,1,37.369,6H34.522a7.751,7.751,0,0,1-.964-.046Zm0,2.127a7.644,7.644,0,0,1,.949-.046h2.831a7.751,7.751,0,0,1,.964.046V8.1a6.994,6.994,0,0,1-.949.046H34.522a7.751,7.751,0,0,1-.964-.046ZM51.219,6.856h2.755c.505,0,1.041.015,1.408.046-.031-.337-.046-.689-.046-1.377V3c0-.6.015-.949.046-1.439a12.931,12.931,0,0,1-1.561.061H51.112a14.3,14.3,0,0,1-1.561-.061,17.11,17.11,0,0,1,.061,1.729V13.314a13.681,13.681,0,0,1-.092,1.9h1.791a13.126,13.126,0,0,1-.092-1.882Zm0-3.979h2.617v.8H51.219Zm0,1.974h2.617v.811H51.219ZM62.407,3.274a13.477,13.477,0,0,1,.077-1.714,14.607,14.607,0,0,1-1.576.061H58a13.769,13.769,0,0,1-1.561-.061c.031.444.046.857.046,1.439V5.524c0,.658-.015.964-.031,1.377.337-.031.888-.046,1.393-.046H60.8v6.26c0,.337-.077.4-.505.4a17.875,17.875,0,0,1-1.882-.138A5.343,5.343,0,0,1,58.841,15c1.01.061,1.178.061,1.423.061a3.121,3.121,0,0,0,1.607-.245c.4-.245.536-.643.536-1.485ZM58,2.877h2.8v.8H58Zm0,1.974h2.8v.811H58Zm.964,4.117a10.1,10.1,0,0,1,.046-1.056c-.321.031-.7.046-1.178.046h-3.78c-.444,0-.8-.015-1.133-.046.031.321.046.658.046,1.071v3.275a13.64,13.64,0,0,1-.077,1.485H54.51V12.717h3.413c.444,0,.765.015,1.087.046a9.583,9.583,0,0,1-.046-1.041ZM54.51,9.32h2.908v2H54.51ZM79.257,15.38a11.762,11.762,0,0,1-1.944-3.046A10.353,10.353,0,0,1,76.5,8.141a10.042,10.042,0,0,1,.8-4.056A11.927,11.927,0,0,1,79.242,1.04H77.1a12.355,12.355,0,0,0-1.683,3.015,10.831,10.831,0,0,0-.781,4.086,11.262,11.262,0,0,0,.811,4.224,12.258,12.258,0,0,0,1.668,3.015ZM90.46,5.8V3.78a21.024,21.024,0,0,0,4.193-1.041c.275-.092.337-.122.505-.168L93.9,1.086a12.539,12.539,0,0,1-5.158,1.3,17.791,17.791,0,0,1,.092,2.388c0,5.8-.383,7.805-1.837,9.581a7.062,7.062,0,0,1,1.515,1.01,9.325,9.325,0,0,0,1.362-3.076,19.971,19.971,0,0,0,.566-4.943h1.638v6.168a10.887,10.887,0,0,1-.092,1.806h1.791a10.559,10.559,0,0,1-.092-1.806V7.345h.383a8.72,8.72,0,0,1,1.224.061v-1.7A7.57,7.57,0,0,1,93.9,5.8ZM84.093,7.59V8.677H82.548A8.414,8.414,0,0,1,81.124,8.6v1.622a8.566,8.566,0,0,1,1.393-.077h.995a7.879,7.879,0,0,1-2.678,2.632,5.737,5.737,0,0,1,.781,1.561,7.651,7.651,0,0,0,2.525-2.831c-.031.352-.046.75-.046,1.041v1.53a8.922,8.922,0,0,1-.077,1.209h1.76a7.332,7.332,0,0,1-.092-1.27v-1.53c0-.077-.015-.551-.015-.6-.015-.4-.015-.4-.031-.6a7.763,7.763,0,0,0,1.5,1.653,9.264,9.264,0,0,1,.735-1.454A6.713,6.713,0,0,1,86.3,10.146h.566a11.256,11.256,0,0,1,1.393.061V8.6a8.452,8.452,0,0,1-1.393.077H85.685V7.59h1.24a11.693,11.693,0,0,1,1.408.061V6.014a8.432,8.432,0,0,1-1.408.077h-.306a5.5,5.5,0,0,0,.337-.673,2.974,2.974,0,0,1,.26-.566c.138-.337.138-.337.23-.536l-1.3-.367h.627a12.094,12.094,0,0,1,1.439.061V2.371a8.414,8.414,0,0,1-1.423.077H85.746v-.23A5.61,5.61,0,0,1,85.823,1.1H83.971a5.9,5.9,0,0,1,.077,1.117v.23H82.884a8.812,8.812,0,0,1-1.469-.077V4.009a11.931,11.931,0,0,1,1.439-.061h.719l-1.347.337A6.391,6.391,0,0,1,82.9,6.09h-.367a8.3,8.3,0,0,1-1.423-.077V7.652A11.257,11.257,0,0,1,82.5,7.59ZM85.93,3.948a8.6,8.6,0,0,1-.857,2.143h-2.1l1.362-.367a6.776,6.776,0,0,0-.658-1.775Zm15.993,4.714a7.456,7.456,0,0,1,1.194.077v-1.7a8.8,8.8,0,0,1-1.331.077H101.1c.046-.8.061-1.117.077-1.99h.689a7.456,7.456,0,0,1,1.194.077V3.6a8.8,8.8,0,0,1-1.331.077h-.536a13.039,13.039,0,0,1,.092-2.311H99.5A12.614,12.614,0,0,1,99.6,3.672h-.719a8.938,8.938,0,0,1-1.362-.092V5.2A12.314,12.314,0,0,1,98.8,5.126h.781c-.015.857-.031,1.316-.061,1.99h-.872a8.938,8.938,0,0,1-1.362-.092V8.753a10.029,10.029,0,0,1,1.439-.092h.689a9.058,9.058,0,0,1-.643,2.51,5.746,5.746,0,0,1-1.806,2.342,5.327,5.327,0,0,1,1.209,1.331,7.157,7.157,0,0,0,1.714-2.25,9.23,9.23,0,0,0,.781-2.081,8.807,8.807,0,0,0,1.837,2.418,6.06,6.06,0,0,1,.719-1.178c.046-.061.107-.153.2-.275a8.983,8.983,0,0,1-2.357-2.816Zm5.158,1.959v3.413c0,.811.505,1.1,1.913,1.1,2.02,0,2.265-.291,2.418-2.969a4.387,4.387,0,0,1-1.423-.689c-.077,2-.122,2.127-.765,2.127-.49,0-.612-.061-.612-.337V10.621h.352c.031,0,.275.015.643.031h.306a2.023,2.023,0,0,1,.444.031,13.724,13.724,0,0,1-.061-1.469V3.274a13.989,13.989,0,0,1,.061-1.546,11.06,11.06,0,0,1-1.485.061h-3.857a11.7,11.7,0,0,1-1.469-.061,13.045,13.045,0,0,1,.061,1.515V9.151c0,.658-.015,1.133-.046,1.515.367-.031.781-.046,1.209-.046-.214,1.867-1.1,2.8-3.275,3.489a5.789,5.789,0,0,1,1.194,1.331,6.494,6.494,0,0,0,2.709-2.036,5.157,5.157,0,0,0,.9-2.785Zm-1.913-7.346h3.566V4.3h-3.566Zm0,2.4h3.566V6.7h-3.566Zm0,2.4h3.566V9.151h-3.566Zm13.942,4.561h.291a5.472,5.472,0,0,1,.918.046V11.57a6.231,6.231,0,0,1-.9.046h-.306v-.582h.291a7.1,7.1,0,0,1,.918.046V9.947a4.125,4.125,0,0,1-.9.061h-.306V9.427h.26a10.435,10.435,0,0,1,1.148.046V8.218a10.9,10.9,0,0,1-1.133.046h-.2c.061-.092.4-.719.52-.964l-1.148-.306a6.889,6.889,0,0,1-.536,1.27h-.8c.092-.2.092-.2.2-.459.046-.107.122-.275.214-.49l-1.133-.321a8.054,8.054,0,0,1-1.163,2.388c.061-.765.077-1.1.122-2.433l3.688.015c.505,0,.689,0,1.117.031a8.549,8.549,0,0,1-.031-1.041V4.667a5.123,5.123,0,0,1,.046-.949c-.383.031-.627.046-1.423.046H115.33c-.7,0-1.01-.015-1.408-.031.031.643.046,1.01.046,2.158,0,4.086-.23,5.831-.979,7.361a6.845,6.845,0,0,1,1.133,1.53,11.148,11.148,0,0,0,1.148-4.469,4.612,4.612,0,0,1,.4.474v3.076a10.43,10.43,0,0,1-.092,1.423H117v-.781h2.326c.291,0,.459,0,.75.015a4.491,4.491,0,0,1,.735.949A8.244,8.244,0,0,0,123.5,13.3l-1.087-.888h2.433l-.949.842a9.839,9.839,0,0,0,2.632,2.127,6.279,6.279,0,0,1,1.025-1.362,7.022,7.022,0,0,1-2.464-1.607h.275c.429,0,.9.015,1.316.046-.031-.505-.046-.979-.046-1.576V5.631c0-.566.015-.995.046-1.423-.337.031-.689.046-1.5.046h-.964a9.744,9.744,0,0,0,.444-1.1h.98a11.268,11.268,0,0,1,1.638.077V1.591a8.424,8.424,0,0,1-1.638.092h-3.336a8.433,8.433,0,0,1-1.622-.092V3.229a9.251,9.251,0,0,1,1.408-.077h.934a10.133,10.133,0,0,1-.429,1.1h-.337a9.547,9.547,0,0,1-1.3-.046c.031.352.031.352.046,1.454v5.4c0,.474-.015.918-.031,1.393.4-.031.7-.046,1.194-.046h.168a5.724,5.724,0,0,1-1.791,1.485v-.627c-.413.015-.719.031-1.163.031h-.275ZM117,10.008V9.427h.934v.582Zm0,1.025h.934v.582H117Zm0,1.607h.934V13.3H117Zm-1.53-7.668h3.321v.8h-3.321a.269.269,0,0,1-.015-.092l.015-.352Zm7.025.7h2.632v.9h-2.632Zm0,2.158h2.632v.888h-2.632Zm0,2.143h2.632v.995h-2.632Zm-9-6.765a11.421,11.421,0,0,1,1.622-.077h3.857a9.036,9.036,0,0,1,1.393.077V1.606a10.737,10.737,0,0,1-1.622.092h-3.627a8.433,8.433,0,0,1-1.622-.092ZM131.614,13.8c0,.474-.031.918-.077,1.408h1.684v-.551h6.29v.566h1.7a9.009,9.009,0,0,1-.077-1.408V11.692c0-.413,0-.459.015-.857.719.168.934.214,1.668.352a5.935,5.935,0,0,1,.7-1.714,17.845,17.845,0,0,1-5.663-1.3,17.184,17.184,0,0,0,2.586-2.234c.275-.306.275-.306.413-.444L139.8,4.652a8.822,8.822,0,0,1-1.24.061h-2.877c.306-.352.459-.536.474-.551l-1.423-.4h6.581V5.815h1.668a6.146,6.146,0,0,1-.077-1.148V3.4a7.723,7.723,0,0,1,.061-1.133,14.658,14.658,0,0,1-1.791.077h-4.086v-.23a4.395,4.395,0,0,1,.092-.995h-1.9a4.7,4.7,0,0,1,.077,1.01v.214h-3.949a14.459,14.459,0,0,1-1.745-.077,8.275,8.275,0,0,1,.061,1.133v1.24a6.557,6.557,0,0,1-.077,1.148h1.653V3.764h3.214a4.117,4.117,0,0,1-.857,1.071,12.432,12.432,0,0,1-3.887,2.556,4.523,4.523,0,0,1,.934,1.194,12.111,12.111,0,0,0,2.663-1.638,10.906,10.906,0,0,0,1.485,1.224,20.586,20.586,0,0,1-2.28.9,23.486,23.486,0,0,1-3.428.781,4.628,4.628,0,0,1,.719,1.485c.842-.184,1.133-.26,1.729-.413.015.291.015.444.015.75ZM134.506,6h3.734a13.136,13.136,0,0,1-1.913,1.408,12.866,12.866,0,0,1-1.882-1.347Zm-1.3,4.423a16.721,16.721,0,0,0,3.168-1.331,16.053,16.053,0,0,0,3.26,1.331Zm.015,1.393h6.29v1.454h-6.29Zm14.126,3.566a12.785,12.785,0,0,0,1.668-3.015,11.494,11.494,0,0,0,.8-4.224,10.831,10.831,0,0,0-.781-4.086,12.216,12.216,0,0,0-1.668-3.015H145.2a12.5,12.5,0,0,1,1.959,3.046,9.935,9.935,0,0,1,.781,4.056,10.3,10.3,0,0,1-.811,4.193,11.763,11.763,0,0,1-1.944,3.046Z" transform="translate(128.75 401.186)" fill="#fff"/>
  </g>
</svg>
