<svg xmlns="http://www.w3.org/2000/svg" width="38" height="38" viewBox="0 0 38 38">
  <g id="グループ_11650" data-name="グループ 11650" transform="translate(-493 -6106)">
    <circle id="楕円形_2" data-name="楕円形 2" cx="19" cy="19" r="19" transform="translate(493 6106)"/>
    <g id="グループ_83" data-name="グループ 83" transform="translate(502.51 6118.69)">
      <path id="パス_430" data-name="パス 430" d="M415.894,2734.5H400.747a1,1,0,0,1,0-2h15.148a1,1,0,0,1,0,2Z" transform="translate(-400.747 -2727.198)" fill="#fff"/>
      <path id="パス_431" data-name="パス 431" d="M404.556,2744.028a1,1,0,0,1-.711-1.7l5.53-5.6-5.53-5.6a1,1,0,1,1,1.423-1.405l6.224,6.3a1,1,0,0,1,0,1.405l-6.224,6.3A1,1,0,0,1,404.556,2744.028Z" transform="translate(-393.522 -2730.425)" fill="#fff"/>
    </g>
  </g>
</svg>
