<svg xmlns="http://www.w3.org/2000/svg" width="7.977" height="10.109" viewBox="0 0 7.977 10.109">
  <g id="グループ_139" data-name="グループ 139" transform="translate(7.478 -0.5) rotate(90)">
    <path id="パス_430" data-name="パス 430" d="M409.133,2734h-8.387a.5.5,0,0,1,0-1h8.387a.5.5,0,0,1,0,1Z" transform="translate(-399.747 -2730.011)" fill="#d80576"/>
    <path id="パス_431" data-name="パス 431" d="M404.556,2737.9a.5.5,0,0,1-.356-.851l3.1-3.137-3.1-3.137a.5.5,0,1,1,.711-.7l3.446,3.489a.5.5,0,0,1,0,.7l-3.446,3.489A.5.5,0,0,1,404.556,2737.9Z" transform="translate(-397.894 -2730.425)" fill="#d80576"/>
  </g>
</svg>
