<svg xmlns="http://www.w3.org/2000/svg" xmlns:xlink="http://www.w3.org/1999/xlink" width="491.928" height="476.518" viewBox="0 0 491.928 476.518">
  <defs>
    <clipPath id="clip-path">
      <rect id="長方形_116" data-name="長方形 116" width="491.928" height="476.517" transform="translate(0 0)" fill="#fff"/>
    </clipPath>
  </defs>
  <g id="グループ_139" data-name="グループ 139" transform="translate(0 -0.004)" opacity="0.2" style="mix-blend-mode: screen;isolation: isolate">
    <g id="グループ_135" data-name="グループ 135" transform="translate(0 0.004)" clip-path="url(#clip-path)">
      <path id="パス_437" data-name="パス 437" d="M100.67,783.661c-44.724-22.417-68.984-69.519-55.081-112.312L.344,686.889a128.295,128.295,0,0,0,13.469,66.836A145.125,145.125,0,0,0,41.95,792.352q4.04,3.986,8.367,7.668-1.336,5.521-2.261,11.124A145.078,145.078,0,0,0,48,858.933a128.284,128.284,0,0,0,28.4,61.995L122.126,906.9c-36.4-26.449-44.464-78.814-21.457-123.239" transform="translate(0 -487.539)" fill="#fff"/>
      <path id="パス_438" data-name="パス 438" d="M184.981,123.746a118.011,118.011,0,0,1,19.207,1.585c7.5-49.462,44.8-87.09,89.8-87.09L265.221.013a128.279,128.279,0,0,0-59.4,33.462,145.111,145.111,0,0,0-28.042,38.7q-2.542,5.073-4.708,10.328a151.039,151.039,0,0,0-29.771,5.291,140.624,140.624,0,0,0-37.8,17A128.159,128.159,0,0,0,74.42,132.819a122.543,122.543,0,0,0-8.3,11.827l27.485,39.173c12.086-37.193,49.405-60.075,91.374-60.073" transform="translate(-48.018 -0.011)" fill="#fff"/>
      <path id="パス_439" data-name="パス 439" d="M988.16,125.324a117.849,117.849,0,0,1,19.2-1.585c41.965,0,79.29,22.883,91.374,60.073l27.485-39.174a122.636,122.636,0,0,0-8.3-11.826,128.181,128.181,0,0,0-31.077-28.031,140.668,140.668,0,0,0-37.8-17,150.93,150.93,0,0,0-29.769-5.291q-2.164-5.254-4.709-10.331a145.078,145.078,0,0,0-28.042-38.7A128.287,128.287,0,0,0,927.118,0l-28.753,38.23c45,0,82.3,37.628,89.795,87.09" transform="translate(-652.4 -0.004)" fill="#fff"/>
      <path id="パス_440" data-name="パス 440" d="M645.082,1500.247c-26.465,0-53.958-11.626-75.187-33.138-21.234,21.514-48.723,33.138-75.189,33.138a81.988,81.988,0,0,1-48.649-15.459l.8,47.859a125.647,125.647,0,0,0,47.85,9.3,136.818,136.818,0,0,0,28.694-3.083,145.726,145.726,0,0,0,27.526-8.892,152.626,152.626,0,0,0,18.968-9.9,152.846,152.846,0,0,0,18.966,9.9,145.785,145.785,0,0,0,27.526,8.891,136.746,136.746,0,0,0,28.7,3.084,125.659,125.659,0,0,0,47.851-9.3l.8-47.859a81.976,81.976,0,0,1-48.651,15.459" transform="translate(-323.93 -1065.428)" fill="#fff"/>
      <path id="パス_441" data-name="パス 441" d="M1427.205,671.347c13.906,42.794-10.358,89.9-55.081,112.313,23.007,44.425,14.949,96.791-21.454,123.24l45.733,14.028a128.287,128.287,0,0,0,28.4-62,145.119,145.119,0,0,0-.06-47.789q-.925-5.6-2.261-11.122,4.326-3.682,8.367-7.669a145.1,145.1,0,0,0,28.138-38.626,128.292,128.292,0,0,0,13.47-66.836Z" transform="translate(-980.867 -487.539)" fill="#fff"/>
      <path id="パス_442" data-name="パス 442" d="M819.254,602.779a123.007,123.007,0,0,0,0,160.6,123.011,123.011,0,0,0,0-160.6" transform="translate(-573.289 -437.744)" fill="#fff"/>
      <path id="パス_443" data-name="パス 443" d="M1112.452,896.886a20.713,20.713,0,1,1-20.713-20.712,20.713,20.713,0,0,1,20.713,20.712" transform="translate(-777.788 -636.286)" fill="#fff"/>
    </g>
  </g>
</svg>
