<svg xmlns="http://www.w3.org/2000/svg" xmlns:xlink="http://www.w3.org/1999/xlink" width="386.5" height="374.392" viewBox="0 0 386.5 374.392">
  <defs>
    <clipPath id="clip-path">
      <rect id="長方形_8494" data-name="長方形 8494" width="386.5" height="374.392" fill="#d80576"/>
    </clipPath>
  </defs>
  <g id="グループ_11649" data-name="グループ 11649" style="isolation: isolate">
    <g id="グループ_11648" data-name="グループ 11648" transform="translate(0 0)" clip-path="url(#clip-path)">
      <path id="パス_54521" data-name="パス 54521" d="M79.094,759.59c-35.139-17.613-54.2-54.62-43.276-88.242L.27,683.558A100.8,100.8,0,0,0,10.852,736.07a114.023,114.023,0,0,0,22.107,30.349q3.174,3.132,6.574,6.025-1.049,4.338-1.777,8.74a113.985,113.985,0,0,0-.046,37.547,100.791,100.791,0,0,0,22.311,48.708l35.932-11.021c-28.6-20.78-34.935-61.923-16.858-96.827" transform="translate(0 -526.932)" fill="#d80576"/>
      <path id="パス_54522" data-name="パス 54522" d="M159.508,97.228a92.719,92.719,0,0,1,15.09,1.246c5.892-38.862,35.2-68.425,70.551-68.425L222.551.013A100.787,100.787,0,0,0,175.878,26.3a114.012,114.012,0,0,0-22.032,30.4q-2,3.986-3.7,8.115a118.669,118.669,0,0,0-23.391,4.157,110.486,110.486,0,0,0-29.7,13.353,100.693,100.693,0,0,0-24.415,22.024,96.279,96.279,0,0,0-6.52,9.292l21.595,30.778c9.5-29.222,38.817-47.2,71.791-47.2" transform="translate(-51.898 -0.011)" fill="#d80576"/>
      <path id="パス_54523" data-name="パス 54523" d="M968.915,98.466A92.592,92.592,0,0,1,984,97.221c32.971,0,62.3,17.979,71.791,47.2l21.594-30.779a96.365,96.365,0,0,0-6.519-9.292,100.711,100.711,0,0,0-24.417-22.023,110.52,110.52,0,0,0-29.7-13.353,118.584,118.584,0,0,0-23.389-4.157q-1.7-4.128-3.7-8.117a113.985,113.985,0,0,0-22.032-30.4A100.793,100.793,0,0,0,920.956,0L898.365,30.041c35.352,0,64.659,29.564,70.55,68.425" transform="translate(-705.114 -0.004)" fill="#d80576"/>
      <path id="パス_54524" data-name="パス 54524" d="M602.428,1493.146c-20.793,0-42.394-9.135-59.073-26.036-16.683,16.9-38.281,26.036-59.075,26.036A64.418,64.418,0,0,1,446.057,1481l.628,37.6a98.721,98.721,0,0,0,37.595,7.305,107.5,107.5,0,0,0,22.545-2.422,114.486,114.486,0,0,0,21.627-6.987,119.921,119.921,0,0,0,14.9-7.782,120.061,120.061,0,0,0,14.9,7.782,114.536,114.536,0,0,0,21.627,6.986,107.438,107.438,0,0,0,22.546,2.423,98.731,98.731,0,0,0,37.6-7.305l.628-37.6a64.408,64.408,0,0,1-38.224,12.146" transform="translate(-350.104 -1151.515)" fill="#d80576"/>
      <path id="パス_54525" data-name="パス 54525" d="M1410.8,671.347c10.926,33.623-8.138,70.63-43.276,88.242,18.076,34.9,11.745,76.047-16.856,96.828l35.931,11.021a100.793,100.793,0,0,0,22.31-48.709,114.012,114.012,0,0,0-.047-37.547q-.727-4.4-1.777-8.739,3.4-2.893,6.574-6.025a114,114,0,0,0,22.107-30.348,100.8,100.8,0,0,0,10.583-52.512Z" transform="translate(-1060.122 -526.932)" fill="#d80576"/>
      <path id="パス_54526" data-name="パス 54526" d="M812.862,602.779a96.645,96.645,0,0,0,0,126.181,96.648,96.648,0,0,0,0-126.181" transform="translate(-619.611 -473.114)" fill="#d80576"/>
      <path id="パス_54527" data-name="パス 54527" d="M1103.574,892.447a16.274,16.274,0,1,1-16.274-16.273,16.274,16.274,0,0,1,16.274,16.273" transform="translate(-840.634 -687.697)" fill="#d80576"/>
    </g>
  </g>
</svg>
