<svg xmlns="http://www.w3.org/2000/svg" xmlns:xlink="http://www.w3.org/1999/xlink" width="75" height="75" viewBox="0 0 75 75">
  <defs>
    <clipPath id="clip-path">
      <rect id="長方形_8808" data-name="長方形 8808" width="75" height="75" transform="translate(4011 -7024)" fill="#fff"/>
    </clipPath>
  </defs>
  <g id="マスクグループ_921" data-name="マスクグループ 921" transform="translate(-4011 7024)" clip-path="url(#clip-path)">
    <g id="面接アイコン7" transform="translate(4013 -7037.897)">
      <path id="パス_54476" data-name="パス 54476" d="M364.277,35.8l-1.747,4.366,1.262-.155a40.975,40.975,0,0,0,10.518-3.035,10.331,10.331,0,0,0,4.682-3.316,8.722,8.722,0,0,0,1.892-5.39,8.585,8.585,0,0,0-.845-3.714,9.693,9.693,0,0,0-3.81-4.1,11.248,11.248,0,0,0-5.759-1.558,11.014,11.014,0,0,0-7.3,2.683,9.326,9.326,0,0,0-2.266,2.974,8.57,8.57,0,0,0,.5,8.331A9.792,9.792,0,0,0,364.277,35.8Zm-2.091-10.48a8.16,8.16,0,0,1,3.211-3.431,9.894,9.894,0,0,1,5.073-1.365,9.669,9.669,0,0,1,6.4,2.331,7.819,7.819,0,0,1,1.886,2.465,6.829,6.829,0,0,1,.676,2.95,6.976,6.976,0,0,1-1.534,4.321,8.914,8.914,0,0,1-4.069,2.854l-.022.006-.024.009a41.343,41.343,0,0,1-8.874,2.741l1.25-3.119-.612-.351a8.4,8.4,0,0,1-2.952-2.781,6.79,6.79,0,0,1-.409-6.631Z" transform="translate(-310.703)" fill="#d80576"/>
      <path id="パス_54477" data-name="パス 54477" d="M398.955,82.233a1.271,1.271,0,1,0-1.13-1.262A1.2,1.2,0,0,0,398.955,82.233Z" transform="translate(-343.294 -52.474)" fill="#d80576"/>
      <path id="パス_54478" data-name="パス 54478" d="M430.765,82.233a1.271,1.271,0,1,0-1.131-1.262A1.2,1.2,0,0,0,430.765,82.233Z" transform="translate(-370.743 -52.474)" fill="#d80576"/>
      <path id="パス_54479" data-name="パス 54479" d="M462.589,82.233a1.271,1.271,0,1,0-1.131-1.262A1.2,1.2,0,0,0,462.589,82.233Z" transform="translate(-398.205 -52.474)" fill="#d80576"/>
      <path id="パス_54480" data-name="パス 54480" d="M139.135,213.649a7.231,7.231,0,0,0-6.388-7.509,5.754,5.754,0,0,1-3.667,0,7.23,7.23,0,0,0-6.387,7.509h16.441Z" transform="translate(-105.876 -161.577)" fill="#d80576"/>
      <path id="パス_54481" data-name="パス 54481" d="M154.336,133.914a4.5,4.5,0,0,0,4.5-4.5v-1.277a4.5,4.5,0,1,0-9,0v1.277A4.5,4.5,0,0,0,154.336,133.914Z" transform="translate(-129.297 -90.385)" fill="#d80576"/>
      <path id="パス_54482" data-name="パス 54482" d="M277.572,213.649a7.23,7.23,0,0,0-6.387-7.509,5.757,5.757,0,0,1-3.668,0,7.231,7.231,0,0,0-6.387,7.509h16.441Z" transform="translate(-225.337 -161.577)" fill="#d80576"/>
      <path id="パス_54483" data-name="パス 54483" d="M292.78,133.914a4.5,4.5,0,0,0,4.5-4.5v-1.277a4.5,4.5,0,1,0-9,0v1.277A4.5,4.5,0,0,0,292.78,133.914Z" transform="translate(-248.766 -90.385)" fill="#d80576"/>
      <path id="パス_54484" data-name="パス 54484" d="M58.166,285.421a1.49,1.49,0,0,0-1.369-.9H12.516a1.493,1.493,0,0,0-1.37.9L.121,311.03a1.49,1.49,0,0,0,1.37,2.08H22.266a12.5,12.5,0,0,1,9.123-5.877,9.868,9.868,0,0,0,6.278,0,12.5,12.5,0,0,1,9.121,5.877H67.821a1.49,1.49,0,0,0,1.369-2.08ZM42.229,297.763a7.7,7.7,0,1,1-15.4,0v-2.186a7.7,7.7,0,1,1,15.4,0Z" transform="translate(0 -229.213)" fill="#d80576"/>
    </g>
  </g>
</svg>
