<svg xmlns="http://www.w3.org/2000/svg" xmlns:xlink="http://www.w3.org/1999/xlink" width="75" height="75" viewBox="0 0 75 75">
  <defs>
    <clipPath id="clip-path">
      <rect id="長方形_8805" data-name="長方形 8805" width="75" height="75" transform="translate(4019 -6815)" fill="#fff"/>
    </clipPath>
  </defs>
  <g id="マスクグループ_922" data-name="マスクグループ 922" transform="translate(-4019 6815)" clip-path="url(#clip-path)">
    <g id="面接アイコン8" transform="translate(4022 -6822.572)">
      <path id="パス_54469" data-name="パス 54469" d="M286.069,31.088l-1.915,4.786,1.384-.17a44.906,44.906,0,0,0,11.525-3.324,11.32,11.32,0,0,0,5.127-3.633,9.535,9.535,0,0,0,2.075-5.908,9.392,9.392,0,0,0-.927-4.069,10.635,10.635,0,0,0-4.173-4.49,12.324,12.324,0,0,0-6.31-1.707,12.077,12.077,0,0,0-8,2.938,10.245,10.245,0,0,0-2.482,3.259,9.4,9.4,0,0,0,.549,9.13A10.711,10.711,0,0,0,286.069,31.088Zm-2.291-11.48a8.921,8.921,0,0,1,3.517-3.759,10.844,10.844,0,0,1,5.56-1.5,10.579,10.579,0,0,1,7.012,2.553,8.549,8.549,0,0,1,2.066,2.7,7.467,7.467,0,0,1,.741,3.23,7.637,7.637,0,0,1-1.681,4.736,9.744,9.744,0,0,1-4.456,3.128l-.026.007-.025.01a45.287,45.287,0,0,1-9.725,3l1.37-3.419-.672-.384a9.219,9.219,0,0,1-3.235-3.044,7.534,7.534,0,0,1-1.187-4.037A7.438,7.438,0,0,1,283.778,19.607Z" transform="translate(-243.395)" fill="#d80576"/>
      <path id="パス_54470" data-name="パス 54470" d="M324.633,82.9a1.392,1.392,0,1,0-1.238-1.385A1.318,1.318,0,0,0,324.633,82.9Z" transform="translate(-279.675 -58.431)" fill="#d80576"/>
      <path id="パス_54471" data-name="パス 54471" d="M359.978,82.9a1.391,1.391,0,1,0-1.241-1.385A1.319,1.319,0,0,0,359.978,82.9Z" transform="translate(-310.239 -58.431)" fill="#d80576"/>
      <path id="パス_54472" data-name="パス 54472" d="M395.332,82.9a1.392,1.392,0,1,0-1.239-1.385A1.317,1.317,0,0,0,395.332,82.9Z" transform="translate(-340.815 -58.431)" fill="#d80576"/>
      <path id="パス_54473" data-name="パス 54473" d="M69.1,314.7,58.088,289.128a1.49,1.49,0,0,0-1.368-.9H12.5a1.491,1.491,0,0,0-1.368.9L.121,314.7a1.487,1.487,0,0,0,1.368,2.077H22.236a12.483,12.483,0,0,1,9.111-5.869,9.855,9.855,0,0,0,6.269,0,12.482,12.482,0,0,1,9.109,5.869H67.73A1.488,1.488,0,0,0,69.1,314.7ZM42.172,301.453a7.691,7.691,0,1,1-15.382,0V299.27a7.691,7.691,0,1,1,15.382,0Z" transform="translate(0 -238.389)" fill="#d80576"/>
      <path id="パス_54474" data-name="パス 54474" d="M211.686,216.364a7.221,7.221,0,0,0-6.379-7.5,5.747,5.747,0,0,1-3.662,0,7.22,7.22,0,0,0-6.378,7.5h16.419Z" transform="translate(-168.869 -169.756)" fill="#d80576"/>
      <path id="パス_54475" data-name="パス 54475" d="M227.244,135.589a4.493,4.493,0,0,0,4.493-4.493v-1.275a4.494,4.494,0,1,0-8.988,0V131.1A4.494,4.494,0,0,0,227.244,135.589Z" transform="translate(-192.635 -97.512)" fill="#d80576"/>
    </g>
  </g>
</svg>
