<svg xmlns="http://www.w3.org/2000/svg" xmlns:xlink="http://www.w3.org/1999/xlink" width="564" height="570" viewBox="0 0 564 570">
  <defs>
    <filter id="パス_54841" x="75" y="93" width="417" height="370" filterUnits="userSpaceOnUse">
      <feOffset input="SourceAlpha"/>
      <feGaussianBlur stdDeviation="10" result="blur"/>
      <feFlood flood-color="#fff"/>
      <feComposite operator="in" in2="blur"/>
      <feComposite in="SourceGraphic"/>
    </filter>
    <linearGradient id="linear-gradient" x1="0.5" x2="0.5" y2="1" gradientUnits="objectBoundingBox">
      <stop offset="0" stop-color="#d80576"/>
      <stop offset="1" stop-color="#b2427e"/>
    </linearGradient>
    <filter id="パス_54854" x="145" y="0" width="276" height="276" filterUnits="userSpaceOnUse">
      <feOffset input="SourceAlpha"/>
      <feGaussianBlur stdDeviation="10" result="blur-2"/>
      <feFlood flood-opacity="0.161"/>
      <feComposite operator="in" in2="blur-2"/>
      <feComposite in="SourceGraphic"/>
    </filter>
    <filter id="パス_512" x="0" y="294" width="276" height="276" filterUnits="userSpaceOnUse">
      <feOffset input="SourceAlpha"/>
      <feGaussianBlur stdDeviation="10" result="blur-3"/>
      <feFlood flood-opacity="0.161"/>
      <feComposite operator="in" in2="blur-3"/>
      <feComposite in="SourceGraphic"/>
    </filter>
    <filter id="パス_54837" x="288" y="294" width="276" height="276" filterUnits="userSpaceOnUse">
      <feOffset input="SourceAlpha"/>
      <feGaussianBlur stdDeviation="10" result="blur-4"/>
      <feFlood flood-opacity="0.161"/>
      <feComposite operator="in" in2="blur-4"/>
      <feComposite in="SourceGraphic"/>
    </filter>
  </defs>
  <g id="グループ_11840" data-name="グループ 11840" transform="translate(3904 8085)">
    <g transform="matrix(1, 0, 0, 1, -3904, -8085)" filter="url(#パス_54841)">
      <path id="パス_54841-2" data-name="パス 54841" d="M178.5,0,357,310H0Z" transform="translate(105 123)" fill="#fff" opacity="0.3"/>
    </g>
    <path id="パス_54847" data-name="パス 54847" d="M19.536-22.044a8.972,8.972,0,0,1-1.584.1H15.279a8.972,8.972,0,0,1-1.584-.1v2.838a10.722,10.722,0,0,1,1.551-.066h2.706a10.974,10.974,0,0,1,1.584.066ZM17.886-9.108c.462,0,1.089.033,1.65.066C19.5-9.4,19.47-10,19.47-10.824v-5.115c0-.858.033-1.452.066-1.815-.33.033-.924.066-1.683.066H15.378c-.792,0-1.254-.033-1.65-.066.033.462.066.957.066,1.782v5.181c0,.792-.033,1.32-.066,1.749.693-.033,1.188-.066,1.65-.066ZM15.84-15.081h1.617v3.4H15.84ZM23.1-7.227v-16.9a25.511,25.511,0,0,1,.1-2.574,20.953,20.953,0,0,1-2.9.132H12.9a21.02,21.02,0,0,1-2.871-.132,7.579,7.579,0,0,1,.066,1.254l-1.287-1.98A14.644,14.644,0,0,1,3-24.915a32.612,32.612,0,0,1,.2,3.531L3.6-7.227c-1.089-.033-1.617-.1-2.277-.165v3.4a35.694,35.694,0,0,1,3.894-.2H27.753a33.007,33.007,0,0,1,3.927.2v-3.4c-.66.066-1.023.1-2.013.132L30.2-22.671c.066-1.617.1-2.442.231-3.4a13.149,13.149,0,0,1-2.211.132H25.971a12.889,12.889,0,0,1-2.145-.165v3.267a10.71,10.71,0,0,1,1.65-.1h1.518l-.1,3.168H25.542a9.679,9.679,0,0,1-1.617-.1v3.1c.462-.033.858-.066,1.584-.066H26.8l-.1,2.937H25.542a9.954,9.954,0,0,1-1.617-.1v3.135a10.06,10.06,0,0,1,1.584-.1H26.6l-.132,3.729Zm-12.969,0H6.765l-.1-3.63h.99c.726,0,1.122.033,1.584.066v-3.135a6.861,6.861,0,0,1-1.617.132H6.6l-.066-3H7.656a10.06,10.06,0,0,1,1.584.1v-3.135a9.678,9.678,0,0,1-1.617.1H6.468L6.4-22.6a26.589,26.589,0,0,0,3.729-1.485Zm2.871,0V-23.694h7.227V-7.227Zm-1.848,3.1a13.635,13.635,0,0,1-4.29,2.574A22.782,22.782,0,0,1,1.65-.165a18.624,18.624,0,0,1,1.947,3,24.5,24.5,0,0,0,10.3-4.884ZM19.041-1.98A27.505,27.505,0,0,0,24.453.99,27.718,27.718,0,0,0,30.03,2.772,12.916,12.916,0,0,1,31.779-.363c-4.719-.693-6.831-1.452-10.3-3.663ZM60.984-8.415c-1.65-2.211-2.277-3.036-3.333-4.323a49.376,49.376,0,0,0,.726-8.151c0-.33.033-.792.033-1.485h4.026c0,6.4-.231,11.913-.594,15.543-.528,5.016-.726,5.511-2.508,5.511a30.881,30.881,0,0,1-3.993-.33A12.545,12.545,0,0,1,56.2,1.914c.891.066,2.475.132,3.366.132,4.092,0,5.016-1.023,5.544-6.27.264-2.8.561-7.788.627-11.748.2-8.283.231-9.108.33-9.933a22.243,22.243,0,0,1-3.135.165H54.714a26.42,26.42,0,0,1-3.564-.2v3.729a20.251,20.251,0,0,1,3.168-.165h.759c-.033.693-.033.693-.066,2.772-.033,1.188-.1,2.244-.264,3.63-.957-.99-1.452-1.485-3-2.937L49.6-16.7a47.689,47.689,0,0,1,4.455,4.686,21.936,21.936,0,0,1-3.927,8.679V-5.478a24.492,24.492,0,0,1-3.2.132h-1.98V-7.227h1.815c1.584,0,2.343.033,3.069.1-.033-.363-.033-1.353-.066-2.9V-13.3a21.763,21.763,0,0,1,.1-2.97,20.389,20.389,0,0,1-2.9.1H44.946v-1.419h.792c.957,0,1.353,0,2.376.033a18.08,18.08,0,0,1-.1-2.112v-2.508a12.057,12.057,0,0,1,2.145.132v-3.3a8.545,8.545,0,0,1-2.145.165v-.33a14.559,14.559,0,0,1,.132-2.277h-3.3a17.851,17.851,0,0,1,.1,2.079v.528h-3.2v-.495a16.232,16.232,0,0,1,.1-2.112H38.511a15.58,15.58,0,0,1,.132,2.31v.3h-.33a9.82,9.82,0,0,1-2.244-.165v3.333a10.886,10.886,0,0,1,2.277-.165h.3v2.508a18.886,18.886,0,0,1-.1,2.112c.825-.033,1.155-.033,2.178-.033h1.056v1.419H39.732a28.143,28.143,0,0,1-2.9-.1A20.314,20.314,0,0,1,36.96-13.5v3.6A23.171,23.171,0,0,1,36.828-7.1a29.082,29.082,0,0,1,3.1-.132h1.848v1.881H39.6a23.746,23.746,0,0,1-3.531-.165v3.465a20.808,20.808,0,0,1,3.5-.2h2.211v1.089a29.374,29.374,0,0,1-.2,3.927h3.564a24.628,24.628,0,0,1-.2-3.96V-2.244h1.98c1.056,0,1.584,0,2.244.033A18.447,18.447,0,0,1,47.091-.4,11.317,11.317,0,0,1,49.7,2.475a23.929,23.929,0,0,0,7-11.187c.594.792,1.122,1.584,2.244,3.366ZM44.946-22.176v1.914h-3.2v-1.914Zm-3.168,8.811v3.3H39.9v-3.3Zm3.168,0H46.86v3.3H44.946Zm43.626,1.386A50.468,50.468,0,0,0,99.726-19.7c.33-.264.462-.4.726-.594l-2.871-2.9A28.617,28.617,0,0,1,88.572-16.1v-7.359a30.632,30.632,0,0,1,.2-3.96H84.645a30.988,30.988,0,0,1,.2,3.96V-1.716c0,3,.99,3.564,6.336,3.564S98.34,1.485,99.363.231c.792-.99,1.254-3.168,1.518-7.26a16.155,16.155,0,0,1-3.564-1.287c-.165,3.993-.363,5.28-.924,6.039-.429.528-1.617.726-4.587.726-2.64,0-3.234-.2-3.234-1.089ZM75.5-1.617a35.815,35.815,0,0,1-.231,4.29h4.059c-.132-1.386-.2-2.871-.2-4.224V-19.272a61.325,61.325,0,0,0,2.376-5.742c.3-.792.429-1.155.726-1.815l-3.861-1.122a25.121,25.121,0,0,1-3.333,8.184,28.881,28.881,0,0,1-4.62,5.874A16.547,16.547,0,0,1,72.171-10a34.233,34.233,0,0,0,3.4-4.29c-.066,2.211-.066,2.541-.066,3.7Z" transform="translate(-3672 -7766)" fill="#fff"/>
    <path id="パス_54845" data-name="パス 54845" d="M-50.218-4.284a8.961,8.961,0,0,1,2.688-.462c1.5,0,2.478.784,2.478,1.988A1.439,1.439,0,0,1-46.466-1.2a.968.968,0,0,1-.882-.476,2.7,2.7,0,0,1-.2-1.232,4.854,4.854,0,0,1,.028-.616,5.906,5.906,0,0,1-1.554.616,4.677,4.677,0,0,0,.238,1.792,2.26,2.26,0,0,0,2.3,1.554,3.11,3.11,0,0,0,3.178-3.192c0-1.988-1.666-3.416-4-3.416a9.708,9.708,0,0,0-2.856.392V-7.6c.532-.056.812-.1,1.274-.182.966-.168,1.232-.21,1.484-.252L-47.516-9.6a15.614,15.614,0,0,1-2.7.532v-.9a8.6,8.6,0,0,1,.084-1.526h-1.75a9.592,9.592,0,0,1,.084,1.61v.924c-.154,0-.224,0-.56.014-.2.014-.35.014-.49.014a8.586,8.586,0,0,1-1.694-.126l.014,1.568a2.625,2.625,0,0,1,.294-.014c.042,0,.168,0,.35.014s.56.014.77.014c.35,0,.546,0,.756-.014.462-.028.462-.028.574-.028l.014,2.156a7.49,7.49,0,0,0-2.044,1.19A2.988,2.988,0,0,0-55.02-2.1a2.056,2.056,0,0,0,.77,1.582A4.361,4.361,0,0,0-51.6.476a1.23,1.23,0,0,0,1.288-.812,4.169,4.169,0,0,0,.112-1.19Zm-1.568,2.548c0,.462-.07.588-.308.588a1.683,1.683,0,0,1-.9-.308c-.322-.2-.462-.406-.462-.644,0-.5.616-1.12,1.666-1.68Zm9.044-5.908a11.874,11.874,0,0,0-2.772-2.87l-1.316.882a11.955,11.955,0,0,1,2.8,3.024Zm2.2,3.15a2.371,2.371,0,0,1,.532.084c.56.126,1.106.21,1.946.322a9.562,9.562,0,0,0-.07,1.19C-38.136-.644-36.75.574-34.2.574A5.03,5.03,0,0,0-31.038-.35a3.331,3.331,0,0,0,1.344-2.618,4.354,4.354,0,0,0-.6-2.058,5.38,5.38,0,0,0-.658-.882,5.173,5.173,0,0,1-1.736.35,3.261,3.261,0,0,1,1.26,2.366c0,1.372-1.022,2.156-2.8,2.156a2.547,2.547,0,0,1-1.736-.518A1.75,1.75,0,0,1-36.484-3a9.928,9.928,0,0,1,.07-.994c.546.028.672.028.9.028a20.39,20.39,0,0,0,2.1-.126A1.8,1.8,0,0,1-33-4.13l.042-1.61a11.193,11.193,0,0,1-2.674.28c-.154,0-.266,0-.686-.014.084-.672.126-.952.266-1.974.6.014.728.014.868.014.5,0,.952-.028,1.96-.112.308-.028.378-.042.56-.056l.056-1.638a13.908,13.908,0,0,1-3.192.294,11.366,11.366,0,0,1,.448-2.366l-1.862-.168a.58.58,0,0,1,.014.14,16.478,16.478,0,0,1-.28,2.324,10.623,10.623,0,0,1-2.534-.5l-.14,1.54c.21.042.28.056.476.1a18.362,18.362,0,0,0,2,.35c-.07.518-.2,1.456-.252,1.96A9.18,9.18,0,0,1-40.39-6.1Zm18.368-1.022-.042-.014a22.447,22.447,0,0,0,2.24-1.918,20.579,20.579,0,0,1,2.422-2.24l-.9-1.274a2.017,2.017,0,0,1-.77.154c-1.064.1-2.618.168-3.976.168a11.149,11.149,0,0,1-1.9-.1l.056,1.666A8.228,8.228,0,0,1-23.9-9.156c1.2-.028,2.912-.126,3.472-.21a.273.273,0,0,1,.112-.014l.014.014a.83.83,0,0,1-.112.112,1.266,1.266,0,0,0-.14.154,46.943,46.943,0,0,1-4.172,3.892,12.34,12.34,0,0,1-1.834,1.316l1.078,1.456a8.449,8.449,0,0,1,5.432-2.338c1.554,0,2.478.6,2.478,1.61,0,1.232-1.358,2.058-3.388,2.058a9.322,9.322,0,0,1-3.556-.784,6.954,6.954,0,0,1,.252,1.848,11.116,11.116,0,0,0,3.374.518A6.721,6.721,0,0,0-17.4-.35a3.322,3.322,0,0,0,1.638-2.842c0-1.806-1.47-2.982-3.738-2.982a5.059,5.059,0,0,0-2.562.6Zm19.74-3.458a2.825,2.825,0,0,1-1.106.126l-3.108.014c.042-.448.042-.574.056-.882.028-.728.028-.728.056-1.022,0-.1.014-.182.014-.266a4.073,4.073,0,0,1,.056-.434l-1.876-.042a2.718,2.718,0,0,1,.042.546v.35c0,.406-.028,1.218-.07,1.75l-2.45.014a8.031,8.031,0,0,1-1.554-.112l.014,1.722a9.942,9.942,0,0,1,1.512-.07l2.324-.014c-.014.1-.042.238-.07.434A7.185,7.185,0,0,1-9.31-4.424,7.883,7.883,0,0,1-12.95-.9,5.52,5.52,0,0,1-11.69.588,10.267,10.267,0,0,0-7.91-3.29a10.249,10.249,0,0,0,1.12-4l3.262-.014a31.428,31.428,0,0,1-.308,4.48C-4.06-1.61-4.27-1.3-4.872-1.3A7.259,7.259,0,0,1-6.72-1.624,4.231,4.231,0,0,1-6.4.168,10.677,10.677,0,0,0-4.662.322c1.68,0,2.17-.574,2.534-3,.14-.924.294-3.08.336-4.662a2.187,2.187,0,0,1,.154-.938ZM2.24-7.616A14.006,14.006,0,0,1,3.514-4.228l1.582-.5A16.149,16.149,0,0,0,3.724-8.05Zm3-.588A15.4,15.4,0,0,1,6.51-4.914L8.064-5.4a13.753,13.753,0,0,0-1.358-3.22Zm4.816-.14A6.21,6.21,0,0,1,9.8-6.734,8.05,8.05,0,0,1,6.622-1.876,9.081,9.081,0,0,1,4.242-.588,5.085,5.085,0,0,1,5.362.8a10.746,10.746,0,0,0,4.27-3.374,11.951,11.951,0,0,0,1.932-4.662,2.947,2.947,0,0,1,.2-.714ZM24.066-.686V.168h1.876a9.235,9.235,0,0,1-.07-1.442V-8.96a8.493,8.493,0,0,1,.042-1.162c-.49.028-.49.028-1.218.028H17.962a9.411,9.411,0,0,1-1.806-.1v1.82a13.7,13.7,0,0,1,1.792-.07H24.08v6.1H17.71a9,9,0,0,1-1.75-.1V-.63a15.65,15.65,0,0,1,1.722-.056Zm5.432-9.6a6.689,6.689,0,0,1,.056.9c.056,3.878.308,5.908.882,7.308C31-.742,31.752-.056,32.69-.056c1.19,0,2-1.134,2.73-3.864a6.911,6.911,0,0,1-1.4-1.274,10.321,10.321,0,0,1-.742,2.534c-.168.392-.364.6-.574.6-.448,0-.9-.9-1.134-2.352A26.2,26.2,0,0,1,31.3-8.162a16.275,16.275,0,0,1,.112-2.128Zm7.07,1.33a12.22,12.22,0,0,1,1.988,3.444,14.193,14.193,0,0,1,.9,4.046l1.736-.658a13.958,13.958,0,0,0-3.15-7.532Zm6.93-1.33a6.69,6.69,0,0,1,.056.9c.056,3.878.308,5.908.882,7.308C45-.742,45.752-.056,46.69-.056c1.19,0,2-1.134,2.73-3.864a6.911,6.911,0,0,1-1.4-1.274,10.321,10.321,0,0,1-.742,2.534c-.168.392-.364.6-.574.6-.448,0-.9-.9-1.134-2.352A26.2,26.2,0,0,1,45.3-8.162a16.275,16.275,0,0,1,.112-2.128Zm7.07,1.33a12.22,12.22,0,0,1,1.988,3.444,14.193,14.193,0,0,1,.9,4.046l1.736-.658a13.958,13.958,0,0,0-3.15-7.532Z" transform="translate(-3625 -7742)" fill="#fff"/>
    <g transform="matrix(1, 0, 0, 1, -3904, -8085)" filter="url(#パス_54854)">
      <path id="パス_54854-2" data-name="パス 54854" d="M108,0A108,108,0,1,1,0,108,108,108,0,0,1,108,0Z" transform="translate(175 30)" fill="url(#linear-gradient)"/>
    </g>
    <path id="パス_54863" data-name="パス 54863" d="M-37.912-13.16a10.214,10.214,0,0,1,2.24-.784A39.9,39.9,0,0,1-24.64-15.932a7.3,7.3,0,0,1,3.612.756,4.1,4.1,0,0,1,2.128,3.64,6.174,6.174,0,0,1-.308,1.988A7.757,7.757,0,0,1-23.436-5.4c-2.38,1.036-4.732,1.456-9.212,1.652A12.136,12.136,0,0,1-31.22-.14C-26.1-.7-23.912-1.2-21.364-2.464c3.976-1.932,6.216-5.152,6.216-8.96,0-4.76-3.612-7.868-9.156-7.868-3.248,0-4.76.224-11.144,1.6a20.015,20.015,0,0,1-3.276.56Zm35.868-9.884A16.525,16.525,0,0,1-1.9-20.58c.028,3.5.28,11.144.392,12.152a.629.629,0,0,0,.028.28,10.356,10.356,0,0,0-2.6-.28C-8.12-8.428-11-6.328-11-3.416a5.049,5.049,0,0,0,.7,2.492c1.036,1.6,3.024,2.408,5.88,2.408C-.252,1.484,1.96-.168,1.96-3.3A6.52,6.52,0,0,0,1.9-4.2c.308.2.532.308.9.5A17.63,17.63,0,0,1,6.5-1.4,11.039,11.039,0,0,1,8.484.448l2.184-3.164c-.336-.2-.476-.308-.84-.56a37.671,37.671,0,0,0-3.612-2.38,20.675,20.675,0,0,0-4.368-1.9c-.2-2.744-.252-4-.308-6.188a60.368,60.368,0,0,0,6.58-.5c1.26-.14,1.26-.14,1.82-.168l-.28-3.388a30.275,30.275,0,0,1-8.2.952c-.028-1.344-.028-1.428-.028-1.82a31.864,31.864,0,0,1,.2-4.34Zm.616,17.92c0,.028.028.812.028,1.316A1.968,1.968,0,0,1-1.988-2.24a4,4,0,0,1-2.548.756A5.009,5.009,0,0,1-6.58-1.9,1.53,1.53,0,0,1-7.532-3.36c0-1.232,1.4-2.072,3.5-2.072A9.087,9.087,0,0,1-1.428-5.124ZM29.82-23.24a13.88,13.88,0,0,1-2.044,2.324,62.758,62.758,0,0,1-6.468,5.46,17.17,17.17,0,0,0-2.464,2.016,3.271,3.271,0,0,0-.924,2.268c0,1.288.5,2.044,2.352,3.472A88.807,88.807,0,0,1,27.5-1.736,27.047,27.047,0,0,1,31.136,2.1L34.02-.812a6.982,6.982,0,0,1-.812-.7,94.116,94.116,0,0,0-8.82-7.308c-2.464-1.848-2.52-1.9-2.52-2.324,0-.308.2-.532,1.064-1.176,3.276-2.492,5.236-4.06,6.664-5.376a42.713,42.713,0,0,1,3.444-3.08Z" transform="translate(-3621 -7957)" fill="#fff"/>
    <path id="パス_54864" data-name="パス 54864" d="M-41.8-7.1v2.262h-2.431A9.28,9.28,0,0,1-45.591-4.9v1.469A11.421,11.421,0,0,1-44.122-3.5H-41.8V-.806h-3.3a14.928,14.928,0,0,1-1.716-.078V.65A13.864,13.864,0,0,1-45.045.559h8.281A13.456,13.456,0,0,1-35.087.65V-.884A16.778,16.778,0,0,1-36.8-.806h-3.471V-3.5h2.548a9.836,9.836,0,0,1,1.365.065V-4.9a13.975,13.975,0,0,1-1.4.065h-2.509V-7.1h3.042a12.352,12.352,0,0,1,1.573.065V-8.528a13.323,13.323,0,0,1-1.573.078h-7.514a10.382,10.382,0,0,1-1.573-.078v1.495A10.684,10.684,0,0,1-44.733-7.1Zm-1.6-2.925a15.375,15.375,0,0,1,3.445,1.508l.975-1.17a23.1,23.1,0,0,0-3.367-1.378ZM-30.368.312c-.013-.169-.013-.273-.013-.351a10.672,10.672,0,0,1,1.157-3.939l-1.04-.468A13.258,13.258,0,0,0-30.94-2.73c.013-.325.026-.429.026-.715a21.706,21.706,0,0,1,.195-2.873A17.923,17.923,0,0,1-29.9-10.2l-1.716-.182a8.506,8.506,0,0,1-.195,1.209,24.957,24.957,0,0,0-.533,5.083,22.676,22.676,0,0,0,.338,3.887c.039.3.052.377.065.611Zm1.794-7.787a15.432,15.432,0,0,0,2.34.143,23.286,23.286,0,0,0,2.782-.156c.624-.078.819-.1.923-.117l-.078-1.573a14.336,14.336,0,0,1-3.536.351,9.373,9.373,0,0,1-2.4-.208Zm.9,2.145a4.247,4.247,0,0,0-1.2,2.678,2.178,2.178,0,0,0,.39,1.274c.572.767,1.612,1.131,3.224,1.131a16.031,16.031,0,0,0,2.691-.247,4.345,4.345,0,0,1,.533-.078l-.13-1.651a9.136,9.136,0,0,1-3.094.494c-1.352,0-2.067-.39-2.067-1.131A2.941,2.941,0,0,1-26.4-4.732Zm17.784-5.564a5.88,5.88,0,0,1-.793,1.417c-.039-.039-.13-.13-.286-.273l-.4.559v-.4c-.013-.208-.013-.377-.013-.416a3.2,3.2,0,0,1,.078-.871h-1.43A8.3,8.3,0,0,1-12.649-9.4v.611l-.923-.624a6,6,0,0,1-.676,1.222c-.13-.182-.182-.247-.312-.4a12.8,12.8,0,0,0,1.131-1.82l-1.066-.533A6.23,6.23,0,0,1-15.327-9.4l-.286-.273-.754.9c.143.13.195.169.286.26-.156.013-.39.026-.663.026h-.234V-9.581a10.931,10.931,0,0,1,.052-1.352h-1.4a9.281,9.281,0,0,1,.065,1.365v1.079h-.442a3.6,3.6,0,0,1-.884-.065v1.391a8.31,8.31,0,0,1,.884-.052h.312a16.464,16.464,0,0,1-.533,1.755A10.071,10.071,0,0,1-19.9-3.393a4.052,4.052,0,0,1,.624,1.43,12.429,12.429,0,0,0,1.131-2.912c-.078,1.092-.1,1.56-.1,2.145V-.442a12.47,12.47,0,0,1-.078,1.6h1.417a11.472,11.472,0,0,1-.065-1.6V-4.186c0-.455-.026-1.222-.052-1.586a6.89,6.89,0,0,0,.611,1.2,4.677,4.677,0,0,1,.377-.91l.052.4c.182-.039.858-.13,1.859-.26.351-.052.572-.091.91-.143.013.143.026.221.052.442l.728-.26c.026.247.039.351.091.728h-2.678a7.35,7.35,0,0,1-1.066-.052v1.313c.26-.026.494-.039.975-.052A4.364,4.364,0,0,1-16.809.065,4.908,4.908,0,0,1-15.769,1a5.916,5.916,0,0,0,1.612-2.7,4.315,4.315,0,0,0,1.079.91c.091-.169.091-.169.273-.494a3.585,3.585,0,0,1,.351-.572A4.538,4.538,0,0,1-13.9-2.951a3.246,3.246,0,0,0,.039-.416h1.729a8,8,0,0,0,.663,2,8.769,8.769,0,0,1-2.99,1.287,3.723,3.723,0,0,1,.741,1.157A10.142,10.142,0,0,0-10.868-.377c.741.975,1.339,1.4,1.989,1.4A.9.9,0,0,0-8.034.611,4.537,4.537,0,0,0-7.5-1.222a3.187,3.187,0,0,1-.988-.715C-8.619-.728-8.736-.364-8.97-.364c-.195,0-.533-.286-.91-.806A10.4,10.4,0,0,0-8.463-2.73l-1-.637h.442a10.6,10.6,0,0,1,1.365.078V-4.654a6.613,6.613,0,0,1-1.365.078h-.286l.494-.468a3.508,3.508,0,0,0-.676-.533c.377-.039.689-.078.949-.117.052.247.078.338.143.624l.91-.3A10.967,10.967,0,0,0-8.255-7.41l-.819.3A3.47,3.47,0,0,1-8.84-6.6c-.4.039-.546.052-.936.078A12.622,12.622,0,0,0-8.736-7.7c.637-.832.637-.832.91-1.17l-.949-.689c-.416.676-.533.871-.806,1.248-.169-.195-.2-.234-.351-.4a12.079,12.079,0,0,0,1.1-1.6Zm-.4,3.471a10.357,10.357,0,0,1-.832.936h-.182c-.052-.923-.052-.923-.065-2.106A7.072,7.072,0,0,1-10.3-7.423Zm-.169,2.288a2.357,2.357,0,0,1,.819.559H-11.1c-.065-.481-.078-.52-.1-.819.182-.013.312-.026.325-.026a3.907,3.907,0,0,0,.559-.065c.052,0,.13-.013.247-.026Zm-5.512-3.289A9,9,0,0,1-14.9-7.215c-.234.312-.377.494-.819,1h-.234a1.2,1.2,0,0,1-.2-.013l.039.286A4.377,4.377,0,0,1-16.9-7.215h.182a5.207,5.207,0,0,1,.741.052Zm6.5,5.057a3.459,3.459,0,0,1-.988,1.222,5.033,5.033,0,0,1-.416-1.222Zm-4.212-3.588c.117.26.143.338.234.546a9.211,9.211,0,0,1-.949.1,15.379,15.379,0,0,0,1.482-1.911c.091-.13.13-.195.286-.416,0,.585.026,1.183.1,2.275a6.031,6.031,0,0,0-.338-.858Zm7.839-.156A5.986,5.986,0,0,1-5.005-7.2c.9-.052,3.107-.286,3.939-.416.091.208.156.364.3.7L.4-7.6a19.476,19.476,0,0,0-1.612-2.717l-1.04.507c.286.468.364.585.6,1.04-.806.1-1.118.13-1.95.182.3-.494.767-1.365.923-1.7a4.16,4.16,0,0,1,.247-.481l-1.508-.273A9.052,9.052,0,0,1-5.031-8.528h-.195a.887.887,0,0,1-.156.013,5.719,5.719,0,0,1-.624-.039ZM1.872-9.8a5.54,5.54,0,0,1,.065-1.053H.442A6.515,6.515,0,0,1,.507-9.737V-6.5a.779.779,0,0,0,.507.858A4.638,4.638,0,0,0,2.8-5.46c1.7,0,2.2-.078,2.535-.4.3-.3.416-.741.52-1.963a4.846,4.846,0,0,1-1.3-.4c-.026.962-.078,1.222-.221,1.352-.169.13-.468.169-1.521.169-.819,0-.936-.052-.936-.364v-.819a18.213,18.213,0,0,0,3-1.144c.637-.312.637-.312.91-.429l-.962-1.2a6.528,6.528,0,0,1-1.508.91A8.282,8.282,0,0,1,1.872-9.2ZM1.885-3.8A5.354,5.354,0,0,1,1.95-4.875H.455A6.38,6.38,0,0,1,.52-3.718V-.3a.843.843,0,0,0,.4.845c.338.208.754.26,2.028.26C4.589.806,5.044.715,5.4.325s.481-.871.572-2.093A5.3,5.3,0,0,1,4.641-2.21a3.85,3.85,0,0,1-.208,1.5c-.117.195-.442.26-1.3.26A3.909,3.909,0,0,1,2.21-.52c-.247-.052-.325-.13-.325-.351V-2.093a18.74,18.74,0,0,0,1.937-.6c.4-.156,1.677-.728,2.054-.936L4.888-4.771a8.587,8.587,0,0,1-3,1.4ZM-5.265-.351A10.914,10.914,0,0,1-5.33,1.066h1.482A11.351,11.351,0,0,1-3.913-.377V-1.664h2.184V-.585c-.026.2-.078.234-.351.234a4.59,4.59,0,0,1-.871-.091A5.294,5.294,0,0,1-2.665.884C-2.431.9-2.236.9-2.119.9A2.637,2.637,0,0,0-.754.65C-.494.494-.39.195-.39-.364V-5.538c0-.65.013-.858.039-1.222a9.464,9.464,0,0,1-1.17.052h-2.86a9.227,9.227,0,0,1-.936-.039,11.422,11.422,0,0,1,.052,1.2Zm1.339-5.174h2.2v.806h-2.2Zm0,1.924h2.2V-2.8h-2.2ZM9.243-9.035H8.788A6.3,6.3,0,0,1,8.1-9.074a10.71,10.71,0,0,1,.052,1.326v6.76A13.334,13.334,0,0,1,8.086.689H9.5V-.455h1.846v.78H12.74a12.608,12.608,0,0,1-.052-1.287V-5.954a3.33,3.33,0,0,1,.559.65,10.049,10.049,0,0,0,1.664-2.444h3.016A33.411,33.411,0,0,1,17.446-.91c-.117.377-.312.481-.871.481a10.728,10.728,0,0,1-1.664-.182A4.43,4.43,0,0,1,15.275.871c.65.039.975.052,1.287.052,2,0,2.34-.494,2.587-3.783.052-.663.169-3.666.195-5.278A7.55,7.55,0,0,1,19.4-9.165a7.621,7.621,0,0,1-1.1.052H15.522c.117-.3.325-.9.377-1.092a3.637,3.637,0,0,1,.182-.507l-1.495-.247a9.77,9.77,0,0,1-1.9,4.095V-7.956c0-.663.013-.7.013-.728a3.7,3.7,0,0,1,.026-.39c-.1.013-.481.026-1.118.039h-.715a14.35,14.35,0,0,0,.663-1.69l-1.495-.208a9.388,9.388,0,0,1-.559,1.9ZM9.49-7.774h1.859v2.3H9.49Zm0,3.562h1.859V-1.7H9.49ZM16.926-3a16.924,16.924,0,0,0-1.807-3.224l-1.183.637a12.633,12.633,0,0,1,1.677,3.3Zm13.559-4.16V-8.918h1.352c.637,0,1.157.026,1.534.065V-10.3a11.969,11.969,0,0,1-1.586.078H26.351a11.221,11.221,0,0,1-1.534-.078v1.443c.416-.039.9-.065,1.534-.065h.637v1.755H25.766a10.212,10.212,0,0,1-1.2-.052,9.172,9.172,0,0,1,.065,1.248V-.4a12.655,12.655,0,0,1-.078,1.43h1.456V.312h5.512v.715h1.482A15.3,15.3,0,0,1,32.929-.6v-5.4a10.557,10.557,0,0,1,.052-1.222,9.6,9.6,0,0,1-1.17.052Zm-1.248,0h-1V-8.918h1ZM26.988-5.915V-.949h-1.04V-5.915Zm1.248,0h1V-.949h-1Zm2.249,0h1.092V-.949H30.485Zm-8.112,5.5A13.647,13.647,0,0,1,22.3,1.105H23.79A11.233,11.233,0,0,1,23.725-.4V-7.657A18.514,18.514,0,0,0,24.57-9.8c.1-.3.143-.416.247-.715l-1.4-.572A7.6,7.6,0,0,1,22.932-9.3a9.848,9.848,0,0,1-1.95,3.38,8.064,8.064,0,0,1,.559,1.547,8.408,8.408,0,0,0,.871-1.339c-.039.65-.039.884-.039,1.417Zm19.734-8.19c-.065.325-.1.494-.195.858h-.195c-.546,0-.754,0-1.053-.026A10.168,10.168,0,0,1,40.7-6.708v4.264c0,.4-.013.715-.039,1.027.494-.039.7-.039,1.092-.039H45.1c.39,0,.624.013,1.1.039-.026-.39-.039-.624-.039-1.157V-6.513a11.41,11.41,0,0,1,.052-1.274,10.883,10.883,0,0,1-1.1.039H43.251c.1-.481.1-.481.182-.858H45.8a11.585,11.585,0,0,1,1.2.052V-9.919a7.866,7.866,0,0,1-1.352.078H43.68c.052-.338.052-.338.169-1l-1.43-.078c-.039.507-.052.624-.1,1.079H40a9.156,9.156,0,0,1-1.378-.065v1.352a11,11,0,0,1,1.222-.052Zm-.091,1.963H44.85v.676H42.016Zm0,1.651H44.85V-4.3H42.016Zm0,1.664H44.85v.767H42.016ZM36.127-.455a11.1,11.1,0,0,1-.078,1.521h1.5c-.039-.494-.065-.923-.065-1.508V-7.735a17.047,17.047,0,0,0,1.092-2.925L37.1-11.011A7.526,7.526,0,0,1,36.6-9.165a9.357,9.357,0,0,1-1.924,3.237,8.23,8.23,0,0,1,.585,1.547,10.025,10.025,0,0,0,.91-1.352c-.026.637-.039.949-.039,1.443Zm3.614,1.547V.468h5.72A11.474,11.474,0,0,1,46.9.546V-.845a10.532,10.532,0,0,1-1.43.065H39.741V-6.227a11.275,11.275,0,0,1,.065-1.482H38.35a10.8,10.8,0,0,1,.078,1.469V-.52a12.921,12.921,0,0,1-.065,1.612Z" transform="translate(-3625 -8002)" fill="#fff"/>
    <path id="パス_54857" data-name="パス 54857" d="M11,0H51a11,11,0,0,1,0,22H11A11,11,0,0,1,11,0Z" transform="translate(-3652 -7902)" fill="#fff"/>
    <path id="パス_54858" data-name="パス 54858" d="M-18.438-9.6h-1.274A10.086,10.086,0,0,1-21.1-9.688v1.526a9.007,9.007,0,0,1,1.3-.07h2.59a13.575,13.575,0,0,1-.546,2.968c-.532-.616-.77-.882-.882-.994-.826-.854-.826-.854-1.106-1.134l-1.022,1.036a25.47,25.47,0,0,1,2.38,2.576,9.717,9.717,0,0,1-2.87,3.43,5.011,5.011,0,0,1,1.064,1.3A13.759,13.759,0,0,0-17.4-2.506a20.108,20.108,0,0,1,1.61,2.422l1.106-1.232c-.994-1.4-1.106-1.554-1.988-2.674a14.341,14.341,0,0,0,.952-4.242,10.446,10.446,0,0,1,1.092.042v-1.5a7.477,7.477,0,0,1-1.344.084h-.994v-.784A11.111,11.111,0,0,1-16.9-11.7h-1.624a6.631,6.631,0,0,1,.084,1.316Zm7.224,2.128V-.8c0,.294-.084.336-.84.336A14.065,14.065,0,0,1-13.748-.63,4.639,4.639,0,0,1-13.314.924c.56.042,1.078.056,1.652.056.924,0,1.428-.14,1.694-.476.21-.252.252-.49.252-1.218V-7.476h.182a8.136,8.136,0,0,1,.98.042l.322.042V-8.96a8.028,8.028,0,0,1-1.316.084h-.168V-9.982a12.607,12.607,0,0,1,.084-1.666h-1.68a9.392,9.392,0,0,1,.1,1.666v1.106h-1.778a8.5,8.5,0,0,1-1.33-.07v1.54a8.723,8.723,0,0,1,1.33-.07Zm-3.822,1.554a12.481,12.481,0,0,1,1.96,3.388l1.274-.84a17.581,17.581,0,0,0-1.974-3.234ZM0-9.03l-1.078.952A13.469,13.469,0,0,1,2.478-5.516l1.078-1.19A17.831,17.831,0,0,0,.056-9.03H4.69a13.549,13.549,0,0,1,1.638.07v-1.554a11.944,11.944,0,0,1-1.652.084H1.05v-.6a3.161,3.161,0,0,1,.07-.812H-.574a3.6,3.6,0,0,1,.07.8v.616h-3.57A11.259,11.259,0,0,1-5.53-10.5c.042.476.056.952.056,1.96a39.274,39.274,0,0,1-.294,5.922,6.8,6.8,0,0,1-.91,2.436,5.371,5.371,0,0,1,1.26,1.2C-4.242-1.162-3.99-2.94-3.976-9.03ZM-2.674.1a18.288,18.288,0,0,0,1.106-5.53L-3.024-5.81a17.435,17.435,0,0,1-.308,2.7,8.481,8.481,0,0,1-.756,2.3ZM-.938-6.636a6.232,6.232,0,0,1,.084,1.3V-.07c0,.84.49,1.05,2.436,1.05C2.772.98,3.346.826,3.654.434s.434-1.092.546-3.01a6.113,6.113,0,0,1-1.484-.49C2.716-.546,2.7-.49,1.6-.49.756-.49.644-.546.644-.924v-4.4a10.1,10.1,0,0,1,.07-1.316ZM6.552-.868A25.142,25.142,0,0,0,4.774-5.88l-1.33.658A16.808,16.808,0,0,1,5.054-.154Zm8.288-8.12a18.134,18.134,0,0,1,.154-2.786H13.132a7.369,7.369,0,0,1,.084,1.358c0,.728,0,.868-.028,1.428H10.7a12.114,12.114,0,0,1-1.778-.1v1.68a14.79,14.79,0,0,1,1.736-.084H13.09a10.268,10.268,0,0,1-.882,3.458A7.422,7.422,0,0,1,8.26-.546,4.728,4.728,0,0,1,9.422.91a9.753,9.753,0,0,0,4.032-3.738A12.1,12.1,0,0,0,14.728-7.49h3.794A40.892,40.892,0,0,1,18.2-2.03c-.154.938-.364,1.19-1.022,1.19a12.362,12.362,0,0,1-2.408-.28A6.545,6.545,0,0,1,15.162.574,16.142,16.142,0,0,0,17.3.728,2.765,2.765,0,0,0,18.97.35c.434-.308.63-.8.812-2.086.14-.924.28-3.29.322-5.208a18.935,18.935,0,0,1,.084-2.114,15.206,15.206,0,0,1-1.806.07Z" transform="translate(-3621 -7886)" fill="#d80576"/>
    <path id="パス_54859" data-name="パス 54859" d="M11,0H53a11,11,0,0,1,0,22H11A11,11,0,0,1,11,0Z" transform="translate(-3689 -7930)" fill="#fff"/>
    <path id="パス_54861" data-name="パス 54861" d="M-18.088-9.94a7.209,7.209,0,0,1-.588,1.456h-.686a10.877,10.877,0,0,1-1.33-.056q.042.651.042,1.344V-.532a12.464,12.464,0,0,1-.07,1.638h1.442a12.077,12.077,0,0,1-.07-1.638V-7.168h.574V-1.19c0,.5-.014,1.05-.056,1.47h1.274a12.34,12.34,0,0,1-.056-1.47V-7.168h.546v5.712c0,.5-.014,1.05-.056,1.47h.7a6.26,6.26,0,0,1,.14.924c.588.014.588.014.658.014,1.19,0,1.568-.35,1.568-1.456V-7.2A13.006,13.006,0,0,1-14-8.554a7.36,7.36,0,0,1-1.246.07h-1.89a11.542,11.542,0,0,0,.56-1.456h1.54a10.938,10.938,0,0,1,1.428.07v-1.512a10.106,10.106,0,0,1-1.442.084h-4.606a9.681,9.681,0,0,1-1.414-.084V-9.87a9.047,9.047,0,0,1,1.414-.07ZM-15.9-7.168h.588v6.44c0,.238-.07.322-.252.322a1.718,1.718,0,0,1-.238-.014l-.084-.014C-15.9-.672-15.9-.91-15.9-1.456Zm5.11-.392V-.854c0,.294-.14.378-.574.378A13.982,13.982,0,0,1-13.034-.6,5.876,5.876,0,0,1-12.67.952c.434.028.826.042,1.26.042C-9.674.994-9.3.728-9.3-.518V-7.56a7.214,7.214,0,0,1,1.246.084V-9.058A9.875,9.875,0,0,1-9.3-8.974V-10.08a13.271,13.271,0,0,1,.084-1.652h-1.666a12.662,12.662,0,0,1,.084,1.652v1.106h-1.694a6.361,6.361,0,0,1-1.246-.084v1.582A7.61,7.61,0,0,1-12.5-7.56Zm-.294,4.382a16.374,16.374,0,0,0-1.484-3.458l-1.2.6a13.507,13.507,0,0,1,1.372,3.5ZM1.3-8.484A12.244,12.244,0,0,1-1.806-3.472,14.413,14.413,0,0,1-6.454-.35,3.956,3.956,0,0,1-5.4,1.05,14.867,14.867,0,0,0-3.7.112a18.174,18.174,0,0,0,2.212-1.68A18,18,0,0,0,.63-3.808,12.268,12.268,0,0,0,5.572,1.064,5.113,5.113,0,0,1,6.65-.5a7.745,7.745,0,0,1-1.484-.8,10.951,10.951,0,0,1-2.114-1.75A11.261,11.261,0,0,1,1.54-5.18,18.357,18.357,0,0,0,3.01-8.26c.21-.588.21-.588.364-.952L2.6-9.968a5.569,5.569,0,0,1-1.092.07H-.91c.154-.364.28-.644.406-.938a4.486,4.486,0,0,1,.28-.644L-2-11.76a6.275,6.275,0,0,1-.686,1.918,11.039,11.039,0,0,1-3.43,4.06A4,4,0,0,1-4.9-4.578,13.417,13.417,0,0,0-1.61-8.484Zm13.538-.5a18.134,18.134,0,0,1,.154-2.786H13.132a7.369,7.369,0,0,1,.084,1.358c0,.728,0,.868-.028,1.428H10.7a12.114,12.114,0,0,1-1.778-.1v1.68a14.79,14.79,0,0,1,1.736-.084H13.09a10.268,10.268,0,0,1-.882,3.458A7.422,7.422,0,0,1,8.26-.546,4.728,4.728,0,0,1,9.422.91a9.753,9.753,0,0,0,4.032-3.738A12.1,12.1,0,0,0,14.728-7.49h3.794A40.892,40.892,0,0,1,18.2-2.03c-.154.938-.364,1.19-1.022,1.19a12.362,12.362,0,0,1-2.408-.28A6.545,6.545,0,0,1,15.162.574,16.142,16.142,0,0,0,17.3.728,2.765,2.765,0,0,0,18.97.35c.434-.308.63-.8.812-2.086.14-.924.28-3.29.322-5.208a18.935,18.935,0,0,1,.084-2.114,15.206,15.206,0,0,1-1.806.07Z" transform="translate(-3657 -7914)" fill="#d80576"/>
    <path id="パス_54860" data-name="パス 54860" d="M11,0H53a11,11,0,0,1,0,22H11A11,11,0,0,1,11,0Z" transform="translate(-3617 -7930)" fill="#fff"/>
    <path id="パス_54862" data-name="パス 54862" d="M-9.968-5.348a11.232,11.232,0,0,1,1.54.084V-6.846a10.141,10.141,0,0,1-1.54.07h-5.32c.364-.77.364-.77.546-1.134l.28-.588-1.68-.252a8.994,8.994,0,0,1-.84,1.974H-19.39a10.156,10.156,0,0,1-1.526-.07v1.582a10.732,10.732,0,0,1,1.526-.084h1.61A19.534,19.534,0,0,1-19.46-3.01a29.171,29.171,0,0,1,3.752,1.162,12.736,12.736,0,0,1-5.236,1.5,6.91,6.91,0,0,1,.77,1.5A13.522,13.522,0,0,0-14.112-1.19,27.73,27.73,0,0,1-9.8,1.106L-8.638-.182a36.845,36.845,0,0,0-4.3-2.058,8.519,8.519,0,0,0,1.778-3.108Zm-2.814,0a5.914,5.914,0,0,1-1.624,2.534c-.994-.364-1.33-.462-2.716-.868a18.419,18.419,0,0,0,1.078-1.666Zm-2.842-5.1h-3.542a13.053,13.053,0,0,1-1.61-.07,9.7,9.7,0,0,1,.07,1.078V-8.4a7.383,7.383,0,0,1-.07,1.036h1.54v-1.68h9.044v1.68h1.54A5.833,5.833,0,0,1-8.722-8.4V-9.436a8.955,8.955,0,0,1,.056-1.078,13.192,13.192,0,0,1-1.61.07h-3.78V-10.7a7.294,7.294,0,0,1,.07-1.05h-1.708a6.165,6.165,0,0,1,.07,1.064ZM-.6-1.162A4.057,4.057,0,0,1-2.73-3.108c.21-.658.294-.98.364-1.26.126-.574.126-.588.2-.826l-1.554-.294A8.678,8.678,0,0,1-4-3.976,8.289,8.289,0,0,1-6.412-.014a3.81,3.81,0,0,1,1.2,1.148A9.918,9.918,0,0,0-3.29-1.61C-2.142.084-.308.8,2.968.8,4.074.8,4.8.784,5.95.756a5.445,5.445,0,0,1,.392-1.6c-1.428.126-2.38.168-3.192.168A16.366,16.366,0,0,1,.868-.812V-3.22H3.514a9.451,9.451,0,0,1,1.372.07v-1.5a7.181,7.181,0,0,1-1.372.084H.868V-6.356H2.7a10.037,10.037,0,0,1,1.442.07V-7.77A9.8,9.8,0,0,1,2.7-7.7H-2.66a9.383,9.383,0,0,1-1.414-.07v1.484a9.966,9.966,0,0,1,1.414-.07H-.6Zm-.238-9.17H-4.494c-.56,0-1.036-.014-1.54-.056.028.322.056.672.056,1.036v1.078a6.187,6.187,0,0,1-.07,1.106h1.554v-1.75H4.55v1.75H6.062A9.039,9.039,0,0,1,6.006-8.26V-9.352a7.7,7.7,0,0,1,.056-1.036c-.518.042-.994.056-1.554.056H.728v-.532a4.251,4.251,0,0,1,.07-.882H-.924a4.531,4.531,0,0,1,.084.9ZM14.84-8.988a18.134,18.134,0,0,1,.154-2.786H13.132a7.369,7.369,0,0,1,.084,1.358c0,.728,0,.868-.028,1.428H10.7a12.114,12.114,0,0,1-1.778-.1v1.68a14.79,14.79,0,0,1,1.736-.084H13.09a10.268,10.268,0,0,1-.882,3.458A7.422,7.422,0,0,1,8.26-.546,4.728,4.728,0,0,1,9.422.91a9.753,9.753,0,0,0,4.032-3.738A12.1,12.1,0,0,0,14.728-7.49h3.794A40.892,40.892,0,0,1,18.2-2.03c-.154.938-.364,1.19-1.022,1.19a12.362,12.362,0,0,1-2.408-.28A6.545,6.545,0,0,1,15.162.574,16.142,16.142,0,0,0,17.3.728,2.765,2.765,0,0,0,18.97.35c.434-.308.63-.8.812-2.086.14-.924.28-3.29.322-5.208a18.935,18.935,0,0,1,.084-2.114,15.206,15.206,0,0,1-1.806.07Z" transform="translate(-3585 -7914)" fill="#d80576"/>
    <g transform="matrix(1, 0, 0, 1, -3904, -8085)" filter="url(#パス_512)">
      <path id="パス_512-2" data-name="パス 512" d="M108,0A108,108,0,1,1,0,108,108,108,0,0,1,108,0Z" transform="translate(30 324)" fill="url(#linear-gradient)"/>
    </g>
    <path id="パス_54848" data-name="パス 54848" d="M-42.579-16.173c-.243-.891-.351-1.242-.567-1.917a17.838,17.838,0,0,1-.945-3.186l-3.348.945A29.524,29.524,0,0,1-45.6-15.309c-1.3.4-1.512.459-2.619.837a15.4,15.4,0,0,1-2.457.7l1.053,3.159a31.24,31.24,0,0,1,3.483-1.377,12.632,12.632,0,0,0,1.35-.486C-43.119-6.669-41.634-.27-41.5,1.89l3.564-.81a7.215,7.215,0,0,1-.4-1.3c-1.62-6.75-1.755-7.263-3.429-13.122,4.563-1.35,6.183-1.674,8.1-1.674,2.268,0,3.591,1,3.591,2.7a2.792,2.792,0,0,1-1.107,2.3,5.415,5.415,0,0,1-3.051.891,10.2,10.2,0,0,1-4.32-1.053,11.9,11.9,0,0,1,.486,3.321,13.2,13.2,0,0,0,4.185.756,7.589,7.589,0,0,0,5-1.593,6.126,6.126,0,0,0,2.187-4.7c0-3.321-2.511-5.508-6.318-5.508-.54,0-.918.027-1.566.081a30.107,30.107,0,0,1,.135-4.32h-3.4a15.849,15.849,0,0,1,.162,3.24c.027.945.027.945.027,1.485-1.08.216-1.539.324-2.295.513Zm19.818,2.3a10.146,10.146,0,0,1,1.188-.081,94.091,94.091,0,0,0,9.585-.648A29.857,29.857,0,0,0-9.072-9.693a12.544,12.544,0,0,0-4.671-.81c-3.078,0-5.319.621-6.885,1.944a5.252,5.252,0,0,0-1.944,4.023A5.036,5.036,0,0,0-20.979-.891c1.377,1.323,4.05,2.052,7.506,2.052A27.873,27.873,0,0,0-4.914-.3l-.432-3.456a18.76,18.76,0,0,1-8.127,1.809c-3.672,0-5.67-.972-5.67-2.727,0-1.917,2.16-3.024,5.832-3.024a13.532,13.532,0,0,1,4.266.621A4.771,4.771,0,0,1-7.182-5.913L-4.05-7.344c-.945-1.269-2.133-3.024-2.862-4.266-.27-.486-.891-1.62-1.863-3.429q3.362-.648,3.969-.81c.918-.189,1.215-.27,1.917-.378l-.378-3.213a41.083,41.083,0,0,1-6.615,1.593,22.622,22.622,0,0,1-1.485-4.32l-3.483.459c.135.216,1.3,3.078,1.755,4.266-1.674.216-5.265.459-7.29.459A18.51,18.51,0,0,1-23-17.118ZM4.833-21.573a13.428,13.428,0,0,1,.108,1.836c0,.378,0,.945-.027,1.755C4.752-11.2,4.7-8.505,4.7-7.1c0,3.618.783,5.7,2.646,6.939a8.8,8.8,0,0,0,4.725,1.188,10.219,10.219,0,0,0,8.1-3.429c1.323-1.485,2.133-3.24,3.213-6.885a11.66,11.66,0,0,1-3.267-2.079,18.1,18.1,0,0,1-1.242,4.536,6.947,6.947,0,0,1-6.534,4.617,4.275,4.275,0,0,1-3.618-1.4c-.54-.81-.7-1.782-.7-4.347,0-1.917.162-7.4.27-9.909a24.681,24.681,0,0,1,.324-3.645ZM41.58-22.41a13.385,13.385,0,0,1-1.971,2.241A60.516,60.516,0,0,1,33.372-14.9,16.557,16.557,0,0,0,31-12.96a3.154,3.154,0,0,0-.891,2.187c0,1.242.486,1.971,2.268,3.348a85.636,85.636,0,0,1,6.966,5.751,26.081,26.081,0,0,1,3.51,3.7L45.63-.783a6.732,6.732,0,0,1-.783-.675,90.755,90.755,0,0,0-8.505-7.047c-2.376-1.782-2.43-1.836-2.43-2.241,0-.3.189-.513,1.026-1.134,3.159-2.4,5.049-3.915,6.426-5.184a41.188,41.188,0,0,1,3.321-2.97Z" transform="translate(-3767 -7665)" fill="#fff"/>
    <path id="パス_54849" data-name="パス 54849" d="M-41.8-7.1v2.262h-2.431A9.28,9.28,0,0,1-45.591-4.9v1.469A11.421,11.421,0,0,1-44.122-3.5H-41.8V-.806h-3.3a14.928,14.928,0,0,1-1.716-.078V.65A13.864,13.864,0,0,1-45.045.559h8.281A13.456,13.456,0,0,1-35.087.65V-.884A16.778,16.778,0,0,1-36.8-.806h-3.471V-3.5h2.548a9.836,9.836,0,0,1,1.365.065V-4.9a13.975,13.975,0,0,1-1.4.065h-2.509V-7.1h3.042a12.352,12.352,0,0,1,1.573.065V-8.528a13.323,13.323,0,0,1-1.573.078h-7.514a10.382,10.382,0,0,1-1.573-.078v1.495A10.684,10.684,0,0,1-44.733-7.1Zm-1.6-2.925a15.375,15.375,0,0,1,3.445,1.508l.975-1.17a23.1,23.1,0,0,0-3.367-1.378ZM-30.368.312c-.013-.169-.013-.273-.013-.351a10.672,10.672,0,0,1,1.157-3.939l-1.04-.468A13.258,13.258,0,0,0-30.94-2.73c.013-.325.026-.429.026-.715a21.706,21.706,0,0,1,.195-2.873A17.923,17.923,0,0,1-29.9-10.2l-1.716-.182a8.506,8.506,0,0,1-.195,1.209,24.957,24.957,0,0,0-.533,5.083,22.676,22.676,0,0,0,.338,3.887c.039.3.052.377.065.611Zm1.794-7.787a15.432,15.432,0,0,0,2.34.143,23.286,23.286,0,0,0,2.782-.156c.624-.078.819-.1.923-.117l-.078-1.573a14.336,14.336,0,0,1-3.536.351,9.373,9.373,0,0,1-2.4-.208Zm.9,2.145a4.247,4.247,0,0,0-1.2,2.678,2.178,2.178,0,0,0,.39,1.274c.572.767,1.612,1.131,3.224,1.131a16.031,16.031,0,0,0,2.691-.247,4.345,4.345,0,0,1,.533-.078l-.13-1.651a9.136,9.136,0,0,1-3.094.494c-1.352,0-2.067-.39-2.067-1.131A2.941,2.941,0,0,1-26.4-4.732ZM-16.25-4.017a7.136,7.136,0,0,0,1.677,1.469,5.544,5.544,0,0,1,.715-1.274,7.665,7.665,0,0,1-2.067-1.651,10.681,10.681,0,0,0,1.3-2.223,3.614,3.614,0,0,1,.286-.546l-.624-.676a4.735,4.735,0,0,1-.754.039h-.533V-9.945a5.541,5.541,0,0,1,.078-1.014h-1.573a5.969,5.969,0,0,1,.078.988v1.092h-.65a7.937,7.937,0,0,1-1.027-.052v1.443a8.9,8.9,0,0,1,1.092-.052h2.119a7.724,7.724,0,0,1-1.417,2,8.966,8.966,0,0,1-2.236,1.755,5.037,5.037,0,0,1,.663,1.352A8.761,8.761,0,0,0-17.68-3.536V-.273a7.777,7.777,0,0,1-.078,1.352h1.573A9.231,9.231,0,0,1-16.25-.247Zm5.512-1.924H-9.36c.455,0,.858.026,1.274.065V-7.345A8.455,8.455,0,0,1-9.36-7.28h-1.378V-9.568a7.621,7.621,0,0,1,.091-1.352h-1.625a9.2,9.2,0,0,1,.091,1.352V-7.28h-.975a8.776,8.776,0,0,1-1.274-.065v1.469c.416-.039.832-.065,1.274-.065h.975V-.858H-13.6a11.788,11.788,0,0,1-1.495-.078V.637A10.484,10.484,0,0,1-13.624.546h4.446A10.675,10.675,0,0,1-7.7.637V-.936a11.151,11.151,0,0,1-1.482.078h-1.56Zm7.449.273A10.4,10.4,0,0,1-2.171-5.72H2.171a9.875,9.875,0,0,1,1.17.052V-6.682A13.862,13.862,0,0,0,5.564-5.5a5.789,5.789,0,0,1,.715-1.456A13.741,13.741,0,0,1,2.938-8.71a7.9,7.9,0,0,1-2.2-2.158H-.806A8.56,8.56,0,0,1-2.86-8.684,12.131,12.131,0,0,1-6.123-6.877a6.038,6.038,0,0,1,.754,1.326,12.232,12.232,0,0,0,2.08-1.118Zm1.131-1.4c-.234,0-.312,0-.533-.013a11.1,11.1,0,0,0,2.7-2.522A10.59,10.59,0,0,0,2.73-7.085c-.247.013-.364.013-.572.013Zm.13,3.757a13.461,13.461,0,0,1-1.391,2.6c-.663.039-1.053.052-1.144.052-.182,0-.4-.013-.754-.039L-5.109.884A15.459,15.459,0,0,1-3.432.7C-2.912.663-.338.429.949.312,1.43.26,2.21.169,3.289.026c.221.312.351.494.78,1.131L5.317.338a26.6,26.6,0,0,0-3-3.471l-1.287.572c.728.754.949.988,1.365,1.443-1.82.195-1.82.195-4.121.325A14.132,14.132,0,0,0-.377-3.315H4.1a12.1,12.1,0,0,1,1.521.078V-4.745A12.24,12.24,0,0,1,4.1-4.667H-4a12.768,12.768,0,0,1-1.534-.078v1.508A12.179,12.179,0,0,1-4-3.315ZM9.243-9.035H8.788A6.3,6.3,0,0,1,8.1-9.074a10.71,10.71,0,0,1,.052,1.326v6.76A13.334,13.334,0,0,1,8.086.689H9.5V-.455h1.846v.78H12.74a12.608,12.608,0,0,1-.052-1.287V-5.954a3.33,3.33,0,0,1,.559.65,10.049,10.049,0,0,0,1.664-2.444h3.016A33.411,33.411,0,0,1,17.446-.91c-.117.377-.312.481-.871.481a10.728,10.728,0,0,1-1.664-.182A4.43,4.43,0,0,1,15.275.871c.65.039.975.052,1.287.052,2,0,2.34-.494,2.587-3.783.052-.663.169-3.666.195-5.278A7.55,7.55,0,0,1,19.4-9.165a7.621,7.621,0,0,1-1.1.052H15.522c.117-.3.325-.9.377-1.092a3.637,3.637,0,0,1,.182-.507l-1.495-.247a9.77,9.77,0,0,1-1.9,4.095V-7.956c0-.663.013-.7.013-.728a3.7,3.7,0,0,1,.026-.39c-.1.013-.481.026-1.118.039h-.715a14.35,14.35,0,0,0,.663-1.69l-1.495-.208a9.388,9.388,0,0,1-.559,1.9ZM9.49-7.774h1.859v2.3H9.49Zm0,3.562h1.859V-1.7H9.49ZM16.926-3a16.924,16.924,0,0,0-1.807-3.224l-1.183.637a12.633,12.633,0,0,1,1.677,3.3Zm13.559-4.16V-8.918h1.352c.637,0,1.157.026,1.534.065V-10.3a11.969,11.969,0,0,1-1.586.078H26.351a11.221,11.221,0,0,1-1.534-.078v1.443c.416-.039.9-.065,1.534-.065h.637v1.755H25.766a10.212,10.212,0,0,1-1.2-.052,9.172,9.172,0,0,1,.065,1.248V-.4a12.655,12.655,0,0,1-.078,1.43h1.456V.312h5.512v.715h1.482A15.3,15.3,0,0,1,32.929-.6v-5.4a10.557,10.557,0,0,1,.052-1.222,9.6,9.6,0,0,1-1.17.052Zm-1.248,0h-1V-8.918h1ZM26.988-5.915V-.949h-1.04V-5.915Zm1.248,0h1V-.949h-1Zm2.249,0h1.092V-.949H30.485Zm-8.112,5.5A13.647,13.647,0,0,1,22.3,1.105H23.79A11.233,11.233,0,0,1,23.725-.4V-7.657A18.514,18.514,0,0,0,24.57-9.8c.1-.3.143-.416.247-.715l-1.4-.572A7.6,7.6,0,0,1,22.932-9.3a9.848,9.848,0,0,1-1.95,3.38,8.064,8.064,0,0,1,.559,1.547,8.408,8.408,0,0,0,.871-1.339c-.039.65-.039.884-.039,1.417Zm19.734-8.19c-.065.325-.1.494-.195.858h-.195c-.546,0-.754,0-1.053-.026A10.168,10.168,0,0,1,40.7-6.708v4.264c0,.4-.013.715-.039,1.027.494-.039.7-.039,1.092-.039H45.1c.39,0,.624.013,1.1.039-.026-.39-.039-.624-.039-1.157V-6.513a11.41,11.41,0,0,1,.052-1.274,10.883,10.883,0,0,1-1.1.039H43.251c.1-.481.1-.481.182-.858H45.8a11.585,11.585,0,0,1,1.2.052V-9.919a7.866,7.866,0,0,1-1.352.078H43.68c.052-.338.052-.338.169-1l-1.43-.078c-.039.507-.052.624-.1,1.079H40a9.156,9.156,0,0,1-1.378-.065v1.352a11,11,0,0,1,1.222-.052Zm-.091,1.963H44.85v.676H42.016Zm0,1.651H44.85V-4.3H42.016Zm0,1.664H44.85v.767H42.016ZM36.127-.455a11.1,11.1,0,0,1-.078,1.521h1.5c-.039-.494-.065-.923-.065-1.508V-7.735a17.047,17.047,0,0,0,1.092-2.925L37.1-11.011A7.526,7.526,0,0,1,36.6-9.165a9.357,9.357,0,0,1-1.924,3.237,8.23,8.23,0,0,1,.585,1.547,10.025,10.025,0,0,0,.91-1.352c-.026.637-.039.949-.039,1.443Zm3.614,1.547V.468h5.72A11.474,11.474,0,0,1,46.9.546V-.845a10.532,10.532,0,0,1-1.43.065H39.741V-6.227a11.275,11.275,0,0,1,.065-1.482H38.35a10.8,10.8,0,0,1,.078,1.469V-.52a12.921,12.921,0,0,1-.065,1.612Z" transform="translate(-3770 -7709)" fill="#fff"/>
    <path id="パス_54851" data-name="パス 54851" d="M11,0H53a11,11,0,0,1,0,22H11A11,11,0,0,1,11,0Z" transform="translate(-3797 -7607)" fill="#fff"/>
    <path id="パス_54852" data-name="パス 54852" d="M3.85-9.184H2.814a12.12,12.12,0,0,1-1.54-.084V-7.6a14.429,14.429,0,0,1,1.54-.07H3.85v2.94H2.478a12.325,12.325,0,0,1-1.792-.1v1.708a12.582,12.582,0,0,1,1.792-.1H11.55a12.8,12.8,0,0,1,1.806.1V-4.83a12.371,12.371,0,0,1-1.82.1H10.108v-2.94h1.148a15.328,15.328,0,0,1,1.582.07V-9.268a12.218,12.218,0,0,1-1.582.084H10.108v-.9a10.131,10.131,0,0,1,.084-1.47H8.47a7.556,7.556,0,0,1,.084,1.456v.91H5.4v-.938a8.959,8.959,0,0,1,.084-1.442H3.766a9.406,9.406,0,0,1,.084,1.456ZM5.4-4.732v-2.94h3.15v2.94ZM4.62-2.94A5.975,5.975,0,0,1,3-1.372,9.805,9.805,0,0,1,.7-.182a6.534,6.534,0,0,1,1.064,1.3A10.906,10.906,0,0,0,3.808-.07,10.193,10.193,0,0,0,5.95-2.114Zm3.4.868A11.086,11.086,0,0,0,9.9-.322a11.68,11.68,0,0,0,2.464,1.5A5.879,5.879,0,0,1,13.4-.2,11.879,11.879,0,0,1,11.242-1.26,7.511,7.511,0,0,1,9.31-2.954ZM17.388,0a8.074,8.074,0,0,1-.07,1.12h1.456V.5h2.24v.42h1.47A8.5,8.5,0,0,1,22.428-.2V-1.862a7.554,7.554,0,0,1,.042-1.022c-.322.028-.588.042-.966.042H18.242c-.336,0-.5,0-.742-.014.028-.154.056-.28.084-.546H21.35c.378,0,.574.014.966.028a10.087,10.087,0,0,1-.042-1.05v-2.31c0-.42.014-.742.042-1.05-.392.028-.6.042-1.106.042H17.654c-.5,0-.714,0-1.148-.028.308-.21.756-.546,1.2-.924v.49a5.742,5.742,0,0,1,.812-.042h1.96a6.706,6.706,0,0,1,.8.042v-.644a13.2,13.2,0,0,0,1.148.7,5.582,5.582,0,0,1,.728-1.358A8.387,8.387,0,0,1,20.09-11.69H18.536A7.178,7.178,0,0,1,17.374-10.4,10.641,10.641,0,0,1,15.05-8.75a4.715,4.715,0,0,1,1.008,1.274l.252-.168c.028.42.042.686.042,1.246,0,2.968-.35,4.578-1.316,6.048A6.507,6.507,0,0,1,16.17.882a10.164,10.164,0,0,0,1.2-3.108,3.545,3.545,0,0,1,.014.406Zm.392-6.076V-6.65h3.052v.574Zm3.052,1.022v.56H17.7a4.407,4.407,0,0,0,.042-.56Zm-2.3-4.256h-.154A9.042,9.042,0,0,0,19.4-10.458,8.734,8.734,0,0,0,20.636-9.31h-2.1Zm.252,7.574H21v1.12H18.788ZM23.31-10.71a12.909,12.909,0,0,1,.07,1.484v5.558a9.731,9.731,0,0,1-.07,1.5h1.582a9.494,9.494,0,0,1-.056-1.484v-5.6a9.441,9.441,0,0,1,.07-1.456Zm2.814-.952a13.083,13.083,0,0,1,.084,1.736V-.9c0,.35-.126.434-.644.434A12.127,12.127,0,0,1,23.926-.6,5.117,5.117,0,0,1,24.29.882c.952.042.994.042,1.3.042,1.708,0,2.086-.294,2.086-1.61V-9.968a9.928,9.928,0,0,1,.084-1.694ZM36.526-8.9c.07-.364.168-.938.21-1.2a3.539,3.539,0,0,1,.1-.5l-1.5-.28a11.814,11.814,0,0,1-.6,3.234,11.474,11.474,0,0,0-.644-1.778l-.938.448A8,8,0,0,1,33.8-6.9l.812-.392a5.8,5.8,0,0,1-.742,1.4,8.852,8.852,0,0,1,1.26.784c-.1-.014-.126-.014-.224-.028v1.512a11.6,11.6,0,0,1,1.554-.084h1.26V-.742H35.49a12.662,12.662,0,0,1-1.652-.084V.756a11.388,11.388,0,0,1,1.652-.1h5.628a11.313,11.313,0,0,1,1.638.1V-.826a12.571,12.571,0,0,1-1.638.084h-1.9V-3.71H40.6a10.464,10.464,0,0,1,1.526.084V-5.138a10.526,10.526,0,0,1-1.512.07h-1.4v-2.45h1.652a12.853,12.853,0,0,1,1.526.084V-8.988a9.911,9.911,0,0,1-1.54.084H39.214v-1.4a9.3,9.3,0,0,1,.1-1.484H37.618a9.414,9.414,0,0,1,.1,1.484v1.4Zm1.19,1.386v2.45h-1.47c-.448,0-.756-.014-1.064-.042A10.43,10.43,0,0,0,36.19-7.518ZM30.87-5a17.522,17.522,0,0,0,.518-3.92l-1.134-.14a12.565,12.565,0,0,1-.5,3.64Zm2.338,6.16A13.588,13.588,0,0,1,33.124-.49v-9.856a11.344,11.344,0,0,1,.084-1.484h-1.68a9.3,9.3,0,0,1,.1,1.484V-.6a13.368,13.368,0,0,1-.1,1.764Z" transform="translate(-3786.596 -7591.565)" fill="#d80576"/>
    <path id="パス_54855" data-name="パス 54855" d="M11,0H53a11,11,0,0,1,0,22H11A11,11,0,0,1,11,0Z" transform="translate(-3833 -7637)" fill="#fff"/>
    <path id="パス_54856" data-name="パス 54856" d="M12.138-2.926a2.272,2.272,0,0,1,.476.028,6.649,6.649,0,0,1-.042-.84v-1.19a7.573,7.573,0,0,1,.042-.882c-.308.028-.7.042-1.26.042H6.272c-.476,0-.84-.014-1.176-.042a7.313,7.313,0,0,1,.042.868V-3.78a4.488,4.488,0,0,1-.056.882A10.881,10.881,0,0,1,6.2-2.94h1.12A8.775,8.775,0,0,1,3.29-.406,4.234,4.234,0,0,1,4.214.868,9.647,9.647,0,0,0,7.8-1.694c-.028.28-.042.728-.042.98V.042a6.82,6.82,0,0,1-.07,1.2H9.3A6.432,6.432,0,0,1,9.226.112v-.77a9.451,9.451,0,0,0-.056-1.05A6.062,6.062,0,0,0,10.584-.322,9.383,9.383,0,0,0,12.992.966a9.249,9.249,0,0,1,.756-1.4,7.98,7.98,0,0,1-2.114-.854A12.054,12.054,0,0,0,12.67-2.1c.238-.2.28-.238.392-.336Zm-.616-.014h.154A5.785,5.785,0,0,1,10.57-2a4.2,4.2,0,0,1-.98-.938ZM6.566-4.732h4.55v.686H6.566ZM1.932-9.758V-7H1.806a4.848,4.848,0,0,1-.98-.07v1.428A6.331,6.331,0,0,1,1.778-5.7h.154v3.136a7.912,7.912,0,0,1-1.554.406L.742-.546c.168-.084.5-.224.728-.308A33.148,33.148,0,0,0,4.746-2.226V-3.668c-.728.322-.966.42-1.358.574V-5.7a8.159,8.159,0,0,1,.826.042v-1.4A4.889,4.889,0,0,1,3.388-7V-9.758h.154a4.594,4.594,0,0,1,.882.07v-1.5a7.491,7.491,0,0,1-1.232.084H1.82a7.361,7.361,0,0,1-1.2-.084v1.5a5.238,5.238,0,0,1,1.008-.07Zm2.87.63a7.52,7.52,0,0,1-.042.98c.406-.028.588-.028,1.106-.028h6.048c.518,0,.756.014,1.078.028-.028-.294-.042-.658-.042-.966v-1.344a8.347,8.347,0,0,1,.056-.994c-.336.028-.784.056-1.12.056H5.866a8.639,8.639,0,0,1-1.12-.056A5.984,5.984,0,0,1,4.8-10.444ZM7.14-9.2H6.118v-1.05H7.14Zm2.254,0H8.358v-1.05H9.394Zm2.268,0H10.6v-1.05h1.064ZM4.522-6.3a9.182,9.182,0,0,1,1.33-.07h6.216a9.542,9.542,0,0,1,1.33.07V-7.714a9.389,9.389,0,0,1-1.344.07H5.866a7.386,7.386,0,0,1-1.344-.084ZM21.266-2.184C21.084-.854,20.2-.308,17.85-.014a4.421,4.421,0,0,1,.8,1.33A5.638,5.638,0,0,0,21.77-.126a3.374,3.374,0,0,0,.9-2.058h.98V-.056c0,.532.1.742.462.9a4.191,4.191,0,0,0,1.68.21C27.86,1.05,28.14.8,28.28-1.33a5.232,5.232,0,0,1-1.386-.49,4,4,0,0,1-.112,1.372c-.084.14-.28.182-.868.182-.77,0-.84-.028-.84-.322v-1.6h1.092c.574,0,.826.014,1.176.042a8.142,8.142,0,0,1-.056-1.106V-5.684a8.012,8.012,0,0,1,.056-1.106c-.364.028-.672.042-1.316.042H21.14c-.658,0-.966-.014-1.33-.042a7.633,7.633,0,0,1,.056,1.106v2.52a8.8,8.8,0,0,1-.042,1.022c.56-.028.77-.042,1.2-.042Zm.028-3.43h4.522v.56H21.294Zm0,1.624h4.522v.616H21.294Zm-4.62-4.186H16.38a7.071,7.071,0,0,1-1.12-.07v1.5a9,9,0,0,1,1.106-.07h.308V-2.8a8.253,8.253,0,0,1-1.582.476L15.4-.7c.2-.1.406-.182.644-.28,1.54-.63,2.422-.994,3.374-1.456l-.056-1.5c-.686.322-.882.406-1.232.56V-6.818a6.177,6.177,0,0,1,.966.056V-8.218a8.7,8.7,0,0,1-.966.042v-1.862a9.332,9.332,0,0,1,.084-1.568H16.59a11.318,11.318,0,0,1,.084,1.554ZM24.29-10.64v-.322a3.788,3.788,0,0,1,.07-.826H22.722a4.96,4.96,0,0,1,.07.84v.308h-1.68a11.553,11.553,0,0,1-1.5-.07v1.3a8.787,8.787,0,0,1,1.218-.056,6.886,6.886,0,0,1,.378.966h-.574a10.839,10.839,0,0,1-1.246-.056V-7.2a10.558,10.558,0,0,1,1.288-.042h5.936a10.968,10.968,0,0,1,1.47.07v-1.4a9.047,9.047,0,0,1-1.414.07h-.812a9.316,9.316,0,0,0,.448-.966,13.078,13.078,0,0,1,1.428.056v-1.3a14.634,14.634,0,0,1-1.512.07ZM22.68-8.5q-.168-.483-.378-.966h2.492a8.4,8.4,0,0,1-.42.966ZM36.526-8.9c.07-.364.168-.938.21-1.2a3.539,3.539,0,0,1,.1-.5l-1.5-.28a11.814,11.814,0,0,1-.6,3.234,11.474,11.474,0,0,0-.644-1.778l-.938.448A8,8,0,0,1,33.8-6.9l.812-.392a5.8,5.8,0,0,1-.742,1.4,8.852,8.852,0,0,1,1.26.784c-.1-.014-.126-.014-.224-.028v1.512a11.6,11.6,0,0,1,1.554-.084h1.26V-.742H35.49a12.662,12.662,0,0,1-1.652-.084V.756a11.388,11.388,0,0,1,1.652-.1h5.628a11.313,11.313,0,0,1,1.638.1V-.826a12.571,12.571,0,0,1-1.638.084h-1.9V-3.71H40.6a10.464,10.464,0,0,1,1.526.084V-5.138a10.526,10.526,0,0,1-1.512.07h-1.4v-2.45h1.652a12.853,12.853,0,0,1,1.526.084V-8.988a9.911,9.911,0,0,1-1.54.084H39.214v-1.4a9.3,9.3,0,0,1,.1-1.484H37.618a9.414,9.414,0,0,1,.1,1.484v1.4Zm1.19,1.386v2.45h-1.47c-.448,0-.756-.014-1.064-.042A10.43,10.43,0,0,0,36.19-7.518ZM30.87-5a17.522,17.522,0,0,0,.518-3.92l-1.134-.14a12.565,12.565,0,0,1-.5,3.64Zm2.338,6.16A13.588,13.588,0,0,1,33.124-.49v-9.856a11.344,11.344,0,0,1,.084-1.484h-1.68a9.3,9.3,0,0,1,.1,1.484V-.6a13.368,13.368,0,0,1-.1,1.764Z" transform="translate(-3822.5 -7621)" fill="#d80576"/>
    <path id="パス_54846" data-name="パス 54846" d="M11,0H52a11,11,0,0,1,0,22H11A11,11,0,0,1,11,0Z" transform="translate(-3761 -7637)" fill="#fff"/>
    <path id="パス_54850" data-name="パス 54850" d="M4.144-7.994A10.172,10.172,0,0,1,5.586-6.958,15.838,15.838,0,0,1,.924-5.236a3.852,3.852,0,0,1,.784,1.344A17.794,17.794,0,0,0,9.59-8.232,20.209,20.209,0,0,0,11.4-10.164l-.728-.77a9.525,9.525,0,0,1-1.246.07H6.972c.294-.336.364-.406.728-.84l-1.722-.308a5.979,5.979,0,0,1-1.246,1.456A11.741,11.741,0,0,1,.938-8.274a3.718,3.718,0,0,1,.924,1.162A13.655,13.655,0,0,0,5.8-9.646H9.044A12.669,12.669,0,0,1,6.776-7.714a17.491,17.491,0,0,0-1.54-1.05Zm6.972,3.528a10.4,10.4,0,0,1-2.3,2.058,18.926,18.926,0,0,0-1.6-1.19l-1.232.77A7.355,7.355,0,0,1,7.56-1.666,14.85,14.85,0,0,1,1.708-.112a3.892,3.892,0,0,1,.84,1.428A17.913,17.913,0,0,0,7.994-.308a11.783,11.783,0,0,0,4.858-3.976,7.837,7.837,0,0,1,.476-.63l-.826-.84a7.379,7.379,0,0,1-1.232.07H9.24c.308-.35.378-.434.742-.868L8.5-7.028C7.5-5.418,4.858-3.822,2.156-3.164A3.768,3.768,0,0,1,2.968-1.89,14.431,14.431,0,0,0,5.6-2.968a13.145,13.145,0,0,0,2.3-1.5Zm11.718-.322v1.54A17.977,17.977,0,0,1,20.118-1.61a6.757,6.757,0,0,1-1.148.462l.574,1.5c.21-.14.49-.336.6-.406a19.447,19.447,0,0,0,2.688-1.778V-.518c0,.252-.084.322-.378.322a6.283,6.283,0,0,1-1.33-.126A3.738,3.738,0,0,1,21.5,1.092c.406.028.8.042,1.008.042,1.3,0,1.75-.28,1.75-1.078V-1.89c0-.266,0-.378-.042-1.008a7.34,7.34,0,0,0,1.5,2.282A8.089,8.089,0,0,0,27.4.714a6.3,6.3,0,0,1,.924-1.386A7.243,7.243,0,0,1,26.1-2.17a11.726,11.726,0,0,0,1.6-1.708L26.544-4.69a7,7,0,0,1-1.288,1.54,5.533,5.533,0,0,1-.882-1.638h2.17A12.162,12.162,0,0,1,28-4.7V-6.118a10.892,10.892,0,0,1-1.456.084H24.276V-6.8H26a8.845,8.845,0,0,1,1.4.07V-8.078a9.065,9.065,0,0,1-1.4.07H24.276v-.728h2.142a9.661,9.661,0,0,1,1.386.07v-1.4a9.876,9.876,0,0,1-1.4.084h-.686a13.752,13.752,0,0,0,.812-1.4l-1.5-.406a7.15,7.15,0,0,1-.84,1.806H22.946a9.6,9.6,0,0,0-.924-1.806l-1.316.448a6.267,6.267,0,0,1,.8,1.358h-.2a9.065,9.065,0,0,1-1.33-.07v1.386a8.5,8.5,0,0,1,1.33-.07h1.526v.728H21.518a10.261,10.261,0,0,1-1.288-.056v1.316A10.2,10.2,0,0,1,21.546-6.8h1.288v.77H21.14a9.941,9.941,0,0,1-1.428-.07v.126a5.538,5.538,0,0,1-1.162-1.89h.308a7.13,7.13,0,0,1,.812.042V-9.268a4.16,4.16,0,0,1-.8.056h-.378v-1.12a8.094,8.094,0,0,1,.084-1.456H17a8.805,8.805,0,0,1,.084,1.456v1.12h-.756a5.269,5.269,0,0,1-.938-.056v1.456a5.579,5.579,0,0,1,.938-.056h.56a9.683,9.683,0,0,1-.532,1.736,8.477,8.477,0,0,1-1.33,2.38,7.329,7.329,0,0,1,.714,1.722,10.976,10.976,0,0,0,1.428-3.318c-.028.238-.056.9-.084,1.946V-.5A14.113,14.113,0,0,1,17,1.2h1.582A13.64,13.64,0,0,1,18.494-.5V-4.06c0-.406-.014-1.092-.042-1.946a7.2,7.2,0,0,0,.714,1.554,5.708,5.708,0,0,1,.546-1.232v.966A8.689,8.689,0,0,1,21-4.788ZM19.7-3.906a9.043,9.043,0,0,1,1.344,1.6l1.036-.784a8.354,8.354,0,0,0-1.4-1.582Zm16.828-5c.07-.364.168-.938.21-1.2a3.539,3.539,0,0,1,.1-.5l-1.5-.28a11.814,11.814,0,0,1-.6,3.234,11.474,11.474,0,0,0-.644-1.778l-.938.448A8,8,0,0,1,33.8-6.9l.812-.392a5.8,5.8,0,0,1-.742,1.4,8.852,8.852,0,0,1,1.26.784c-.1-.014-.126-.014-.224-.028v1.512a11.6,11.6,0,0,1,1.554-.084h1.26V-.742H35.49a12.662,12.662,0,0,1-1.652-.084V.756a11.388,11.388,0,0,1,1.652-.1h5.628a11.313,11.313,0,0,1,1.638.1V-.826a12.571,12.571,0,0,1-1.638.084h-1.9V-3.71H40.6a10.464,10.464,0,0,1,1.526.084V-5.138a10.526,10.526,0,0,1-1.512.07h-1.4v-2.45h1.652a12.853,12.853,0,0,1,1.526.084V-8.988a9.911,9.911,0,0,1-1.54.084H39.214v-1.4a9.3,9.3,0,0,1,.1-1.484H37.618a9.414,9.414,0,0,1,.1,1.484v1.4Zm1.19,1.386v2.45h-1.47c-.448,0-.756-.014-1.064-.042A10.43,10.43,0,0,0,36.19-7.518ZM30.87-5a17.522,17.522,0,0,0,.518-3.92l-1.134-.14a12.565,12.565,0,0,1-.5,3.64Zm2.338,6.16A13.588,13.588,0,0,1,33.124-.49v-9.856a11.344,11.344,0,0,1,.084-1.484h-1.68a9.3,9.3,0,0,1,.1,1.484V-.6a13.368,13.368,0,0,1-.1,1.764Z" transform="translate(-3751 -7621)" fill="#d80576"/>
    <g transform="matrix(1, 0, 0, 1, -3904, -8085)" filter="url(#パス_54837)">
      <path id="パス_54837-2" data-name="パス 54837" d="M108,0A108,108,0,1,1,0,108,108,108,0,0,1,108,0Z" transform="translate(318 324)" fill="url(#linear-gradient)"/>
    </g>
    <path id="パス_54842" data-name="パス 54842" d="M-60.172-19.572A62.044,62.044,0,0,0-47.1-17.808l.476-3.444H-47.4A38.384,38.384,0,0,1-59.08-22.876Zm-2.464,9.352a39.15,39.15,0,0,1,11.088-1.932c2.912,0,4.4,1.064,4.4,3.164,0,1.932-1.2,3.7-3.416,4.928A19.544,19.544,0,0,1-59-1.932a8,8,0,0,1,1.456,3.5C-52.976.84-51.016.252-48.72-1.064-45.332-3-43.4-5.908-43.4-9.1a5.765,5.765,0,0,0-2.716-5.124,10.1,10.1,0,0,0-5.292-1.148,48.851,48.851,0,0,0-8.792.952,19.059,19.059,0,0,1-3.248.476Zm24.724-2.94a10.214,10.214,0,0,1,2.24-.784A39.9,39.9,0,0,1-24.64-15.932a7.3,7.3,0,0,1,3.612.756,4.1,4.1,0,0,1,2.128,3.64,6.174,6.174,0,0,1-.308,1.988A7.757,7.757,0,0,1-23.436-5.4c-2.38,1.036-4.732,1.456-9.212,1.652A12.136,12.136,0,0,1-31.22-.14C-26.1-.7-23.912-1.2-21.364-2.464c3.976-1.932,6.216-5.152,6.216-8.96,0-4.76-3.612-7.868-9.156-7.868-3.248,0-4.76.224-11.144,1.6a20.015,20.015,0,0,1-3.276.56ZM3.22-23.24a13.88,13.88,0,0,1-2.044,2.324,62.758,62.758,0,0,1-6.468,5.46A17.17,17.17,0,0,0-7.756-13.44a3.271,3.271,0,0,0-.924,2.268c0,1.288.5,2.044,2.352,3.472A88.808,88.808,0,0,1,.9-1.736,27.047,27.047,0,0,1,4.536,2.1L7.42-.812a6.982,6.982,0,0,1-.812-.7A94.116,94.116,0,0,0-2.212-8.82c-2.464-1.848-2.52-1.9-2.52-2.324,0-.308.2-.532,1.064-1.176C-.392-14.812,1.568-16.38,3-17.7a42.713,42.713,0,0,1,3.444-3.08Zm15.092.868a13.926,13.926,0,0,1,.112,1.9c0,.392,0,.98-.028,1.82-.168,7.028-.224,9.828-.224,11.284,0,3.752.812,5.908,2.744,7.2a9.129,9.129,0,0,0,4.9,1.232,10.6,10.6,0,0,0,8.4-3.556c1.372-1.54,2.212-3.36,3.332-7.14a12.092,12.092,0,0,1-3.388-2.156,18.771,18.771,0,0,1-1.288,4.7A7.2,7.2,0,0,1,26.1-2.3a4.434,4.434,0,0,1-3.752-1.456c-.56-.84-.728-1.848-.728-4.508,0-1.988.168-7.672.28-10.276a25.6,25.6,0,0,1,.336-3.78ZM56.42-23.24a13.88,13.88,0,0,1-2.044,2.324,62.757,62.757,0,0,1-6.468,5.46,17.17,17.17,0,0,0-2.464,2.016,3.271,3.271,0,0,0-.924,2.268c0,1.288.5,2.044,2.352,3.472A88.807,88.807,0,0,1,54.1-1.736,27.047,27.047,0,0,1,57.736,2.1L60.62-.812a6.982,6.982,0,0,1-.812-.7,94.116,94.116,0,0,0-8.82-7.308c-2.464-1.848-2.52-1.9-2.52-2.324,0-.308.2-.532,1.064-1.176,3.276-2.492,5.236-4.06,6.664-5.376a42.712,42.712,0,0,1,3.444-3.08Z" transform="translate(-3479 -7664)" fill="#fff"/>
    <path id="パス_54844" data-name="パス 54844" d="M-41.8-7.1v2.262h-2.431A9.28,9.28,0,0,1-45.591-4.9v1.469A11.421,11.421,0,0,1-44.122-3.5H-41.8V-.806h-3.3a14.928,14.928,0,0,1-1.716-.078V.65A13.864,13.864,0,0,1-45.045.559h8.281A13.456,13.456,0,0,1-35.087.65V-.884A16.778,16.778,0,0,1-36.8-.806h-3.471V-3.5h2.548a9.836,9.836,0,0,1,1.365.065V-4.9a13.975,13.975,0,0,1-1.4.065h-2.509V-7.1h3.042a12.352,12.352,0,0,1,1.573.065V-8.528a13.323,13.323,0,0,1-1.573.078h-7.514a10.382,10.382,0,0,1-1.573-.078v1.495A10.684,10.684,0,0,1-44.733-7.1Zm-1.6-2.925a15.375,15.375,0,0,1,3.445,1.508l.975-1.17a23.1,23.1,0,0,0-3.367-1.378ZM-30.368.312c-.013-.169-.013-.273-.013-.351a10.672,10.672,0,0,1,1.157-3.939l-1.04-.468A13.258,13.258,0,0,0-30.94-2.73c.013-.325.026-.429.026-.715a21.706,21.706,0,0,1,.195-2.873A17.923,17.923,0,0,1-29.9-10.2l-1.716-.182a8.506,8.506,0,0,1-.195,1.209,24.957,24.957,0,0,0-.533,5.083,22.676,22.676,0,0,0,.338,3.887c.039.3.052.377.065.611Zm1.794-7.787a15.432,15.432,0,0,0,2.34.143,23.286,23.286,0,0,0,2.782-.156c.624-.078.819-.1.923-.117l-.078-1.573a14.336,14.336,0,0,1-3.536.351,9.373,9.373,0,0,1-2.4-.208Zm.9,2.145a4.247,4.247,0,0,0-1.2,2.678,2.178,2.178,0,0,0,.39,1.274c.572.767,1.612,1.131,3.224,1.131a16.031,16.031,0,0,0,2.691-.247,4.345,4.345,0,0,1,.533-.078l-.13-1.651a9.136,9.136,0,0,1-3.094.494c-1.352,0-2.067-.39-2.067-1.131A2.941,2.941,0,0,1-26.4-4.732ZM-16.744-8.1a9.843,9.843,0,0,1,.455,1.443l.4-.182v1.144a6.962,6.962,0,0,1,1.313-.078h5.538a9.1,9.1,0,0,1,1.287.078V-6.968A8.229,8.229,0,0,1-9.035-6.9H-11.31v-.52H-9.5a8.094,8.094,0,0,1,1.1.052V-8.528a7.44,7.44,0,0,1-1.079.052H-11.31v-.481H-9.3a9.013,9.013,0,0,1,1.326.065V-10.14a7.016,7.016,0,0,1-1.352.078H-11.31a3.6,3.6,0,0,1,.078-.884h-1.495a3.6,3.6,0,0,1,.078.884h-1.612a7.1,7.1,0,0,1-1.352-.078v1.248a7.733,7.733,0,0,1,1.287-.065h1.677v.481h-1.469a8.341,8.341,0,0,1-1.1-.052v1.157a8.634,8.634,0,0,1,1.092-.052h1.482v.52h-1.924c-.507,0-.767-.013-1.092-.039l.351-.156a8.618,8.618,0,0,0-.663-1.69l-.767.3V-9.568a8.742,8.742,0,0,1,.078-1.391h-1.521A8.915,8.915,0,0,1-18.1-9.568v9a12.1,12.1,0,0,1-.091,1.651h1.521a14.047,14.047,0,0,1-.078-1.612Zm2.821,7.124h3.978v.442c0,.26-.078.312-.494.312a9.167,9.167,0,0,1-1.274-.117,5.017,5.017,0,0,1,.3,1.248c.637.039.884.052,1.17.052C-8.931.962-8.58.7-8.58-.286V-3.952a11.234,11.234,0,0,1,.052-1.339,8.446,8.446,0,0,1-1.17.052h-4.576c-.455,0-.728-.013-1.04-.039.026.364.039.611.039,1.1V-.429a10.8,10.8,0,0,1-.065,1.482h1.5a11.151,11.151,0,0,1-.078-1.482Zm0-1.066v-.533h3.978v.533Zm0-1.586V-4.16h3.978v.533Zm-4.862-.936a15.99,15.99,0,0,0,.416-3.627L-19.4-8.424a11.363,11.363,0,0,1-.429,3.432ZM1.4-5.9C1.04-5.59.78-5.382.3-5.031A9.083,9.083,0,0,1-1.417-4,3.47,3.47,0,0,1-.793-2.8c.3-.169.4-.234.6-.364V-.364A10.067,10.067,0,0,1-.273,1.027H1.1V.442H4.056v.6h1.4a8.724,8.724,0,0,1-.078-1.4V-3.653a11.487,11.487,0,0,1,.052-1.352,9.988,9.988,0,0,1-1.287.052H2.119c.364-.338.6-.559.988-.949H4.862a6.8,6.8,0,0,1,1.183.065V-7.15A8.987,8.987,0,0,1,4.836-7.1H4.173A21.034,21.034,0,0,0,5.694-9.23a5.543,5.543,0,0,1,.416-.611l-1.287-.676A10.259,10.259,0,0,1,3.861-8.71v-.9a4.844,4.844,0,0,1-.845.052H2.288v-.429a4.785,4.785,0,0,1,.078-.988H.871A5.091,5.091,0,0,1,.949-10v.442H.273A6.534,6.534,0,0,1-.832-9.62v1.3A8.725,8.725,0,0,1,.273-8.372H.949V-7.1H-.026A6.573,6.573,0,0,1-1.17-7.163V-5.85A8.284,8.284,0,0,1-.13-5.9Zm.884-1.2V-8.372h.78c.169,0,.3,0,.546.013a15.779,15.779,0,0,1-1,1.261ZM1.1-3.835H4.069v.988H1.1Zm0,2.093H4.069V-.7H1.1ZM-5.109-5.434h-.156a3.318,3.318,0,0,1-.676-.052l.13,1.326a5.554,5.554,0,0,1,1.235-.091c.312-.013.546-.026.689-.039V-.325a7.928,7.928,0,0,1-.078,1.378h1.417A7.928,7.928,0,0,1-2.626-.325V-4.368c.286-.026.325-.026.78-.078l.065.26.975-.338a14.486,14.486,0,0,0-.858-2.327l-.9.312c.182.442.221.533.377.975q-.722.059-1.287.078c.6-.793,1.521-2.158,2.08-3.068a4.151,4.151,0,0,1,.351-.533l-1.2-.637A13.528,13.528,0,0,1-3.458-7.5c-.221-.26-.3-.351-.546-.637a21.019,21.019,0,0,0,1.157-2.028c.117-.221.182-.338.26-.468l-1.261-.455A8,8,0,0,1-4.8-9.035l-.4-.429-.7,1.118A14.48,14.48,0,0,1-4.173-6.409c-.286.416-.286.416-.689.962Zm-.286,1.781A11.276,11.276,0,0,1-5.954-.13l1.131.546a15.942,15.942,0,0,0,.572-3.809Zm3.029.195A21.056,21.056,0,0,1-2-.3l1.014-.26a21.153,21.153,0,0,0-.429-3.094ZM9.243-9.035H8.788A6.3,6.3,0,0,1,8.1-9.074a10.71,10.71,0,0,1,.052,1.326v6.76A13.334,13.334,0,0,1,8.086.689H9.5V-.455h1.846v.78H12.74a12.608,12.608,0,0,1-.052-1.287V-5.954a3.33,3.33,0,0,1,.559.65,10.049,10.049,0,0,0,1.664-2.444h3.016A33.411,33.411,0,0,1,17.446-.91c-.117.377-.312.481-.871.481a10.728,10.728,0,0,1-1.664-.182A4.43,4.43,0,0,1,15.275.871c.65.039.975.052,1.287.052,2,0,2.34-.494,2.587-3.783.052-.663.169-3.666.195-5.278A7.55,7.55,0,0,1,19.4-9.165a7.621,7.621,0,0,1-1.1.052H15.522c.117-.3.325-.9.377-1.092a3.637,3.637,0,0,1,.182-.507l-1.495-.247a9.77,9.77,0,0,1-1.9,4.095V-7.956c0-.663.013-.7.013-.728a3.7,3.7,0,0,1,.026-.39c-.1.013-.481.026-1.118.039h-.715a14.35,14.35,0,0,0,.663-1.69l-1.495-.208a9.388,9.388,0,0,1-.559,1.9ZM9.49-7.774h1.859v2.3H9.49Zm0,3.562h1.859V-1.7H9.49ZM16.926-3a16.924,16.924,0,0,0-1.807-3.224l-1.183.637a12.633,12.633,0,0,1,1.677,3.3Zm13.559-4.16V-8.918h1.352c.637,0,1.157.026,1.534.065V-10.3a11.969,11.969,0,0,1-1.586.078H26.351a11.221,11.221,0,0,1-1.534-.078v1.443c.416-.039.9-.065,1.534-.065h.637v1.755H25.766a10.212,10.212,0,0,1-1.2-.052,9.172,9.172,0,0,1,.065,1.248V-.4a12.655,12.655,0,0,1-.078,1.43h1.456V.312h5.512v.715h1.482A15.3,15.3,0,0,1,32.929-.6v-5.4a10.557,10.557,0,0,1,.052-1.222,9.6,9.6,0,0,1-1.17.052Zm-1.248,0h-1V-8.918h1ZM26.988-5.915V-.949h-1.04V-5.915Zm1.248,0h1V-.949h-1Zm2.249,0h1.092V-.949H30.485Zm-8.112,5.5A13.647,13.647,0,0,1,22.3,1.105H23.79A11.233,11.233,0,0,1,23.725-.4V-7.657A18.514,18.514,0,0,0,24.57-9.8c.1-.3.143-.416.247-.715l-1.4-.572A7.6,7.6,0,0,1,22.932-9.3a9.848,9.848,0,0,1-1.95,3.38,8.064,8.064,0,0,1,.559,1.547,8.408,8.408,0,0,0,.871-1.339c-.039.65-.039.884-.039,1.417Zm19.734-8.19c-.065.325-.1.494-.195.858h-.195c-.546,0-.754,0-1.053-.026A10.168,10.168,0,0,1,40.7-6.708v4.264c0,.4-.013.715-.039,1.027.494-.039.7-.039,1.092-.039H45.1c.39,0,.624.013,1.1.039-.026-.39-.039-.624-.039-1.157V-6.513a11.41,11.41,0,0,1,.052-1.274,10.883,10.883,0,0,1-1.1.039H43.251c.1-.481.1-.481.182-.858H45.8a11.585,11.585,0,0,1,1.2.052V-9.919a7.866,7.866,0,0,1-1.352.078H43.68c.052-.338.052-.338.169-1l-1.43-.078c-.039.507-.052.624-.1,1.079H40a9.156,9.156,0,0,1-1.378-.065v1.352a11,11,0,0,1,1.222-.052Zm-.091,1.963H44.85v.676H42.016Zm0,1.651H44.85V-4.3H42.016Zm0,1.664H44.85v.767H42.016ZM36.127-.455a11.1,11.1,0,0,1-.078,1.521h1.5c-.039-.494-.065-.923-.065-1.508V-7.735a17.047,17.047,0,0,0,1.092-2.925L37.1-11.011A7.526,7.526,0,0,1,36.6-9.165a9.357,9.357,0,0,1-1.924,3.237,8.23,8.23,0,0,1,.585,1.547,10.025,10.025,0,0,0,.91-1.352c-.026.637-.039.949-.039,1.443Zm3.614,1.547V.468h5.72A11.474,11.474,0,0,1,46.9.546V-.845a10.532,10.532,0,0,1-1.43.065H39.741V-6.227a11.275,11.275,0,0,1,.065-1.482H38.35a10.8,10.8,0,0,1,.078,1.469V-.52a12.921,12.921,0,0,1-.065,1.612Z" transform="translate(-3483 -7709)" fill="#fff"/>
    <path id="パス_54839" data-name="パス 54839" d="M11,0H53a11,11,0,0,1,0,22H11A11,11,0,0,1,11,0Z" transform="translate(-3510 -7607)" fill="#fff"/>
    <path id="パス_54840" data-name="パス 54840" d="M-12.558-7.518V-9.366a19.232,19.232,0,0,0,3.836-.952c.252-.084.308-.112.462-.154L-9.408-11.83a11.471,11.471,0,0,1-4.718,1.19,16.275,16.275,0,0,1,.084,2.184c0,5.306-.35,7.14-1.68,8.764a6.46,6.46,0,0,1,1.386.924A8.53,8.53,0,0,0-13.09-1.582,18.269,18.269,0,0,0-12.572-6.1h1.5V-.462a9.959,9.959,0,0,1-.084,1.652H-9.52A9.659,9.659,0,0,1-9.6-.462V-6.1h.35a7.977,7.977,0,0,1,1.12.056V-7.6a6.924,6.924,0,0,1-1.274.084ZM-18.382-5.88v.994H-19.8a7.7,7.7,0,0,1-1.3-.07v1.484a7.836,7.836,0,0,1,1.274-.07h.91a7.207,7.207,0,0,1-2.45,2.408A5.248,5.248,0,0,1-20.65.294,7,7,0,0,0-18.34-2.3c-.028.322-.042.686-.042.952v1.4a8.16,8.16,0,0,1-.07,1.106h1.61A6.707,6.707,0,0,1-16.926,0V-1.4c0-.07-.014-.5-.014-.546-.014-.364-.014-.364-.028-.546A7.1,7.1,0,0,0-15.6-.98a8.474,8.474,0,0,1,.672-1.33,6.14,6.14,0,0,1-1.442-1.232h.518a10.3,10.3,0,0,1,1.274.056v-1.47a7.732,7.732,0,0,1-1.274.07h-1.078V-5.88h1.134a10.7,10.7,0,0,1,1.288.056v-1.5a7.713,7.713,0,0,1-1.288.07h-.28a5.033,5.033,0,0,0,.308-.616,2.722,2.722,0,0,1,.238-.518c.126-.308.126-.308.21-.49l-1.19-.336h.574a11.063,11.063,0,0,1,1.316.056v-1.5a7.7,7.7,0,0,1-1.3.07h-.952v-.21a5.132,5.132,0,0,1,.07-1.022h-1.694a5.394,5.394,0,0,1,.07,1.022v.21h-1.064a8.06,8.06,0,0,1-1.344-.07v1.5a10.914,10.914,0,0,1,1.316-.056h.658L-20.09-8.9a5.846,5.846,0,0,1,.616,1.652h-.336a7.6,7.6,0,0,1-1.3-.07v1.5a10.3,10.3,0,0,1,1.274-.056Zm1.68-3.332a7.862,7.862,0,0,1-.784,1.96H-19.4l1.246-.336a6.2,6.2,0,0,0-.6-1.624ZM3.92-9.226c.63,0,1.2.028,1.638.07v-1.526A12.461,12.461,0,0,1,3.85-10.6H.616a4.531,4.531,0,0,0,.1-.546,3.643,3.643,0,0,1,.112-.588L-.84-11.8a1.16,1.16,0,0,1,.028.28,4.236,4.236,0,0,1-.1.924H-3.85a11.574,11.574,0,0,1-1.736-.084v1.526a13.91,13.91,0,0,1,1.666-.07h2.394c-.77.9-2.24,1.414-4.284,1.512a3.453,3.453,0,0,1,.63,1.2c-.518-.028-.756-.042-1.022-.07v1.526A13.164,13.164,0,0,1-4.62-5.138H2.94v4.48c0,.28-.1.336-.63.336A11,11,0,0,1,.742-.434a3.938,3.938,0,0,1,.42,1.4c.35.028.9.056,1.2.056,1.68,0,2.086-.294,2.086-1.54v-4.62h.2a13.083,13.083,0,0,1,1.568.084V-6.58c-.308.028-.532.042-.966.056A4.225,4.225,0,0,1,5.81-7.77c-2.3-.07-3.7-.518-4.578-1.456ZM-4.536-6.51C-2.212-6.888-.952-7.518-.1-8.736a4.736,4.736,0,0,0,2.03,1.6A9.166,9.166,0,0,0,4.4-6.51ZM1.428-3.332A8.69,8.69,0,0,1,1.484-4.48a7.985,7.985,0,0,1-1.218.042H-3.29c-.5,0-.8-.014-1.2-.042.028.322.042.672.042,1.148v2.058a10.227,10.227,0,0,1-.056,1.3h1.526v-.7H.294c.42,0,.756.014,1.19.042a7.944,7.944,0,0,1-.056-1.134Zm-4.41.112H-.028v1.246H-2.982ZM14.826-8.9c.07-.364.168-.938.21-1.2a3.539,3.539,0,0,1,.1-.5l-1.5-.28a11.814,11.814,0,0,1-.6,3.234,11.474,11.474,0,0,0-.644-1.778l-.938.448A8,8,0,0,1,12.1-6.9l.812-.392a5.8,5.8,0,0,1-.742,1.4,8.851,8.851,0,0,1,1.26.784c-.1-.014-.126-.014-.224-.028v1.512a11.6,11.6,0,0,1,1.554-.084h1.26V-.742H13.79a12.662,12.662,0,0,1-1.652-.084V.756a11.388,11.388,0,0,1,1.652-.1h5.628a11.313,11.313,0,0,1,1.638.1V-.826a12.571,12.571,0,0,1-1.638.084h-1.9V-3.71H18.9a10.464,10.464,0,0,1,1.526.084V-5.138a10.526,10.526,0,0,1-1.512.07h-1.4v-2.45h1.652a12.853,12.853,0,0,1,1.526.084V-8.988a9.911,9.911,0,0,1-1.54.084H17.514v-1.4a9.3,9.3,0,0,1,.1-1.484H15.918a9.414,9.414,0,0,1,.1,1.484v1.4Zm1.19,1.386v2.45h-1.47c-.448,0-.756-.014-1.064-.042A10.43,10.43,0,0,0,14.49-7.518ZM9.17-5a17.522,17.522,0,0,0,.518-3.92l-1.134-.14a12.565,12.565,0,0,1-.5,3.64Zm2.338,6.16A13.588,13.588,0,0,1,11.424-.49v-9.856a11.344,11.344,0,0,1,.084-1.484H9.828a9.3,9.3,0,0,1,.1,1.484V-.6a13.368,13.368,0,0,1-.1,1.764Z" transform="translate(-3478 -7591)" fill="#d80576"/>
    <g id="グループ_252" data-name="グループ 252" transform="translate(-4046 -9601)">
      <rect id="長方形_215" data-name="長方形 215" width="90" height="22" rx="11" transform="translate(487 1964)" fill="#fff"/>
      <text id="デザイン性" transform="translate(532 1980)" fill="#d80576" font-size="14" font-family="HiraginoSans-W6, Hiragino Sans" letter-spacing="0.05em"><tspan x="-36.12" y="0">デザイン性</tspan></text>
    </g>
    <g id="グループ_253" data-name="グループ 253" transform="translate(-4044 -9601)">
      <rect id="長方形_216" data-name="長方形 216" width="63" height="22" rx="11" transform="translate(585 1964)" fill="#fff"/>
      <text id="創造性" transform="translate(616.5 1980)" fill="#d80576" font-size="14" font-family="HiraginoSans-W6, Hiragino Sans" letter-spacing="0.05em"><tspan x="-21.7" y="0">創造性</tspan></text>
    </g>
    <path id="パス_54853" data-name="パス 54853" d="M112,1A111.825,111.825,0,0,0,89.629,3.255a110.387,110.387,0,0,0-39.689,16.7A111.327,111.327,0,0,0,9.723,68.794,110.435,110.435,0,0,0,3.255,89.629a112.092,112.092,0,0,0,0,44.743,110.387,110.387,0,0,0,16.7,39.689,111.327,111.327,0,0,0,48.838,40.217,110.435,110.435,0,0,0,20.834,6.467,112.092,112.092,0,0,0,44.743,0,110.387,110.387,0,0,0,39.689-16.7,111.327,111.327,0,0,0,40.217-48.838,110.434,110.434,0,0,0,6.467-20.834,112.092,112.092,0,0,0,0-44.743,110.387,110.387,0,0,0-16.7-39.689A111.327,111.327,0,0,0,155.206,9.723a110.434,110.434,0,0,0-20.834-6.467A111.825,111.825,0,0,0,112,1m0-1A112,112,0,1,1,0,112,112,112,0,0,1,112,0Z" transform="translate(-3733 -8059)" fill="#d80576"/>
    <path id="パス_54843" data-name="パス 54843" d="M112,1A111.825,111.825,0,0,0,89.629,3.255a110.387,110.387,0,0,0-39.689,16.7A111.327,111.327,0,0,0,9.723,68.794,110.435,110.435,0,0,0,3.255,89.629a112.092,112.092,0,0,0,0,44.743,110.387,110.387,0,0,0,16.7,39.689,111.327,111.327,0,0,0,48.838,40.217,110.435,110.435,0,0,0,20.834,6.467,112.092,112.092,0,0,0,44.743,0,110.387,110.387,0,0,0,39.689-16.7,111.327,111.327,0,0,0,40.217-48.838,110.434,110.434,0,0,0,6.467-20.834,112.092,112.092,0,0,0,0-44.743,110.387,110.387,0,0,0-16.7-39.689A111.327,111.327,0,0,0,155.206,9.723a110.434,110.434,0,0,0-20.834-6.467A111.825,111.825,0,0,0,112,1m0-1A112,112,0,1,1,0,112,112,112,0,0,1,112,0Z" transform="translate(-3878 -7765)" fill="#d80576"/>
    <path id="パス_54838" data-name="パス 54838" d="M112,1A111.825,111.825,0,0,0,89.629,3.255a110.387,110.387,0,0,0-39.689,16.7A111.327,111.327,0,0,0,9.723,68.794,110.435,110.435,0,0,0,3.255,89.629a112.092,112.092,0,0,0,0,44.743,110.387,110.387,0,0,0,16.7,39.689,111.327,111.327,0,0,0,48.838,40.217,110.435,110.435,0,0,0,20.834,6.467,112.092,112.092,0,0,0,44.743,0,110.387,110.387,0,0,0,39.689-16.7,111.327,111.327,0,0,0,40.217-48.838,110.434,110.434,0,0,0,6.467-20.834,112.092,112.092,0,0,0,0-44.743,110.387,110.387,0,0,0-16.7-39.689A111.327,111.327,0,0,0,155.206,9.723a110.434,110.434,0,0,0-20.834-6.467A111.825,111.825,0,0,0,112,1m0-1A112,112,0,1,1,0,112,112,112,0,0,1,112,0Z" transform="translate(-3590 -7765)" fill="#d80576"/>
  </g>
</svg>
